solid LED jig
facet normal -1.0 2.1740477117059811e-16 1.5469314564647058e-16
  outer loop
    vertex 0.0 6.9000000000000075 2.0000000000000027
    vertex -1.0741636637870841e-17 1.25 6.000886150282096e-17
    vertex -1.0741636637870841e-17 1.2499999999999996 2.000000000000004
  endloop
endfacet
facet normal -1.0 2.1740477117059811e-16 1.5469314564647058e-16
  outer loop
    vertex -1.0741636637870841e-17 1.25 6.000886150282096e-17
    vertex 0.0 6.9000000000000075 2.0000000000000027
    vertex 2.8199664825478975e-15 14.600000000000012 8.02171594243067e-16
  endloop
endfacet
facet normal -1.0 2.1740477117059811e-16 1.5469314564647058e-16
  outer loop
    vertex 2.8199664825478975e-15 14.600000000000012 8.02171594243067e-16
    vertex 0.0 6.9000000000000075 2.0000000000000027
    vertex 2.8199664825478975e-15 6.900000000000013 4.540000000000007
  endloop
endfacet
facet normal -1.0 2.1740477117059811e-16 1.5469314564647058e-16
  outer loop
    vertex 2.8199664825478975e-15 14.600000000000012 8.02171594243067e-16
    vertex 2.8199664825478975e-15 6.900000000000013 4.540000000000007
    vertex 3.154871189409682e-15 14.600000000000026 4.539999999999995
  endloop
endfacet
facet normal 3.2045073665317076e-16 -1.532590479645595e-16 1.0
  outer loop
    vertex 2.749999999999998 1.25 0.7500000000000024
    vertex 1.6499999999999997 6.9000000000000075 0.7500000000000037
    vertex 1.6499999999999997 1.25 0.7500000000000024
  endloop
endfacet
facet normal 3.2045073665317076e-16 -1.532590479645595e-16 1.0
  outer loop
    vertex 1.6499999999999997 6.9000000000000075 0.7500000000000037
    vertex 2.749999999999998 1.25 0.7500000000000024
    vertex 2.749999999999998 6.9000000000000075 0.750000000000003
  endloop
endfacet
facet normal 3.2984020621419753e-29 -1.0 -1.058773617215827e-15
  outer loop
    vertex 4.1899999999999595 8.100000000000001 4.54000000000002
    vertex 2.7500000000000004 8.100000000000014 3.2899999999999965
    vertex 4.190000000000002 8.100000000000014 3.2899999999999965
  endloop
endfacet
facet normal 3.2984020621419753e-29 -1.0 -1.058773617215827e-15
  outer loop
    vertex 2.7500000000000004 8.100000000000014 3.2899999999999965
    vertex 4.1899999999999595 8.100000000000001 4.54000000000002
    vertex 2.7499999999999605 8.100000000000001 4.540000000000012
  endloop
endfacet
facet normal 3.2984020621419753e-29 -1.0 -1.058773617215827e-15
  outer loop
    vertex 5.289999999999998 8.10000000000001 1.948444954112289e-14
    vertex 1.6500000000000026 8.100000000000014 3.2899999999999965
    vertex 1.6500000000000026 8.10000000000001 1.1729541714116173e-14
  endloop
endfacet
facet normal 3.2984020621419753e-29 -1.0 -1.058773617215827e-15
  outer loop
    vertex 1.6500000000000026 8.100000000000014 3.2899999999999965
    vertex 5.289999999999998 8.10000000000001 1.948444954112289e-14
    vertex 5.289999999999998 8.100000000000014 3.2899999999999965
  endloop
endfacet
facet normal 3.2984020621419753e-29 -1.0 -1.058773617215827e-15
  outer loop
    vertex 1.6500000000000026 8.100000000000014 3.2899999999999965
    vertex 5.289999999999998 8.100000000000014 3.2899999999999965
    vertex 4.190000000000002 8.100000000000014 3.2899999999999965
  endloop
endfacet
facet normal 3.2984020621419753e-29 -1.0 -1.058773617215827e-15
  outer loop
    vertex 1.6500000000000026 8.100000000000014 3.2899999999999965
    vertex 4.190000000000002 8.100000000000014 3.2899999999999965
    vertex 2.7500000000000004 8.100000000000014 3.2899999999999965
  endloop
endfacet
facet normal 1.0 -3.912492912985453e-15 2.9618798227905994e-15
  outer loop
    vertex 4.190000000000002 8.100000000000014 3.2899999999999965
    vertex 4.1899999999999995 11.900000000000015 4.539999999999997
    vertex 4.1899999999999595 8.100000000000001 4.54000000000002
  endloop
endfacet
facet normal 1.0 -3.912492912985453e-15 2.9618798227905994e-15
  outer loop
    vertex 4.1899999999999995 11.900000000000015 4.539999999999997
    vertex 4.190000000000002 8.100000000000014 3.2899999999999965
    vertex 4.190000000000002 11.90000000000002 -2.3702906986233178e-15
  endloop
endfacet
facet normal -2.1682409754916317e-30 1.0 1.1963494168385022e-15
  outer loop
    vertex 1.6499999999999997 6.9000000000000075 0.7500000000000037
    vertex 5.289999999999998 6.90000000000001 1.948444954112289e-14
    vertex 1.6500000000000026 6.90000000000001 6.089608749020373e-15
  endloop
endfacet
facet normal -2.1682409754916317e-30 1.0 1.1963494168385022e-15
  outer loop
    vertex 5.289999999999998 6.90000000000001 1.948444954112289e-14
    vertex 1.6499999999999997 6.9000000000000075 0.7500000000000037
    vertex 2.749999999999998 6.9000000000000075 0.750000000000003
  endloop
endfacet
facet normal -2.1682409754916317e-30 1.0 1.1963494168385022e-15
  outer loop
    vertex 2.749999999999998 6.9000000000000075 2.0000000000000013
    vertex 4.1899999999999995 6.9000000000000075 0.750000000000003
    vertex 2.749999999999998 6.9000000000000075 0.750000000000003
  endloop
endfacet
facet normal -2.1682409754916317e-30 1.0 1.1963494168385022e-15
  outer loop
    vertex 4.1899999999999995 6.9000000000000075 0.750000000000003
    vertex 2.749999999999998 6.9000000000000075 2.0000000000000013
    vertex 4.1899999999999995 6.9000000000000075 2.000000000000004
  endloop
endfacet
facet normal -2.1682409754916317e-30 1.0 1.1963494168385022e-15
  outer loop
    vertex 2.749999999999998 6.9000000000000075 0.750000000000003
    vertex 5.289999999999998 6.9000000000000075 0.750000000000003
    vertex 5.289999999999998 6.90000000000001 1.948444954112289e-14
  endloop
endfacet
facet normal -2.1682409754916317e-30 1.0 1.1963494168385022e-15
  outer loop
    vertex 5.289999999999998 6.9000000000000075 0.750000000000003
    vertex 2.749999999999998 6.9000000000000075 0.750000000000003
    vertex 4.1899999999999995 6.9000000000000075 0.750000000000003
  endloop
endfacet
facet normal 1.0 -0.0 -0.0
  outer loop
    vertex 6.7299999999999995 6.90000000000001 1.1024550093479196e-14
    vertex 6.7299999999999995 6.900000000000013 4.540000000000003
    vertex 6.7299999999999995 6.9000000000000075 0.750000000000003
  endloop
endfacet
facet normal 1.0 -0.0 -0.0
  outer loop
    vertex 6.7299999999999995 6.900000000000013 4.540000000000003
    vertex 6.7299999999999995 6.90000000000001 1.1024550093479196e-14
    vertex 6.7299999999999995 8.10000000000001 1.1024550093479196e-14
  endloop
endfacet
facet normal 1.0 -0.0 -0.0
  outer loop
    vertex 6.7299999999999995 6.900000000000013 4.540000000000003
    vertex 6.7299999999999995 8.10000000000001 1.1024550093479196e-14
    vertex 6.7299999999999995 8.100000000000014 3.2899999999999965
  endloop
endfacet
facet normal 1.0 -0.0 -0.0
  outer loop
    vertex 6.7299999999999995 6.900000000000013 4.540000000000003
    vertex 6.7299999999999995 8.100000000000014 3.2899999999999965
    vertex 6.7299999999999995 13.100000000000012 4.539999999999994
  endloop
endfacet
facet normal 1.0 -0.0 -0.0
  outer loop
    vertex 6.7299999999999995 13.100000000000012 4.539999999999994
    vertex 6.7299999999999995 8.100000000000014 3.2899999999999965
    vertex 6.7299999999999995 11.900000000000015 -3.075282319260292e-15
  endloop
endfacet
facet normal 1.0 -0.0 -0.0
  outer loop
    vertex 6.7299999999999995 13.100000000000012 4.539999999999994
    vertex 6.7299999999999995 11.900000000000015 -3.075282319260292e-15
    vertex 6.7299999999999995 13.100000000000007 -3.075282319260292e-15
  endloop
endfacet
facet normal 1.0 3.929017151562018e-15 -2.0665756599547976e-15
  outer loop
    vertex 9.270000000000001 8.100000000000014 3.2899999999999965
    vertex 9.270000000000001 11.900000000000015 4.539999999999993
    vertex 9.270000000000037 8.100000000000009 4.54000000000001
  endloop
endfacet
facet normal 1.0 3.929017151562018e-15 -2.0665756599547976e-15
  outer loop
    vertex 9.270000000000001 11.900000000000015 4.539999999999993
    vertex 9.270000000000001 8.100000000000014 3.2899999999999965
    vertex 9.270000000000001 11.90000000000002 -9.603074573493689e-16
  endloop
endfacet
facet normal -4.1522720508089216e-31 1.0 1.2422759835012764e-15
  outer loop
    vertex 2.749999999999997 11.900000000000015 4.539999999999997
    vertex 4.190000000000002 11.90000000000002 -2.3702906986233178e-15
    vertex 2.7500000000000004 11.90000000000002 -3.075282319260292e-15
  endloop
endfacet
facet normal -4.1522720508089216e-31 1.0 1.2422759835012764e-15
  outer loop
    vertex 4.190000000000002 11.90000000000002 -2.3702906986233178e-15
    vertex 2.749999999999997 11.900000000000015 4.539999999999997
    vertex 4.1899999999999995 11.900000000000015 4.539999999999997
  endloop
endfacet
facet normal -4.825399433489259e-31 1.0 1.2422759835012778e-15
  outer loop
    vertex 7.829999999999994 11.900000000000015 4.539999999999993
    vertex 9.270000000000001 11.90000000000002 -9.603074573493689e-16
    vertex 7.8299999999999965 11.90000000000002 -2.3702906986233178e-15
  endloop
endfacet
facet normal -4.825399433489259e-31 1.0 1.2422759835012778e-15
  outer loop
    vertex 9.270000000000001 11.90000000000002 -9.603074573493689e-16
    vertex 7.829999999999994 11.900000000000015 4.539999999999993
    vertex 9.270000000000001 11.900000000000015 4.539999999999993
  endloop
endfacet
facet normal 4.272676488708936e-16 -0.0 1.0
  outer loop
    vertex 1.6499999999999997 1.25 2.0000000000000018
    vertex 0.0 6.9000000000000075 2.0000000000000027
    vertex -1.0741636637870841e-17 1.2499999999999996 2.000000000000004
  endloop
endfacet
facet normal 4.272676488708936e-16 -0.0 1.0
  outer loop
    vertex 0.0 6.9000000000000075 2.0000000000000027
    vertex 1.6499999999999997 1.25 2.0000000000000018
    vertex 1.6499999999999997 6.9000000000000075 2.0000000000000036
  endloop
endfacet
facet normal -1.713521300159311e-15 -1.532590479645595e-16 1.0
  outer loop
    vertex 4.1899999999999995 1.2499999999999996 2.0000000000000027
    vertex 2.749999999999998 6.9000000000000075 2.0000000000000013
    vertex 2.749999999999998 1.2499999999999996 2.0000000000000004
  endloop
endfacet
facet normal -1.713521300159311e-15 -1.532590479645595e-16 1.0
  outer loop
    vertex 2.749999999999998 6.9000000000000075 2.0000000000000013
    vertex 4.1899999999999995 1.2499999999999996 2.0000000000000027
    vertex 4.1899999999999995 6.9000000000000075 2.000000000000004
  endloop
endfacet
facet normal 2.447887571656154e-16 -5.1086349321519834e-17 1.0
  outer loop
    vertex 9.270000000000001 1.25 1.9999999999999936
    vertex 7.8299999999999965 6.9000000000000075 1.9999999999999942
    vertex 7.8299999999999965 1.25 1.9999999999999936
  endloop
endfacet
facet normal 2.447887571656154e-16 -5.1086349321519834e-17 1.0
  outer loop
    vertex 7.8299999999999965 6.9000000000000075 1.9999999999999942
    vertex 9.270000000000001 1.25 1.9999999999999936
    vertex 9.270000000000001 6.9000000000000075 1.9999999999999936
  endloop
endfacet
facet normal -3.1947587660039625e-31 -1.0 2.220446049250309e-15
  outer loop
    vertex 1.6499999999999997 6.9000000000000075 2.0000000000000036
    vertex 2.8199664825478975e-15 6.900000000000013 4.540000000000007
    vertex 0.0 6.9000000000000075 2.0000000000000027
  endloop
endfacet
facet normal -3.1947587660039625e-31 -1.0 2.220446049250309e-15
  outer loop
    vertex 2.8199664825478975e-15 6.900000000000013 4.540000000000007
    vertex 1.6499999999999997 6.9000000000000075 2.0000000000000036
    vertex 1.6500000000000026 6.900000000000013 4.540000000000007
  endloop
endfacet
facet normal 0.0 -1.0 1.4881089617667008e-15
  outer loop
    vertex 6.7299999999999995 6.900000000000013 4.540000000000003
    vertex 5.289999999999998 6.9000000000000075 0.750000000000003
    vertex 6.7299999999999995 6.9000000000000075 0.750000000000003
  endloop
endfacet
facet normal 0.0 -1.0 1.4881089617667008e-15
  outer loop
    vertex 5.289999999999998 6.9000000000000075 0.750000000000003
    vertex 6.7299999999999995 6.900000000000013 4.540000000000003
    vertex 5.289999999999998 6.900000000000013 4.540000000000003
  endloop
endfacet
facet normal -1.0 0.0 0.0
  outer loop
    vertex 2.749999999999998 6.9000000000000075 2.0000000000000013
    vertex 2.749999999999998 1.25 0.7500000000000024
    vertex 2.749999999999998 1.2499999999999996 2.0000000000000004
  endloop
endfacet
facet normal -1.0 0.0 0.0
  outer loop
    vertex 2.749999999999998 1.25 0.7500000000000024
    vertex 2.749999999999998 6.9000000000000075 2.0000000000000013
    vertex 2.749999999999998 6.9000000000000075 0.750000000000003
  endloop
endfacet
facet normal -1.0 0.0 0.0
  outer loop
    vertex 5.289999999999998 6.900000000000013 4.540000000000003
    vertex 5.289999999999998 6.90000000000001 1.948444954112289e-14
    vertex 5.289999999999998 6.9000000000000075 0.750000000000003
  endloop
endfacet
facet normal -1.0 0.0 0.0
  outer loop
    vertex 5.289999999999998 6.90000000000001 1.948444954112289e-14
    vertex 5.289999999999998 6.900000000000013 4.540000000000003
    vertex 5.289999999999998 8.10000000000001 1.948444954112289e-14
  endloop
endfacet
facet normal -1.0 0.0 0.0
  outer loop
    vertex 5.289999999999998 8.10000000000001 1.948444954112289e-14
    vertex 5.289999999999998 6.900000000000013 4.540000000000003
    vertex 5.289999999999998 8.100000000000014 3.2899999999999965
  endloop
endfacet
facet normal -1.0 0.0 0.0
  outer loop
    vertex 5.289999999999998 8.100000000000014 3.2899999999999965
    vertex 5.289999999999998 6.900000000000013 4.540000000000003
    vertex 5.289999999999998 13.100000000000012 4.539999999999994
  endloop
endfacet
facet normal -1.0 0.0 0.0
  outer loop
    vertex 5.289999999999998 8.100000000000014 3.2899999999999965
    vertex 5.289999999999998 13.100000000000012 4.539999999999994
    vertex 5.289999999999998 11.900000000000015 -1.3128032676678561e-15
  endloop
endfacet
facet normal -1.0 0.0 0.0
  outer loop
    vertex 5.289999999999998 11.900000000000015 -1.3128032676678561e-15
    vertex 5.289999999999998 13.100000000000012 4.539999999999994
    vertex 5.289999999999998 13.100000000000007 -1.3128032676678561e-15
  endloop
endfacet
facet normal -1.0 0.0 0.0
  outer loop
    vertex 7.8299999999999965 6.9000000000000075 1.9999999999999942
    vertex 7.8299999999999965 1.25 0.7500000000000024
    vertex 7.8299999999999965 1.25 1.9999999999999936
  endloop
endfacet
facet normal -1.0 0.0 0.0
  outer loop
    vertex 7.8299999999999965 1.25 0.7500000000000024
    vertex 7.8299999999999965 6.9000000000000075 1.9999999999999942
    vertex 7.8299999999999965 6.9000000000000075 0.750000000000003
  endloop
endfacet
facet normal 2.9374650859873743e-15 5.565723320818236e-15 1.0
  outer loop
    vertex 7.83000000000003 8.100000000000005 4.540000000000018
    vertex 9.270000000000001 11.900000000000015 4.539999999999993
    vertex 7.829999999999994 11.900000000000015 4.539999999999993
  endloop
endfacet
facet normal 2.9374650859873743e-15 5.565723320818236e-15 1.0
  outer loop
    vertex 9.270000000000001 11.900000000000015 4.539999999999993
    vertex 7.83000000000003 8.100000000000005 4.540000000000018
    vertex 9.270000000000037 8.100000000000009 4.54000000000001
  endloop
endfacet
facet normal -2.9374650859873893e-15 4.82362687804247e-15 1.0
  outer loop
    vertex 4.1899999999999595 8.100000000000001 4.54000000000002
    vertex 2.749999999999997 11.900000000000015 4.539999999999997
    vertex 2.7499999999999605 8.100000000000001 4.540000000000012
  endloop
endfacet
facet normal -2.9374650859873893e-15 4.82362687804247e-15 1.0
  outer loop
    vertex 2.749999999999997 11.900000000000015 4.539999999999997
    vertex 4.1899999999999595 8.100000000000001 4.54000000000002
    vertex 4.1899999999999995 11.900000000000015 4.539999999999997
  endloop
endfacet
facet normal -1.0 3.5305717426142036e-15 -2.9869966654269576e-15
  outer loop
    vertex 2.749999999999997 11.900000000000015 4.539999999999997
    vertex 2.7500000000000004 8.100000000000014 3.2899999999999965
    vertex 2.7499999999999605 8.100000000000001 4.540000000000012
  endloop
endfacet
facet normal -1.0 3.5305717426142036e-15 -2.9869966654269576e-15
  outer loop
    vertex 2.7500000000000004 8.100000000000014 3.2899999999999965
    vertex 2.749999999999997 11.900000000000015 4.539999999999997
    vertex 2.7500000000000004 11.90000000000002 -3.075282319260292e-15
  endloop
endfacet
facet normal 1.0 -0.0 -0.0
  outer loop
    vertex 4.1899999999999995 1.25 0.7500000000000081
    vertex 4.1899999999999995 6.9000000000000075 2.000000000000004
    vertex 4.1899999999999995 1.2499999999999996 2.0000000000000027
  endloop
endfacet
facet normal 1.0 -0.0 -0.0
  outer loop
    vertex 4.1899999999999995 6.9000000000000075 2.000000000000004
    vertex 4.1899999999999995 1.25 0.7500000000000081
    vertex 4.1899999999999995 6.9000000000000075 0.750000000000003
  endloop
endfacet
facet normal -1.0 -4.247773478720271e-15 1.330238855577069e-15
  outer loop
    vertex 7.829999999999994 11.900000000000015 4.539999999999993
    vertex 7.8299999999999965 8.100000000000014 3.2899999999999965
    vertex 7.83000000000003 8.100000000000005 4.540000000000018
  endloop
endfacet
facet normal -1.0 -4.247773478720271e-15 1.330238855577069e-15
  outer loop
    vertex 7.8299999999999965 8.100000000000014 3.2899999999999965
    vertex 7.829999999999994 11.900000000000015 4.539999999999993
    vertex 7.8299999999999965 11.90000000000002 -2.3702906986233178e-15
  endloop
endfacet
facet normal 1.0 -0.0 -0.0
  outer loop
    vertex 9.270000000000001 6.9000000000000075 0.7500000000000022
    vertex 9.270000000000001 1.25 1.9999999999999936
    vertex 9.270000000000001 1.25 0.7500000000000024
  endloop
endfacet
facet normal 1.0 -0.0 -0.0
  outer loop
    vertex 9.270000000000001 1.25 1.9999999999999936
    vertex 9.270000000000001 6.9000000000000075 0.7500000000000022
    vertex 9.270000000000001 6.9000000000000075 1.9999999999999936
  endloop
endfacet
facet normal 1.0 -7.793976993768408e-17 -3.6445580493203054e-16
  outer loop
    vertex 1.6499999999999997 6.9000000000000075 0.7500000000000037
    vertex 1.6499999999999997 1.25 2.0000000000000018
    vertex 1.6499999999999997 1.25 0.7500000000000024
  endloop
endfacet
facet normal 1.0 -7.793976993768408e-17 -3.6445580493203054e-16
  outer loop
    vertex 1.6499999999999997 1.25 2.0000000000000018
    vertex 1.6499999999999997 6.9000000000000075 0.7500000000000037
    vertex 1.6499999999999997 6.9000000000000075 2.0000000000000036
  endloop
endfacet
facet normal 1.0 -7.793976993768408e-17 -3.6445580493203054e-16
  outer loop
    vertex 1.6499999999999997 6.9000000000000075 2.0000000000000036
    vertex 1.6499999999999997 6.9000000000000075 0.7500000000000037
    vertex 1.6500000000000026 6.90000000000001 6.089608749020373e-15
  endloop
endfacet
facet normal 1.0 -7.793976993768408e-17 -3.6445580493203054e-16
  outer loop
    vertex 1.6499999999999997 6.9000000000000075 2.0000000000000036
    vertex 1.6500000000000026 6.90000000000001 6.089608749020373e-15
    vertex 1.6500000000000026 6.900000000000013 4.540000000000007
  endloop
endfacet
facet normal 1.0 -7.793976993768408e-17 -3.6445580493203054e-16
  outer loop
    vertex 1.6500000000000026 6.900000000000013 4.540000000000007
    vertex 1.6500000000000026 6.90000000000001 6.089608749020373e-15
    vertex 1.6500000000000026 8.10000000000001 1.1729541714116173e-14
  endloop
endfacet
facet normal 1.0 -7.793976993768408e-17 -3.6445580493203054e-16
  outer loop
    vertex 1.6500000000000026 6.900000000000013 4.540000000000007
    vertex 1.6500000000000026 8.10000000000001 1.1729541714116173e-14
    vertex 1.6500000000000026 8.100000000000014 3.2899999999999965
  endloop
endfacet
facet normal 1.0 -7.793976993768408e-17 -3.6445580493203054e-16
  outer loop
    vertex 1.6500000000000026 6.900000000000013 4.540000000000007
    vertex 1.6500000000000026 8.100000000000014 3.2899999999999965
    vertex 1.6500000000000026 13.100000000000012 4.539999999999994
  endloop
endfacet
facet normal 1.0 -7.793976993768408e-17 -3.6445580493203054e-16
  outer loop
    vertex 1.6500000000000026 13.100000000000012 4.539999999999994
    vertex 1.6500000000000026 8.100000000000014 3.2899999999999965
    vertex 1.6499999999999997 11.900000000000015 -1.6652990779863432e-15
  endloop
endfacet
facet normal 1.0 -7.793976993768408e-17 -3.6445580493203054e-16
  outer loop
    vertex 1.6500000000000026 13.100000000000012 4.539999999999994
    vertex 1.6499999999999997 11.900000000000015 -1.6652990779863432e-15
    vertex 1.6499999999999997 13.100000000000007 -1.6652990779863432e-15
  endloop
endfacet
facet normal 1.3035377975784243e-15 0.6545517406339636 0.7560172080270717
  outer loop
    vertex 5.289999999999998 8.100000000000014 3.2899999999999965
    vertex 4.190000000000002 11.90000000000002 -2.3702906986233178e-15
    vertex 4.190000000000002 8.100000000000014 3.2899999999999965
  endloop
endfacet
facet normal 1.3035377975784243e-15 0.6545517406339636 0.7560172080270717
  outer loop
    vertex 4.190000000000002 11.90000000000002 -2.3702906986233178e-15
    vertex 5.289999999999998 8.100000000000014 3.2899999999999965
    vertex 5.289999999999998 11.900000000000015 -1.3128032676678561e-15
  endloop
endfacet
facet normal -1.1609238158422972e-15 0.6545517406339636 0.7560172080270716
  outer loop
    vertex 1.6500000000000026 8.100000000000014 3.2899999999999965
    vertex 2.7500000000000004 11.90000000000002 -3.075282319260292e-15
    vertex 1.6499999999999997 11.900000000000015 -1.6652990779863432e-15
  endloop
endfacet
facet normal -1.1609238158422972e-15 0.6545517406339636 0.7560172080270716
  outer loop
    vertex 2.7500000000000004 11.90000000000002 -3.075282319260292e-15
    vertex 1.6500000000000026 8.100000000000014 3.2899999999999965
    vertex 2.7500000000000004 8.100000000000014 3.2899999999999965
  endloop
endfacet
facet normal -2.0145375032983677e-15 0.6545517406339637 0.7560172080270716
  outer loop
    vertex 7.8299999999999965 8.100000000000014 3.2899999999999965
    vertex 6.7299999999999995 11.900000000000015 -3.075282319260292e-15
    vertex 6.7299999999999995 8.100000000000014 3.2899999999999965
  endloop
endfacet
facet normal -2.0145375032983677e-15 0.6545517406339637 0.7560172080270716
  outer loop
    vertex 6.7299999999999995 11.900000000000015 -3.075282319260292e-15
    vertex 7.8299999999999965 8.100000000000014 3.2899999999999965
    vertex 7.8299999999999965 11.90000000000002 -2.3702906986233178e-15
  endloop
endfacet
facet normal 7.184929720905443e-16 3.065180959291188e-16 1.0
  outer loop
    vertex 4.1899999999999995 1.25 0.7500000000000081
    vertex 5.289999999999998 2.0750000000000024 0.7500000000000033
    vertex 4.1899999999999995 6.9000000000000075 0.750000000000003
  endloop
endfacet
facet normal 7.184929720905443e-16 3.065180959291188e-16 1.0
  outer loop
    vertex 5.289999999999998 2.0750000000000024 0.7500000000000033
    vertex 4.1899999999999995 1.25 0.7500000000000081
    vertex 7.8299999999999965 1.25 0.7500000000000024
  endloop
endfacet
facet normal 7.184929720905443e-16 3.065180959291188e-16 1.0
  outer loop
    vertex 5.289999999999998 2.0750000000000024 0.7500000000000033
    vertex 7.8299999999999965 1.25 0.7500000000000024
    vertex 6.7299999999999995 2.0750000000000024 0.7500000000000033
  endloop
endfacet
facet normal 7.184929720905443e-16 3.065180959291188e-16 1.0
  outer loop
    vertex 6.7299999999999995 2.0750000000000024 0.7500000000000033
    vertex 7.8299999999999965 1.25 0.7500000000000024
    vertex 6.7299999999999995 6.075000000000002 0.750000000000003
  endloop
endfacet
facet normal 7.184929720905443e-16 3.065180959291188e-16 1.0
  outer loop
    vertex 6.7299999999999995 6.075000000000002 0.750000000000003
    vertex 7.8299999999999965 1.25 0.7500000000000024
    vertex 6.7299999999999995 6.9000000000000075 0.750000000000003
  endloop
endfacet
facet normal 7.184929720905443e-16 3.065180959291188e-16 1.0
  outer loop
    vertex 6.7299999999999995 6.9000000000000075 0.750000000000003
    vertex 7.8299999999999965 1.25 0.7500000000000024
    vertex 7.8299999999999965 6.9000000000000075 0.750000000000003
  endloop
endfacet
facet normal 7.184929720905443e-16 3.065180959291188e-16 1.0
  outer loop
    vertex 5.289999999999998 2.0750000000000024 0.7500000000000033
    vertex 5.289999999999998 6.9000000000000075 0.750000000000003
    vertex 4.1899999999999995 6.9000000000000075 0.750000000000003
  endloop
endfacet
facet normal 7.184929720905443e-16 3.065180959291188e-16 1.0
  outer loop
    vertex 5.289999999999998 6.9000000000000075 0.750000000000003
    vertex 5.289999999999998 2.0750000000000024 0.7500000000000033
    vertex 5.289999999999998 6.075000000000002 0.750000000000003
  endloop
endfacet
facet normal 7.184929720905443e-16 3.065180959291188e-16 1.0
  outer loop
    vertex 5.289999999999998 6.9000000000000075 0.750000000000003
    vertex 5.289999999999998 6.075000000000002 0.750000000000003
    vertex 6.7299999999999995 6.075000000000002 0.750000000000003
  endloop
endfacet
facet normal 7.184929720905443e-16 3.065180959291188e-16 1.0
  outer loop
    vertex 5.289999999999998 6.9000000000000075 0.750000000000003
    vertex 6.7299999999999995 6.075000000000002 0.750000000000003
    vertex 6.7299999999999995 6.9000000000000075 0.750000000000003
  endloop
endfacet
facet normal 1.0 -0.0 -0.0
  outer loop
    vertex 5.289999999999998 2.0750000000000037 2.136442719615485e-14
    vertex 5.289999999999998 6.075000000000002 0.750000000000003
    vertex 5.289999999999998 2.0750000000000024 0.7500000000000033
  endloop
endfacet
facet normal 1.0 -0.0 -0.0
  outer loop
    vertex 5.289999999999998 6.075000000000002 0.750000000000003
    vertex 5.289999999999998 2.0750000000000037 2.136442719615485e-14
    vertex 5.289999999999998 6.075000000000002 2.0189441161759867e-14
  endloop
endfacet
facet normal 3.745095977156646e-33 1.0 1.8799776550319767e-15
  outer loop
    vertex 5.289999999999998 2.0750000000000024 0.7500000000000033
    vertex 6.729999999999999 2.0750000000000037 2.136442719615485e-14
    vertex 5.289999999999998 2.0750000000000037 2.136442719615485e-14
  endloop
endfacet
facet normal 3.745095977156646e-33 1.0 1.8799776550319767e-15
  outer loop
    vertex 6.729999999999999 2.0750000000000037 2.136442719615485e-14
    vertex 5.289999999999998 2.0750000000000024 0.7500000000000033
    vertex 6.7299999999999995 2.0750000000000024 0.7500000000000033
  endloop
endfacet
facet normal -1.0 -1.7719037773319757e-31 1.8799776550319755e-15
  outer loop
    vertex 6.7299999999999995 6.075000000000002 0.750000000000003
    vertex 6.729999999999999 2.0750000000000037 2.136442719615485e-14
    vertex 6.7299999999999995 2.0750000000000024 0.7500000000000033
  endloop
endfacet
facet normal -1.0 -1.7719037773319757e-31 1.8799776550319755e-15
  outer loop
    vertex 6.729999999999999 2.0750000000000037 2.136442719615485e-14
    vertex 6.7299999999999995 6.075000000000002 0.750000000000003
    vertex 6.729999999999999 6.075000000000002 2.0189441161759867e-14
  endloop
endfacet
facet normal 0.0 -1.0 0.0
  outer loop
    vertex 6.7299999999999995 6.075000000000002 0.750000000000003
    vertex 5.289999999999998 6.075000000000002 2.0189441161759867e-14
    vertex 6.729999999999999 6.075000000000002 2.0189441161759867e-14
  endloop
endfacet
facet normal 0.0 -1.0 0.0
  outer loop
    vertex 5.289999999999998 6.075000000000002 2.0189441161759867e-14
    vertex 6.7299999999999995 6.075000000000002 0.750000000000003
    vertex 5.289999999999998 6.075000000000002 0.750000000000003
  endloop
endfacet
facet normal 0.0 0.0 -1.0
  outer loop
    vertex 11.120371720874388 -2.2984461913366325 0.0
    vertex 0.8999999999999964 -7.548446191336627 0.0
    vertex 0.8999999999999964 -2.2984461913366325 0.0
  endloop
endfacet
facet normal 0.0 0.0 -1.0
  outer loop
    vertex 0.8999999999999964 -7.548446191336627 0.0
    vertex 11.120371720874388 -2.2984461913366325 0.0
    vertex 11.120371720874388 -7.548446191336627 0.0
  endloop
endfacet
facet normal -0.0 -0.0 1.0
  outer loop
    vertex 5.2899999999999965 -7.548446191336627 2.2
    vertex 0.8999999999999964 -2.2984461913366325 2.1999999999999997
    vertex 0.8999999999999964 -7.548446191336627 2.1999999999999997
  endloop
endfacet
facet normal -0.0 -0.0 1.0
  outer loop
    vertex 0.8999999999999964 -2.2984461913366325 2.1999999999999997
    vertex 5.2899999999999965 -7.548446191336627 2.2
    vertex 5.289999999999991 -2.2984461913366325 2.2
  endloop
endfacet
facet normal -0.0 1.0 -0.0
  outer loop
    vertex 5.289999999999991 -2.2984461913366325 2.2
    vertex 6.729999999999997 -2.2984461913366325 2.1999999999999997
    vertex 0.8999999999999964 -2.2984461913366325 2.1999999999999997
  endloop
endfacet
facet normal -0.0 1.0 -0.0
  outer loop
    vertex 6.729999999999997 -2.2984461913366325 2.1999999999999997
    vertex 5.289999999999991 -2.2984461913366325 2.2
    vertex 6.729999999999997 -2.2984461913366325 3.299999999999998
  endloop
endfacet
facet normal -0.0 1.0 -0.0
  outer loop
    vertex 6.729999999999997 -2.2984461913366325 3.299999999999998
    vertex 5.289999999999991 -2.2984461913366325 2.2
    vertex 5.289999999999991 -2.2984461913366325 3.299999999999998
  endloop
endfacet
facet normal -0.0 1.0 -0.0
  outer loop
    vertex 0.8999999999999964 -2.2984461913366325 2.1999999999999997
    vertex 11.120371720874388 -2.2984461913366325 0.0
    vertex 0.8999999999999964 -2.2984461913366325 0.0
  endloop
endfacet
facet normal -0.0 1.0 -0.0
  outer loop
    vertex 11.120371720874388 -2.2984461913366325 0.0
    vertex 0.8999999999999964 -2.2984461913366325 2.1999999999999997
    vertex 11.120371720874388 -2.2984461913366325 2.1999999999999997
  endloop
endfacet
facet normal -0.0 1.0 -0.0
  outer loop
    vertex 11.120371720874388 -2.2984461913366325 2.1999999999999997
    vertex 0.8999999999999964 -2.2984461913366325 2.1999999999999997
    vertex 6.729999999999997 -2.2984461913366325 2.1999999999999997
  endloop
endfacet
facet normal 1.0 0.0 0.0
  outer loop
    vertex 11.120371720874388 -2.2984461913366325 0.0
    vertex 11.120371720874388 -7.548446191336627 2.1999999999999997
    vertex 11.120371720874388 -7.548446191336627 0.0
  endloop
endfacet
facet normal 1.0 0.0 0.0
  outer loop
    vertex 11.120371720874388 -7.548446191336627 2.1999999999999997
    vertex 11.120371720874388 -2.2984461913366325 0.0
    vertex 11.120371720874388 -2.2984461913366325 2.1999999999999997
  endloop
endfacet
facet normal 0.0 -1.0 0.0
  outer loop
    vertex 11.120371720874388 -7.548446191336627 2.1999999999999997
    vertex 0.8999999999999964 -7.548446191336627 0.0
    vertex 11.120371720874388 -7.548446191336627 0.0
  endloop
endfacet
facet normal 0.0 -1.0 0.0
  outer loop
    vertex 0.8999999999999964 -7.548446191336627 0.0
    vertex 11.120371720874388 -7.548446191336627 2.1999999999999997
    vertex 0.8999999999999964 -7.548446191336627 2.1999999999999997
  endloop
endfacet
facet normal 0.0 -1.0 0.0
  outer loop
    vertex 0.8999999999999964 -7.548446191336627 2.1999999999999997
    vertex 11.120371720874388 -7.548446191336627 2.1999999999999997
    vertex 6.729999999999997 -7.548446191336627 2.1999999999999997
  endloop
endfacet
facet normal 0.0 -1.0 0.0
  outer loop
    vertex 0.8999999999999964 -7.548446191336627 2.1999999999999997
    vertex 6.729999999999997 -7.548446191336627 2.1999999999999997
    vertex 5.2899999999999965 -7.548446191336627 2.2
  endloop
endfacet
facet normal 0.0 -1.0 0.0
  outer loop
    vertex 5.2899999999999965 -7.548446191336627 2.2
    vertex 6.729999999999997 -7.548446191336627 2.1999999999999997
    vertex 6.729999999999997 -7.548446191336627 3.300000000000001
  endloop
endfacet
facet normal 0.0 -1.0 0.0
  outer loop
    vertex 5.2899999999999965 -7.548446191336627 2.2
    vertex 6.729999999999997 -7.548446191336627 3.300000000000001
    vertex 5.2899999999999965 -7.548446191336627 3.300000000000001
  endloop
endfacet
facet normal -1.0 0.0 0.0
  outer loop
    vertex 0.8999999999999964 -2.2984461913366325 2.1999999999999997
    vertex 0.8999999999999964 -7.548446191336627 0.0
    vertex 0.8999999999999964 -7.548446191336627 2.1999999999999997
  endloop
endfacet
facet normal -1.0 0.0 0.0
  outer loop
    vertex 0.8999999999999964 -7.548446191336627 0.0
    vertex 0.8999999999999964 -2.2984461913366325 2.1999999999999997
    vertex 0.8999999999999964 -2.2984461913366325 0.0
  endloop
endfacet
facet normal -0.0 -0.0 1.0
  outer loop
    vertex 6.729999999999997 -6.723446191336628 4.049999999999998
    vertex 5.289999999999991 -3.123446191336633 4.049999999999998
    vertex 5.289999999999991 -6.723446191336628 4.049999999999998
  endloop
endfacet
facet normal -0.0 -0.0 1.0
  outer loop
    vertex 5.289999999999991 -3.123446191336633 4.049999999999998
    vertex 6.729999999999997 -6.723446191336628 4.049999999999998
    vertex 6.729999999999997 -3.123446191336633 4.049999999999998
  endloop
endfacet
facet normal -0.0 1.0 -0.0
  outer loop
    vertex 5.289999999999991 -3.123446191336633 4.049999999999998
    vertex 6.729999999999997 -3.123446191336633 3.299999999999998
    vertex 5.289999999999991 -3.123446191336633 3.299999999999998
  endloop
endfacet
facet normal -0.0 1.0 -0.0
  outer loop
    vertex 6.729999999999997 -3.123446191336633 3.299999999999998
    vertex 5.289999999999991 -3.123446191336633 4.049999999999998
    vertex 6.729999999999997 -3.123446191336633 4.049999999999998
  endloop
endfacet
facet normal 0.0 -1.0 0.0
  outer loop
    vertex 6.729999999999997 -6.723446191336628 4.049999999999998
    vertex 5.289999999999991 -6.723446191336628 3.300000000000001
    vertex 6.729999999999997 -6.723446191336628 3.300000000000001
  endloop
endfacet
facet normal 0.0 -1.0 0.0
  outer loop
    vertex 5.289999999999991 -6.723446191336628 3.300000000000001
    vertex 6.729999999999997 -6.723446191336628 4.049999999999998
    vertex 5.289999999999991 -6.723446191336628 4.049999999999998
  endloop
endfacet
facet normal -0.0 -0.0 1.0
  outer loop
    vertex 5.2899999999999965 -7.548446191336627 3.300000000000001
    vertex 6.729999999999997 -6.723446191336628 3.300000000000001
    vertex 5.289999999999991 -6.723446191336628 3.300000000000001
  endloop
endfacet
facet normal -0.0 -0.0 1.0
  outer loop
    vertex 6.729999999999997 -6.723446191336628 3.300000000000001
    vertex 5.2899999999999965 -7.548446191336627 3.300000000000001
    vertex 6.729999999999997 -7.548446191336627 3.300000000000001
  endloop
endfacet
facet normal -0.0 -0.0 1.0
  outer loop
    vertex 11.120371720874388 -7.548446191336627 2.1999999999999997
    vertex 6.729999999999997 -2.2984461913366325 2.1999999999999997
    vertex 6.729999999999997 -7.548446191336627 2.1999999999999997
  endloop
endfacet
facet normal -0.0 -0.0 1.0
  outer loop
    vertex 6.729999999999997 -2.2984461913366325 2.1999999999999997
    vertex 11.120371720874388 -7.548446191336627 2.1999999999999997
    vertex 11.120371720874388 -2.2984461913366325 2.1999999999999997
  endloop
endfacet
facet normal -0.0 -0.0 1.0
  outer loop
    vertex 6.729999999999997 -3.123446191336633 3.299999999999998
    vertex 5.289999999999991 -2.2984461913366325 3.299999999999998
    vertex 5.289999999999991 -3.123446191336633 3.299999999999998
  endloop
endfacet
facet normal -0.0 -0.0 1.0
  outer loop
    vertex 5.289999999999991 -2.2984461913366325 3.299999999999998
    vertex 6.729999999999997 -3.123446191336633 3.299999999999998
    vertex 6.729999999999997 -2.2984461913366325 3.299999999999998
  endloop
endfacet
facet normal -1.0 -7.306964789130227e-16 -1.4975064205851784e-15
  outer loop
    vertex 5.289999999999991 -3.123446191336633 4.049999999999998
    vertex 5.289999999999991 -6.723446191336628 3.300000000000001
    vertex 5.289999999999991 -6.723446191336628 4.049999999999998
  endloop
endfacet
facet normal -1.0 -7.306964789130227e-16 -1.4975064205851784e-15
  outer loop
    vertex 5.289999999999991 -6.723446191336628 3.300000000000001
    vertex 5.2899999999999965 -7.548446191336627 2.2
    vertex 5.2899999999999965 -7.548446191336627 3.300000000000001
  endloop
endfacet
facet normal -1.0 -7.306964789130227e-16 -1.4975064205851784e-15
  outer loop
    vertex 5.2899999999999965 -7.548446191336627 2.2
    vertex 5.289999999999991 -6.723446191336628 3.300000000000001
    vertex 5.289999999999991 -2.2984461913366325 2.2
  endloop
endfacet
facet normal -1.0 -7.306964789130227e-16 -1.4975064205851784e-15
  outer loop
    vertex 5.289999999999991 -2.2984461913366325 2.2
    vertex 5.289999999999991 -6.723446191336628 3.300000000000001
    vertex 5.289999999999991 -3.123446191336633 3.299999999999998
  endloop
endfacet
facet normal -1.0 -7.306964789130227e-16 -1.4975064205851784e-15
  outer loop
    vertex 5.289999999999991 -3.123446191336633 3.299999999999998
    vertex 5.289999999999991 -6.723446191336628 3.300000000000001
    vertex 5.289999999999991 -3.123446191336633 4.049999999999998
  endloop
endfacet
facet normal -1.0 -7.306964789130227e-16 -1.4975064205851784e-15
  outer loop
    vertex 5.289999999999991 -2.2984461913366325 2.2
    vertex 5.289999999999991 -3.123446191336633 3.299999999999998
    vertex 5.289999999999991 -2.2984461913366325 3.299999999999998
  endloop
endfacet
facet normal 1.0 0.0 0.0
  outer loop
    vertex 6.729999999999997 -2.2984461913366325 2.1999999999999997
    vertex 6.729999999999997 -7.548446191336627 3.300000000000001
    vertex 6.729999999999997 -7.548446191336627 2.1999999999999997
  endloop
endfacet
facet normal 1.0 0.0 0.0
  outer loop
    vertex 6.729999999999997 -7.548446191336627 3.300000000000001
    vertex 6.729999999999997 -2.2984461913366325 2.1999999999999997
    vertex 6.729999999999997 -6.723446191336628 3.300000000000001
  endloop
endfacet
facet normal 1.0 0.0 0.0
  outer loop
    vertex 6.729999999999997 -6.723446191336628 3.300000000000001
    vertex 6.729999999999997 -2.2984461913366325 2.1999999999999997
    vertex 6.729999999999997 -6.723446191336628 4.049999999999998
  endloop
endfacet
facet normal 1.0 0.0 0.0
  outer loop
    vertex 6.729999999999997 -6.723446191336628 4.049999999999998
    vertex 6.729999999999997 -2.2984461913366325 2.1999999999999997
    vertex 6.729999999999997 -3.123446191336633 3.299999999999998
  endloop
endfacet
facet normal 1.0 0.0 0.0
  outer loop
    vertex 6.729999999999997 -3.123446191336633 3.299999999999998
    vertex 6.729999999999997 -2.2984461913366325 2.1999999999999997
    vertex 6.729999999999997 -2.2984461913366325 3.299999999999998
  endloop
endfacet
facet normal 1.0 0.0 0.0
  outer loop
    vertex 6.729999999999997 -3.123446191336633 4.049999999999998
    vertex 6.729999999999997 -6.723446191336628 4.049999999999998
    vertex 6.729999999999997 -3.123446191336633 3.299999999999998
  endloop
endfacet
facet normal -1.5703846623123253e-07 -0.9999999999999876 1.4879347694696596e-08
  outer loop
    vertex 10.369999999999996 13.100000000000007 -2.7227865089418047e-15
    vertex 6.7299999999999995 13.100000000000012 4.539999999999994
    vertex 6.7299999999999995 13.100000000000007 -3.075282319260292e-15
  endloop
endfacet
facet normal -1.5703846623123253e-07 -0.9999999999999876 1.4879347694696596e-08
  outer loop
    vertex 6.7299999999999995 13.100000000000012 4.539999999999994
    vertex 10.369999999999996 13.100000000000007 -2.7227865089418047e-15
    vertex 10.369999999999996 13.100000000000012 4.539999999999994
  endloop
endfacet
facet normal -2.941435218457175e-32 -1.0 1.2422759835012774e-15
  outer loop
    vertex 5.289999999999998 13.100000000000007 -1.3128032676678561e-15
    vertex 1.6500000000000026 13.100000000000012 4.539999999999994
    vertex 1.6499999999999997 13.100000000000007 -1.6652990779863432e-15
  endloop
endfacet
facet normal -2.941435218457175e-32 -1.0 1.2422759835012774e-15
  outer loop
    vertex 1.6500000000000026 13.100000000000012 4.539999999999994
    vertex 5.289999999999998 13.100000000000007 -1.3128032676678561e-15
    vertex 5.289999999999998 13.100000000000012 4.539999999999994
  endloop
endfacet
facet normal 1.9753403610858582e-17 -1.0 -7.588226463673554e-17
  outer loop
    vertex 11.120371720874394 1.2500000000000002 1.9999999999999936
    vertex 10.369999999999996 1.25 0.7500000000000024
    vertex 11.120371720874394 1.2500000000000002 6.59473984270213e-15
  endloop
endfacet
facet normal 1.9753403610858582e-17 -1.0 -7.588226463673554e-17
  outer loop
    vertex 10.369999999999996 1.25 0.7500000000000024
    vertex 11.120371720874394 1.2500000000000002 1.9999999999999936
    vertex 10.368343166869442 1.25 2.0014541254932987
  endloop
endfacet
facet normal 1.9753403610858582e-17 -1.0 -7.588226463673554e-17
  outer loop
    vertex 9.270000000000001 1.25 1.9999999999999936
    vertex 7.8299999999999965 1.25 0.7500000000000024
    vertex 9.270000000000001 1.25 0.7500000000000024
  endloop
endfacet
facet normal 1.9753403610858582e-17 -1.0 -7.588226463673554e-17
  outer loop
    vertex 7.8299999999999965 1.25 0.7500000000000024
    vertex 9.270000000000001 1.25 1.9999999999999936
    vertex 7.8299999999999965 1.25 1.9999999999999936
  endloop
endfacet
facet normal 1.9753403610858582e-17 -1.0 -7.588226463673554e-17
  outer loop
    vertex 4.1899999999999995 1.25 0.7500000000000081
    vertex 2.749999999999998 1.25 0.7500000000000024
    vertex 7.8299999999999965 1.25 0.7500000000000024
  endloop
endfacet
facet normal 1.9753403610858582e-17 -1.0 -7.588226463673554e-17
  outer loop
    vertex 2.749999999999998 1.25 0.7500000000000024
    vertex 4.1899999999999995 1.25 0.7500000000000081
    vertex 2.749999999999998 1.2499999999999996 2.0000000000000004
  endloop
endfacet
facet normal 1.9753403610858582e-17 -1.0 -7.588226463673554e-17
  outer loop
    vertex 2.749999999999998 1.2499999999999996 2.0000000000000004
    vertex 4.1899999999999995 1.25 0.7500000000000081
    vertex 4.1899999999999995 1.2499999999999996 2.0000000000000027
  endloop
endfacet
facet normal 1.9753403610858582e-17 -1.0 -7.588226463673554e-17
  outer loop
    vertex -1.0741636637870841e-17 1.25 6.000886150282096e-17
    vertex 1.6499999999999997 1.25 0.7500000000000024
    vertex -1.0741636637870841e-17 1.2499999999999996 2.000000000000004
  endloop
endfacet
facet normal 1.9753403610858582e-17 -1.0 -7.588226463673554e-17
  outer loop
    vertex 1.6499999999999997 1.25 0.7500000000000024
    vertex -1.0741636637870841e-17 1.25 6.000886150282096e-17
    vertex 11.120371720874394 1.2500000000000002 6.59473984270213e-15
  endloop
endfacet
facet normal 1.9753403610858582e-17 -1.0 -7.588226463673554e-17
  outer loop
    vertex 1.6499999999999997 1.25 0.7500000000000024
    vertex 11.120371720874394 1.2500000000000002 6.59473984270213e-15
    vertex 10.369999999999996 1.25 0.7500000000000024
  endloop
endfacet
facet normal 1.9753403610858582e-17 -1.0 -7.588226463673554e-17
  outer loop
    vertex 1.6499999999999997 1.25 0.7500000000000024
    vertex 10.369999999999996 1.25 0.7500000000000024
    vertex 9.270000000000001 1.25 0.7500000000000024
  endloop
endfacet
facet normal 1.9753403610858582e-17 -1.0 -7.588226463673554e-17
  outer loop
    vertex 1.6499999999999997 1.25 0.7500000000000024
    vertex 9.270000000000001 1.25 0.7500000000000024
    vertex 7.8299999999999965 1.25 0.7500000000000024
  endloop
endfacet
facet normal 1.9753403610858582e-17 -1.0 -7.588226463673554e-17
  outer loop
    vertex 1.6499999999999997 1.25 0.7500000000000024
    vertex 7.8299999999999965 1.25 0.7500000000000024
    vertex 2.749999999999998 1.25 0.7500000000000024
  endloop
endfacet
facet normal 1.9753403610858582e-17 -1.0 -7.588226463673554e-17
  outer loop
    vertex -1.0741636637870841e-17 1.2499999999999996 2.000000000000004
    vertex 1.6499999999999997 1.25 0.7500000000000024
    vertex 1.6499999999999997 1.25 2.0000000000000018
  endloop
endfacet
facet normal 3.431394564827334e-06 0.9999999999940883 2.2108507311048173e-07
  outer loop
    vertex 6.7299999999999995 6.9000000000000075 0.750000000000003
    vertex 9.270000000000001 6.9000000000000075 0.7500000000000022
    vertex 6.7299999999999995 6.90000000000001 1.1024550093479196e-14
  endloop
endfacet
facet normal 3.431394564827334e-06 0.9999999999940883 2.2108507311048173e-07
  outer loop
    vertex 9.270000000000001 6.9000000000000075 0.7500000000000022
    vertex 6.7299999999999995 6.9000000000000075 0.750000000000003
    vertex 7.8299999999999965 6.9000000000000075 0.750000000000003
  endloop
endfacet
facet normal 3.431394564827334e-06 0.9999999999940883 2.2108507311048173e-07
  outer loop
    vertex 9.270000000000001 6.9000000000000075 0.7500000000000022
    vertex 7.8299999999999965 6.9000000000000075 0.750000000000003
    vertex 9.270000000000001 6.9000000000000075 1.9999999999999936
  endloop
endfacet
facet normal 3.431394564827334e-06 0.9999999999940883 2.2108507311048173e-07
  outer loop
    vertex 9.270000000000001 6.9000000000000075 1.9999999999999936
    vertex 7.8299999999999965 6.9000000000000075 0.750000000000003
    vertex 7.8299999999999965 6.9000000000000075 1.9999999999999942
  endloop
endfacet
facet normal 3.431394564827334e-06 0.9999999999940883 2.2108507311048173e-07
  outer loop
    vertex 6.7299999999999995 6.90000000000001 1.1024550093479196e-14
    vertex 10.3698954403636 6.899968943088522 0.7501643372577281
    vertex 10.369999999999996 6.900000000000013 4.496757839245799e-16
  endloop
endfacet
facet normal 3.431394564827334e-06 0.9999999999940883 2.2108507311048173e-07
  outer loop
    vertex 10.3698954403636 6.899968943088522 0.7501643372577281
    vertex 6.7299999999999995 6.90000000000001 1.1024550093479196e-14
    vertex 9.270000000000001 6.9000000000000075 0.7500000000000022
  endloop
endfacet
facet normal -1.473465168632079e-16 -5.2501087432532e-16 -1.0
  outer loop
    vertex 11.120371720874394 14.600000000000012 -4.895832602210314e-15
    vertex 1.6499999999999997 13.100000000000007 -1.6652990779863432e-15
    vertex 2.8199664825478975e-15 14.600000000000012 8.02171594243067e-16
  endloop
endfacet
facet normal -1.473465168632079e-16 -5.2501087432532e-16 -1.0
  outer loop
    vertex 1.6499999999999997 13.100000000000007 -1.6652990779863432e-15
    vertex 11.120371720874394 14.600000000000012 -4.895832602210314e-15
    vertex 5.289999999999998 13.100000000000007 -1.3128032676678561e-15
  endloop
endfacet
facet normal -1.473465168632079e-16 -5.2501087432532e-16 -1.0
  outer loop
    vertex 5.289999999999998 13.100000000000007 -1.3128032676678561e-15
    vertex 11.120371720874394 14.600000000000012 -4.895832602210314e-15
    vertex 6.7299999999999995 13.100000000000007 -3.075282319260292e-15
  endloop
endfacet
facet normal -1.473465168632079e-16 -5.2501087432532e-16 -1.0
  outer loop
    vertex 5.289999999999998 13.100000000000007 -1.3128032676678561e-15
    vertex 6.7299999999999995 13.100000000000007 -3.075282319260292e-15
    vertex 5.289999999999998 11.900000000000015 -1.3128032676678561e-15
  endloop
endfacet
facet normal -1.473465168632079e-16 -5.2501087432532e-16 -1.0
  outer loop
    vertex 5.289999999999998 11.900000000000015 -1.3128032676678561e-15
    vertex 6.7299999999999995 13.100000000000007 -3.075282319260292e-15
    vertex 5.289999999999998 8.10000000000001 1.948444954112289e-14
  endloop
endfacet
facet normal -1.473465168632079e-16 -5.2501087432532e-16 -1.0
  outer loop
    vertex 5.289999999999998 8.10000000000001 1.948444954112289e-14
    vertex 6.7299999999999995 13.100000000000007 -3.075282319260292e-15
    vertex 5.289999999999998 6.90000000000001 1.948444954112289e-14
  endloop
endfacet
facet normal -1.473465168632079e-16 -5.2501087432532e-16 -1.0
  outer loop
    vertex 5.289999999999998 6.90000000000001 1.948444954112289e-14
    vertex 6.7299999999999995 13.100000000000007 -3.075282319260292e-15
    vertex 5.289999999999998 6.075000000000002 2.0189441161759867e-14
  endloop
endfacet
facet normal -1.473465168632079e-16 -5.2501087432532e-16 -1.0
  outer loop
    vertex 5.289999999999998 6.075000000000002 2.0189441161759867e-14
    vertex 6.7299999999999995 13.100000000000007 -3.075282319260292e-15
    vertex 6.729999999999999 6.075000000000002 2.0189441161759867e-14
  endloop
endfacet
facet normal -1.473465168632079e-16 -5.2501087432532e-16 -1.0
  outer loop
    vertex 6.729999999999999 6.075000000000002 2.0189441161759867e-14
    vertex 6.7299999999999995 13.100000000000007 -3.075282319260292e-15
    vertex 6.729999999999999 2.0750000000000037 2.136442719615485e-14
  endloop
endfacet
facet normal -1.473465168632079e-16 -5.2501087432532e-16 -1.0
  outer loop
    vertex 6.7299999999999995 13.100000000000007 -3.075282319260292e-15
    vertex 11.120371720874394 14.600000000000012 -4.895832602210314e-15
    vertex 10.369999999999996 13.100000000000007 -2.7227865089418047e-15
  endloop
endfacet
facet normal -1.473465168632079e-16 -5.2501087432532e-16 -1.0
  outer loop
    vertex 10.369999999999996 13.100000000000007 -2.7227865089418047e-15
    vertex 11.120371720874394 14.600000000000012 -4.895832602210314e-15
    vertex 10.369999999999996 11.900000000000015 -2.7227865089418047e-15
  endloop
endfacet
facet normal -1.473465168632079e-16 -5.2501087432532e-16 -1.0
  outer loop
    vertex 10.369999999999996 11.900000000000015 -2.7227865089418047e-15
    vertex 11.120371720874394 14.600000000000012 -4.895832602210314e-15
    vertex 10.369999999999996 8.100000000000014 3.2696422664724767e-15
  endloop
endfacet
facet normal -1.473465168632079e-16 -5.2501087432532e-16 -1.0
  outer loop
    vertex 10.369999999999996 8.100000000000014 3.2696422664724767e-15
    vertex 11.120371720874394 14.600000000000012 -4.895832602210314e-15
    vertex 10.369999999999996 6.900000000000013 4.496757839245799e-16
  endloop
endfacet
facet normal -1.473465168632079e-16 -5.2501087432532e-16 -1.0
  outer loop
    vertex -1.0741636637870841e-17 1.25 6.000886150282096e-17
    vertex 5.289999999999998 2.0750000000000037 2.136442719615485e-14
    vertex 11.120371720874394 1.2500000000000002 6.59473984270213e-15
  endloop
endfacet
facet normal -1.473465168632079e-16 -5.2501087432532e-16 -1.0
  outer loop
    vertex 5.289999999999998 2.0750000000000037 2.136442719615485e-14
    vertex -1.0741636637870841e-17 1.25 6.000886150282096e-17
    vertex 1.6500000000000026 6.90000000000001 6.089608749020373e-15
  endloop
endfacet
facet normal -1.473465168632079e-16 -5.2501087432532e-16 -1.0
  outer loop
    vertex 1.6500000000000026 6.90000000000001 6.089608749020373e-15
    vertex -1.0741636637870841e-17 1.25 6.000886150282096e-17
    vertex 2.8199664825478975e-15 14.600000000000012 8.02171594243067e-16
  endloop
endfacet
facet normal -1.473465168632079e-16 -5.2501087432532e-16 -1.0
  outer loop
    vertex 1.6500000000000026 6.90000000000001 6.089608749020373e-15
    vertex 2.8199664825478975e-15 14.600000000000012 8.02171594243067e-16
    vertex 1.6499999999999997 11.900000000000015 -1.6652990779863432e-15
  endloop
endfacet
facet normal -1.473465168632079e-16 -5.2501087432532e-16 -1.0
  outer loop
    vertex 1.6499999999999997 11.900000000000015 -1.6652990779863432e-15
    vertex 2.8199664825478975e-15 14.600000000000012 8.02171594243067e-16
    vertex 1.6499999999999997 13.100000000000007 -1.6652990779863432e-15
  endloop
endfacet
facet normal -1.473465168632079e-16 -5.2501087432532e-16 -1.0
  outer loop
    vertex 1.6500000000000026 6.90000000000001 6.089608749020373e-15
    vertex 1.6499999999999997 11.900000000000015 -1.6652990779863432e-15
    vertex 1.6500000000000026 8.10000000000001 1.1729541714116173e-14
  endloop
endfacet
facet normal -1.473465168632079e-16 -5.2501087432532e-16 -1.0
  outer loop
    vertex 5.289999999999998 2.0750000000000037 2.136442719615485e-14
    vertex 1.6500000000000026 6.90000000000001 6.089608749020373e-15
    vertex 5.289999999999998 6.90000000000001 1.948444954112289e-14
  endloop
endfacet
facet normal -1.473465168632079e-16 -5.2501087432532e-16 -1.0
  outer loop
    vertex 5.289999999999998 2.0750000000000037 2.136442719615485e-14
    vertex 5.289999999999998 6.90000000000001 1.948444954112289e-14
    vertex 5.289999999999998 6.075000000000002 2.0189441161759867e-14
  endloop
endfacet
facet normal -1.473465168632079e-16 -5.2501087432532e-16 -1.0
  outer loop
    vertex 11.120371720874394 1.2500000000000002 6.59473984270213e-15
    vertex 5.289999999999998 2.0750000000000037 2.136442719615485e-14
    vertex 6.729999999999999 2.0750000000000037 2.136442719615485e-14
  endloop
endfacet
facet normal -1.473465168632079e-16 -5.2501087432532e-16 -1.0
  outer loop
    vertex 11.120371720874394 1.2500000000000002 6.59473984270213e-15
    vertex 6.729999999999999 2.0750000000000037 2.136442719615485e-14
    vertex 6.7299999999999995 6.90000000000001 1.1024550093479196e-14
  endloop
endfacet
facet normal -1.473465168632079e-16 -5.2501087432532e-16 -1.0
  outer loop
    vertex 6.7299999999999995 6.90000000000001 1.1024550093479196e-14
    vertex 6.729999999999999 2.0750000000000037 2.136442719615485e-14
    vertex 6.7299999999999995 13.100000000000007 -3.075282319260292e-15
  endloop
endfacet
facet normal -1.473465168632079e-16 -5.2501087432532e-16 -1.0
  outer loop
    vertex 6.7299999999999995 6.90000000000001 1.1024550093479196e-14
    vertex 6.7299999999999995 13.100000000000007 -3.075282319260292e-15
    vertex 6.7299999999999995 11.900000000000015 -3.075282319260292e-15
  endloop
endfacet
facet normal -1.473465168632079e-16 -5.2501087432532e-16 -1.0
  outer loop
    vertex 6.7299999999999995 6.90000000000001 1.1024550093479196e-14
    vertex 6.7299999999999995 11.900000000000015 -3.075282319260292e-15
    vertex 6.7299999999999995 8.10000000000001 1.1024550093479196e-14
  endloop
endfacet
facet normal -1.473465168632079e-16 -5.2501087432532e-16 -1.0
  outer loop
    vertex 11.120371720874394 1.2500000000000002 6.59473984270213e-15
    vertex 6.7299999999999995 6.90000000000001 1.1024550093479196e-14
    vertex 10.369999999999996 6.900000000000013 4.496757839245799e-16
  endloop
endfacet
facet normal -1.473465168632079e-16 -5.2501087432532e-16 -1.0
  outer loop
    vertex 11.120371720874394 1.2500000000000002 6.59473984270213e-15
    vertex 10.369999999999996 6.900000000000013 4.496757839245799e-16
    vertex 11.120371720874394 14.600000000000012 -4.895832602210314e-15
  endloop
endfacet
facet normal -1.473465168632079e-16 -5.2501087432532e-16 -1.0
  outer loop
    vertex 7.8299999999999965 11.90000000000002 -2.3702906986233178e-15
    vertex 6.7299999999999995 8.10000000000001 1.1024550093479196e-14
    vertex 6.7299999999999995 11.900000000000015 -3.075282319260292e-15
  endloop
endfacet
facet normal -1.473465168632079e-16 -5.2501087432532e-16 -1.0
  outer loop
    vertex 6.7299999999999995 8.10000000000001 1.1024550093479196e-14
    vertex 7.8299999999999965 11.90000000000002 -2.3702906986233178e-15
    vertex 10.369999999999996 8.100000000000014 3.2696422664724767e-15
  endloop
endfacet
facet normal -1.473465168632079e-16 -5.2501087432532e-16 -1.0
  outer loop
    vertex 10.369999999999996 8.100000000000014 3.2696422664724767e-15
    vertex 7.8299999999999965 11.90000000000002 -2.3702906986233178e-15
    vertex 9.270000000000001 11.90000000000002 -9.603074573493689e-16
  endloop
endfacet
facet normal -1.473465168632079e-16 -5.2501087432532e-16 -1.0
  outer loop
    vertex 10.369999999999996 8.100000000000014 3.2696422664724767e-15
    vertex 9.270000000000001 11.90000000000002 -9.603074573493689e-16
    vertex 10.369999999999996 11.900000000000015 -2.7227865089418047e-15
  endloop
endfacet
facet normal -1.473465168632079e-16 -5.2501087432532e-16 -1.0
  outer loop
    vertex 2.7500000000000004 11.90000000000002 -3.075282319260292e-15
    vertex 1.6500000000000026 8.10000000000001 1.1729541714116173e-14
    vertex 1.6499999999999997 11.900000000000015 -1.6652990779863432e-15
  endloop
endfacet
facet normal -1.473465168632079e-16 -5.2501087432532e-16 -1.0
  outer loop
    vertex 1.6500000000000026 8.10000000000001 1.1729541714116173e-14
    vertex 2.7500000000000004 11.90000000000002 -3.075282319260292e-15
    vertex 5.289999999999998 8.10000000000001 1.948444954112289e-14
  endloop
endfacet
facet normal -1.473465168632079e-16 -5.2501087432532e-16 -1.0
  outer loop
    vertex 5.289999999999998 8.10000000000001 1.948444954112289e-14
    vertex 2.7500000000000004 11.90000000000002 -3.075282319260292e-15
    vertex 4.190000000000002 11.90000000000002 -2.3702906986233178e-15
  endloop
endfacet
facet normal -1.473465168632079e-16 -5.2501087432532e-16 -1.0
  outer loop
    vertex 5.289999999999998 8.10000000000001 1.948444954112289e-14
    vertex 4.190000000000002 11.90000000000002 -2.3702906986233178e-15
    vertex 5.289999999999998 11.900000000000015 -1.3128032676678561e-15
  endloop
endfacet
facet normal 5.234291021010749e-16 1.0 -1.4493219807514895e-15
  outer loop
    vertex 2.8199664825478975e-15 14.600000000000012 8.02171594243067e-16
    vertex 11.120371720874394 14.600000000000012 4.539999999999995
    vertex 11.120371720874394 14.600000000000012 -4.895832602210314e-15
  endloop
endfacet
facet normal 5.234291021010749e-16 1.0 -1.4493219807514895e-15
  outer loop
    vertex 11.120371720874394 14.600000000000012 4.539999999999995
    vertex 2.8199664825478975e-15 14.600000000000012 8.02171594243067e-16
    vertex 3.154871189409682e-15 14.600000000000026 4.539999999999995
  endloop
endfacet
facet normal 1.0 0.0 0.0
  outer loop
    vertex 11.120371720874394 14.600000000000012 -4.895832602210314e-15
    vertex 11.120371720874394 1.2500000000000002 1.9999999999999936
    vertex 11.120371720874394 1.2500000000000002 6.59473984270213e-15
  endloop
endfacet
facet normal 1.0 0.0 0.0
  outer loop
    vertex 11.120371720874394 1.2500000000000002 1.9999999999999936
    vertex 11.120371720874394 14.600000000000012 -4.895832602210314e-15
    vertex 11.120371720874394 6.900000028956722 2.0014541254932987
  endloop
endfacet
facet normal 1.0 0.0 0.0
  outer loop
    vertex 11.120371720874394 6.900000028956722 2.0014541254932987
    vertex 11.120371720874394 14.600000000000012 4.539999999999995
    vertex 11.120371720874394 6.9000000000000075 4.539999999999995
  endloop
endfacet
facet normal 1.0 0.0 0.0
  outer loop
    vertex 11.120371720874394 14.600000000000012 4.539999999999995
    vertex 11.120371720874394 6.900000028956722 2.0014541254932987
    vertex 11.120371720874394 14.600000000000012 -4.895832602210314e-15
  endloop
endfacet
facet normal 4.357736087737901e-16 1.0179370955162375e-15 1.0
  outer loop
    vertex 6.7299999999999995 6.900000000000013 4.540000000000003
    vertex 5.289999999999998 13.100000000000012 4.539999999999994
    vertex 5.289999999999998 6.900000000000013 4.540000000000003
  endloop
endfacet
facet normal 4.357736087737901e-16 1.0179370955162375e-15 1.0
  outer loop
    vertex 11.120371720874394 6.9000000000000075 4.539999999999995
    vertex 10.369999999999996 13.100000000000012 4.539999999999994
    vertex 10.369566566860358 6.900000000000013 4.539999999999998
  endloop
endfacet
facet normal 4.357736087737901e-16 1.0179370955162375e-15 1.0
  outer loop
    vertex 1.6500000000000026 6.900000000000013 4.540000000000007
    vertex 3.154871189409682e-15 14.600000000000026 4.539999999999995
    vertex 2.8199664825478975e-15 6.900000000000013 4.540000000000007
  endloop
endfacet
facet normal 4.357736087737901e-16 1.0179370955162375e-15 1.0
  outer loop
    vertex 3.154871189409682e-15 14.600000000000026 4.539999999999995
    vertex 1.6500000000000026 6.900000000000013 4.540000000000007
    vertex 1.6500000000000026 13.100000000000012 4.539999999999994
  endloop
endfacet
facet normal 4.357736087737901e-16 1.0179370955162375e-15 1.0
  outer loop
    vertex 3.154871189409682e-15 14.600000000000026 4.539999999999995
    vertex 1.6500000000000026 13.100000000000012 4.539999999999994
    vertex 11.120371720874394 14.600000000000012 4.539999999999995
  endloop
endfacet
facet normal 4.357736087737901e-16 1.0179370955162375e-15 1.0
  outer loop
    vertex 11.120371720874394 14.600000000000012 4.539999999999995
    vertex 1.6500000000000026 13.100000000000012 4.539999999999994
    vertex 5.289999999999998 13.100000000000012 4.539999999999994
  endloop
endfacet
facet normal 4.357736087737901e-16 1.0179370955162375e-15 1.0
  outer loop
    vertex 11.120371720874394 14.600000000000012 4.539999999999995
    vertex 5.289999999999998 13.100000000000012 4.539999999999994
    vertex 6.7299999999999995 13.100000000000012 4.539999999999994
  endloop
endfacet
facet normal 4.357736087737901e-16 1.0179370955162375e-15 1.0
  outer loop
    vertex 6.7299999999999995 13.100000000000012 4.539999999999994
    vertex 5.289999999999998 13.100000000000012 4.539999999999994
    vertex 6.7299999999999995 6.900000000000013 4.540000000000003
  endloop
endfacet
facet normal 4.357736087737901e-16 1.0179370955162375e-15 1.0
  outer loop
    vertex 11.120371720874394 14.600000000000012 4.539999999999995
    vertex 6.7299999999999995 13.100000000000012 4.539999999999994
    vertex 10.369999999999996 13.100000000000012 4.539999999999994
  endloop
endfacet
facet normal 4.357736087737901e-16 1.0179370955162375e-15 1.0
  outer loop
    vertex 11.120371720874394 14.600000000000012 4.539999999999995
    vertex 10.369999999999996 13.100000000000012 4.539999999999994
    vertex 11.120371720874394 6.9000000000000075 4.539999999999995
  endloop
endfacet
facet normal 7.554354796853177e-10 -1.0 -1.1481717312389669e-08
  outer loop
    vertex 11.120371720874394 6.9000000000000075 4.539999999999995
    vertex 10.369152358579743 6.900000028956722 2.0014541254932987
    vertex 11.120371720874394 6.900000028956722 2.0014541254932987
  endloop
endfacet
facet normal 7.554354796853177e-10 -1.0 -1.1481717312389669e-08
  outer loop
    vertex 10.369152358579743 6.900000028956722 2.0014541254932987
    vertex 11.120371720874394 6.9000000000000075 4.539999999999995
    vertex 10.369566566860358 6.900000000000013 4.539999999999998
  endloop
endfacet
facet normal -3.687192011898561e-06 -0.9999999999929587 -6.979490103130303e-07
  outer loop
    vertex 10.369549818117973 8.0999689528476 3.290164285617712
    vertex 6.7299999999999995 8.10000000000001 1.1024550093479196e-14
    vertex 10.369999999999996 8.100000000000014 3.2696422664724767e-15
  endloop
endfacet
facet normal -3.687192011898561e-06 -0.9999999999929587 -6.979490103130303e-07
  outer loop
    vertex 6.7299999999999995 8.10000000000001 1.1024550093479196e-14
    vertex 10.369549818117973 8.0999689528476 3.290164285617712
    vertex 9.270000000000001 8.100000000000014 3.2899999999999965
  endloop
endfacet
facet normal -3.687192011898561e-06 -0.9999999999929587 -6.979490103130303e-07
  outer loop
    vertex 9.270000000000037 8.100000000000009 4.54000000000001
    vertex 7.8299999999999965 8.100000000000014 3.2899999999999965
    vertex 9.270000000000001 8.100000000000014 3.2899999999999965
  endloop
endfacet
facet normal -3.687192011898561e-06 -0.9999999999929587 -6.979490103130303e-07
  outer loop
    vertex 7.8299999999999965 8.100000000000014 3.2899999999999965
    vertex 9.270000000000037 8.100000000000009 4.54000000000001
    vertex 7.83000000000003 8.100000000000005 4.540000000000018
  endloop
endfacet
facet normal -3.687192011898561e-06 -0.9999999999929587 -6.979490103130303e-07
  outer loop
    vertex 9.270000000000001 8.100000000000014 3.2899999999999965
    vertex 6.7299999999999995 8.100000000000014 3.2899999999999965
    vertex 6.7299999999999995 8.10000000000001 1.1024550093479196e-14
  endloop
endfacet
facet normal -3.687192011898561e-06 -0.9999999999929587 -6.979490103130303e-07
  outer loop
    vertex 6.7299999999999995 8.100000000000014 3.2899999999999965
    vertex 9.270000000000001 8.100000000000014 3.2899999999999965
    vertex 7.8299999999999965 8.100000000000014 3.2899999999999965
  endloop
endfacet
facet normal -0.9999999928135228 7.270493902051983e-05 -9.532547590005881e-05
  outer loop
    vertex 10.369566566860358 6.900000000000013 4.539999999999998
    vertex 10.369549818117973 8.0999689528476 3.290164285617712
    vertex 10.369152358579743 6.900000028956722 2.0014541254932987
  endloop
endfacet
facet normal -0.9999999928135228 7.270493902051983e-05 -9.532547590005881e-05
  outer loop
    vertex 10.369549818117973 8.0999689528476 3.290164285617712
    vertex 10.369566566860358 6.900000000000013 4.539999999999998
    vertex 10.369999999999996 13.100000000000012 4.539999999999994
  endloop
endfacet
facet normal -0.9999999928135228 7.270493902051983e-05 -9.532547590005881e-05
  outer loop
    vertex 10.369549818117973 8.0999689528476 3.290164285617712
    vertex 10.369999999999996 13.100000000000012 4.539999999999994
    vertex 10.369999999999996 11.900000000000015 -2.7227865089418047e-15
  endloop
endfacet
facet normal -0.9999999928135228 7.270493902051983e-05 -9.532547590005881e-05
  outer loop
    vertex 10.369999999999996 11.900000000000015 -2.7227865089418047e-15
    vertex 10.369999999999996 13.100000000000012 4.539999999999994
    vertex 10.369999999999996 13.100000000000007 -2.7227865089418047e-15
  endloop
endfacet
facet normal -0.9999999928135228 7.270493902051983e-05 -9.532547590005881e-05
  outer loop
    vertex 10.369152358579743 6.900000028956722 2.0014541254932987
    vertex 10.369999999999996 1.25 0.7500000000000024
    vertex 10.368343166869442 1.25 2.0014541254932987
  endloop
endfacet
facet normal -0.9999999928135228 7.270493902051983e-05 -9.532547590005881e-05
  outer loop
    vertex 10.369999999999996 1.25 0.7500000000000024
    vertex 10.369152358579743 6.900000028956722 2.0014541254932987
    vertex 10.3698954403636 6.899968943088522 0.7501643372577281
  endloop
endfacet
facet normal -0.9999999928135228 7.270493902051983e-05 -9.532547590005881e-05
  outer loop
    vertex 10.3698954403636 6.899968943088522 0.7501643372577281
    vertex 10.369152358579743 6.900000028956722 2.0014541254932987
    vertex 10.369999999999996 6.900000000000013 4.496757839245799e-16
  endloop
endfacet
facet normal -0.9999999928135228 7.270493902051983e-05 -9.532547590005881e-05
  outer loop
    vertex 10.369999999999996 6.900000000000013 4.496757839245799e-16
    vertex 10.369152358579743 6.900000028956722 2.0014541254932987
    vertex 10.369999999999996 8.100000000000014 3.2696422664724767e-15
  endloop
endfacet
facet normal -0.9999999928135228 7.270493902051983e-05 -9.532547590005881e-05
  outer loop
    vertex 10.369999999999996 8.100000000000014 3.2696422664724767e-15
    vertex 10.369152358579743 6.900000028956722 2.0014541254932987
    vertex 10.369549818117973 8.0999689528476 3.290164285617712
  endloop
endfacet
facet normal 0.0004458188247974022 -0.00012871558249515414 0.9999998923389315
  outer loop
    vertex 11.120371720874394 1.2500000000000002 1.9999999999999936
    vertex 10.369152358579743 6.900000028956722 2.0014541254932987
    vertex 10.368343166869442 1.25 2.0014541254932987
  endloop
endfacet
facet normal 0.0004458188247974022 -0.00012871558249515414 0.9999998923389315
  outer loop
    vertex 10.369152358579743 6.900000028956722 2.0014541254932987
    vertex 11.120371720874394 1.2500000000000002 1.9999999999999936
    vertex 11.120371720874394 6.900000028956722 2.0014541254932987
  endloop
endfacet
facet normal -4.721791981751856e-05 0.6545595538075062 0.7560104419184875
  outer loop
    vertex 10.369549818117973 8.0999689528476 3.290164285617712
    vertex 9.270000000000001 11.90000000000002 -9.603074573493689e-16
    vertex 9.270000000000001 8.100000000000014 3.2899999999999965
  endloop
endfacet
facet normal -4.721791981751856e-05 0.6545595538075062 0.7560104419184875
  outer loop
    vertex 9.270000000000001 11.90000000000002 -9.603074573493689e-16
    vertex 10.369549818117973 8.0999689528476 3.290164285617712
    vertex 10.369999999999996 11.900000000000015 -2.7227865089418047e-15
  endloop
endfacet
facet normal -7.469895825996713e-05 -1.4543811302799913e-05 0.9999999971042717
  outer loop
    vertex 10.369999999999996 1.25 0.7500000000000024
    vertex 9.270000000000001 6.9000000000000075 0.7500000000000022
    vertex 9.270000000000001 1.25 0.7500000000000024
  endloop
endfacet
facet normal -7.469895825996713e-05 -1.4543811302799913e-05 0.9999999971042717
  outer loop
    vertex 9.270000000000001 6.9000000000000075 0.7500000000000022
    vertex 10.369999999999996 1.25 0.7500000000000024
    vertex 10.3698954403636 6.899968943088522 0.7501643372577281
  endloop
endfacet
endsolid LED jig
