solid LED jig 2
facet normal 0.0 0.0 -1.0
  outer loop
    vertex 28.0 12.0 0.0
    vertex 0.0 0.0 0.0
    vertex 0.0 12.0 0.0
  endloop
endfacet
facet normal 0.0 0.0 -1.0
  outer loop
    vertex 0.0 0.0 0.0
    vertex 28.0 12.0 0.0
    vertex 28.0 0.0 0.0
  endloop
endfacet
facet normal 1.0 -0.0 -0.0
  outer loop
    vertex 28.0 0.0 0.0
    vertex 28.0 1.5170494119650244 7.000000000000005
    vertex 28.0 0.0 14.000000000000005
  endloop
endfacet
facet normal 1.0 -0.0 -0.0
  outer loop
    vertex 28.0 1.5170494119650244 7.000000000000005
    vertex 28.0 0.0 0.0
    vertex 28.0 12.0 0.0
  endloop
endfacet
facet normal 1.0 -0.0 -0.0
  outer loop
    vertex 28.0 1.5170494119650244 7.000000000000005
    vertex 28.0 12.0 0.0
    vertex 28.0 5.482950588034975 7.000000000000005
  endloop
endfacet
facet normal 1.0 -0.0 -0.0
  outer loop
    vertex 28.0 5.482950588034975 7.000000000000005
    vertex 28.0 12.0 0.0
    vertex 28.000000000000004 6.508311277026848 7.000000000000014
  endloop
endfacet
facet normal 1.0 -0.0 -0.0
  outer loop
    vertex 28.0 5.482950588034975 7.000000000000005
    vertex 28.000000000000004 6.508311277026848 7.000000000000014
    vertex 28.0 5.482950588034975 14.000000000000005
  endloop
endfacet
facet normal 1.0 -0.0 -0.0
  outer loop
    vertex 28.000000000000004 6.508311277026848 7.000000000000014
    vertex 28.0 12.0 0.0
    vertex 28.000000000000004 10.49168872297315 7.000000000000014
  endloop
endfacet
facet normal 1.0 -0.0 -0.0
  outer loop
    vertex 28.000000000000004 10.49168872297315 7.000000000000014
    vertex 28.0 12.0 0.0
    vertex 28.0 10.49168872297315 14.0
  endloop
endfacet
facet normal 1.0 -0.0 -0.0
  outer loop
    vertex 28.0 10.49168872297315 14.0
    vertex 28.0 12.0 0.0
    vertex 28.0 12.0 14.000000000000005
  endloop
endfacet
facet normal 1.0 -0.0 -0.0
  outer loop
    vertex 28.0 6.508311277026848 14.0
    vertex 28.0 5.482950588034975 14.000000000000005
    vertex 28.000000000000004 6.508311277026848 7.000000000000014
  endloop
endfacet
facet normal 1.0 -0.0 -0.0
  outer loop
    vertex 28.0 1.5170494119650244 14.000000000000005
    vertex 28.0 0.0 14.000000000000005
    vertex 28.0 1.5170494119650244 7.000000000000005
  endloop
endfacet
facet normal -0.0 -1.0 -0.0
  outer loop
    vertex 28.0 0.0 14.000000000000005
    vertex 0.0 0.0 0.0
    vertex 28.0 0.0 0.0
  endloop
endfacet
facet normal -0.0 -1.0 -0.0
  outer loop
    vertex 0.0 0.0 0.0
    vertex 28.0 0.0 14.000000000000005
    vertex 22.0 0.0 12.500000000000002
  endloop
endfacet
facet normal -0.0 -1.0 -0.0
  outer loop
    vertex 0.0 0.0 0.0
    vertex 22.0 0.0 12.500000000000002
    vertex 11.0 0.0 9.999999999999998
  endloop
endfacet
facet normal -0.0 -1.0 -0.0
  outer loop
    vertex 22.0 0.0 12.500000000000002
    vertex 28.0 0.0 14.000000000000005
    vertex 22.0 0.0 14.000000000000002
  endloop
endfacet
facet normal -0.0 -1.0 -0.0
  outer loop
    vertex 11.0 0.0 9.999999999999998
    vertex 20.0 0.0 12.500000000000002
    vertex 11.0 0.0 14.000000000000002
  endloop
endfacet
facet normal -0.0 -1.0 -0.0
  outer loop
    vertex 20.0 0.0 12.500000000000002
    vertex 11.0 0.0 9.999999999999998
    vertex 22.0 0.0 12.500000000000002
  endloop
endfacet
facet normal -0.0 -1.0 -0.0
  outer loop
    vertex 11.0 0.0 14.000000000000002
    vertex 20.0 0.0 12.500000000000002
    vertex 20.0 0.0 14.000000000000002
  endloop
endfacet
facet normal -0.0 -1.0 -0.0
  outer loop
    vertex 0.0 0.0 0.0
    vertex 8.999999999999998 0.0 9.999999999999998
    vertex 4.3384099731506116e-16 0.0 14.0
  endloop
endfacet
facet normal -0.0 -1.0 -0.0
  outer loop
    vertex 8.999999999999998 0.0 9.999999999999998
    vertex 0.0 0.0 0.0
    vertex 11.0 0.0 9.999999999999998
  endloop
endfacet
facet normal -0.0 -1.0 -0.0
  outer loop
    vertex 4.3384099731506116e-16 0.0 14.0
    vertex 8.999999999999998 0.0 9.999999999999998
    vertex 8.999999999999998 0.0 13.999999999999996
  endloop
endfacet
facet normal -0.0 1.0 0.0
  outer loop
    vertex 4.3384099731506116e-16 12.0 14.0
    vertex 28.0 12.0 0.0
    vertex 0.0 12.0 0.0
  endloop
endfacet
facet normal -0.0 1.0 0.0
  outer loop
    vertex 28.0 12.0 0.0
    vertex 4.3384099731506116e-16 12.0 14.0
    vertex 8.999999999999998 12.0 9.999999999999998
  endloop
endfacet
facet normal -0.0 1.0 0.0
  outer loop
    vertex 8.999999999999998 12.0 9.999999999999998
    vertex 4.3384099731506116e-16 12.0 14.0
    vertex 8.999999999999998 12.0 13.999999999999996
  endloop
endfacet
facet normal -0.0 1.0 0.0
  outer loop
    vertex 11.0 12.0 14.000000000000002
    vertex 20.0 12.0 12.500000000000002
    vertex 11.0 12.0 9.999999999999998
  endloop
endfacet
facet normal -0.0 1.0 0.0
  outer loop
    vertex 20.0 12.0 12.500000000000002
    vertex 11.0 12.0 14.000000000000002
    vertex 20.0 12.0 14.000000000000002
  endloop
endfacet
facet normal -0.0 1.0 0.0
  outer loop
    vertex 28.0 12.0 0.0
    vertex 22.0 12.0 12.500000000000002
    vertex 28.0 12.0 14.000000000000005
  endloop
endfacet
facet normal -0.0 1.0 0.0
  outer loop
    vertex 22.0 12.0 12.500000000000002
    vertex 28.0 12.0 0.0
    vertex 11.0 12.0 9.999999999999998
  endloop
endfacet
facet normal -0.0 1.0 0.0
  outer loop
    vertex 11.0 12.0 9.999999999999998
    vertex 28.0 12.0 0.0
    vertex 8.999999999999998 12.0 9.999999999999998
  endloop
endfacet
facet normal -0.0 1.0 0.0
  outer loop
    vertex 22.0 12.0 12.500000000000002
    vertex 11.0 12.0 9.999999999999998
    vertex 20.0 12.0 12.500000000000002
  endloop
endfacet
facet normal -0.0 1.0 0.0
  outer loop
    vertex 28.0 12.0 14.000000000000005
    vertex 22.0 12.0 12.500000000000002
    vertex 22.0 12.0 14.000000000000002
  endloop
endfacet
facet normal -0.0 -0.0 1.0
  outer loop
    vertex 11.0 0.0 9.999999999999998
    vertex 8.999999999999998 12.0 9.999999999999998
    vertex 8.999999999999998 0.0 9.999999999999998
  endloop
endfacet
facet normal -0.0 -0.0 1.0
  outer loop
    vertex 8.999999999999998 12.0 9.999999999999998
    vertex 11.0 0.0 9.999999999999998
    vertex 11.0 12.0 9.999999999999998
  endloop
endfacet
facet normal 2.4200000541463864e-16 2.751442338663652e-19 1.0
  outer loop
    vertex 8.999999999999998 0.0 13.999999999999996
    vertex 5.872960753350855e-16 1.2499999999999998 14.0
    vertex 4.3384099731506116e-16 0.0 14.0
  endloop
endfacet
facet normal 2.4200000541463864e-16 2.751442338663652e-19 1.0
  outer loop
    vertex 5.872960753350855e-16 1.2499999999999998 14.0
    vertex 8.999999999999998 0.0 13.999999999999996
    vertex 0.5176380902050423 1.3181483474218634 14.0
  endloop
endfacet
facet normal 2.4200000541463864e-16 2.751442338663652e-19 1.0
  outer loop
    vertex 0.5176380902050423 1.3181483474218634 14.0
    vertex 8.999999999999998 0.0 13.999999999999996
    vertex 1.0000000000000004 1.5179491924311228 14.0
  endloop
endfacet
facet normal 2.4200000541463864e-16 2.751442338663652e-19 1.0
  outer loop
    vertex 1.0000000000000004 1.5179491924311228 14.0
    vertex 8.999999999999998 0.0 13.999999999999996
    vertex 1.4142135623730954 1.8357864376269046 14.0
  endloop
endfacet
facet normal 2.4200000541463864e-16 2.751442338663652e-19 1.0
  outer loop
    vertex 1.4142135623730954 1.8357864376269046 14.0
    vertex 8.999999999999998 0.0 13.999999999999996
    vertex 1.7320508075688772 2.25 14.0
  endloop
endfacet
facet normal 2.4200000541463864e-16 2.751442338663652e-19 1.0
  outer loop
    vertex 1.7320508075688772 2.25 14.0
    vertex 8.999999999999998 0.0 13.999999999999996
    vertex 1.9318516525781364 2.7323619097949585 14.0
  endloop
endfacet
facet normal 2.4200000541463864e-16 2.751442338663652e-19 1.0
  outer loop
    vertex 1.9318516525781364 2.7323619097949585 14.0
    vertex 8.999999999999998 0.0 13.999999999999996
    vertex 1.9999999999999998 3.2499999999999996 14.0
  endloop
endfacet
facet normal 2.4200000541463864e-16 2.751442338663652e-19 1.0
  outer loop
    vertex 1.9999999999999998 3.2499999999999996 14.0
    vertex 8.999999999999998 0.0 13.999999999999996
    vertex 1.9999999999999998 8.499999999999998 14.0
  endloop
endfacet
facet normal 2.4200000541463864e-16 2.751442338663652e-19 1.0
  outer loop
    vertex 0.5176380902050408 10.431851652578136 14.0
    vertex 4.3384099731506116e-16 12.0 14.0
    vertex 5.963073866698246e-18 10.499999999999998 14.0
  endloop
endfacet
facet normal 2.4200000541463864e-16 2.751442338663652e-19 1.0
  outer loop
    vertex 4.3384099731506116e-16 12.0 14.0
    vertex 0.5176380902050408 10.431851652578136 14.0
    vertex 8.999999999999998 12.0 13.999999999999996
  endloop
endfacet
facet normal 2.4200000541463864e-16 2.751442338663652e-19 1.0
  outer loop
    vertex 8.999999999999998 12.0 13.999999999999996
    vertex 0.5176380902050408 10.431851652578136 14.0
    vertex 0.9999999999999987 10.232050807568877 14.0
  endloop
endfacet
facet normal 2.4200000541463864e-16 2.751442338663652e-19 1.0
  outer loop
    vertex 8.999999999999998 12.0 13.999999999999996
    vertex 0.9999999999999987 10.232050807568877 14.0
    vertex 1.4142135623730947 9.914213562373094 14.0
  endloop
endfacet
facet normal 2.4200000541463864e-16 2.751442338663652e-19 1.0
  outer loop
    vertex 8.999999999999998 12.0 13.999999999999996
    vertex 1.4142135623730947 9.914213562373094 14.0
    vertex 1.7320508075688765 9.5 14.0
  endloop
endfacet
facet normal 2.4200000541463864e-16 2.751442338663652e-19 1.0
  outer loop
    vertex 8.999999999999998 12.0 13.999999999999996
    vertex 1.7320508075688765 9.5 14.0
    vertex 1.931851652578136 9.017638090205041 14.0
  endloop
endfacet
facet normal 2.4200000541463864e-16 2.751442338663652e-19 1.0
  outer loop
    vertex 8.999999999999998 12.0 13.999999999999996
    vertex 1.931851652578136 9.017638090205041 14.0
    vertex 1.9999999999999998 8.499999999999998 14.0
  endloop
endfacet
facet normal 2.4200000541463864e-16 2.751442338663652e-19 1.0
  outer loop
    vertex 8.999999999999998 12.0 13.999999999999996
    vertex 1.9999999999999998 8.499999999999998 14.0
    vertex 8.999999999999998 0.0 13.999999999999996
  endloop
endfacet
facet normal 2.4200000541463864e-16 2.751442338663652e-19 1.0
  outer loop
    vertex 0.5176380902050408 5.181851652578136 14.0
    vertex 4.958217935256394e-16 6.499999999999999 14.0
    vertex 9.74373556761444e-17 5.249999999999999 14.0
  endloop
endfacet
facet normal 2.4200000541463864e-16 2.751442338663652e-19 1.0
  outer loop
    vertex 4.958217935256394e-16 6.499999999999999 14.0
    vertex 0.5176380902050408 5.181851652578136 14.0
    vertex 0.5176380902050421 6.568148347421863 14.0
  endloop
endfacet
facet normal 2.4200000541463864e-16 2.751442338663652e-19 1.0
  outer loop
    vertex 0.5176380902050421 6.568148347421863 14.0
    vertex 0.5176380902050408 5.181851652578136 14.0
    vertex 0.9999999999999989 4.982050807568878 14.0
  endloop
endfacet
facet normal 2.4200000541463864e-16 2.751442338663652e-19 1.0
  outer loop
    vertex 0.5176380902050421 6.568148347421863 14.0
    vertex 0.9999999999999989 4.982050807568878 14.0
    vertex 1.0000000000000002 6.7679491924311215 14.0
  endloop
endfacet
facet normal 2.4200000541463864e-16 2.751442338663652e-19 1.0
  outer loop
    vertex 1.0000000000000002 6.7679491924311215 14.0
    vertex 0.9999999999999989 4.982050807568878 14.0
    vertex 1.414213562373095 4.664213562373095 14.0
  endloop
endfacet
facet normal 2.4200000541463864e-16 2.751442338663652e-19 1.0
  outer loop
    vertex 1.0000000000000002 6.7679491924311215 14.0
    vertex 1.414213562373095 4.664213562373095 14.0
    vertex 1.4142135623730951 7.085786437626902 14.0
  endloop
endfacet
facet normal 2.4200000541463864e-16 2.751442338663652e-19 1.0
  outer loop
    vertex 1.4142135623730951 7.085786437626902 14.0
    vertex 1.414213562373095 4.664213562373095 14.0
    vertex 1.7320508075688765 4.250000000000001 14.0
  endloop
endfacet
facet normal 2.4200000541463864e-16 2.751442338663652e-19 1.0
  outer loop
    vertex 1.4142135623730951 7.085786437626902 14.0
    vertex 1.7320508075688765 4.250000000000001 14.0
    vertex 1.7320508075688772 7.499999999999999 14.0
  endloop
endfacet
facet normal 2.4200000541463864e-16 2.751442338663652e-19 1.0
  outer loop
    vertex 1.7320508075688772 7.499999999999999 14.0
    vertex 1.7320508075688765 4.250000000000001 14.0
    vertex 1.931851652578136 3.7676380902050424 14.0
  endloop
endfacet
facet normal 2.4200000541463864e-16 2.751442338663652e-19 1.0
  outer loop
    vertex 1.7320508075688772 7.499999999999999 14.0
    vertex 1.931851652578136 3.7676380902050424 14.0
    vertex 1.9318516525781364 7.982361909794958 14.0
  endloop
endfacet
facet normal 2.4200000541463864e-16 2.751442338663652e-19 1.0
  outer loop
    vertex 1.9318516525781364 7.982361909794958 14.0
    vertex 1.931851652578136 3.7676380902050424 14.0
    vertex 1.9999999999999998 3.2499999999999996 14.0
  endloop
endfacet
facet normal 2.4200000541463864e-16 2.751442338663652e-19 1.0
  outer loop
    vertex 1.9318516525781364 7.982361909794958 14.0
    vertex 1.9999999999999998 3.2499999999999996 14.0
    vertex 1.9999999999999998 8.499999999999998 14.0
  endloop
endfacet
facet normal 1.0 0.0 -1.0846024932876531e-16
  outer loop
    vertex 8.999999999999998 12.0 9.999999999999998
    vertex 8.999999999999998 0.0 13.999999999999996
    vertex 8.999999999999998 0.0 9.999999999999998
  endloop
endfacet
facet normal 1.0 0.0 -1.0846024932876531e-16
  outer loop
    vertex 8.999999999999998 0.0 13.999999999999996
    vertex 8.999999999999998 12.0 9.999999999999998
    vertex 8.999999999999998 12.0 13.999999999999996
  endloop
endfacet
facet normal 7.649065929453786e-17 9.516771282163175e-16 1.0
  outer loop
    vertex 22.0 0.0 14.000000000000002
    vertex 26.158294321533106 2.7201793835100276 14.000000000000005
    vertex 22.0 12.0 14.000000000000002
  endloop
endfacet
facet normal 7.649065929453786e-17 9.516771282163175e-16 1.0
  outer loop
    vertex 26.158294321533106 2.7201793835100276 14.000000000000005
    vertex 22.0 0.0 14.000000000000002
    vertex 26.42288134805679 2.27008262159898 14.000000000000005
  endloop
endfacet
facet normal 7.649065929453786e-17 9.516771282163175e-16 1.0
  outer loop
    vertex 26.42288134805679 2.27008262159898 14.000000000000005
    vertex 22.0 0.0 14.000000000000002
    vertex 28.0 0.0 14.000000000000005
  endloop
endfacet
facet normal 7.649065929453786e-17 9.516771282163175e-16 1.0
  outer loop
    vertex 22.0 12.0 14.000000000000002
    vertex 26.158294321533106 2.7201793835100276 14.000000000000005
    vertex 26.019216493434403 3.2234196317203643 14.000000000000005
  endloop
endfacet
facet normal 7.649065929453786e-17 9.516771282163175e-16 1.0
  outer loop
    vertex 22.0 12.0 14.000000000000002
    vertex 26.019216493434403 3.2234196317203643 14.000000000000005
    vertex 26.015125787908627 3.7455083749582885 14.000000000000005
  endloop
endfacet
facet normal 7.649065929453786e-17 9.516771282163175e-16 1.0
  outer loop
    vertex 22.0 12.0 14.000000000000002
    vertex 26.015125787908627 3.7455083749582885 14.000000000000005
    vertex 26.00135898872309 8.573716402801638 13.999999999999995
  endloop
endfacet
facet normal 7.649065929453786e-17 9.516771282163175e-16 1.0
  outer loop
    vertex 26.42288134805679 2.27008262159898 14.000000000000005
    vertex 28.0 0.0 14.000000000000005
    vertex 26.7949464043986 1.9038026964913946 14.000000000000005
  endloop
endfacet
facet normal 7.649065929453786e-17 9.516771282163175e-16 1.0
  outer loop
    vertex 26.7949464043986 1.9038026964913946 14.000000000000005
    vertex 28.0 0.0 14.000000000000005
    vertex 27.249133871835426 1.6463009797771548 14.000000000000005
  endloop
endfacet
facet normal 7.649065929453786e-17 9.516771282163175e-16 1.0
  outer loop
    vertex 27.249133871835426 1.6463009797771548 14.000000000000005
    vertex 28.0 0.0 14.000000000000005
    vertex 27.754491625041712 1.5151257879086288 14.000000000000005
  endloop
endfacet
facet normal 7.649065929453786e-17 9.516771282163175e-16 1.0
  outer loop
    vertex 27.754491625041712 1.5151257879086288 14.000000000000005
    vertex 28.0 0.0 14.000000000000005
    vertex 28.0 1.5170494119650244 14.000000000000005
  endloop
endfacet
facet normal 7.649065929453786e-17 9.516771282163175e-16 1.0
  outer loop
    vertex 26.015125787908627 3.7455083749582885 14.000000000000005
    vertex 26.05038182074562 8.053918219245805 13.999999999999995
    vertex 26.00135898872309 8.573716402801638 13.999999999999995
  endloop
endfacet
facet normal 7.649065929453786e-17 9.516771282163175e-16 1.0
  outer loop
    vertex 26.05038182074562 8.053918219245805 13.999999999999995
    vertex 26.015125787908627 3.7455083749582885 14.000000000000005
    vertex 26.146300979777152 4.250866128164578 14.000000000000005
  endloop
endfacet
facet normal 7.649065929453786e-17 9.516771282163175e-16 1.0
  outer loop
    vertex 26.05038182074562 8.053918219245805 13.999999999999995
    vertex 26.146300979777152 4.250866128164578 14.000000000000005
    vertex 26.232267909787954 7.56451977186337 13.999999999999995
  endloop
endfacet
facet normal 7.649065929453786e-17 9.516771282163175e-16 1.0
  outer loop
    vertex 26.232267909787954 7.56451977186337 13.999999999999995
    vertex 26.146300979777152 4.250866128164578 14.000000000000005
    vertex 26.403802696491393 4.705053595601398 14.000000000000005
  endloop
endfacet
facet normal 7.649065929453786e-17 9.516771282163175e-16 1.0
  outer loop
    vertex 26.232267909787954 7.56451977186337 13.999999999999995
    vertex 26.403802696491393 4.705053595601398 14.000000000000005
    vertex 26.534622019462837 7.138872756074275 13.999999999999995
  endloop
endfacet
facet normal 7.649065929453786e-17 9.516771282163175e-16 1.0
  outer loop
    vertex 26.534622019462837 7.138872756074275 13.999999999999995
    vertex 26.403802696491393 4.705053595601398 14.000000000000005
    vertex 26.770082621598984 5.077118651943209 14.000000000000005
  endloop
endfacet
facet normal 7.649065929453786e-17 9.516771282163175e-16 1.0
  outer loop
    vertex 26.534622019462837 7.138872756074275 13.999999999999995
    vertex 26.770082621598984 5.077118651943209 14.000000000000005
    vertex 26.936839216859717 6.805984312589594 13.999999999999995
  endloop
endfacet
facet normal 7.649065929453786e-17 9.516771282163175e-16 1.0
  outer loop
    vertex 26.936839216859717 6.805984312589594 13.999999999999995
    vertex 26.770082621598984 5.077118651943209 14.000000000000005
    vertex 27.220179383510025 5.341705678466893 14.000000000000005
  endloop
endfacet
facet normal 7.649065929453786e-17 9.516771282163175e-16 1.0
  outer loop
    vertex 26.936839216859717 6.805984312589594 13.999999999999995
    vertex 27.220179383510025 5.341705678466893 14.000000000000005
    vertex 27.41150906467134 6.588540238708645 13.999999999999995
  endloop
endfacet
facet normal 7.649065929453786e-17 9.516771282163175e-16 1.0
  outer loop
    vertex 27.41150906467134 6.588540238708645 13.999999999999995
    vertex 27.220179383510025 5.341705678466893 14.000000000000005
    vertex 27.723419631720365 5.480783506565596 14.000000000000005
  endloop
endfacet
facet normal 7.649065929453786e-17 9.516771282163175e-16 1.0
  outer loop
    vertex 27.41150906467134 6.588540238708645 13.999999999999995
    vertex 27.723419631720365 5.480783506565596 14.000000000000005
    vertex 27.926283597198363 6.501358988723089 13.999999999999995
  endloop
endfacet
facet normal 7.649065929453786e-17 9.516771282163175e-16 1.0
  outer loop
    vertex 27.926283597198363 6.501358988723089 13.999999999999995
    vertex 27.723419631720365 5.480783506565596 14.000000000000005
    vertex 28.0 5.482950588034975 14.000000000000005
  endloop
endfacet
facet normal 7.649065929453786e-17 9.516771282163175e-16 1.0
  outer loop
    vertex 27.926283597198363 6.501358988723089 13.999999999999995
    vertex 28.0 5.482950588034975 14.000000000000005
    vertex 28.0 6.508311277026848 14.0
  endloop
endfacet
facet normal 7.649065929453786e-17 9.516771282163175e-16 1.0
  outer loop
    vertex 22.0 12.0 14.000000000000002
    vertex 26.305984312589597 9.56316078314028 13.999999999999995
    vertex 28.0 12.0 14.000000000000005
  endloop
endfacet
facet normal 7.649065929453786e-17 9.516771282163175e-16 1.0
  outer loop
    vertex 26.305984312589597 9.56316078314028 13.999999999999995
    vertex 22.0 12.0 14.000000000000002
    vertex 26.088540238708642 9.088490935328657 13.999999999999995
  endloop
endfacet
facet normal 7.649065929453786e-17 9.516771282163175e-16 1.0
  outer loop
    vertex 26.088540238708642 9.088490935328657 13.999999999999995
    vertex 22.0 12.0 14.000000000000002
    vertex 26.00135898872309 8.573716402801638 13.999999999999995
  endloop
endfacet
facet normal 7.649065929453786e-17 9.516771282163175e-16 1.0
  outer loop
    vertex 28.0 12.0 14.000000000000005
    vertex 26.305984312589597 9.56316078314028 13.999999999999995
    vertex 26.638872756074274 9.965377980537157 13.999999999999995
  endloop
endfacet
facet normal 7.649065929453786e-17 9.516771282163175e-16 1.0
  outer loop
    vertex 28.0 12.0 14.000000000000005
    vertex 26.638872756074274 9.965377980537157 13.999999999999995
    vertex 27.06451977186337 10.267732090212043 13.999999999999995
  endloop
endfacet
facet normal 7.649065929453786e-17 9.516771282163175e-16 1.0
  outer loop
    vertex 28.0 12.0 14.000000000000005
    vertex 27.06451977186337 10.267732090212043 13.999999999999995
    vertex 27.553918219245805 10.44961817925438 13.999999999999995
  endloop
endfacet
facet normal 7.649065929453786e-17 9.516771282163175e-16 1.0
  outer loop
    vertex 28.0 12.0 14.000000000000005
    vertex 27.553918219245805 10.44961817925438 13.999999999999995
    vertex 28.0 10.49168872297315 14.0
  endloop
endfacet
facet normal -1.0 -0.0 -1.0846024932876531e-16
  outer loop
    vertex 11.0 12.0 14.000000000000002
    vertex 11.0 0.0 9.999999999999998
    vertex 11.0 0.0 14.000000000000002
  endloop
endfacet
facet normal -1.0 -0.0 -1.0846024932876531e-16
  outer loop
    vertex 11.0 0.0 9.999999999999998
    vertex 11.0 12.0 14.000000000000002
    vertex 11.0 12.0 9.999999999999998
  endloop
endfacet
facet normal 0.0 0.0 1.0
  outer loop
    vertex 4.958217935256394e-16 6.499999999999999 4.0
    vertex 0.5176380902050408 10.431851652578136 4.0
    vertex 5.963073866698246e-18 10.499999999999998 4.0
  endloop
endfacet
facet normal 0.0 0.0 1.0
  outer loop
    vertex 0.5176380902050408 10.431851652578136 4.0
    vertex 4.958217935256394e-16 6.499999999999999 4.0
    vertex 0.5176380902050421 6.568148347421863 4.0
  endloop
endfacet
facet normal 0.0 0.0 1.0
  outer loop
    vertex 0.5176380902050408 10.431851652578136 4.0
    vertex 0.5176380902050421 6.568148347421863 4.0
    vertex 0.9999999999999987 10.232050807568877 4.0
  endloop
endfacet
facet normal 0.0 0.0 1.0
  outer loop
    vertex 0.9999999999999987 10.232050807568877 4.0
    vertex 0.5176380902050421 6.568148347421863 4.0
    vertex 1.0000000000000002 6.7679491924311215 4.0
  endloop
endfacet
facet normal 0.0 0.0 1.0
  outer loop
    vertex 0.9999999999999987 10.232050807568877 4.0
    vertex 1.0000000000000002 6.7679491924311215 4.0
    vertex 1.4142135623730947 9.914213562373094 4.0
  endloop
endfacet
facet normal 0.0 0.0 1.0
  outer loop
    vertex 1.4142135623730947 9.914213562373094 4.0
    vertex 1.0000000000000002 6.7679491924311215 4.0
    vertex 1.4142135623730951 7.085786437626902 4.0
  endloop
endfacet
facet normal 0.0 0.0 1.0
  outer loop
    vertex 1.4142135623730947 9.914213562373094 4.0
    vertex 1.4142135623730951 7.085786437626902 4.0
    vertex 1.7320508075688765 9.5 4.0
  endloop
endfacet
facet normal 0.0 0.0 1.0
  outer loop
    vertex 1.7320508075688765 9.5 4.0
    vertex 1.4142135623730951 7.085786437626902 4.0
    vertex 1.7320508075688772 7.499999999999999 4.0
  endloop
endfacet
facet normal 0.0 0.0 1.0
  outer loop
    vertex 1.7320508075688765 9.5 4.0
    vertex 1.7320508075688772 7.499999999999999 4.0
    vertex 1.931851652578136 9.017638090205041 4.0
  endloop
endfacet
facet normal 0.0 0.0 1.0
  outer loop
    vertex 1.931851652578136 9.017638090205041 4.0
    vertex 1.7320508075688772 7.499999999999999 4.0
    vertex 1.9318516525781364 7.982361909794958 4.0
  endloop
endfacet
facet normal 0.0 0.0 1.0
  outer loop
    vertex 1.931851652578136 9.017638090205041 4.0
    vertex 1.9318516525781364 7.982361909794958 4.0
    vertex 1.9999999999999998 8.499999999999998 4.0
  endloop
endfacet
facet normal -0.1305261922200517 0.9914448613738105 -0.0
  outer loop
    vertex 4.958217935256394e-16 6.499999999999999 14.0
    vertex 0.5176380902050421 6.568148347421863 4.0
    vertex 4.958217935256394e-16 6.499999999999999 4.0
  endloop
endfacet
facet normal -0.1305261922200517 0.9914448613738105 -0.0
  outer loop
    vertex 0.5176380902050421 6.568148347421863 4.0
    vertex 4.958217935256394e-16 6.499999999999999 14.0
    vertex 0.5176380902050421 6.568148347421863 14.0
  endloop
endfacet
facet normal -0.3826834323650891 0.9238795325112871 -0.0
  outer loop
    vertex 0.5176380902050421 6.568148347421863 14.0
    vertex 1.0000000000000002 6.7679491924311215 4.0
    vertex 0.5176380902050421 6.568148347421863 4.0
  endloop
endfacet
facet normal -0.3826834323650891 0.9238795325112871 -0.0
  outer loop
    vertex 1.0000000000000002 6.7679491924311215 4.0
    vertex 0.5176380902050421 6.568148347421863 14.0
    vertex 1.0000000000000002 6.7679491924311215 14.0
  endloop
endfacet
facet normal -0.6087614290087194 0.793353340291236 -0.0
  outer loop
    vertex 1.0000000000000002 6.7679491924311215 14.0
    vertex 1.4142135623730951 7.085786437626902 4.0
    vertex 1.0000000000000002 6.7679491924311215 4.0
  endloop
endfacet
facet normal -0.6087614290087194 0.793353340291236 -0.0
  outer loop
    vertex 1.4142135623730951 7.085786437626902 4.0
    vertex 1.0000000000000002 6.7679491924311215 14.0
    vertex 1.4142135623730951 7.085786437626902 14.0
  endloop
endfacet
facet normal -0.7933533402912362 0.6087614290087193 -0.0
  outer loop
    vertex 1.7320508075688772 7.499999999999999 14.0
    vertex 1.4142135623730951 7.085786437626902 4.0
    vertex 1.4142135623730951 7.085786437626902 14.0
  endloop
endfacet
facet normal -0.7933533402912362 0.6087614290087193 -0.0
  outer loop
    vertex 1.4142135623730951 7.085786437626902 4.0
    vertex 1.7320508075688772 7.499999999999999 14.0
    vertex 1.7320508075688772 7.499999999999999 4.0
  endloop
endfacet
facet normal -0.9238795325112868 0.38268343236508956 -0.0
  outer loop
    vertex 1.9318516525781364 7.982361909794958 14.0
    vertex 1.7320508075688772 7.499999999999999 4.0
    vertex 1.7320508075688772 7.499999999999999 14.0
  endloop
endfacet
facet normal -0.9238795325112868 0.38268343236508956 -0.0
  outer loop
    vertex 1.7320508075688772 7.499999999999999 4.0
    vertex 1.9318516525781364 7.982361909794958 14.0
    vertex 1.9318516525781364 7.982361909794958 4.0
  endloop
endfacet
facet normal -0.9914448613738104 0.1305261922200518 -0.0
  outer loop
    vertex 1.9999999999999998 8.499999999999998 14.0
    vertex 1.9318516525781364 7.982361909794958 4.0
    vertex 1.9318516525781364 7.982361909794958 14.0
  endloop
endfacet
facet normal -0.9914448613738104 0.1305261922200518 -0.0
  outer loop
    vertex 1.9318516525781364 7.982361909794958 4.0
    vertex 1.9999999999999998 8.499999999999998 14.0
    vertex 1.9999999999999998 8.499999999999998 4.0
  endloop
endfacet
facet normal -0.9914448613738105 -0.13052619222005213 -0.0
  outer loop
    vertex 1.931851652578136 9.017638090205041 14.0
    vertex 1.9999999999999998 8.499999999999998 4.0
    vertex 1.9999999999999998 8.499999999999998 14.0
  endloop
endfacet
facet normal -0.9914448613738105 -0.13052619222005213 -0.0
  outer loop
    vertex 1.9999999999999998 8.499999999999998 4.0
    vertex 1.931851652578136 9.017638090205041 14.0
    vertex 1.931851652578136 9.017638090205041 4.0
  endloop
endfacet
facet normal -0.9238795325112867 -0.3826834323650902 -0.0
  outer loop
    vertex 1.7320508075688765 9.5 14.0
    vertex 1.931851652578136 9.017638090205041 4.0
    vertex 1.931851652578136 9.017638090205041 14.0
  endloop
endfacet
facet normal -0.9238795325112867 -0.3826834323650902 -0.0
  outer loop
    vertex 1.931851652578136 9.017638090205041 4.0
    vertex 1.7320508075688765 9.5 14.0
    vertex 1.7320508075688765 9.5 4.0
  endloop
endfacet
facet normal -0.7933533402912354 -0.6087614290087205 -0.0
  outer loop
    vertex 1.4142135623730947 9.914213562373094 14.0
    vertex 1.7320508075688765 9.5 4.0
    vertex 1.7320508075688765 9.5 14.0
  endloop
endfacet
facet normal -0.7933533402912354 -0.6087614290087205 -0.0
  outer loop
    vertex 1.7320508075688765 9.5 4.0
    vertex 1.4142135623730947 9.914213562373094 14.0
    vertex 1.4142135623730947 9.914213562373094 4.0
  endloop
endfacet
facet normal -0.6087614290087202 -0.7933533402912355 -0.0
  outer loop
    vertex 1.4142135623730947 9.914213562373094 14.0
    vertex 0.9999999999999987 10.232050807568877 4.0
    vertex 1.4142135623730947 9.914213562373094 4.0
  endloop
endfacet
facet normal -0.6087614290087202 -0.7933533402912355 -0.0
  outer loop
    vertex 0.9999999999999987 10.232050807568877 4.0
    vertex 1.4142135623730947 9.914213562373094 14.0
    vertex 0.9999999999999987 10.232050807568877 14.0
  endloop
endfacet
facet normal -0.3826834323650892 -0.923879532511287 -0.0
  outer loop
    vertex 0.9999999999999987 10.232050807568877 14.0
    vertex 0.5176380902050408 10.431851652578136 4.0
    vertex 0.9999999999999987 10.232050807568877 4.0
  endloop
endfacet
facet normal -0.3826834323650892 -0.923879532511287 -0.0
  outer loop
    vertex 0.5176380902050408 10.431851652578136 4.0
    vertex 0.9999999999999987 10.232050807568877 14.0
    vertex 0.5176380902050408 10.431851652578136 14.0
  endloop
endfacet
facet normal -0.1305261922200493 -0.9914448613738108 -0.0
  outer loop
    vertex 0.5176380902050408 10.431851652578136 14.0
    vertex 5.963073866698246e-18 10.499999999999998 4.0
    vertex 0.5176380902050408 10.431851652578136 4.0
  endloop
endfacet
facet normal -0.1305261922200493 -0.9914448613738108 -0.0
  outer loop
    vertex 5.963073866698246e-18 10.499999999999998 4.0
    vertex 0.5176380902050408 10.431851652578136 14.0
    vertex 5.963073866698246e-18 10.499999999999998 14.0
  endloop
endfacet
facet normal 0.0 0.0 1.0
  outer loop
    vertex 5.872960753350855e-16 1.2499999999999998 4.0
    vertex 0.5176380902050408 5.181851652578136 4.0
    vertex 9.74373556761444e-17 5.249999999999999 4.0
  endloop
endfacet
facet normal 0.0 0.0 1.0
  outer loop
    vertex 0.5176380902050408 5.181851652578136 4.0
    vertex 5.872960753350855e-16 1.2499999999999998 4.0
    vertex 0.5176380902050423 1.3181483474218634 4.0
  endloop
endfacet
facet normal 0.0 0.0 1.0
  outer loop
    vertex 0.5176380902050408 5.181851652578136 4.0
    vertex 0.5176380902050423 1.3181483474218634 4.0
    vertex 0.9999999999999989 4.982050807568878 4.0
  endloop
endfacet
facet normal 0.0 0.0 1.0
  outer loop
    vertex 0.9999999999999989 4.982050807568878 4.0
    vertex 0.5176380902050423 1.3181483474218634 4.0
    vertex 1.0000000000000004 1.5179491924311228 4.0
  endloop
endfacet
facet normal 0.0 0.0 1.0
  outer loop
    vertex 0.9999999999999989 4.982050807568878 4.0
    vertex 1.0000000000000004 1.5179491924311228 4.0
    vertex 1.414213562373095 4.664213562373095 4.0
  endloop
endfacet
facet normal 0.0 0.0 1.0
  outer loop
    vertex 1.414213562373095 4.664213562373095 4.0
    vertex 1.0000000000000004 1.5179491924311228 4.0
    vertex 1.4142135623730954 1.8357864376269046 4.0
  endloop
endfacet
facet normal 0.0 0.0 1.0
  outer loop
    vertex 1.414213562373095 4.664213562373095 4.0
    vertex 1.4142135623730954 1.8357864376269046 4.0
    vertex 1.7320508075688765 4.250000000000001 4.0
  endloop
endfacet
facet normal 0.0 0.0 1.0
  outer loop
    vertex 1.7320508075688765 4.250000000000001 4.0
    vertex 1.4142135623730954 1.8357864376269046 4.0
    vertex 1.7320508075688772 2.25 4.0
  endloop
endfacet
facet normal 0.0 0.0 1.0
  outer loop
    vertex 1.7320508075688765 4.250000000000001 4.0
    vertex 1.7320508075688772 2.25 4.0
    vertex 1.931851652578136 3.7676380902050424 4.0
  endloop
endfacet
facet normal 0.0 0.0 1.0
  outer loop
    vertex 1.931851652578136 3.7676380902050424 4.0
    vertex 1.7320508075688772 2.25 4.0
    vertex 1.9318516525781364 2.7323619097949585 4.0
  endloop
endfacet
facet normal 0.0 0.0 1.0
  outer loop
    vertex 1.931851652578136 3.7676380902050424 4.0
    vertex 1.9318516525781364 2.7323619097949585 4.0
    vertex 1.9999999999999998 3.2499999999999996 4.0
  endloop
endfacet
facet normal -0.1305261922200517 0.9914448613738105 -0.0
  outer loop
    vertex 5.872960753350855e-16 1.2499999999999998 14.0
    vertex 0.5176380902050423 1.3181483474218634 4.0
    vertex 5.872960753350855e-16 1.2499999999999998 4.0
  endloop
endfacet
facet normal -0.1305261922200517 0.9914448613738105 -0.0
  outer loop
    vertex 0.5176380902050423 1.3181483474218634 4.0
    vertex 5.872960753350855e-16 1.2499999999999998 14.0
    vertex 0.5176380902050423 1.3181483474218634 14.0
  endloop
endfacet
facet normal -0.3826834323650903 0.9238795325112867 -0.0
  outer loop
    vertex 0.5176380902050423 1.3181483474218634 14.0
    vertex 1.0000000000000004 1.5179491924311228 4.0
    vertex 0.5176380902050423 1.3181483474218634 4.0
  endloop
endfacet
facet normal -0.3826834323650903 0.9238795325112867 -0.0
  outer loop
    vertex 1.0000000000000004 1.5179491924311228 4.0
    vertex 0.5176380902050423 1.3181483474218634 14.0
    vertex 1.0000000000000004 1.5179491924311228 14.0
  endloop
endfacet
facet normal -0.6087614290087203 0.7933533402912356 -0.0
  outer loop
    vertex 1.0000000000000004 1.5179491924311228 14.0
    vertex 1.4142135623730954 1.8357864376269046 4.0
    vertex 1.0000000000000004 1.5179491924311228 4.0
  endloop
endfacet
facet normal -0.6087614290087203 0.7933533402912356 -0.0
  outer loop
    vertex 1.4142135623730954 1.8357864376269046 4.0
    vertex 1.0000000000000004 1.5179491924311228 14.0
    vertex 1.4142135623730954 1.8357864376269046 14.0
  endloop
endfacet
facet normal -0.7933533402912359 0.6087614290087199 -0.0
  outer loop
    vertex 1.7320508075688772 2.25 14.0
    vertex 1.4142135623730954 1.8357864376269046 4.0
    vertex 1.4142135623730954 1.8357864376269046 14.0
  endloop
endfacet
facet normal -0.7933533402912359 0.6087614290087199 -0.0
  outer loop
    vertex 1.4142135623730954 1.8357864376269046 4.0
    vertex 1.7320508075688772 2.25 14.0
    vertex 1.7320508075688772 2.25 4.0
  endloop
endfacet
facet normal -0.9238795325112868 0.38268343236508956 -0.0
  outer loop
    vertex 1.9318516525781364 2.7323619097949585 14.0
    vertex 1.7320508075688772 2.25 4.0
    vertex 1.7320508075688772 2.25 14.0
  endloop
endfacet
facet normal -0.9238795325112868 0.38268343236508956 -0.0
  outer loop
    vertex 1.7320508075688772 2.25 4.0
    vertex 1.9318516525781364 2.7323619097949585 14.0
    vertex 1.9318516525781364 2.7323619097949585 4.0
  endloop
endfacet
facet normal -0.9914448613738104 0.1305261922200518 -0.0
  outer loop
    vertex 1.9999999999999998 3.2499999999999996 14.0
    vertex 1.9318516525781364 2.7323619097949585 4.0
    vertex 1.9318516525781364 2.7323619097949585 14.0
  endloop
endfacet
facet normal -0.9914448613738104 0.1305261922200518 -0.0
  outer loop
    vertex 1.9318516525781364 2.7323619097949585 4.0
    vertex 1.9999999999999998 3.2499999999999996 14.0
    vertex 1.9999999999999998 3.2499999999999996 4.0
  endloop
endfacet
facet normal -0.9914448613738105 -0.13052619222005213 -0.0
  outer loop
    vertex 1.931851652578136 3.7676380902050424 14.0
    vertex 1.9999999999999998 3.2499999999999996 4.0
    vertex 1.9999999999999998 3.2499999999999996 14.0
  endloop
endfacet
facet normal -0.9914448613738105 -0.13052619222005213 -0.0
  outer loop
    vertex 1.9999999999999998 3.2499999999999996 4.0
    vertex 1.931851652578136 3.7676380902050424 14.0
    vertex 1.931851652578136 3.7676380902050424 4.0
  endloop
endfacet
facet normal -0.9238795325112867 -0.3826834323650902 -0.0
  outer loop
    vertex 1.7320508075688765 4.250000000000001 14.0
    vertex 1.931851652578136 3.7676380902050424 4.0
    vertex 1.931851652578136 3.7676380902050424 14.0
  endloop
endfacet
facet normal -0.9238795325112867 -0.3826834323650902 -0.0
  outer loop
    vertex 1.931851652578136 3.7676380902050424 4.0
    vertex 1.7320508075688765 4.250000000000001 14.0
    vertex 1.7320508075688765 4.250000000000001 4.0
  endloop
endfacet
facet normal -0.7933533402912349 -0.6087614290087209 -0.0
  outer loop
    vertex 1.414213562373095 4.664213562373095 14.0
    vertex 1.7320508075688765 4.250000000000001 4.0
    vertex 1.7320508075688765 4.250000000000001 14.0
  endloop
endfacet
facet normal -0.7933533402912349 -0.6087614290087209 -0.0
  outer loop
    vertex 1.7320508075688765 4.250000000000001 4.0
    vertex 1.414213562373095 4.664213562373095 14.0
    vertex 1.414213562373095 4.664213562373095 4.0
  endloop
endfacet
facet normal -0.6087614290087211 -0.793353340291235 -0.0
  outer loop
    vertex 1.414213562373095 4.664213562373095 14.0
    vertex 0.9999999999999989 4.982050807568878 4.0
    vertex 1.414213562373095 4.664213562373095 4.0
  endloop
endfacet
facet normal -0.6087614290087211 -0.793353340291235 -0.0
  outer loop
    vertex 0.9999999999999989 4.982050807568878 4.0
    vertex 1.414213562373095 4.664213562373095 14.0
    vertex 0.9999999999999989 4.982050807568878 14.0
  endloop
endfacet
facet normal -0.38268343236508917 -0.923879532511287 -0.0
  outer loop
    vertex 0.9999999999999989 4.982050807568878 14.0
    vertex 0.5176380902050408 5.181851652578136 4.0
    vertex 0.9999999999999989 4.982050807568878 4.0
  endloop
endfacet
facet normal -0.38268343236508917 -0.923879532511287 -0.0
  outer loop
    vertex 0.5176380902050408 5.181851652578136 4.0
    vertex 0.9999999999999989 4.982050807568878 14.0
    vertex 0.5176380902050408 5.181851652578136 14.0
  endloop
endfacet
facet normal -0.13052619222005063 -0.9914448613738107 -0.0
  outer loop
    vertex 0.5176380902050408 5.181851652578136 14.0
    vertex 9.74373556761444e-17 5.249999999999999 4.0
    vertex 0.5176380902050408 5.181851652578136 4.0
  endloop
endfacet
facet normal -0.13052619222005063 -0.9914448613738107 -0.0
  outer loop
    vertex 9.74373556761444e-17 5.249999999999999 4.0
    vertex 0.5176380902050408 5.181851652578136 14.0
    vertex 9.74373556761444e-17 5.249999999999999 14.0
  endloop
endfacet
facet normal -0.0 -0.0 1.0
  outer loop
    vertex 20.0 0.0 14.000000000000002
    vertex 11.0 12.0 14.000000000000002
    vertex 11.0 0.0 14.000000000000002
  endloop
endfacet
facet normal -0.0 -0.0 1.0
  outer loop
    vertex 11.0 12.0 14.000000000000002
    vertex 20.0 0.0 14.000000000000002
    vertex 20.0 12.0 14.000000000000002
  endloop
endfacet
facet normal 0.0 0.0 1.0
  outer loop
    vertex 22.0 0.0 12.500000000000002
    vertex 20.0 12.0 12.500000000000002
    vertex 20.0 0.0 12.500000000000002
  endloop
endfacet
facet normal 0.0 0.0 1.0
  outer loop
    vertex 20.0 12.0 12.500000000000002
    vertex 22.0 0.0 12.500000000000002
    vertex 22.0 12.0 12.500000000000002
  endloop
endfacet
facet normal -1.0 0.0 0.0
  outer loop
    vertex 22.0 12.0 14.000000000000002
    vertex 22.0 0.0 12.500000000000002
    vertex 22.0 0.0 14.000000000000002
  endloop
endfacet
facet normal -1.0 0.0 0.0
  outer loop
    vertex 22.0 0.0 12.500000000000002
    vertex 22.0 12.0 14.000000000000002
    vertex 22.0 12.0 12.500000000000002
  endloop
endfacet
facet normal 1.0 0.0 0.0
  outer loop
    vertex 20.0 12.0 12.500000000000002
    vertex 20.0 0.0 14.000000000000002
    vertex 20.0 0.0 12.500000000000002
  endloop
endfacet
facet normal 1.0 0.0 0.0
  outer loop
    vertex 20.0 0.0 14.000000000000002
    vertex 20.0 12.0 12.500000000000002
    vertex 20.0 12.0 14.000000000000002
  endloop
endfacet
facet normal -1.0 -1.2883907353263411e-17 2.4378075468536406e-17
  outer loop
    vertex 4.958217935256394e-16 6.499999999999999 14.0
    vertex 9.74373556761444e-17 5.249999999999999 4.0
    vertex 9.74373556761444e-17 5.249999999999999 14.0
  endloop
endfacet
facet normal -1.0 -1.2883907353263411e-17 2.4378075468536406e-17
  outer loop
    vertex 4.3384099731506116e-16 12.0 14.0
    vertex 5.963073866698246e-18 10.499999999999998 4.0
    vertex 5.963073866698246e-18 10.499999999999998 14.0
  endloop
endfacet
facet normal -1.0 -1.2883907353263411e-17 2.4378075468536406e-17
  outer loop
    vertex 5.872960753350855e-16 1.2499999999999998 14.0
    vertex 0.0 0.0 0.0
    vertex 4.3384099731506116e-16 0.0 14.0
  endloop
endfacet
facet normal -1.0 -1.2883907353263411e-17 2.4378075468536406e-17
  outer loop
    vertex 0.0 0.0 0.0
    vertex 5.872960753350855e-16 1.2499999999999998 14.0
    vertex 5.872960753350855e-16 1.2499999999999998 4.0
  endloop
endfacet
facet normal -1.0 -1.2883907353263411e-17 2.4378075468536406e-17
  outer loop
    vertex 0.0 0.0 0.0
    vertex 5.872960753350855e-16 1.2499999999999998 4.0
    vertex 0.0 12.0 0.0
  endloop
endfacet
facet normal -1.0 -1.2883907353263411e-17 2.4378075468536406e-17
  outer loop
    vertex 0.0 12.0 0.0
    vertex 5.872960753350855e-16 1.2499999999999998 4.0
    vertex 9.74373556761444e-17 5.249999999999999 4.0
  endloop
endfacet
facet normal -1.0 -1.2883907353263411e-17 2.4378075468536406e-17
  outer loop
    vertex 0.0 12.0 0.0
    vertex 9.74373556761444e-17 5.249999999999999 4.0
    vertex 4.958217935256394e-16 6.499999999999999 4.0
  endloop
endfacet
facet normal -1.0 -1.2883907353263411e-17 2.4378075468536406e-17
  outer loop
    vertex 4.958217935256394e-16 6.499999999999999 4.0
    vertex 9.74373556761444e-17 5.249999999999999 4.0
    vertex 4.958217935256394e-16 6.499999999999999 14.0
  endloop
endfacet
facet normal -1.0 -1.2883907353263411e-17 2.4378075468536406e-17
  outer loop
    vertex 0.0 12.0 0.0
    vertex 4.958217935256394e-16 6.499999999999999 4.0
    vertex 5.963073866698246e-18 10.499999999999998 4.0
  endloop
endfacet
facet normal -1.0 -1.2883907353263411e-17 2.4378075468536406e-17
  outer loop
    vertex 0.0 12.0 0.0
    vertex 5.963073866698246e-18 10.499999999999998 4.0
    vertex 4.3384099731506116e-16 12.0 14.0
  endloop
endfacet
facet normal 0.0 0.0 1.0
  outer loop
    vertex 26.019216493434403 3.2234196317203643 7.000000000000005
    vertex 26.146300979777152 4.250866128164578 7.000000000000005
    vertex 26.015125787908627 3.7455083749582885 7.000000000000005
  endloop
endfacet
facet normal 0.0 0.0 1.0
  outer loop
    vertex 26.146300979777152 4.250866128164578 7.000000000000005
    vertex 26.019216493434403 3.2234196317203643 7.000000000000005
    vertex 26.158294321533106 2.7201793835100276 7.000000000000005
  endloop
endfacet
facet normal 0.0 0.0 1.0
  outer loop
    vertex 26.146300979777152 4.250866128164578 7.000000000000005
    vertex 26.158294321533106 2.7201793835100276 7.000000000000005
    vertex 26.403802696491393 4.705053595601398 7.000000000000005
  endloop
endfacet
facet normal 0.0 0.0 1.0
  outer loop
    vertex 26.403802696491393 4.705053595601398 7.000000000000005
    vertex 26.158294321533106 2.7201793835100276 7.000000000000005
    vertex 26.42288134805679 2.27008262159898 7.000000000000005
  endloop
endfacet
facet normal 0.0 0.0 1.0
  outer loop
    vertex 26.403802696491393 4.705053595601398 7.000000000000005
    vertex 26.42288134805679 2.27008262159898 7.000000000000005
    vertex 26.770082621598984 5.077118651943209 7.000000000000005
  endloop
endfacet
facet normal 0.0 0.0 1.0
  outer loop
    vertex 26.770082621598984 5.077118651943209 7.000000000000005
    vertex 26.42288134805679 2.27008262159898 7.000000000000005
    vertex 26.7949464043986 1.9038026964913946 7.000000000000005
  endloop
endfacet
facet normal 0.0 0.0 1.0
  outer loop
    vertex 26.770082621598984 5.077118651943209 7.000000000000005
    vertex 26.7949464043986 1.9038026964913946 7.000000000000005
    vertex 27.220179383510025 5.341705678466893 7.000000000000005
  endloop
endfacet
facet normal 0.0 0.0 1.0
  outer loop
    vertex 27.220179383510025 5.341705678466893 7.000000000000005
    vertex 26.7949464043986 1.9038026964913946 7.000000000000005
    vertex 27.249133871835426 1.6463009797771548 7.000000000000005
  endloop
endfacet
facet normal 0.0 0.0 1.0
  outer loop
    vertex 27.220179383510025 5.341705678466893 7.000000000000005
    vertex 27.249133871835426 1.6463009797771548 7.000000000000005
    vertex 27.723419631720365 5.480783506565596 7.000000000000005
  endloop
endfacet
facet normal 0.0 0.0 1.0
  outer loop
    vertex 27.723419631720365 5.480783506565596 7.000000000000005
    vertex 27.249133871835426 1.6463009797771548 7.000000000000005
    vertex 27.754491625041712 1.5151257879086288 7.000000000000005
  endloop
endfacet
facet normal 0.0 0.0 1.0
  outer loop
    vertex 27.723419631720365 5.480783506565596 7.000000000000005
    vertex 27.754491625041712 1.5151257879086288 7.000000000000005
    vertex 28.0 5.482950588034975 7.000000000000005
  endloop
endfacet
facet normal 0.0 0.0 1.0
  outer loop
    vertex 28.0 5.482950588034975 7.000000000000005
    vertex 27.754491625041712 1.5151257879086288 7.000000000000005
    vertex 28.0 1.5170494119650244 7.000000000000005
  endloop
endfacet
facet normal 0.007835028081714893 -0.9999693056964094 -0.0
  outer loop
    vertex 28.0 5.482950588034975 14.000000000000005
    vertex 27.723419631720365 5.480783506565596 7.000000000000005
    vertex 28.0 5.482950588034975 7.000000000000005
  endloop
endfacet
facet normal 0.007835028081714893 -0.9999693056964094 -0.0
  outer loop
    vertex 27.723419631720365 5.480783506565596 7.000000000000005
    vertex 28.0 5.482950588034975 14.000000000000005
    vertex 27.723419631720365 5.480783506565596 14.000000000000005
  endloop
endfacet
facet normal 0.26637915680600516 -0.9638683233820488 -0.0
  outer loop
    vertex 27.723419631720365 5.480783506565596 14.000000000000005
    vertex 27.220179383510025 5.341705678466893 7.000000000000005
    vertex 27.723419631720365 5.480783506565596 7.000000000000005
  endloop
endfacet
facet normal 0.26637915680600516 -0.9638683233820488 -0.0
  outer loop
    vertex 27.220179383510025 5.341705678466893 7.000000000000005
    vertex 27.723419631720365 5.480783506565596 14.000000000000005
    vertex 27.220179383510025 5.341705678466893 14.000000000000005
  endloop
endfacet
facet normal 0.5067699862063362 -0.8620813076969189 -0.0
  outer loop
    vertex 27.220179383510025 5.341705678466893 14.000000000000005
    vertex 26.770082621598984 5.077118651943209 7.000000000000005
    vertex 27.220179383510025 5.341705678466893 7.000000000000005
  endloop
endfacet
facet normal 0.5067699862063362 -0.8620813076969189 -0.0
  outer loop
    vertex 26.770082621598984 5.077118651943209 7.000000000000005
    vertex 27.220179383510025 5.341705678466893 14.000000000000005
    vertex 26.770082621598984 5.077118651943209 14.000000000000005
  endloop
endfacet
facet normal 0.7126252785236997 -0.7015448755489698 -0.0
  outer loop
    vertex 26.770082621598984 5.077118651943209 7.000000000000005
    vertex 26.403802696491393 4.705053595601398 14.000000000000005
    vertex 26.403802696491393 4.705053595601398 7.000000000000005
  endloop
endfacet
facet normal 0.7126252785236997 -0.7015448755489698 -0.0
  outer loop
    vertex 26.403802696491393 4.705053595601398 14.000000000000005
    vertex 26.770082621598984 5.077118651943209 7.000000000000005
    vertex 26.770082621598984 5.077118651943209 14.000000000000005
  endloop
endfacet
facet normal 0.8699163357786367 -0.4931993194900723 -0.0
  outer loop
    vertex 26.403802696491393 4.705053595601398 7.000000000000005
    vertex 26.146300979777152 4.250866128164578 14.000000000000005
    vertex 26.146300979777152 4.250866128164578 7.000000000000005
  endloop
endfacet
facet normal 0.8699163357786367 -0.4931993194900723 -0.0
  outer loop
    vertex 26.146300979777152 4.250866128164578 14.000000000000005
    vertex 26.403802696491393 4.705053595601398 7.000000000000005
    vertex 26.403802696491393 4.705053595601398 14.000000000000005
  endloop
endfacet
facet normal 0.9679240323549714 -0.2512430448583452 -0.0
  outer loop
    vertex 26.146300979777152 4.250866128164578 7.000000000000005
    vertex 26.015125787908627 3.7455083749582885 14.000000000000005
    vertex 26.015125787908627 3.7455083749582885 7.000000000000005
  endloop
endfacet
facet normal 0.9679240323549714 -0.2512430448583452 -0.0
  outer loop
    vertex 26.015125787908627 3.7455083749582885 14.000000000000005
    vertex 26.146300979777152 4.250866128164578 7.000000000000005
    vertex 26.146300979777152 4.250866128164578 14.000000000000005
  endloop
endfacet
facet normal 0.9999693056964094 0.007835028081715672 0.0
  outer loop
    vertex 26.015125787908627 3.7455083749582885 7.000000000000005
    vertex 26.019216493434403 3.2234196317203643 14.000000000000005
    vertex 26.019216493434403 3.2234196317203643 7.000000000000005
  endloop
endfacet
facet normal 0.9999693056964094 0.007835028081715672 0.0
  outer loop
    vertex 26.019216493434403 3.2234196317203643 14.000000000000005
    vertex 26.015125787908627 3.7455083749582885 7.000000000000005
    vertex 26.015125787908627 3.7455083749582885 14.000000000000005
  endloop
endfacet
facet normal 0.9638683233820494 0.266379156806003 0.0
  outer loop
    vertex 26.019216493434403 3.2234196317203643 7.000000000000005
    vertex 26.158294321533106 2.7201793835100276 14.000000000000005
    vertex 26.158294321533106 2.7201793835100276 7.000000000000005
  endloop
endfacet
facet normal 0.9638683233820494 0.266379156806003 0.0
  outer loop
    vertex 26.158294321533106 2.7201793835100276 14.000000000000005
    vertex 26.019216493434403 3.2234196317203643 7.000000000000005
    vertex 26.019216493434403 3.2234196317203643 14.000000000000005
  endloop
endfacet
facet normal 0.8620813076969196 0.5067699862063353 0.0
  outer loop
    vertex 26.158294321533106 2.7201793835100276 7.000000000000005
    vertex 26.42288134805679 2.27008262159898 14.000000000000005
    vertex 26.42288134805679 2.27008262159898 7.000000000000005
  endloop
endfacet
facet normal 0.8620813076969196 0.5067699862063353 0.0
  outer loop
    vertex 26.42288134805679 2.27008262159898 14.000000000000005
    vertex 26.158294321533106 2.7201793835100276 7.000000000000005
    vertex 26.158294321533106 2.7201793835100276 14.000000000000005
  endloop
endfacet
facet normal 0.7015448755489647 0.7126252785237047 0.0
  outer loop
    vertex 26.42288134805679 2.27008262159898 14.000000000000005
    vertex 26.7949464043986 1.9038026964913946 7.000000000000005
    vertex 26.42288134805679 2.27008262159898 7.000000000000005
  endloop
endfacet
facet normal 0.7015448755489647 0.7126252785237047 0.0
  outer loop
    vertex 26.7949464043986 1.9038026964913946 7.000000000000005
    vertex 26.42288134805679 2.27008262159898 14.000000000000005
    vertex 26.7949464043986 1.9038026964913946 14.000000000000005
  endloop
endfacet
facet normal 0.49319931949007095 0.8699163357786375 0.0
  outer loop
    vertex 26.7949464043986 1.9038026964913946 14.000000000000005
    vertex 27.249133871835426 1.6463009797771548 7.000000000000005
    vertex 26.7949464043986 1.9038026964913946 7.000000000000005
  endloop
endfacet
facet normal 0.49319931949007095 0.8699163357786375 0.0
  outer loop
    vertex 27.249133871835426 1.6463009797771548 7.000000000000005
    vertex 26.7949464043986 1.9038026964913946 14.000000000000005
    vertex 27.249133871835426 1.6463009797771548 14.000000000000005
  endloop
endfacet
facet normal 0.25124304485834714 0.9679240323549709 0.0
  outer loop
    vertex 27.249133871835426 1.6463009797771548 14.000000000000005
    vertex 27.754491625041712 1.5151257879086288 7.000000000000005
    vertex 27.249133871835426 1.6463009797771548 7.000000000000005
  endloop
endfacet
facet normal 0.25124304485834714 0.9679240323549709 0.0
  outer loop
    vertex 27.754491625041712 1.5151257879086288 7.000000000000005
    vertex 27.249133871835426 1.6463009797771548 14.000000000000005
    vertex 27.754491625041712 1.5151257879086288 14.000000000000005
  endloop
endfacet
facet normal -0.00783502808171657 0.9999693056964093 -0.0
  outer loop
    vertex 27.754491625041712 1.5151257879086288 14.000000000000005
    vertex 28.0 1.5170494119650244 7.000000000000005
    vertex 27.754491625041712 1.5151257879086288 7.000000000000005
  endloop
endfacet
facet normal -0.00783502808171657 0.9999693056964093 -0.0
  outer loop
    vertex 28.0 1.5170494119650244 7.000000000000005
    vertex 27.754491625041712 1.5151257879086288 14.000000000000005
    vertex 28.0 1.5170494119650244 14.000000000000005
  endloop
endfacet
facet normal -1.6914314409315352e-15 -1.1988938902353212e-16 1.0
  outer loop
    vertex 26.050381820745628 8.053918219245805 7.000000000000008
    vertex 26.08854023870865 9.088490935328657 7.000000000000008
    vertex 26.001358988723094 8.573716402801638 7.000000000000008
  endloop
endfacet
facet normal -1.6914314409315352e-15 -1.1988938902353212e-16 1.0
  outer loop
    vertex 26.08854023870865 9.088490935328657 7.000000000000008
    vertex 26.050381820745628 8.053918219245805 7.000000000000008
    vertex 26.23226790978796 7.56451977186337 7.000000000000008
  endloop
endfacet
facet normal -1.6914314409315352e-15 -1.1988938902353212e-16 1.0
  outer loop
    vertex 26.08854023870865 9.088490935328657 7.000000000000008
    vertex 26.23226790978796 7.56451977186337 7.000000000000008
    vertex 26.305984312589604 9.56316078314028 7.000000000000008
  endloop
endfacet
facet normal -1.6914314409315352e-15 -1.1988938902353212e-16 1.0
  outer loop
    vertex 26.305984312589604 9.56316078314028 7.000000000000008
    vertex 26.23226790978796 7.56451977186337 7.000000000000008
    vertex 26.534622019462844 7.138872756074275 7.000000000000008
  endloop
endfacet
facet normal -1.6914314409315352e-15 -1.1988938902353212e-16 1.0
  outer loop
    vertex 26.305984312589604 9.56316078314028 7.000000000000008
    vertex 26.534622019462844 7.138872756074275 7.000000000000008
    vertex 26.63887275607428 9.965377980537157 7.000000000000008
  endloop
endfacet
facet normal -1.6914314409315352e-15 -1.1988938902353212e-16 1.0
  outer loop
    vertex 26.63887275607428 9.965377980537157 7.000000000000008
    vertex 26.534622019462844 7.138872756074275 7.000000000000008
    vertex 26.936839216859724 6.805984312589594 7.000000000000008
  endloop
endfacet
facet normal -1.6914314409315352e-15 -1.1988938902353212e-16 1.0
  outer loop
    vertex 26.63887275607428 9.965377980537157 7.000000000000008
    vertex 26.936839216859724 6.805984312589594 7.000000000000008
    vertex 27.064519771863377 10.267732090212043 7.000000000000008
  endloop
endfacet
facet normal -1.6914314409315352e-15 -1.1988938902353212e-16 1.0
  outer loop
    vertex 27.064519771863377 10.267732090212043 7.000000000000008
    vertex 26.936839216859724 6.805984312589594 7.000000000000008
    vertex 27.411509064671346 6.588540238708645 7.000000000000008
  endloop
endfacet
facet normal -1.6914314409315352e-15 -1.1988938902353212e-16 1.0
  outer loop
    vertex 27.064519771863377 10.267732090212043 7.000000000000008
    vertex 27.411509064671346 6.588540238708645 7.000000000000008
    vertex 27.55391821924581 10.44961817925438 7.000000000000008
  endloop
endfacet
facet normal -1.6914314409315352e-15 -1.1988938902353212e-16 1.0
  outer loop
    vertex 27.55391821924581 10.44961817925438 7.000000000000008
    vertex 27.411509064671346 6.588540238708645 7.000000000000008
    vertex 27.92628359719837 6.501358988723089 7.000000000000008
  endloop
endfacet
facet normal -1.6914314409315352e-15 -1.1988938902353212e-16 1.0
  outer loop
    vertex 27.55391821924581 10.44961817925438 7.000000000000008
    vertex 27.92628359719837 6.501358988723089 7.000000000000008
    vertex 28.000000000000004 10.49168872297315 7.000000000000014
  endloop
endfacet
facet normal -1.6914314409315352e-15 -1.1988938902353212e-16 1.0
  outer loop
    vertex 28.000000000000004 10.49168872297315 7.000000000000014
    vertex 27.92628359719837 6.501358988723089 7.000000000000008
    vertex 28.000000000000004 6.508311277026848 7.000000000000014
  endloop
endfacet
facet normal 0.09389462603008031 -0.9955821408616528 3.9456588011142703e-17
  outer loop
    vertex 28.000000000000004 10.49168872297315 7.000000000000014
    vertex 27.553918219245805 10.44961817925438 13.999999999999995
    vertex 27.55391821924581 10.44961817925438 7.000000000000008
  endloop
endfacet
facet normal 0.09389462603008031 -0.9955821408616528 3.9456588011142703e-17
  outer loop
    vertex 27.553918219245805 10.44961817925438 13.999999999999995
    vertex 28.000000000000004 10.49168872297315 7.000000000000014
    vertex 28.0 10.49168872297315 14.0
  endloop
endfacet
facet normal 0.348370863251145 -0.9373567846010675 4.768662990045624e-16
  outer loop
    vertex 27.553918219245805 10.44961817925438 13.999999999999995
    vertex 27.064519771863377 10.267732090212043 7.000000000000008
    vertex 27.55391821924581 10.44961817925438 7.000000000000008
  endloop
endfacet
facet normal 0.348370863251145 -0.9373567846010675 4.768662990045624e-16
  outer loop
    vertex 27.064519771863377 10.267732090212043 7.000000000000008
    vertex 27.553918219245805 10.44961817925438 13.999999999999995
    vertex 27.06451977186337 10.267732090212043 13.999999999999995
  endloop
endfacet
facet normal 0.5791062018517155 -0.8152521125252483 8.817783597796397e-16
  outer loop
    vertex 27.06451977186337 10.267732090212043 13.999999999999995
    vertex 26.63887275607428 9.965377980537157 7.000000000000008
    vertex 27.064519771863377 10.267732090212043 7.000000000000008
  endloop
endfacet
facet normal 0.5791062018517155 -0.8152521125252483 8.817783597796397e-16
  outer loop
    vertex 26.63887275607428 9.965377980537157 7.000000000000008
    vertex 27.06451977186337 10.267732090212043 13.999999999999995
    vertex 26.638872756074274 9.965377980537157 13.999999999999995
  endloop
endfacet
facet normal 0.7703764098143411 -0.6375893562486489 1.2265986825433762e-15
  outer loop
    vertex 26.63887275607428 9.965377980537157 7.000000000000008
    vertex 26.305984312589597 9.56316078314028 13.999999999999995
    vertex 26.305984312589604 9.56316078314028 7.000000000000008
  endloop
endfacet
facet normal 0.7703764098143411 -0.6375893562486489 1.2265986825433762e-15
  outer loop
    vertex 26.305984312589597 9.56316078314028 13.999999999999995
    vertex 26.63887275607428 9.965377980537157 7.000000000000008
    vertex 26.638872756074274 9.965377980537157 13.999999999999995
  endloop
endfacet
facet normal 0.9091467385553257 -0.4164759390099438 1.487828332141936e-15
  outer loop
    vertex 26.305984312589604 9.56316078314028 7.000000000000008
    vertex 26.088540238708642 9.088490935328657 13.999999999999995
    vertex 26.08854023870865 9.088490935328657 7.000000000000008
  endloop
endfacet
facet normal 0.9091467385553257 -0.4164759390099438 1.487828332141936e-15
  outer loop
    vertex 26.088540238708642 9.088490935328657 13.999999999999995
    vertex 26.305984312589604 9.56316078314028 7.000000000000008
    vertex 26.305984312589597 9.56316078314028 13.999999999999995
  endloop
endfacet
facet normal 0.9859602194997954 -0.16698037478672542 1.6476649396576108e-15
  outer loop
    vertex 26.08854023870865 9.088490935328657 7.000000000000008
    vertex 26.00135898872309 8.573716402801638 13.999999999999995
    vertex 26.001358988723094 8.573716402801638 7.000000000000008
  endloop
endfacet
facet normal 0.9859602194997954 -0.16698037478672542 1.6476649396576108e-15
  outer loop
    vertex 26.00135898872309 8.573716402801638 13.999999999999995
    vertex 26.08854023870865 9.088490935328657 7.000000000000008
    vertex 26.088540238708642 9.088490935328657 13.999999999999995
  endloop
endfacet
facet normal 0.9955821408616521 0.09389462603008694 1.6952159044306668e-15
  outer loop
    vertex 26.001358988723094 8.573716402801638 7.000000000000008
    vertex 26.05038182074562 8.053918219245805 13.999999999999995
    vertex 26.050381820745628 8.053918219245805 7.000000000000008
  endloop
endfacet
facet normal 0.9955821408616521 0.09389462603008694 1.6952159044306668e-15
  outer loop
    vertex 26.05038182074562 8.053918219245805 13.999999999999995
    vertex 26.001358988723094 8.573716402801638 7.000000000000008
    vertex 26.00135898872309 8.573716402801638 13.999999999999995
  endloop
endfacet
facet normal 0.9373567846010696 0.34837086325113936 1.6272407067935173e-15
  outer loop
    vertex 26.050381820745628 8.053918219245805 7.000000000000008
    vertex 26.232267909787954 7.56451977186337 13.999999999999995
    vertex 26.23226790978796 7.56451977186337 7.000000000000008
  endloop
endfacet
facet normal 0.9373567846010696 0.34837086325113936 1.6272407067935173e-15
  outer loop
    vertex 26.232267909787954 7.56451977186337 13.999999999999995
    vertex 26.050381820745628 8.053918219245805 7.000000000000008
    vertex 26.05038182074562 8.053918219245805 13.999999999999995
  endloop
endfacet
facet normal 0.8152521125252497 0.5791062018517137 1.4483717441308013e-15
  outer loop
    vertex 26.23226790978796 7.56451977186337 7.000000000000008
    vertex 26.534622019462837 7.138872756074275 13.999999999999995
    vertex 26.534622019462844 7.138872756074275 7.000000000000008
  endloop
endfacet
facet normal 0.8152521125252497 0.5791062018517137 1.4483717441308013e-15
  outer loop
    vertex 26.534622019462837 7.138872756074275 13.999999999999995
    vertex 26.23226790978796 7.56451977186337 7.000000000000008
    vertex 26.232267909787954 7.56451977186337 13.999999999999995
  endloop
endfacet
facet normal 0.6375893562486507 0.7703764098143395 1.1707986406530485e-15
  outer loop
    vertex 26.534622019462837 7.138872756074275 13.999999999999995
    vertex 26.936839216859724 6.805984312589594 7.000000000000008
    vertex 26.534622019462844 7.138872756074275 7.000000000000008
  endloop
endfacet
facet normal 0.6375893562486507 0.7703764098143395 1.1707986406530485e-15
  outer loop
    vertex 26.936839216859724 6.805984312589594 7.000000000000008
    vertex 26.534622019462837 7.138872756074275 13.999999999999995
    vertex 26.936839216859717 6.805984312589594 13.999999999999995
  endloop
endfacet
facet normal 0.4164759390099358 0.9091467385553292 8.134375446510251e-16
  outer loop
    vertex 26.936839216859717 6.805984312589594 13.999999999999995
    vertex 27.411509064671346 6.588540238708645 7.000000000000008
    vertex 26.936839216859724 6.805984312589594 7.000000000000008
  endloop
endfacet
facet normal 0.4164759390099358 0.9091467385553292 8.134375446510251e-16
  outer loop
    vertex 27.411509064671346 6.588540238708645 7.000000000000008
    vertex 26.936839216859717 6.805984312589594 13.999999999999995
    vertex 27.41150906467134 6.588540238708645 13.999999999999995
  endloop
endfacet
facet normal 0.1669803747867289 0.985960219499795 4.006420242501427e-16
  outer loop
    vertex 27.41150906467134 6.588540238708645 13.999999999999995
    vertex 27.92628359719837 6.501358988723089 7.000000000000008
    vertex 27.411509064671346 6.588540238708645 7.000000000000008
  endloop
endfacet
facet normal 0.1669803747867289 0.985960219499795 4.006420242501427e-16
  outer loop
    vertex 27.92628359719837 6.501358988723089 7.000000000000008
    vertex 27.41150906467134 6.588540238708645 13.999999999999995
    vertex 27.926283597198363 6.501358988723089 13.999999999999995
  endloop
endfacet
facet normal -0.09389462603009298 0.9955821408616514 -3.9456588011164304e-17
  outer loop
    vertex 27.926283597198363 6.501358988723089 13.999999999999995
    vertex 28.000000000000004 6.508311277026848 7.000000000000014
    vertex 27.92628359719837 6.501358988723089 7.000000000000008
  endloop
endfacet
facet normal -0.09389462603009298 0.9955821408616514 -3.9456588011164304e-17
  outer loop
    vertex 28.000000000000004 6.508311277026848 7.000000000000014
    vertex 27.926283597198363 6.501358988723089 13.999999999999995
    vertex 28.0 6.508311277026848 14.0
  endloop
endfacet
endsolid LED jig 2
