solid Tracker OLED spacer 2
facet normal -0.0 -0.0 1.0
  outer loop
    vertex 1.7490968880623419 22.93990314368073 1.5
    vertex 1.7331348627085057 24.0 1.4999999999999998
    vertex 1.733134862708505 23.097646236708545 1.4999999999999998
  endloop
endfacet
facet normal -0.0 -0.0 1.0
  outer loop
    vertex -5.75 27.036374476432126 1.5
    vertex -0.76327307147574 25.915561180904376 1.4999999999999998
    vertex 4.250000000000002 27.036374476432126 1.5
  endloop
endfacet
facet normal -0.0 -0.0 1.0
  outer loop
    vertex -0.76327307147574 25.915561180904376 1.4999999999999998
    vertex -5.75 27.036374476432126 1.5
    vertex -1.2415674313542604 25.71744517023614 1.4999999999999998
  endloop
endfacet
facet normal -0.0 -0.0 1.0
  outer loop
    vertex -1.2415674313542604 25.71744517023614 1.4999999999999998
    vertex -5.75 27.036374476432126 1.5
    vertex -1.6522881094286463 25.402288109428643 1.4999999999999998
  endloop
endfacet
facet normal -0.0 -0.0 1.0
  outer loop
    vertex -1.6522881094286463 25.402288109428643 1.4999999999999998
    vertex -5.75 27.036374476432126 1.5
    vertex -1.9674451702361409 24.991567431354255 1.4999999999999998
  endloop
endfacet
facet normal -0.0 -0.0 1.0
  outer loop
    vertex -1.9674451702361409 24.991567431354255 1.4999999999999998
    vertex -5.75 27.036374476432126 1.5
    vertex -2.1655611809043815 24.513273071475737 1.4999999999999998
  endloop
endfacet
facet normal -0.0 -0.0 1.0
  outer loop
    vertex -2.1655611809043815 24.513273071475737 1.4999999999999998
    vertex -5.75 27.036374476432126 1.5
    vertex -2.75 21.0 1.5
  endloop
endfacet
facet normal -0.0 -0.0 1.0
  outer loop
    vertex -2.1655611809043815 24.513273071475737 1.4999999999999998
    vertex -2.75 21.0 1.5
    vertex -2.233134862708516 24.0 1.4999999999999998
  endloop
endfacet
facet normal -0.0 -0.0 1.0
  outer loop
    vertex -2.233134862708516 24.0 1.4999999999999998
    vertex -2.75 21.0 1.5
    vertex -2.2490968880623416 23.060096856319273 1.5
  endloop
endfacet
facet normal -0.0 -0.0 1.0
  outer loop
    vertex 4.250000000000002 27.036374476432126 1.5
    vertex -0.76327307147574 25.915561180904376 1.4999999999999998
    vertex -0.2500000000000048 25.983134862708514 1.4999999999999998
  endloop
endfacet
facet normal -0.0 -0.0 1.0
  outer loop
    vertex 4.250000000000002 27.036374476432126 1.5
    vertex -0.2500000000000048 25.983134862708514 1.4999999999999998
    vertex 0.2632730714757304 25.915561180904376 1.4999999999999998
  endloop
endfacet
facet normal -0.0 -0.0 1.0
  outer loop
    vertex 4.250000000000002 27.036374476432126 1.5
    vertex 0.2632730714757304 25.915561180904376 1.4999999999999998
    vertex 0.7415674313542503 25.717445170236132 1.4999999999999998
  endloop
endfacet
facet normal -0.0 -0.0 1.0
  outer loop
    vertex 4.250000000000002 27.036374476432126 1.5
    vertex 0.7415674313542503 25.717445170236132 1.4999999999999998
    vertex 1.1522881094286357 25.402288109428643 1.4999999999999998
  endloop
endfacet
facet normal -0.0 -0.0 1.0
  outer loop
    vertex 4.250000000000002 27.036374476432126 1.5
    vertex 1.1522881094286357 25.402288109428643 1.4999999999999998
    vertex 1.4674451702361302 24.991567431354255 1.4999999999999998
  endloop
endfacet
facet normal -0.0 -0.0 1.0
  outer loop
    vertex 4.250000000000002 27.036374476432126 1.5
    vertex 1.4674451702361302 24.991567431354255 1.4999999999999998
    vertex 1.665561180904371 24.513273071475737 1.4999999999999998
  endloop
endfacet
facet normal -0.0 -0.0 1.0
  outer loop
    vertex 4.250000000000002 27.036374476432126 1.5
    vertex 1.665561180904371 24.513273071475737 1.4999999999999998
    vertex 1.7331348627085057 24.0 1.4999999999999998
  endloop
endfacet
facet normal -0.0 -0.0 1.0
  outer loop
    vertex 4.250000000000002 27.036374476432126 1.5
    vertex 1.7331348627085057 24.0 1.4999999999999998
    vertex 1.7490968880623419 22.93990314368073 1.5
  endloop
endfacet
facet normal -0.0 -0.0 1.0
  outer loop
    vertex 4.250000000000002 27.036374476432126 1.5
    vertex 1.7490968880623419 22.93990314368073 1.5
    vertex 4.250000000000002 22.0 1.5
  endloop
endfacet
facet normal -0.0 -0.0 1.0
  outer loop
    vertex 3.7522354631647135 1.9759301747699491 1.5002241309301148
    vertex 1.7297697740404412 1.9720042653393692 1.5008886775230483
    vertex 1.7334444969162652 0.0004668061360364031 1.501500856969505
  endloop
endfacet
facet normal -0.0 -0.0 1.0
  outer loop
    vertex 1.7331348627085021 21.002634533891865 1.5
    vertex 4.250000000000002 22.0 1.5
    vertex 1.7331348627085021 22.841588819351298 1.5
  endloop
endfacet
facet normal -0.0 -0.0 1.0
  outer loop
    vertex 4.250000000000002 22.0 1.5
    vertex 1.7331348627085021 21.002634533891865 1.5
    vertex 18.767082523567865 21.01557600969079 1.5
  endloop
endfacet
facet normal -0.0 -0.0 1.0
  outer loop
    vertex 1.7331348627085021 22.841588819351298 1.5
    vertex 4.250000000000002 22.0 1.5
    vertex 1.7490968880623419 22.93990314368073 1.5
  endloop
endfacet
facet normal -0.0 -0.0 1.0
  outer loop
    vertex 4.250000000000002 22.0 1.5
    vertex 18.767082523567865 21.01557600969079 1.5
    vertex 16.249999999999996 22.0 1.5
  endloop
endfacet
facet normal -0.0 -0.0 1.0
  outer loop
    vertex 16.249999999999996 22.0 1.5
    vertex 18.767082523567865 21.01557600969079 1.5
    vertex 16.25 27.036374476432126 1.5
  endloop
endfacet
facet normal -0.0 -0.0 1.0
  outer loop
    vertex 16.25 27.036374476432126 1.5
    vertex 18.767082523567865 21.01557600969079 1.5
    vertex 18.767082523567865 24.0 1.5
  endloop
endfacet
facet normal -0.0 -0.0 1.0
  outer loop
    vertex 23.249999999999996 21.0 1.5
    vertex 22.732917476432128 24.0 1.5
    vertex 22.732917476432128 21.003533229758155 1.5
  endloop
endfacet
facet normal -0.0 -0.0 1.0
  outer loop
    vertex -5.75 -3.9999999999999996 1.5
    vertex -2.7499999999999987 1.9999999999999996 1.5
    vertex -5.75 27.036374476432126 1.5
  endloop
endfacet
facet normal -0.0 -0.0 1.0
  outer loop
    vertex -2.7499999999999987 1.9999999999999996 1.5
    vertex -5.75 -3.9999999999999996 1.5
    vertex -2.165251546696627 -0.5128062653396989 1.501500856969505
  endloop
endfacet
facet normal -0.0 -0.0 1.0
  outer loop
    vertex -2.165251546696627 -0.5128062653396989 1.501500856969505
    vertex -5.75 -3.9999999999999996 1.5
    vertex -1.9671355360283855 -0.9911006252182202 1.501500856969505
  endloop
endfacet
facet normal -0.0 -0.0 1.0
  outer loop
    vertex -1.9671355360283855 -0.9911006252182202 1.501500856969505
    vertex -5.75 -3.9999999999999996 1.5
    vertex -1.6519784752208917 -1.401821303292606 1.501500856969505
  endloop
endfacet
facet normal -0.0 -0.0 1.0
  outer loop
    vertex -1.6519784752208917 -1.401821303292606 1.501500856969505
    vertex -5.75 -3.9999999999999996 1.5
    vertex -1.2412577971465055 -1.7169783641001002 1.501500856969505
  endloop
endfacet
facet normal -0.0 -0.0 1.0
  outer loop
    vertex -1.2412577971465055 -1.7169783641001002 1.501500856969505
    vertex -5.75 -3.9999999999999996 1.5
    vertex -0.7629634372679855 -1.9150943747683413 1.501500856969505
  endloop
endfacet
facet normal -0.0 -0.0 1.0
  outer loop
    vertex -0.7629634372679855 -1.9150943747683413 1.501500856969505
    vertex -5.75 -3.9999999999999996 1.5
    vertex -0.24969036579224818 -1.9826680565724761 1.501500856969505
  endloop
endfacet
facet normal -0.0 -0.0 1.0
  outer loop
    vertex -0.24969036579224818 -1.9826680565724761 1.501500856969505
    vertex -5.75 -3.9999999999999996 1.5
    vertex 26.249999999999996 -3.999999999999999 1.5
  endloop
endfacet
facet normal -0.0 -0.0 1.0
  outer loop
    vertex -5.75 27.036374476432126 1.5
    vertex -2.7499999999999987 1.9999999999999996 1.5
    vertex -2.75 21.0 1.5
  endloop
endfacet
facet normal -0.0 -0.0 1.0
  outer loop
    vertex -2.7499999999999987 1.9999999999999996 1.5
    vertex -2.165251546696627 -0.5128062653396989 1.501500856969505
    vertex -2.2328252285007615 0.000466806136036646 1.501500856969505
  endloop
endfacet
facet normal -0.0 -0.0 1.0
  outer loop
    vertex -0.24969036579224818 -1.9826680565724761 1.501500856969505
    vertex 26.249999999999996 -3.999999999999999 1.5
    vertex 0.2635827056834873 -1.915094374768342 1.501500856969505
  endloop
endfacet
facet normal -0.0 -0.0 1.0
  outer loop
    vertex 0.2635827056834873 -1.915094374768342 1.501500856969505
    vertex 26.249999999999996 -3.999999999999999 1.5
    vertex 3.7628646891242705 -1.9960740905694156 1.4993354534070666
  endloop
endfacet
facet normal -0.0 -0.0 1.0
  outer loop
    vertex 0.2635827056834873 -1.915094374768342 1.501500856969505
    vertex 3.7628646891242705 -1.9960740905694156 1.4993354534070666
    vertex 0.7418770655620075 -1.7169783641001013 1.501500856969505
  endloop
endfacet
facet normal -0.0 -0.0 1.0
  outer loop
    vertex 0.7418770655620075 -1.7169783641001013 1.501500856969505
    vertex 3.7628646891242705 -1.9960740905694156 1.4993354534070666
    vertex 1.1525977436363946 -1.4018213032926072 1.501500856969505
  endloop
endfacet
facet normal -0.0 -0.0 1.0
  outer loop
    vertex 1.1525977436363946 -1.4018213032926072 1.501500856969505
    vertex 3.7628646891242705 -1.9960740905694156 1.4993354534070666
    vertex 1.467754804443889 -0.9911006252182216 1.501500856969505
  endloop
endfacet
facet normal -0.0 -0.0 1.0
  outer loop
    vertex 1.467754804443889 -0.9911006252182216 1.501500856969505
    vertex 3.7628646891242705 -1.9960740905694156 1.4993354534070666
    vertex 1.6658708151121306 -0.5128062653397013 1.501500856969505
  endloop
endfacet
facet normal -0.0 -0.0 1.0
  outer loop
    vertex 1.6658708151121306 -0.5128062653397013 1.501500856969505
    vertex 3.7628646891242705 -1.9960740905694156 1.4993354534070666
    vertex 1.7334444969162652 0.0004668061360364031 1.501500856969505
  endloop
endfacet
facet normal -0.0 -0.0 1.0
  outer loop
    vertex 1.7334444969162652 0.0004668061360364031 1.501500856969505
    vertex 3.7628646891242705 -1.9960740905694156 1.4993354534070666
    vertex 3.7522354631647135 1.9759301747699491 1.5002241309301148
  endloop
endfacet
facet normal -0.0 -0.0 1.0
  outer loop
    vertex 3.7628646891242705 -1.9960740905694156 1.4993354534070666
    vertex 26.249999999999996 -3.999999999999999 1.5
    vertex 16.749999999999996 -2.000000000000001 1.5
  endloop
endfacet
facet normal -0.0 -0.0 1.0
  outer loop
    vertex 16.749999999999996 -2.000000000000001 1.5
    vertex 26.249999999999996 -3.999999999999999 1.5
    vertex 20.296676285031726 -1.9479470242918226 1.5
  endloop
endfacet
facet normal -0.0 -0.0 1.0
  outer loop
    vertex 16.749999999999996 -2.000000000000001 1.5
    vertex 20.296676285031726 -1.9479470242918226 1.5
    vertex 19.807957127305336 -1.764243527975996 1.5
  endloop
endfacet
facet normal -0.0 -0.0 1.0
  outer loop
    vertex 16.749999999999996 -2.000000000000001 1.5
    vertex 19.807957127305336 -1.764243527975996 1.5
    vertex 19.38343663455363 -1.4603097507788876 1.5
  endloop
endfacet
facet normal -0.0 -0.0 1.0
  outer loop
    vertex 16.749999999999996 -2.000000000000001 1.5
    vertex 19.38343663455363 -1.4603097507788876 1.5
    vertex 19.052045176804352 -1.0568582773421638 1.5
  endloop
endfacet
facet normal -0.0 -0.0 1.0
  outer loop
    vertex 16.749999999999996 -2.000000000000001 1.5
    vertex 19.052045176804352 -1.0568582773421638 1.5
    vertex 16.749999999999996 2.0000000000000013 1.5
  endloop
endfacet
facet normal -0.0 -0.0 1.0
  outer loop
    vertex 16.749999999999996 2.0000000000000013 1.5
    vertex 19.052045176804352 -1.0568582773421638 1.5
    vertex 18.83636653425284 -0.5813836588454548 1.5
  endloop
endfacet
facet normal -0.0 -0.0 1.0
  outer loop
    vertex 16.749999999999996 2.0000000000000013 1.5
    vertex 18.83636653425284 -0.5813836588454548 1.5
    vertex 18.75109884996317 -0.0662887047803518 1.5
  endloop
endfacet
facet normal -0.0 -0.0 1.0
  outer loop
    vertex 16.749999999999996 2.0000000000000013 1.5
    vertex 18.75109884996317 -0.0662887047803518 1.5
    vertex 18.749999999999996 1.999380400588803 1.5
  endloop
endfacet
facet normal -0.0 -0.0 1.0
  outer loop
    vertex 20.296676285031726 -1.9479470242918226 1.5
    vertex 26.249999999999996 -3.999999999999999 1.5
    vertex 20.816288704780348 -1.998901150036825 1.5
  endloop
endfacet
facet normal -0.0 -0.0 1.0
  outer loop
    vertex 20.816288704780348 -1.998901150036825 1.5
    vertex 26.249999999999996 -3.999999999999999 1.5
    vertex 21.33138365884545 -1.913633465747156 1.5
  endloop
endfacet
facet normal -0.0 -0.0 1.0
  outer loop
    vertex 21.33138365884545 -1.913633465747156 1.5
    vertex 26.249999999999996 -3.999999999999999 1.5
    vertex 21.80685827734216 -1.697954823195645 1.5
  endloop
endfacet
facet normal -0.0 -0.0 1.0
  outer loop
    vertex 21.80685827734216 -1.697954823195645 1.5
    vertex 26.249999999999996 -3.999999999999999 1.5
    vertex 22.210309750778883 -1.3665633654463678 1.5
  endloop
endfacet
facet normal -0.0 -0.0 1.0
  outer loop
    vertex 22.210309750778883 -1.3665633654463678 1.5
    vertex 26.249999999999996 -3.999999999999999 1.5
    vertex 22.514243527975992 -0.9420428726946617 1.5
  endloop
endfacet
facet normal -0.0 -0.0 1.0
  outer loop
    vertex 22.514243527975992 -0.9420428726946617 1.5
    vertex 26.249999999999996 -3.999999999999999 1.5
    vertex 22.697947024291818 -0.453323714968269 1.5
  endloop
endfacet
facet normal -0.0 -0.0 1.0
  outer loop
    vertex 22.697947024291818 -0.453323714968269 1.5
    vertex 26.249999999999996 -3.999999999999999 1.5
    vertex 22.74890115003682 0.06628870478035075 1.5
  endloop
endfacet
facet normal -0.0 -0.0 1.0
  outer loop
    vertex 22.74890115003682 0.06628870478035075 1.5
    vertex 26.249999999999996 -3.999999999999999 1.5
    vertex 22.749999999999996 1.99978590679195 1.5
  endloop
endfacet
facet normal -0.0 -0.0 1.0
  outer loop
    vertex 22.749999999999996 1.99978590679195 1.5
    vertex 26.249999999999996 -3.999999999999999 1.5
    vertex 23.249999999999996 1.9999999999999996 1.5
  endloop
endfacet
facet normal -0.0 -0.0 1.0
  outer loop
    vertex 23.249999999999996 1.9999999999999996 1.5
    vertex 26.249999999999996 -3.999999999999999 1.5
    vertex 23.249999999999996 21.0 1.5
  endloop
endfacet
facet normal -0.0 -0.0 1.0
  outer loop
    vertex 16.25 27.036374476432126 1.5
    vertex 20.236783192232732 25.91535120188574 1.5
    vertex 26.249999999999996 27.036374476432126 1.5
  endloop
endfacet
facet normal -0.0 -0.0 1.0
  outer loop
    vertex 20.236783192232732 25.91535120188574 1.5
    vertex 16.25 27.036374476432126 1.5
    vertex 19.758541261783932 25.717256908198358 1.5
  endloop
endfacet
facet normal -0.0 -0.0 1.0
  outer loop
    vertex 19.758541261783932 25.717256908198358 1.5
    vertex 16.25 27.036374476432126 1.5
    vertex 19.34786560588152 25.40213439411848 1.5
  endloop
endfacet
facet normal -0.0 -0.0 1.0
  outer loop
    vertex 19.34786560588152 25.40213439411848 1.5
    vertex 16.25 27.036374476432126 1.5
    vertex 19.03274309180164 24.991458738216068 1.5
  endloop
endfacet
facet normal -0.0 -0.0 1.0
  outer loop
    vertex 19.03274309180164 24.991458738216068 1.5
    vertex 16.25 27.036374476432126 1.5
    vertex 18.834648798114255 24.513216807767268 1.5
  endloop
endfacet
facet normal -0.0 -0.0 1.0
  outer loop
    vertex 18.834648798114255 24.513216807767268 1.5
    vertex 16.25 27.036374476432126 1.5
    vertex 18.767082523567865 24.0 1.5
  endloop
endfacet
facet normal -0.0 -0.0 1.0
  outer loop
    vertex 26.249999999999996 27.036374476432126 1.5
    vertex 20.236783192232732 25.91535120188574 1.5
    vertex 20.749999999999996 25.98291747643213 1.5
  endloop
endfacet
facet normal -0.0 -0.0 1.0
  outer loop
    vertex 26.249999999999996 27.036374476432126 1.5
    vertex 20.749999999999996 25.98291747643213 1.5
    vertex 21.26321680776726 25.91535120188574 1.5
  endloop
endfacet
facet normal -0.0 -0.0 1.0
  outer loop
    vertex 26.249999999999996 27.036374476432126 1.5
    vertex 21.26321680776726 25.91535120188574 1.5
    vertex 21.741458738216064 25.717256908198358 1.5
  endloop
endfacet
facet normal -0.0 -0.0 1.0
  outer loop
    vertex 26.249999999999996 27.036374476432126 1.5
    vertex 21.741458738216064 25.717256908198358 1.5
    vertex 22.152134394118473 25.40213439411848 1.5
  endloop
endfacet
facet normal -0.0 -0.0 1.0
  outer loop
    vertex 26.249999999999996 27.036374476432126 1.5
    vertex 22.152134394118473 25.40213439411848 1.5
    vertex 22.467256908198355 24.991458738216068 1.5
  endloop
endfacet
facet normal -0.0 -0.0 1.0
  outer loop
    vertex 26.249999999999996 27.036374476432126 1.5
    vertex 22.467256908198355 24.991458738216068 1.5
    vertex 22.665351201885738 24.513216807767268 1.5
  endloop
endfacet
facet normal -0.0 -0.0 1.0
  outer loop
    vertex 26.249999999999996 27.036374476432126 1.5
    vertex 22.665351201885738 24.513216807767268 1.5
    vertex 22.732917476432128 24.0 1.5
  endloop
endfacet
facet normal -0.0 -0.0 1.0
  outer loop
    vertex 26.249999999999996 27.036374476432126 1.5
    vertex 22.732917476432128 24.0 1.5
    vertex 23.249999999999996 21.0 1.5
  endloop
endfacet
facet normal -0.0 -0.0 1.0
  outer loop
    vertex 26.249999999999996 27.036374476432126 1.5
    vertex 23.249999999999996 21.0 1.5
    vertex 26.249999999999996 -3.999999999999999 1.5
  endloop
endfacet
facet normal -0.0 -0.0 1.0
  outer loop
    vertex -2.2328252285007615 1.9942452377781852 1.501500856969505
    vertex -2.7499999999999987 1.9999999999999996 1.5
    vertex -2.2328252285007615 0.000466806136036646 1.501500856969505
  endloop
endfacet
facet normal -0.0 -0.0 1.0
  outer loop
    vertex -2.233134862708516 21.000191313772785 1.5
    vertex -2.2490968880623416 23.060096856319273 1.5
    vertex -2.75 21.0 1.5
  endloop
endfacet
facet normal -0.0 -0.0 1.0
  outer loop
    vertex -2.2490968880623416 23.060096856319273 1.5
    vertex -2.233134862708516 21.000191313772785 1.5
    vertex -2.2331348627085106 22.90235376329137 1.5
  endloop
endfacet
facet normal -0.0 -0.0 1.0
  outer loop
    vertex -2.2331348627085155 23.1584111806486 1.4999999999999998
    vertex -2.233134862708516 24.0 1.4999999999999998
    vertex -2.2490968880623416 23.060096856319273 1.5
  endloop
endfacet
facet normal 2.0735047665793368e-17 -1.0 0.0
  outer loop
    vertex 26.249999999999996 -3.999999999999999 1.5
    vertex -5.75 -3.9999999999999996 0.0
    vertex 26.249999999999996 -3.999999999999999 0.0
  endloop
endfacet
facet normal 2.0735047665793368e-17 -1.0 0.0
  outer loop
    vertex -5.75 -3.9999999999999996 0.0
    vertex 26.249999999999996 -3.999999999999999 1.5
    vertex -5.75 -3.9999999999999996 1.5
  endloop
endfacet
facet normal -1.0 0.0 0.0
  outer loop
    vertex -5.75 27.036374476432126 1.5
    vertex -5.75 -3.9999999999999996 0.0
    vertex -5.75 -3.9999999999999996 1.5
  endloop
endfacet
facet normal -1.0 0.0 0.0
  outer loop
    vertex -5.75 -3.9999999999999996 0.0
    vertex -5.75 27.036374476432126 1.5
    vertex -5.75 27.036374476432126 0.0
  endloop
endfacet
facet normal 0.0 1.0 0.0
  outer loop
    vertex -5.75 27.036374476432126 1.5
    vertex 4.250000000000002 27.036374476432126 0.0
    vertex -5.75 27.036374476432126 0.0
  endloop
endfacet
facet normal 0.0 1.0 0.0
  outer loop
    vertex 4.250000000000002 27.036374476432126 0.0
    vertex -5.75 27.036374476432126 1.5
    vertex 4.250000000000002 27.036374476432126 1.5
  endloop
endfacet
facet normal 1.0 0.0 0.0
  outer loop
    vertex 4.250000000000002 27.036374476432126 0.0
    vertex 4.250000000000002 22.0 1.5
    vertex 4.250000000000002 22.0 0.0
  endloop
endfacet
facet normal 1.0 0.0 0.0
  outer loop
    vertex 4.250000000000002 22.0 1.5
    vertex 4.250000000000002 27.036374476432126 0.0
    vertex 4.250000000000002 27.036374476432126 1.5
  endloop
endfacet
facet normal 0.0 1.0 0.0
  outer loop
    vertex 4.250000000000002 22.0 1.5
    vertex 16.249999999999996 22.0 0.0
    vertex 4.250000000000002 22.0 0.0
  endloop
endfacet
facet normal 0.0 1.0 0.0
  outer loop
    vertex 16.249999999999996 22.0 0.0
    vertex 4.250000000000002 22.0 1.5
    vertex 16.249999999999996 22.0 1.5
  endloop
endfacet
facet normal -1.0 7.049916206369742e-16 0.0
  outer loop
    vertex 16.25 27.036374476432126 1.5
    vertex 16.249999999999996 22.0 0.0
    vertex 16.249999999999996 22.0 1.5
  endloop
endfacet
facet normal -1.0 7.049916206369742e-16 0.0
  outer loop
    vertex 16.249999999999996 22.0 0.0
    vertex 16.25 27.036374476432126 1.5
    vertex 16.25 27.036374476432126 0.0
  endloop
endfacet
facet normal 0.0 1.0 0.0
  outer loop
    vertex 16.25 27.036374476432126 1.5
    vertex 26.249999999999996 27.036374476432126 0.0
    vertex 16.25 27.036374476432126 0.0
  endloop
endfacet
facet normal 0.0 1.0 0.0
  outer loop
    vertex 26.249999999999996 27.036374476432126 0.0
    vertex 16.25 27.036374476432126 1.5
    vertex 26.249999999999996 27.036374476432126 1.5
  endloop
endfacet
facet normal 1.0 0.0 0.0
  outer loop
    vertex 26.249999999999996 27.036374476432126 0.0
    vertex 26.249999999999996 -3.999999999999999 1.5
    vertex 26.249999999999996 -3.999999999999999 0.0
  endloop
endfacet
facet normal 1.0 0.0 0.0
  outer loop
    vertex 26.249999999999996 -3.999999999999999 1.5
    vertex 26.249999999999996 27.036374476432126 0.0
    vertex 26.249999999999996 27.036374476432126 1.5
  endloop
endfacet
facet normal 0.0002478397568676005 0.999999969287727 -0.0
  outer loop
    vertex 16.749999999999996 2.0000000000000013 1.5
    vertex 18.749999999999996 1.999380400588803 0.0
    vertex 16.749999999999996 2.0000000000000013 0.0
  endloop
endfacet
facet normal 0.0002478397568676005 0.999999969287727 -0.0
  outer loop
    vertex 18.749999999999996 1.999380400588803 0.0
    vertex 16.749999999999996 2.0000000000000013 1.5
    vertex 18.749999999999996 1.999380400588803 1.5
  endloop
endfacet
facet normal -1.0 0.0 0.0
  outer loop
    vertex 23.249999999999996 21.0 1.5
    vertex 23.249999999999996 1.9999999999999996 0.0
    vertex 23.249999999999996 1.9999999999999996 1.5
  endloop
endfacet
facet normal -1.0 0.0 0.0
  outer loop
    vertex 23.249999999999996 1.9999999999999996 0.0
    vertex 23.249999999999996 21.0 1.5
    vertex 23.249999999999996 21.0 0.0
  endloop
endfacet
facet normal 1.0 7.420964427757625e-17 0.0
  outer loop
    vertex -2.75 21.0 0.0
    vertex -2.7499999999999987 1.9999999999999996 1.5
    vertex -2.7499999999999987 1.9999999999999996 0.0
  endloop
endfacet
facet normal 1.0 7.420964427757625e-17 0.0
  outer loop
    vertex -2.7499999999999987 1.9999999999999996 1.5
    vertex -2.75 21.0 0.0
    vertex -2.75 21.0 1.5
  endloop
endfacet
facet normal -1.0 0.0 0.0
  outer loop
    vertex 16.749999999999996 2.0000000000000013 1.5
    vertex 16.749999999999996 -2.000000000000001 0.0
    vertex 16.749999999999996 -2.000000000000001 1.5
  endloop
endfacet
facet normal -1.0 0.0 0.0
  outer loop
    vertex 16.749999999999996 -2.000000000000001 0.0
    vertex 16.749999999999996 2.0000000000000013 1.5
    vertex 16.749999999999996 2.0000000000000013 0.0
  endloop
endfacet
facet normal 0.9865739306880169 0.16331527573009338 0.0
  outer loop
    vertex 18.75109884996317 -0.0662887047803518 0.0
    vertex 18.83636653425284 -0.5813836588454548 1.5
    vertex 18.83636653425284 -0.5813836588454548 0.0
  endloop
endfacet
facet normal 0.9865739306880169 0.16331527573009338 0.0
  outer loop
    vertex 18.83636653425284 -0.5813836588454548 1.5
    vertex 18.75109884996317 -0.0662887047803518 0.0
    vertex 18.75109884996317 -0.0662887047803518 1.5
  endloop
endfacet
facet normal 0.9999998585101781 0.0005319582913074567 -0.0
  outer loop
    vertex 18.749999999999996 1.999380400588803 0.0
    vertex 18.75109884996317 -0.0662887047803518 1.5
    vertex 18.75109884996317 -0.0662887047803518 0.0
  endloop
endfacet
facet normal 0.9999998585101781 0.0005319582913074567 -0.0
  outer loop
    vertex 18.75109884996317 -0.0662887047803518 1.5
    vertex 18.749999999999996 1.999380400588803 0.0
    vertex 18.749999999999996 1.999380400588803 1.5
  endloop
endfacet
facet normal -0.9999998385048073 0.0005683224080038182 0.0
  outer loop
    vertex 22.749999999999996 1.99978590679195 1.5
    vertex 22.74890115003682 0.06628870478035075 0.0
    vertex 22.74890115003682 0.06628870478035075 1.5
  endloop
endfacet
facet normal -0.9999998385048073 0.0005683224080038182 0.0
  outer loop
    vertex 22.74890115003682 0.06628870478035075 0.0
    vertex 22.749999999999996 1.99978590679195 1.5
    vertex 22.749999999999996 1.99978590679195 0.0
  endloop
endfacet
facet normal -0.9952263429101947 0.09759368000849171 -0.0
  outer loop
    vertex 22.74890115003682 0.06628870478035075 1.5
    vertex 22.697947024291818 -0.453323714968269 0.0
    vertex 22.697947024291818 -0.453323714968269 1.5
  endloop
endfacet
facet normal -0.9952263429101947 0.09759368000849171 -0.0
  outer loop
    vertex 22.697947024291818 -0.453323714968269 0.0
    vertex 22.74890115003682 0.06628870478035075 1.5
    vertex 22.74890115003682 0.06628870478035075 0.0
  endloop
endfacet
facet normal -0.9360557245523393 0.35185178773568165 -0.0
  outer loop
    vertex 22.697947024291818 -0.453323714968269 1.5
    vertex 22.514243527975992 -0.9420428726946617 0.0
    vertex 22.514243527975992 -0.9420428726946617 1.5
  endloop
endfacet
facet normal -0.9360557245523393 0.35185178773568165 -0.0
  outer loop
    vertex 22.514243527975992 -0.9420428726946617 0.0
    vertex 22.697947024291818 -0.453323714968269 1.5
    vertex 22.697947024291818 -0.453323714968269 0.0
  endloop
endfacet
facet normal -0.813094455471465 0.5821317775912617 -0.0
  outer loop
    vertex 22.514243527975992 -0.9420428726946617 1.5
    vertex 22.210309750778883 -1.3665633654463678 0.0
    vertex 22.210309750778883 -1.3665633654463678 1.5
  endloop
endfacet
facet normal -0.813094455471465 0.5821317775912617 -0.0
  outer loop
    vertex 22.210309750778883 -1.3665633654463678 0.0
    vertex 22.514243527975992 -0.9420428726946617 1.5
    vertex 22.514243527975992 -0.9420428726946617 0.0
  endloop
endfacet
facet normal -0.6347221429523329 0.7727404488222409 -0.0
  outer loop
    vertex 21.80685827734216 -1.697954823195645 1.5
    vertex 22.210309750778883 -1.3665633654463678 0.0
    vertex 21.80685827734216 -1.697954823195645 0.0
  endloop
endfacet
facet normal -0.6347221429523329 0.7727404488222409 -0.0
  outer loop
    vertex 22.210309750778883 -1.3665633654463678 0.0
    vertex 21.80685827734216 -1.697954823195645 1.5
    vertex 22.210309750778883 -1.3665633654463678 1.5
  endloop
endfacet
facet normal -0.41309456531893385 0.9106881354799574 -0.0
  outer loop
    vertex 21.33138365884545 -1.913633465747156 1.5
    vertex 21.80685827734216 -1.697954823195645 0.0
    vertex 21.33138365884545 -1.913633465747156 0.0
  endloop
endfacet
facet normal -0.41309456531893385 0.9106881354799574 -0.0
  outer loop
    vertex 21.80685827734216 -1.697954823195645 0.0
    vertex 21.33138365884545 -1.913633465747156 1.5
    vertex 21.80685827734216 -1.697954823195645 1.5
  endloop
endfacet
facet normal -0.16331527573009608 0.9865739306880165 -0.0
  outer loop
    vertex 20.816288704780348 -1.998901150036825 1.5
    vertex 21.33138365884545 -1.913633465747156 0.0
    vertex 20.816288704780348 -1.998901150036825 0.0
  endloop
endfacet
facet normal -0.16331527573009608 0.9865739306880165 -0.0
  outer loop
    vertex 21.33138365884545 -1.913633465747156 0.0
    vertex 20.816288704780348 -1.998901150036825 1.5
    vertex 21.33138365884545 -1.913633465747156 1.5
  endloop
endfacet
facet normal 0.0975936800084913 0.9952263429101946 0.0
  outer loop
    vertex 20.296676285031726 -1.9479470242918226 1.5
    vertex 20.816288704780348 -1.998901150036825 0.0
    vertex 20.296676285031726 -1.9479470242918226 0.0
  endloop
endfacet
facet normal 0.0975936800084913 0.9952263429101946 0.0
  outer loop
    vertex 20.816288704780348 -1.998901150036825 0.0
    vertex 20.296676285031726 -1.9479470242918226 1.5
    vertex 20.816288704780348 -1.998901150036825 1.5
  endloop
endfacet
facet normal 0.3518517877356855 0.9360557245523379 0.0
  outer loop
    vertex 19.807957127305336 -1.764243527975996 1.5
    vertex 20.296676285031726 -1.9479470242918226 0.0
    vertex 19.807957127305336 -1.764243527975996 0.0
  endloop
endfacet
facet normal 0.3518517877356855 0.9360557245523379 0.0
  outer loop
    vertex 20.296676285031726 -1.9479470242918226 0.0
    vertex 19.807957127305336 -1.764243527975996 1.5
    vertex 20.296676285031726 -1.9479470242918226 1.5
  endloop
endfacet
facet normal 0.5821317775912601 0.813094455471466 0.0
  outer loop
    vertex 19.38343663455363 -1.4603097507788876 1.5
    vertex 19.807957127305336 -1.764243527975996 0.0
    vertex 19.38343663455363 -1.4603097507788876 0.0
  endloop
endfacet
facet normal 0.5821317775912601 0.813094455471466 0.0
  outer loop
    vertex 19.807957127305336 -1.764243527975996 0.0
    vertex 19.38343663455363 -1.4603097507788876 1.5
    vertex 19.807957127305336 -1.764243527975996 1.5
  endloop
endfacet
facet normal 0.7727404488222409 0.6347221429523329 0.0
  outer loop
    vertex 19.052045176804352 -1.0568582773421638 0.0
    vertex 19.38343663455363 -1.4603097507788876 1.5
    vertex 19.38343663455363 -1.4603097507788876 0.0
  endloop
endfacet
facet normal 0.7727404488222409 0.6347221429523329 0.0
  outer loop
    vertex 19.38343663455363 -1.4603097507788876 1.5
    vertex 19.052045176804352 -1.0568582773421638 0.0
    vertex 19.052045176804352 -1.0568582773421638 1.5
  endloop
endfacet
facet normal 0.9106881354799564 0.41309456531893635 0.0
  outer loop
    vertex 18.83636653425284 -0.5813836588454548 0.0
    vertex 19.052045176804352 -1.0568582773421638 1.5
    vertex 19.052045176804352 -1.0568582773421638 0.0
  endloop
endfacet
facet normal 0.9106881354799564 0.41309456531893635 0.0
  outer loop
    vertex 19.052045176804352 -1.0568582773421638 1.5
    vertex 18.83636653425284 -0.5813836588454548 0.0
    vertex 18.83636653425284 -0.5813836588454548 1.5
  endloop
endfacet
facet normal -0.00042818637684658497 0.9999999083282092 -0.0
  outer loop
    vertex 22.749999999999996 1.99978590679195 1.5
    vertex 23.249999999999996 1.9999999999999996 0.0
    vertex 22.749999999999996 1.99978590679195 0.0
  endloop
endfacet
facet normal -0.00042818637684658497 0.9999999083282092 -0.0
  outer loop
    vertex 23.249999999999996 1.9999999999999996 0.0
    vertex 22.749999999999996 1.99978590679195 1.5
    vertex 23.249999999999996 1.9999999999999996 1.5
  endloop
endfacet
facet normal 0.9914448316103135 0.13052618830161292 -0.0002450319351306698
  outer loop
    vertex -2.233134862708519 2.4286397618935074e-16 0.0
    vertex -2.165251546696627 -0.5128062653396989 1.501500856969505
    vertex -2.165561180904384 -0.5132730714757353 0.0
  endloop
endfacet
facet normal 0.9914448316103135 0.13052618830161292 -0.0002450319351306698
  outer loop
    vertex -2.165251546696627 -0.5128062653396989 1.501500856969505
    vertex -2.233134862708519 2.4286397618935074e-16 0.0
    vertex -2.2328252285007615 0.000466806136036646 1.501500856969505
  endloop
endfacet
facet normal 0.9999999787373843 4.548959170679362e-22 -0.00020621646650180168
  outer loop
    vertex -2.233134862708519 1.9937784316421474 0.0
    vertex -2.2328252285007615 0.000466806136036646 1.501500856969505
    vertex -2.233134862708519 2.4286397618935074e-16 0.0
  endloop
endfacet
facet normal 0.9999999787373843 4.548959170679362e-22 -0.00020621646650180168
  outer loop
    vertex -2.2328252285007615 0.000466806136036646 1.501500856969505
    vertex -2.233134862708519 1.9937784316421474 0.0
    vertex -2.2328252285007615 1.9942452377781852 1.501500856969505
  endloop
endfacet
facet normal -0.9914448480615707 0.13052619046746144 0.0001638725760953322
  outer loop
    vertex 1.6658708151121306 -0.5128062653397013 1.501500856969505
    vertex 1.733134862708508 0.0 0.0
    vertex 1.6655611809043733 -0.5132730714757378 0.0
  endloop
endfacet
facet normal -0.9914448480615707 0.13052619046746144 0.0001638725760953322
  outer loop
    vertex 1.733134862708508 0.0 0.0
    vertex 1.6658708151121306 -0.5128062653397013 1.501500856969505
    vertex 1.7334444969162652 0.0004668061360364031 1.501500856969505
  endloop
endfacet
facet normal -0.9238795301467236 0.382683431385657 7.154556852329167e-05
  outer loop
    vertex 1.467754804443889 -0.9911006252182216 1.501500856969505
    vertex 1.6655611809043733 -0.5132730714757378 0.0
    vertex 1.4674451702361317 -0.9915674313542577 0.0
  endloop
endfacet
facet normal -0.9238795301467236 0.382683431385657 7.154556852329167e-05
  outer loop
    vertex 1.6655611809043733 -0.5132730714757378 0.0
    vertex 1.467754804443889 -0.9911006252182216 1.501500856969505
    vertex 1.6658708151121306 -0.5128062653397013 1.501500856969505
  endloop
endfacet
facet normal -0.7933533400301073 0.60876142880835 -2.5657153147260947e-05
  outer loop
    vertex 1.1525977436363946 -1.4018213032926072 1.501500856969505
    vertex 1.4674451702361317 -0.9915674313542577 0.0
    vertex 1.1522881094286372 -1.4022881094286435 0.0
  endloop
endfacet
facet normal -0.7933533400301073 0.60876142880835 -2.5657153147260947e-05
  outer loop
    vertex 1.4674451702361317 -0.9915674313542577 0.0
    vertex 1.1525977436363946 -1.4018213032926072 1.501500856969505
    vertex 1.467754804443889 -0.9911006252182216 1.501500856969505
  endloop
endfacet
facet normal -0.6087614245440742 0.7933533344727953 -0.00012111138154247668
  outer loop
    vertex 0.7418770655620075 -1.7169783641001013 1.501500856969505
    vertex 1.1522881094286372 -1.4022881094286435 0.0
    vertex 0.7415674313542501 -1.7174451702361389 0.0
  endloop
endfacet
facet normal -0.6087614245440742 0.7933533344727953 -0.00012111138154247668
  outer loop
    vertex 1.1522881094286372 -1.4022881094286435 0.0
    vertex 0.7418770655620075 -1.7169783641001013 1.501500856969505
    vertex 1.1525977436363946 -1.4018213032926072 1.501500856969505
  endloop
endfacet
facet normal -0.38268342406202266 0.9238795124659109 -0.00020831206661933689
  outer loop
    vertex 0.2635827056834873 -1.915094374768342 1.501500856969505
    vertex 0.7415674313542501 -1.7174451702361389 0.0
    vertex 0.26327307147572976 -1.9155611809043795 0.0
  endloop
endfacet
facet normal -0.38268342406202266 0.9238795124659109 -0.00020831206661933689
  outer loop
    vertex 0.7415674313542501 -1.7174451702361389 0.0
    vertex 0.2635827056834873 -1.915094374768342 1.501500856969505
    vertex 0.7418770655620075 -1.7169783641001013 1.501500856969505
  endloop
endfacet
facet normal -0.13052618705519187 0.9914448221428107 -0.0002813166253197263
  outer loop
    vertex -0.24969036579224818 -1.9826680565724761 1.501500856969505
    vertex 0.26327307147572976 -1.9155611809043795 0.0
    vertex -0.2500000000000057 -1.9831348627085137 0.0
  endloop
endfacet
facet normal -0.13052618705519187 0.9914448221428107 -0.0002813166253197263
  outer loop
    vertex 0.26327307147572976 -1.9155611809043795 0.0
    vertex -0.24969036579224818 -1.9826680565724761 1.501500856969505
    vertex 0.2635827056834873 -1.915094374768342 1.501500856969505
  endloop
endfacet
facet normal 0.13052618488934384 0.9914448056915547 -0.0003351499190641373
  outer loop
    vertex -0.7629634372679855 -1.9150943747683413 1.501500856969505
    vertex -0.2500000000000057 -1.9831348627085137 0.0
    vertex -0.763273071475743 -1.9155611809043789 0.0
  endloop
endfacet
facet normal 0.13052618488934384 0.9914448056915547 -0.0003351499190641373
  outer loop
    vertex -0.2500000000000057 -1.9831348627085137 0.0
    vertex -0.7629634372679855 -1.9150943747683413 1.501500856969505
    vertex -0.24969036579224818 -1.9826680565724761 1.501500856969505
  endloop
endfacet
facet normal 0.3826834067136434 0.9238794705832162 -0.0003661433003745581
  outer loop
    vertex -1.2412577971465055 -1.7169783641001002 1.501500856969505
    vertex -0.763273071475743 -1.9155611809043789 0.0
    vertex -1.2415674313542628 -1.7174451702361377 0.0
  endloop
endfacet
facet normal 0.3826834067136434 0.9238794705832162 -0.0003661433003745581
  outer loop
    vertex -0.763273071475743 -1.9155611809043789 0.0
    vertex -1.2412577971465055 -1.7169783641001002 1.501500856969505
    vertex -0.7629634372679855 -1.9150943747683413 1.501500856969505
  endloop
endfacet
facet normal 0.6087613868454791 0.7933532853430275 -0.00037218462365712243
  outer loop
    vertex -1.6519784752208917 -1.401821303292606 1.501500856969505
    vertex -1.2415674313542628 -1.7174451702361377 0.0
    vertex -1.652288109428649 -1.4022881094286421 0.0
  endloop
endfacet
facet normal 0.6087613868454791 0.7933532853430275 -0.00037218462365712243
  outer loop
    vertex -1.2415674313542628 -1.7174451702361377 0.0
    vertex -1.6519784752208917 -1.401821303292606 1.501500856969505
    vertex -1.2412577971465055 -1.7169783641001002 1.501500856969505
  endloop
endfacet
facet normal 0.7933532909003398 0.608761391109752 -0.00035286218318995497
  outer loop
    vertex -1.9674451702361428 -0.9915674313542563 0.0
    vertex -1.6519784752208917 -1.401821303292606 1.501500856969505
    vertex -1.652288109428649 -1.4022881094286421 0.0
  endloop
endfacet
facet normal 0.7933532909003398 0.608761391109752 -0.00035286218318995497
  outer loop
    vertex -1.6519784752208917 -1.401821303292606 1.501500856969505
    vertex -1.9674451702361428 -0.9915674313542563 0.0
    vertex -1.9671355360283855 -0.9911006252182202 1.501500856969505
  endloop
endfacet
facet normal 0.9238794882640274 0.38268341403727507 -0.0003094927699088654
  outer loop
    vertex -2.165561180904384 -0.5132730714757353 0.0
    vertex -1.9671355360283855 -0.9911006252182202 1.501500856969505
    vertex -1.9674451702361428 -0.9915674313542563 0.0
  endloop
endfacet
facet normal 0.9238794882640274 0.38268341403727507 -0.0003094927699088654
  outer loop
    vertex -1.9671355360283855 -0.9911006252182202 1.501500856969505
    vertex -2.165561180904384 -0.5132730714757353 0.0
    vertex -2.165251546696627 -0.5128062653396989 1.501500856969505
  endloop
endfacet
facet normal 0.011581392293681578 0.9999329211354268 -0.00015678683763458418
  outer loop
    vertex -2.7499999999999987 1.9999999999999996 1.5
    vertex -2.233134862708519 1.9937784316421474 0.0
    vertex -2.7499999999999987 1.9999999999999996 0.0
  endloop
endfacet
facet normal 0.011581392293681578 0.9999329211354268 -0.00015678683763458418
  outer loop
    vertex -2.233134862708519 1.9937784316421474 0.0
    vertex -2.7499999999999987 1.9999999999999996 1.5
    vertex -2.2328252285007615 1.9942452377781852 1.501500856969505
  endloop
endfacet
facet normal 0.0003701425108335551 -0.9999999314972585 -1.836358211280762e-21
  outer loop
    vertex -2.233134862708516 21.000191313772785 1.5
    vertex -2.75 21.0 0.0
    vertex -2.233134862708516 21.000191313772785 0.0
  endloop
endfacet
facet normal 0.0003701425108335551 -0.9999999314972585 -1.836358211280762e-21
  outer loop
    vertex -2.75 21.0 0.0
    vertex -2.233134862708516 21.000191313772785 1.5
    vertex -2.75 21.0 1.5
  endloop
endfacet
facet normal -0.987075061619027 0.16025861203003727 -0.0
  outer loop
    vertex 1.7490968880623419 22.93990314368073 1.5
    vertex 1.7331348627085021 22.841588819351298 0.0
    vertex 1.7331348627085021 22.841588819351298 1.5
  endloop
endfacet
facet normal -0.987075061619027 0.16025861203003727 -0.0
  outer loop
    vertex 1.7331348627085021 22.841588819351298 0.0
    vertex 1.7490968880623419 22.93990314368073 1.5
    vertex 1.7490968880623419 22.93990314368073 0.0
  endloop
endfacet
facet normal -1.0 0.0 0.0
  outer loop
    vertex 1.7331348627085021 22.841588819351298 1.5
    vertex 1.7331348627085021 21.002634533891865 0.0
    vertex 1.7331348627085021 21.002634533891865 1.5
  endloop
endfacet
facet normal -1.0 0.0 0.0
  outer loop
    vertex 1.7331348627085021 21.002634533891865 0.0
    vertex 1.7331348627085021 22.841588819351298 1.5
    vertex 1.7331348627085021 22.841588819351298 0.0
  endloop
endfacet
facet normal 1.0 -2.965011198976826e-15 -0.0
  outer loop
    vertex -2.2331348627085106 22.90235376329137 0.0
    vertex -2.233134862708516 21.000191313772785 1.5
    vertex -2.233134862708516 21.000191313772785 0.0
  endloop
endfacet
facet normal 1.0 -2.965011198976826e-15 -0.0
  outer loop
    vertex -2.233134862708516 21.000191313772785 1.5
    vertex -2.2331348627085106 22.90235376329137 0.0
    vertex -2.2331348627085106 22.90235376329137 1.5
  endloop
endfacet
facet normal 0.9949192754387763 0.10067589264754838 0.0
  outer loop
    vertex -2.2490968880623416 23.060096856319273 0.0
    vertex -2.2331348627085106 22.90235376329137 1.5
    vertex -2.2331348627085106 22.90235376329137 0.0
  endloop
endfacet
facet normal 0.9949192754387763 0.10067589264754838 0.0
  outer loop
    vertex -2.2331348627085106 22.90235376329137 1.5
    vertex -2.2490968880623416 23.060096856319273 0.0
    vertex -2.2490968880623416 23.060096856319273 1.5
  endloop
endfacet
facet normal 0.9870750616190215 -0.16025861203007197 -1.4329404870103324e-19
  outer loop
    vertex -2.2331348627085155 23.1584111806486 0.0
    vertex -2.2490968880623416 23.060096856319273 1.5
    vertex -2.2490968880623416 23.060096856319273 0.0
  endloop
endfacet
facet normal 0.9870750616190215 -0.16025861203007197 -1.4329404870103324e-19
  outer loop
    vertex -2.2490968880623416 23.060096856319273 1.5
    vertex -2.2331348627085155 23.1584111806486 0.0
    vertex -2.2331348627085155 23.1584111806486 1.4999999999999998
  endloop
endfacet
facet normal -0.9949192754387671 -0.10067589264763879 -2.9917265637096725e-19
  outer loop
    vertex 1.733134862708505 23.097646236708545 1.4999999999999998
    vertex 1.7490968880623419 22.93990314368073 0.0
    vertex 1.7490968880623419 22.93990314368073 1.5
  endloop
endfacet
facet normal -0.9949192754387671 -0.10067589264763879 -2.9917265637096725e-19
  outer loop
    vertex 1.7490968880623419 22.93990314368073 0.0
    vertex 1.733134862708505 23.097646236708545 1.4999999999999998
    vertex 1.733134862708505 23.097646236708545 0.0
  endloop
endfacet
facet normal 0.0007597459098491636 -0.9999997113930348 1.0784676351644894e-19
  outer loop
    vertex 18.767082523567865 21.01557600969079 1.5
    vertex 1.7331348627085021 21.002634533891865 0.0
    vertex 18.767082523567865 21.01557600969079 0.0
  endloop
endfacet
facet normal 0.0007597459098491636 -0.9999997113930348 1.0784676351644894e-19
  outer loop
    vertex 1.7331348627085021 21.002634533891865 0.0
    vertex 18.767082523567865 21.01557600969079 1.5
    vertex 1.7331348627085021 21.002634533891865 1.5
  endloop
endfacet
facet normal 1.0 1.0120811091180623e-15 -0.0
  outer loop
    vertex 18.767082523567865 24.0 0.0
    vertex 18.767082523567865 21.01557600969079 1.5
    vertex 18.767082523567865 21.01557600969079 0.0
  endloop
endfacet
facet normal 1.0 1.0120811091180623e-15 -0.0
  outer loop
    vertex 18.767082523567865 21.01557600969079 1.5
    vertex 18.767082523567865 24.0 0.0
    vertex 18.767082523567865 24.0 1.5
  endloop
endfacet
facet normal -0.006832849916067898 -0.9999766558085367 0.0
  outer loop
    vertex 23.249999999999996 21.0 1.5
    vertex 22.732917476432128 21.003533229758155 0.0
    vertex 23.249999999999996 21.0 0.0
  endloop
endfacet
facet normal -0.006832849916067898 -0.9999766558085367 0.0
  outer loop
    vertex 22.732917476432128 21.003533229758155 0.0
    vertex 23.249999999999996 21.0 1.5
    vertex 22.732917476432128 21.003533229758155 1.5
  endloop
endfacet
facet normal 0.9914448613738107 -0.13052619222005063 -0.0
  outer loop
    vertex 18.834648798114255 24.513216807767268 0.0
    vertex 18.767082523567865 24.0 1.5
    vertex 18.767082523567865 24.0 0.0
  endloop
endfacet
facet normal 0.9914448613738107 -0.13052619222005063 -0.0
  outer loop
    vertex 18.767082523567865 24.0 1.5
    vertex 18.834648798114255 24.513216807767268 0.0
    vertex 18.834648798114255 24.513216807767268 1.5
  endloop
endfacet
facet normal 0.9238795325112862 -0.3826834323650915 -0.0
  outer loop
    vertex 19.03274309180164 24.991458738216068 0.0
    vertex 18.834648798114255 24.513216807767268 1.5
    vertex 18.834648798114255 24.513216807767268 0.0
  endloop
endfacet
facet normal 0.9238795325112862 -0.3826834323650915 -0.0
  outer loop
    vertex 18.834648798114255 24.513216807767268 1.5
    vertex 19.03274309180164 24.991458738216068 0.0
    vertex 19.03274309180164 24.991458738216068 1.5
  endloop
endfacet
facet normal 0.7933533402912378 -0.6087614290087172 -0.0
  outer loop
    vertex 19.34786560588152 25.40213439411848 0.0
    vertex 19.03274309180164 24.991458738216068 1.5
    vertex 19.03274309180164 24.991458738216068 0.0
  endloop
endfacet
facet normal 0.7933533402912378 -0.6087614290087172 -0.0
  outer loop
    vertex 19.03274309180164 24.991458738216068 1.5
    vertex 19.34786560588152 25.40213439411848 0.0
    vertex 19.34786560588152 25.40213439411848 1.5
  endloop
endfacet
facet normal 0.6087614290087164 -0.7933533402912384 -0.0
  outer loop
    vertex 19.758541261783932 25.717256908198358 1.5
    vertex 19.34786560588152 25.40213439411848 0.0
    vertex 19.758541261783932 25.717256908198358 0.0
  endloop
endfacet
facet normal 0.6087614290087164 -0.7933533402912384 -0.0
  outer loop
    vertex 19.34786560588152 25.40213439411848 0.0
    vertex 19.758541261783932 25.717256908198358 1.5
    vertex 19.34786560588152 25.40213439411848 1.5
  endloop
endfacet
facet normal 0.38268343236508684 -0.9238795325112881 -0.0
  outer loop
    vertex 20.236783192232732 25.91535120188574 1.5
    vertex 19.758541261783932 25.717256908198358 0.0
    vertex 20.236783192232732 25.91535120188574 0.0
  endloop
endfacet
facet normal 0.38268343236508684 -0.9238795325112881 -0.0
  outer loop
    vertex 19.758541261783932 25.717256908198358 0.0
    vertex 20.236783192232732 25.91535120188574 1.5
    vertex 19.758541261783932 25.717256908198358 1.5
  endloop
endfacet
facet normal 0.13052619222005063 -0.9914448613738107 -0.0
  outer loop
    vertex 20.749999999999996 25.98291747643213 1.5
    vertex 20.236783192232732 25.91535120188574 0.0
    vertex 20.749999999999996 25.98291747643213 0.0
  endloop
endfacet
facet normal 0.13052619222005063 -0.9914448613738107 -0.0
  outer loop
    vertex 20.236783192232732 25.91535120188574 0.0
    vertex 20.749999999999996 25.98291747643213 1.5
    vertex 20.236783192232732 25.91535120188574 1.5
  endloop
endfacet
facet normal -0.13052619222005063 -0.9914448613738107 -0.0
  outer loop
    vertex 21.26321680776726 25.91535120188574 1.5
    vertex 20.749999999999996 25.98291747643213 0.0
    vertex 21.26321680776726 25.91535120188574 0.0
  endloop
endfacet
facet normal -0.13052619222005063 -0.9914448613738107 -0.0
  outer loop
    vertex 20.749999999999996 25.98291747643213 0.0
    vertex 21.26321680776726 25.91535120188574 1.5
    vertex 20.749999999999996 25.98291747643213 1.5
  endloop
endfacet
facet normal -0.38268343236508495 -0.923879532511289 -0.0
  outer loop
    vertex 21.741458738216064 25.717256908198358 1.5
    vertex 21.26321680776726 25.91535120188574 0.0
    vertex 21.741458738216064 25.717256908198358 0.0
  endloop
endfacet
facet normal -0.38268343236508495 -0.923879532511289 -0.0
  outer loop
    vertex 21.26321680776726 25.91535120188574 0.0
    vertex 21.741458738216064 25.717256908198358 1.5
    vertex 21.26321680776726 25.91535120188574 1.5
  endloop
endfacet
facet normal -0.6087614290087191 -0.7933533402912365 -0.0
  outer loop
    vertex 22.152134394118473 25.40213439411848 1.5
    vertex 21.741458738216064 25.717256908198358 0.0
    vertex 22.152134394118473 25.40213439411848 0.0
  endloop
endfacet
facet normal -0.6087614290087191 -0.7933533402912365 -0.0
  outer loop
    vertex 21.741458738216064 25.717256908198358 0.0
    vertex 22.152134394118473 25.40213439411848 1.5
    vertex 21.741458738216064 25.717256908198358 1.5
  endloop
endfacet
facet normal -0.7933533402912378 -0.6087614290087172 -0.0
  outer loop
    vertex 22.152134394118473 25.40213439411848 1.5
    vertex 22.467256908198355 24.991458738216068 0.0
    vertex 22.467256908198355 24.991458738216068 1.5
  endloop
endfacet
facet normal -0.7933533402912378 -0.6087614290087172 -0.0
  outer loop
    vertex 22.467256908198355 24.991458738216068 0.0
    vertex 22.152134394118473 25.40213439411848 1.5
    vertex 22.152134394118473 25.40213439411848 0.0
  endloop
endfacet
facet normal -0.9238795325112862 -0.3826834323650915 -0.0
  outer loop
    vertex 22.467256908198355 24.991458738216068 1.5
    vertex 22.665351201885738 24.513216807767268 0.0
    vertex 22.665351201885738 24.513216807767268 1.5
  endloop
endfacet
facet normal -0.9238795325112862 -0.3826834323650915 -0.0
  outer loop
    vertex 22.665351201885738 24.513216807767268 0.0
    vertex 22.467256908198355 24.991458738216068 1.5
    vertex 22.467256908198355 24.991458738216068 0.0
  endloop
endfacet
facet normal -0.9914448613738107 -0.13052619222005063 -0.0
  outer loop
    vertex 22.665351201885738 24.513216807767268 1.5
    vertex 22.732917476432128 24.0 0.0
    vertex 22.732917476432128 24.0 1.5
  endloop
endfacet
facet normal -0.9914448613738107 -0.13052619222005063 -0.0
  outer loop
    vertex 22.732917476432128 24.0 0.0
    vertex 22.665351201885738 24.513216807767268 1.5
    vertex 22.665351201885738 24.513216807767268 0.0
  endloop
endfacet
facet normal -1.0 0.0 0.0
  outer loop
    vertex 22.732917476432128 24.0 1.5
    vertex 22.732917476432128 21.003533229758155 0.0
    vertex 22.732917476432128 21.003533229758155 1.5
  endloop
endfacet
facet normal -1.0 0.0 0.0
  outer loop
    vertex 22.732917476432128 21.003533229758155 0.0
    vertex 22.732917476432128 24.0 1.5
    vertex 22.732917476432128 24.0 0.0
  endloop
endfacet
facet normal 1.0 8.376912863223397e-16 -0.0
  outer loop
    vertex -2.233134862708516 24.0 0.0
    vertex -2.2331348627085155 23.1584111806486 1.4999999999999998
    vertex -2.2331348627085155 23.1584111806486 0.0
  endloop
endfacet
facet normal 1.0 8.376912863223397e-16 -0.0
  outer loop
    vertex -2.2331348627085155 23.1584111806486 1.4999999999999998
    vertex -2.233134862708516 24.0 0.0
    vertex -2.233134862708516 24.0 1.4999999999999998
  endloop
endfacet
facet normal 0.9914448613738105 -0.1305261922200517 -0.0
  outer loop
    vertex -2.1655611809043815 24.513273071475737 0.0
    vertex -2.233134862708516 24.0 1.4999999999999998
    vertex -2.233134862708516 24.0 0.0
  endloop
endfacet
facet normal 0.9914448613738105 -0.1305261922200517 -0.0
  outer loop
    vertex -2.233134862708516 24.0 1.4999999999999998
    vertex -2.1655611809043815 24.513273071475737 0.0
    vertex -2.1655611809043815 24.513273071475737 1.4999999999999998
  endloop
endfacet
facet normal 0.9238795325112871 -0.38268343236508917 -0.0
  outer loop
    vertex -1.9674451702361409 24.991567431354255 0.0
    vertex -2.1655611809043815 24.513273071475737 1.4999999999999998
    vertex -2.1655611809043815 24.513273071475737 0.0
  endloop
endfacet
facet normal 0.9238795325112871 -0.38268343236508917 -0.0
  outer loop
    vertex -2.1655611809043815 24.513273071475737 1.4999999999999998
    vertex -1.9674451702361409 24.991567431354255 0.0
    vertex -1.9674451702361409 24.991567431354255 1.4999999999999998
  endloop
endfacet
facet normal 0.7933533402912364 -0.608761429008719 -0.0
  outer loop
    vertex -1.6522881094286463 25.402288109428643 0.0
    vertex -1.9674451702361409 24.991567431354255 1.4999999999999998
    vertex -1.9674451702361409 24.991567431354255 0.0
  endloop
endfacet
facet normal 0.7933533402912364 -0.608761429008719 -0.0
  outer loop
    vertex -1.9674451702361409 24.991567431354255 1.4999999999999998
    vertex -1.6522881094286463 25.402288109428643 0.0
    vertex -1.6522881094286463 25.402288109428643 1.4999999999999998
  endloop
endfacet
facet normal 0.6087614290087214 -0.7933533402912347 -0.0
  outer loop
    vertex -1.2415674313542604 25.71744517023614 1.4999999999999998
    vertex -1.6522881094286463 25.402288109428643 0.0
    vertex -1.2415674313542604 25.71744517023614 0.0
  endloop
endfacet
facet normal 0.6087614290087214 -0.7933533402912347 -0.0
  outer loop
    vertex -1.6522881094286463 25.402288109428643 0.0
    vertex -1.2415674313542604 25.71744517023614 1.4999999999999998
    vertex -1.6522881094286463 25.402288109428643 1.4999999999999998
  endloop
endfacet
facet normal 0.38268343236508345 -0.9238795325112895 -0.0
  outer loop
    vertex -0.76327307147574 25.915561180904376 1.4999999999999998
    vertex -1.2415674313542604 25.71744517023614 0.0
    vertex -0.76327307147574 25.915561180904376 0.0
  endloop
endfacet
facet normal 0.38268343236508345 -0.9238795325112895 -0.0
  outer loop
    vertex -1.2415674313542604 25.71744517023614 0.0
    vertex -0.76327307147574 25.915561180904376 1.4999999999999998
    vertex -1.2415674313542604 25.71744517023614 1.4999999999999998
  endloop
endfacet
facet normal 0.13052619222005438 -0.9914448613738102 -0.0
  outer loop
    vertex -0.2500000000000048 25.983134862708514 1.4999999999999998
    vertex -0.76327307147574 25.915561180904376 0.0
    vertex -0.2500000000000048 25.983134862708514 0.0
  endloop
endfacet
facet normal 0.13052619222005438 -0.9914448613738102 -0.0
  outer loop
    vertex -0.76327307147574 25.915561180904376 0.0
    vertex -0.2500000000000048 25.983134862708514 1.4999999999999998
    vertex -0.76327307147574 25.915561180904376 1.4999999999999998
  endloop
endfacet
facet normal -0.13052619222005438 -0.9914448613738102 -0.0
  outer loop
    vertex 0.2632730714757304 25.915561180904376 1.4999999999999998
    vertex -0.2500000000000048 25.983134862708514 0.0
    vertex 0.2632730714757304 25.915561180904376 0.0
  endloop
endfacet
facet normal -0.13052619222005438 -0.9914448613738102 -0.0
  outer loop
    vertex -0.2500000000000048 25.983134862708514 0.0
    vertex 0.2632730714757304 25.915561180904376 1.4999999999999998
    vertex -0.2500000000000048 25.983134862708514 1.4999999999999998
  endloop
endfacet
facet normal -0.38268343236509317 -0.9238795325112855 -0.0
  outer loop
    vertex 0.7415674313542503 25.717445170236132 1.4999999999999998
    vertex 0.2632730714757304 25.915561180904376 0.0
    vertex 0.7415674313542503 25.717445170236132 0.0
  endloop
endfacet
facet normal -0.38268343236509317 -0.9238795325112855 -0.0
  outer loop
    vertex 0.2632730714757304 25.915561180904376 0.0
    vertex 0.7415674313542503 25.717445170236132 1.4999999999999998
    vertex 0.2632730714757304 25.915561180904376 1.4999999999999998
  endloop
endfacet
facet normal -0.6087614290087148 -0.7933533402912397 -0.0
  outer loop
    vertex 1.1522881094286357 25.402288109428643 1.4999999999999998
    vertex 0.7415674313542503 25.717445170236132 0.0
    vertex 1.1522881094286357 25.402288109428643 0.0
  endloop
endfacet
facet normal -0.6087614290087148 -0.7933533402912397 -0.0
  outer loop
    vertex 0.7415674313542503 25.717445170236132 0.0
    vertex 1.1522881094286357 25.402288109428643 1.4999999999999998
    vertex 0.7415674313542503 25.717445170236132 1.4999999999999998
  endloop
endfacet
facet normal -0.7933533402912364 -0.608761429008719 -0.0
  outer loop
    vertex 1.1522881094286357 25.402288109428643 1.4999999999999998
    vertex 1.4674451702361302 24.991567431354255 0.0
    vertex 1.4674451702361302 24.991567431354255 1.4999999999999998
  endloop
endfacet
facet normal -0.7933533402912364 -0.608761429008719 -0.0
  outer loop
    vertex 1.4674451702361302 24.991567431354255 0.0
    vertex 1.1522881094286357 25.402288109428643 1.4999999999999998
    vertex 1.1522881094286357 25.402288109428643 0.0
  endloop
endfacet
facet normal -0.9238795325112871 -0.3826834323650895 -0.0
  outer loop
    vertex 1.4674451702361302 24.991567431354255 1.4999999999999998
    vertex 1.665561180904371 24.513273071475737 0.0
    vertex 1.665561180904371 24.513273071475737 1.4999999999999998
  endloop
endfacet
facet normal -0.9238795325112871 -0.3826834323650895 -0.0
  outer loop
    vertex 1.665561180904371 24.513273071475737 0.0
    vertex 1.4674451702361302 24.991567431354255 1.4999999999999998
    vertex 1.4674451702361302 24.991567431354255 0.0
  endloop
endfacet
facet normal -0.9914448613738105 -0.1305261922200517 -0.0
  outer loop
    vertex 1.665561180904371 24.513273071475737 1.4999999999999998
    vertex 1.7331348627085057 24.0 0.0
    vertex 1.7331348627085057 24.0 1.4999999999999998
  endloop
endfacet
facet normal -0.9914448613738105 -0.1305261922200517 -0.0
  outer loop
    vertex 1.7331348627085057 24.0 0.0
    vertex 1.665561180904371 24.513273071475737 1.4999999999999998
    vertex 1.665561180904371 24.513273071475737 0.0
  endloop
endfacet
facet normal -1.0 7.812807452206139e-16 0.0
  outer loop
    vertex 1.7331348627085057 24.0 1.4999999999999998
    vertex 1.733134862708505 23.097646236708545 0.0
    vertex 1.733134862708505 23.097646236708545 1.4999999999999998
  endloop
endfacet
facet normal -1.0 7.812807452206139e-16 0.0
  outer loop
    vertex 1.733134862708505 23.097646236708545 0.0
    vertex 1.7331348627085057 24.0 1.4999999999999998
    vertex 1.7331348627085057 24.0 0.0
  endloop
endfacet
facet normal 0.0 0.0 -1.0
  outer loop
    vertex 3.755185318732897 1.975468493199143 -0.004338653947416581
    vertex 1.733134862708508 0.0 0.0
    vertex 1.729460139832684 1.9715374592033326 -0.0006121794464570708
  endloop
endfacet
facet normal 0.0 0.0 -1.0
  outer loop
    vertex -5.75 27.036374476432126 0.0
    vertex -2.75 21.0 0.0
    vertex -5.75 -3.9999999999999996 0.0
  endloop
endfacet
facet normal 0.0 0.0 -1.0
  outer loop
    vertex -2.75 21.0 0.0
    vertex -5.75 27.036374476432126 0.0
    vertex -2.1655611809043815 24.513273071475737 0.0
  endloop
endfacet
facet normal 0.0 0.0 -1.0
  outer loop
    vertex -2.1655611809043815 24.513273071475737 0.0
    vertex -5.75 27.036374476432126 0.0
    vertex -1.9674451702361409 24.991567431354255 0.0
  endloop
endfacet
facet normal 0.0 0.0 -1.0
  outer loop
    vertex -1.9674451702361409 24.991567431354255 0.0
    vertex -5.75 27.036374476432126 0.0
    vertex -1.6522881094286463 25.402288109428643 0.0
  endloop
endfacet
facet normal 0.0 0.0 -1.0
  outer loop
    vertex -1.6522881094286463 25.402288109428643 0.0
    vertex -5.75 27.036374476432126 0.0
    vertex -1.2415674313542604 25.71744517023614 0.0
  endloop
endfacet
facet normal 0.0 0.0 -1.0
  outer loop
    vertex -1.2415674313542604 25.71744517023614 0.0
    vertex -5.75 27.036374476432126 0.0
    vertex -0.76327307147574 25.915561180904376 0.0
  endloop
endfacet
facet normal 0.0 0.0 -1.0
  outer loop
    vertex -0.76327307147574 25.915561180904376 0.0
    vertex -5.75 27.036374476432126 0.0
    vertex 4.250000000000002 27.036374476432126 0.0
  endloop
endfacet
facet normal 0.0 0.0 -1.0
  outer loop
    vertex -2.75 21.0 0.0
    vertex -2.1655611809043815 24.513273071475737 0.0
    vertex -2.233134862708516 24.0 0.0
  endloop
endfacet
facet normal 0.0 0.0 -1.0
  outer loop
    vertex -2.75 21.0 0.0
    vertex -2.233134862708516 24.0 0.0
    vertex -2.2490968880623416 23.060096856319273 0.0
  endloop
endfacet
facet normal 0.0 0.0 -1.0
  outer loop
    vertex -0.76327307147574 25.915561180904376 0.0
    vertex 4.250000000000002 27.036374476432126 0.0
    vertex -0.2500000000000048 25.983134862708514 0.0
  endloop
endfacet
facet normal 0.0 0.0 -1.0
  outer loop
    vertex -0.2500000000000048 25.983134862708514 0.0
    vertex 4.250000000000002 27.036374476432126 0.0
    vertex 0.2632730714757304 25.915561180904376 0.0
  endloop
endfacet
facet normal 0.0 0.0 -1.0
  outer loop
    vertex 0.2632730714757304 25.915561180904376 0.0
    vertex 4.250000000000002 27.036374476432126 0.0
    vertex 0.7415674313542503 25.717445170236132 0.0
  endloop
endfacet
facet normal 0.0 0.0 -1.0
  outer loop
    vertex 0.7415674313542503 25.717445170236132 0.0
    vertex 4.250000000000002 27.036374476432126 0.0
    vertex 1.1522881094286357 25.402288109428643 0.0
  endloop
endfacet
facet normal 0.0 0.0 -1.0
  outer loop
    vertex 1.1522881094286357 25.402288109428643 0.0
    vertex 4.250000000000002 27.036374476432126 0.0
    vertex 1.4674451702361302 24.991567431354255 0.0
  endloop
endfacet
facet normal 0.0 0.0 -1.0
  outer loop
    vertex 1.4674451702361302 24.991567431354255 0.0
    vertex 4.250000000000002 27.036374476432126 0.0
    vertex 1.665561180904371 24.513273071475737 0.0
  endloop
endfacet
facet normal 0.0 0.0 -1.0
  outer loop
    vertex 1.665561180904371 24.513273071475737 0.0
    vertex 4.250000000000002 27.036374476432126 0.0
    vertex 1.7331348627085057 24.0 0.0
  endloop
endfacet
facet normal 0.0 0.0 -1.0
  outer loop
    vertex 1.7331348627085057 24.0 0.0
    vertex 4.250000000000002 27.036374476432126 0.0
    vertex 1.7490968880623419 22.93990314368073 0.0
  endloop
endfacet
facet normal 0.0 0.0 -1.0
  outer loop
    vertex 18.749999999999996 1.999380400588803 0.0
    vertex 16.749999999999996 -2.000000000000001 0.0
    vertex 16.749999999999996 2.0000000000000013 0.0
  endloop
endfacet
facet normal 0.0 0.0 -1.0
  outer loop
    vertex 16.25 27.036374476432126 0.0
    vertex 18.834648798114255 24.513216807767268 0.0
    vertex 18.767082523567865 24.0 0.0
  endloop
endfacet
facet normal 0.0 0.0 -1.0
  outer loop
    vertex 18.834648798114255 24.513216807767268 0.0
    vertex 16.25 27.036374476432126 0.0
    vertex 19.03274309180164 24.991458738216068 0.0
  endloop
endfacet
facet normal 0.0 0.0 -1.0
  outer loop
    vertex 19.03274309180164 24.991458738216068 0.0
    vertex 16.25 27.036374476432126 0.0
    vertex 19.34786560588152 25.40213439411848 0.0
  endloop
endfacet
facet normal 0.0 0.0 -1.0
  outer loop
    vertex 19.34786560588152 25.40213439411848 0.0
    vertex 16.25 27.036374476432126 0.0
    vertex 19.758541261783932 25.717256908198358 0.0
  endloop
endfacet
facet normal 0.0 0.0 -1.0
  outer loop
    vertex 19.758541261783932 25.717256908198358 0.0
    vertex 16.25 27.036374476432126 0.0
    vertex 20.236783192232732 25.91535120188574 0.0
  endloop
endfacet
facet normal 0.0 0.0 -1.0
  outer loop
    vertex 20.236783192232732 25.91535120188574 0.0
    vertex 16.25 27.036374476432126 0.0
    vertex 26.249999999999996 27.036374476432126 0.0
  endloop
endfacet
facet normal 0.0 0.0 -1.0
  outer loop
    vertex 20.236783192232732 25.91535120188574 0.0
    vertex 26.249999999999996 27.036374476432126 0.0
    vertex 20.749999999999996 25.98291747643213 0.0
  endloop
endfacet
facet normal 0.0 0.0 -1.0
  outer loop
    vertex 20.749999999999996 25.98291747643213 0.0
    vertex 26.249999999999996 27.036374476432126 0.0
    vertex 21.26321680776726 25.91535120188574 0.0
  endloop
endfacet
facet normal 0.0 0.0 -1.0
  outer loop
    vertex 21.26321680776726 25.91535120188574 0.0
    vertex 26.249999999999996 27.036374476432126 0.0
    vertex 21.741458738216064 25.717256908198358 0.0
  endloop
endfacet
facet normal 0.0 0.0 -1.0
  outer loop
    vertex 21.741458738216064 25.717256908198358 0.0
    vertex 26.249999999999996 27.036374476432126 0.0
    vertex 22.152134394118473 25.40213439411848 0.0
  endloop
endfacet
facet normal 0.0 0.0 -1.0
  outer loop
    vertex 22.152134394118473 25.40213439411848 0.0
    vertex 26.249999999999996 27.036374476432126 0.0
    vertex 22.467256908198355 24.991458738216068 0.0
  endloop
endfacet
facet normal 0.0 0.0 -1.0
  outer loop
    vertex 22.467256908198355 24.991458738216068 0.0
    vertex 26.249999999999996 27.036374476432126 0.0
    vertex 22.665351201885738 24.513216807767268 0.0
  endloop
endfacet
facet normal 0.0 0.0 -1.0
  outer loop
    vertex 22.665351201885738 24.513216807767268 0.0
    vertex 26.249999999999996 27.036374476432126 0.0
    vertex 22.732917476432128 24.0 0.0
  endloop
endfacet
facet normal 0.0 0.0 -1.0
  outer loop
    vertex 22.732917476432128 24.0 0.0
    vertex 26.249999999999996 27.036374476432126 0.0
    vertex 22.732917476432128 21.003533229758155 0.0
  endloop
endfacet
facet normal 0.0 0.0 -1.0
  outer loop
    vertex 22.732917476432128 21.003533229758155 0.0
    vertex 26.249999999999996 27.036374476432126 0.0
    vertex 23.249999999999996 21.0 0.0
  endloop
endfacet
facet normal 0.0 0.0 -1.0
  outer loop
    vertex 23.249999999999996 21.0 0.0
    vertex 26.249999999999996 27.036374476432126 0.0
    vertex 23.249999999999996 1.9999999999999996 0.0
  endloop
endfacet
facet normal 0.0 0.0 -1.0
  outer loop
    vertex -5.75 -3.9999999999999996 0.0
    vertex -0.2500000000000057 -1.9831348627085137 0.0
    vertex 26.249999999999996 -3.999999999999999 0.0
  endloop
endfacet
facet normal 0.0 0.0 -1.0
  outer loop
    vertex -0.2500000000000057 -1.9831348627085137 0.0
    vertex -5.75 -3.9999999999999996 0.0
    vertex -0.763273071475743 -1.9155611809043789 0.0
  endloop
endfacet
facet normal 0.0 0.0 -1.0
  outer loop
    vertex -0.763273071475743 -1.9155611809043789 0.0
    vertex -5.75 -3.9999999999999996 0.0
    vertex -1.2415674313542628 -1.7174451702361377 0.0
  endloop
endfacet
facet normal 0.0 0.0 -1.0
  outer loop
    vertex -1.2415674313542628 -1.7174451702361377 0.0
    vertex -5.75 -3.9999999999999996 0.0
    vertex -1.652288109428649 -1.4022881094286421 0.0
  endloop
endfacet
facet normal 0.0 0.0 -1.0
  outer loop
    vertex -1.652288109428649 -1.4022881094286421 0.0
    vertex -5.75 -3.9999999999999996 0.0
    vertex -1.9674451702361428 -0.9915674313542563 0.0
  endloop
endfacet
facet normal 0.0 0.0 -1.0
  outer loop
    vertex -1.9674451702361428 -0.9915674313542563 0.0
    vertex -5.75 -3.9999999999999996 0.0
    vertex -2.165561180904384 -0.5132730714757353 0.0
  endloop
endfacet
facet normal 0.0 0.0 -1.0
  outer loop
    vertex -2.165561180904384 -0.5132730714757353 0.0
    vertex -5.75 -3.9999999999999996 0.0
    vertex -2.7499999999999987 1.9999999999999996 0.0
  endloop
endfacet
facet normal 0.0 0.0 -1.0
  outer loop
    vertex -2.7499999999999987 1.9999999999999996 0.0
    vertex -5.75 -3.9999999999999996 0.0
    vertex -2.75 21.0 0.0
  endloop
endfacet
facet normal 0.0 0.0 -1.0
  outer loop
    vertex -2.165561180904384 -0.5132730714757353 0.0
    vertex -2.7499999999999987 1.9999999999999996 0.0
    vertex -2.233134862708519 2.4286397618935074e-16 0.0
  endloop
endfacet
facet normal 0.0 0.0 -1.0
  outer loop
    vertex -2.233134862708519 2.4286397618935074e-16 0.0
    vertex -2.7499999999999987 1.9999999999999996 0.0
    vertex -2.233134862708519 1.9937784316421474 0.0
  endloop
endfacet
facet normal 0.0 0.0 -1.0
  outer loop
    vertex 26.249999999999996 -3.999999999999999 0.0
    vertex -0.2500000000000057 -1.9831348627085137 0.0
    vertex 0.26327307147572976 -1.9155611809043795 0.0
  endloop
endfacet
facet normal 0.0 0.0 -1.0
  outer loop
    vertex 26.249999999999996 -3.999999999999999 0.0
    vertex 0.26327307147572976 -1.9155611809043795 0.0
    vertex 3.7628646891242705 -1.9960740905694156 -0.0006645465929333275
  endloop
endfacet
facet normal 0.0 0.0 -1.0
  outer loop
    vertex 3.7628646891242705 -1.9960740905694156 -0.0006645465929333275
    vertex 0.26327307147572976 -1.9155611809043795 0.0
    vertex 0.7415674313542501 -1.7174451702361389 0.0
  endloop
endfacet
facet normal 0.0 0.0 -1.0
  outer loop
    vertex 3.7628646891242705 -1.9960740905694156 -0.0006645465929333275
    vertex 0.7415674313542501 -1.7174451702361389 0.0
    vertex 1.1522881094286372 -1.4022881094286435 0.0
  endloop
endfacet
facet normal 0.0 0.0 -1.0
  outer loop
    vertex 3.7628646891242705 -1.9960740905694156 -0.0006645465929333275
    vertex 1.1522881094286372 -1.4022881094286435 0.0
    vertex 1.4674451702361317 -0.9915674313542577 0.0
  endloop
endfacet
facet normal 0.0 0.0 -1.0
  outer loop
    vertex 3.7628646891242705 -1.9960740905694156 -0.0006645465929333275
    vertex 1.4674451702361317 -0.9915674313542577 0.0
    vertex 1.6655611809043733 -0.5132730714757378 0.0
  endloop
endfacet
facet normal 0.0 0.0 -1.0
  outer loop
    vertex 3.7628646891242705 -1.9960740905694156 -0.0006645465929333275
    vertex 1.6655611809043733 -0.5132730714757378 0.0
    vertex 1.733134862708508 0.0 0.0
  endloop
endfacet
facet normal 0.0 0.0 -1.0
  outer loop
    vertex 3.7628646891242705 -1.9960740905694156 -0.0006645465929333275
    vertex 1.733134862708508 0.0 0.0
    vertex 3.755185318732897 1.975468493199143 -0.004338653947416581
  endloop
endfacet
facet normal 0.0 0.0 -1.0
  outer loop
    vertex 26.249999999999996 -3.999999999999999 0.0
    vertex 3.7628646891242705 -1.9960740905694156 -0.0006645465929333275
    vertex 16.749999999999996 -2.000000000000001 0.0
  endloop
endfacet
facet normal 0.0 0.0 -1.0
  outer loop
    vertex 26.249999999999996 -3.999999999999999 0.0
    vertex 16.749999999999996 -2.000000000000001 0.0
    vertex 20.296676285031726 -1.9479470242918226 0.0
  endloop
endfacet
facet normal 0.0 0.0 -1.0
  outer loop
    vertex 20.296676285031726 -1.9479470242918226 0.0
    vertex 16.749999999999996 -2.000000000000001 0.0
    vertex 19.807957127305336 -1.764243527975996 0.0
  endloop
endfacet
facet normal 0.0 0.0 -1.0
  outer loop
    vertex 19.807957127305336 -1.764243527975996 0.0
    vertex 16.749999999999996 -2.000000000000001 0.0
    vertex 19.38343663455363 -1.4603097507788876 0.0
  endloop
endfacet
facet normal 0.0 0.0 -1.0
  outer loop
    vertex 19.38343663455363 -1.4603097507788876 0.0
    vertex 16.749999999999996 -2.000000000000001 0.0
    vertex 19.052045176804352 -1.0568582773421638 0.0
  endloop
endfacet
facet normal 0.0 0.0 -1.0
  outer loop
    vertex 19.052045176804352 -1.0568582773421638 0.0
    vertex 16.749999999999996 -2.000000000000001 0.0
    vertex 18.83636653425284 -0.5813836588454548 0.0
  endloop
endfacet
facet normal 0.0 0.0 -1.0
  outer loop
    vertex 18.83636653425284 -0.5813836588454548 0.0
    vertex 16.749999999999996 -2.000000000000001 0.0
    vertex 18.75109884996317 -0.0662887047803518 0.0
  endloop
endfacet
facet normal 0.0 0.0 -1.0
  outer loop
    vertex 18.75109884996317 -0.0662887047803518 0.0
    vertex 16.749999999999996 -2.000000000000001 0.0
    vertex 18.749999999999996 1.999380400588803 0.0
  endloop
endfacet
facet normal 0.0 0.0 -1.0
  outer loop
    vertex 26.249999999999996 -3.999999999999999 0.0
    vertex 20.296676285031726 -1.9479470242918226 0.0
    vertex 20.816288704780348 -1.998901150036825 0.0
  endloop
endfacet
facet normal 0.0 0.0 -1.0
  outer loop
    vertex 26.249999999999996 -3.999999999999999 0.0
    vertex 20.816288704780348 -1.998901150036825 0.0
    vertex 21.33138365884545 -1.913633465747156 0.0
  endloop
endfacet
facet normal 0.0 0.0 -1.0
  outer loop
    vertex 26.249999999999996 -3.999999999999999 0.0
    vertex 21.33138365884545 -1.913633465747156 0.0
    vertex 21.80685827734216 -1.697954823195645 0.0
  endloop
endfacet
facet normal 0.0 0.0 -1.0
  outer loop
    vertex 26.249999999999996 -3.999999999999999 0.0
    vertex 21.80685827734216 -1.697954823195645 0.0
    vertex 22.210309750778883 -1.3665633654463678 0.0
  endloop
endfacet
facet normal 0.0 0.0 -1.0
  outer loop
    vertex 26.249999999999996 -3.999999999999999 0.0
    vertex 22.210309750778883 -1.3665633654463678 0.0
    vertex 22.514243527975992 -0.9420428726946617 0.0
  endloop
endfacet
facet normal 0.0 0.0 -1.0
  outer loop
    vertex 26.249999999999996 -3.999999999999999 0.0
    vertex 22.514243527975992 -0.9420428726946617 0.0
    vertex 22.697947024291818 -0.453323714968269 0.0
  endloop
endfacet
facet normal 0.0 0.0 -1.0
  outer loop
    vertex 26.249999999999996 -3.999999999999999 0.0
    vertex 22.697947024291818 -0.453323714968269 0.0
    vertex 22.74890115003682 0.06628870478035075 0.0
  endloop
endfacet
facet normal 0.0 0.0 -1.0
  outer loop
    vertex 26.249999999999996 -3.999999999999999 0.0
    vertex 22.74890115003682 0.06628870478035075 0.0
    vertex 22.749999999999996 1.99978590679195 0.0
  endloop
endfacet
facet normal 0.0 0.0 -1.0
  outer loop
    vertex 26.249999999999996 -3.999999999999999 0.0
    vertex 22.749999999999996 1.99978590679195 0.0
    vertex 23.249999999999996 1.9999999999999996 0.0
  endloop
endfacet
facet normal 0.0 0.0 -1.0
  outer loop
    vertex 26.249999999999996 -3.999999999999999 0.0
    vertex 23.249999999999996 1.9999999999999996 0.0
    vertex 26.249999999999996 27.036374476432126 0.0
  endloop
endfacet
facet normal 0.0 0.0 -1.0
  outer loop
    vertex 1.7490968880623419 22.93990314368073 0.0
    vertex 1.7331348627085021 21.002634533891865 0.0
    vertex 1.7331348627085021 22.841588819351298 0.0
  endloop
endfacet
facet normal 0.0 0.0 -1.0
  outer loop
    vertex 1.7331348627085021 21.002634533891865 0.0
    vertex 1.7490968880623419 22.93990314368073 0.0
    vertex 4.250000000000002 22.0 0.0
  endloop
endfacet
facet normal 0.0 0.0 -1.0
  outer loop
    vertex 1.7331348627085021 21.002634533891865 0.0
    vertex 4.250000000000002 22.0 0.0
    vertex 18.767082523567865 21.01557600969079 0.0
  endloop
endfacet
facet normal 0.0 0.0 -1.0
  outer loop
    vertex 4.250000000000002 22.0 0.0
    vertex 1.7490968880623419 22.93990314368073 0.0
    vertex 4.250000000000002 27.036374476432126 0.0
  endloop
endfacet
facet normal 0.0 0.0 -1.0
  outer loop
    vertex 18.767082523567865 21.01557600969079 0.0
    vertex 4.250000000000002 22.0 0.0
    vertex 16.249999999999996 22.0 0.0
  endloop
endfacet
facet normal 0.0 0.0 -1.0
  outer loop
    vertex 18.767082523567865 21.01557600969079 0.0
    vertex 16.249999999999996 22.0 0.0
    vertex 16.25 27.036374476432126 0.0
  endloop
endfacet
facet normal 0.0 0.0 -1.0
  outer loop
    vertex 18.767082523567865 21.01557600969079 0.0
    vertex 16.25 27.036374476432126 0.0
    vertex 18.767082523567865 24.0 0.0
  endloop
endfacet
facet normal 0.0 0.0 -1.0
  outer loop
    vertex 1.7490968880623419 22.93990314368073 0.0
    vertex 1.733134862708505 23.097646236708545 0.0
    vertex 1.7331348627085057 24.0 0.0
  endloop
endfacet
facet normal 0.0 0.0 -1.0
  outer loop
    vertex -2.2331348627085155 23.1584111806486 0.0
    vertex -2.2490968880623416 23.060096856319273 0.0
    vertex -2.233134862708516 24.0 0.0
  endloop
endfacet
facet normal 0.0 0.0 -1.0
  outer loop
    vertex -2.2490968880623416 23.060096856319273 0.0
    vertex -2.233134862708516 21.000191313772785 0.0
    vertex -2.75 21.0 0.0
  endloop
endfacet
facet normal 0.0 0.0 -1.0
  outer loop
    vertex -2.233134862708516 21.000191313772785 0.0
    vertex -2.2490968880623416 23.060096856319273 0.0
    vertex -2.2331348627085106 22.90235376329137 0.0
  endloop
endfacet
facet normal 0.0002810855133317343 0.9999999604954659 -2.6440888184930472e-08
  outer loop
    vertex 3.7628646891242705 -1.9960740905694156 1.4993354534070666
    vertex 16.749999999999996 -2.000000000000001 0.0
    vertex 3.7628646891242705 -1.9960740905694156 -0.0006645465929333275
  endloop
endfacet
facet normal 0.0002810855133317343 0.9999999604954659 -2.6440888184930472e-08
  outer loop
    vertex 16.749999999999996 -2.000000000000001 0.0
    vertex 3.7628646891242705 -1.9960740905694156 1.4993354534070666
    vertex 16.749999999999996 -2.000000000000001 1.5
  endloop
endfacet
facet normal -0.0018638835891282397 0.9999982147597489 -0.0003105081015387115
  outer loop
    vertex 1.729460139832684 1.9715374592033326 -0.0006121794464570708
    vertex 3.7522354631647135 1.9759301747699491 1.5002241309301148
    vertex 3.755185318732897 1.975468493199143 -0.004338653947416581
  endloop
endfacet
facet normal -0.0018638835891282397 0.9999982147597489 -0.0003105081015387115
  outer loop
    vertex 3.7522354631647135 1.9759301747699491 1.5002241309301148
    vertex 1.729460139832684 1.9715374592033326 -0.0006121794464570708
    vertex 1.7297697740404412 1.9720042653393692 1.5008886775230483
  endloop
endfacet
facet normal -0.9999982417048238 -0.0018638194275404463 0.00020679555674773997
  outer loop
    vertex 1.7334444969162652 0.0004668061360364031 1.501500856969505
    vertex 1.729460139832684 1.9715374592033326 -0.0006121794464570708
    vertex 1.733134862708508 0.0 0.0
  endloop
endfacet
facet normal -0.9999982417048238 -0.0018638194275404463 0.00020679555674773997
  outer loop
    vertex 1.729460139832684 1.9715374592033326 -0.0006121794464570708
    vertex 1.7334444969162652 0.0004668061360364031 1.501500856969505
    vertex 1.7297697740404412 1.9720042653393692 1.5008886775230483
  endloop
endfacet
facet normal 0.9999968599576907 0.002305197909109776 0.0009829228651121811
  outer loop
    vertex 3.755185318732897 1.975468493199143 -0.004338653947416581
    vertex 3.7628646891242705 -1.9960740905694156 1.4993354534070666
    vertex 3.7628646891242705 -1.9960740905694156 -0.0006645465929333275
  endloop
endfacet
facet normal 0.9999968599576907 0.002305197909109776 0.0009829228651121811
  outer loop
    vertex 3.7628646891242705 -1.9960740905694156 1.4993354534070666
    vertex 3.755185318732897 1.975468493199143 -0.004338653947416581
    vertex 3.7522354631647135 1.9759301747699491 1.5002241309301148
  endloop
endfacet
endsolid Tracker OLED spacer 2
