solid FPV tripod cable retainer
facet normal 1.0 -0.0 -0.0
  outer loop
    vertex 7.9999999999999964 23.0 3.524958103184872e-16
    vertex 7.9999999999999964 22.0 6.500000000000001
    vertex 7.9999999999999964 22.0 0.0
  endloop
endfacet
facet normal 1.0 -0.0 -0.0
  outer loop
    vertex 7.9999999999999964 22.0 6.500000000000001
    vertex 7.9999999999999964 23.0 3.524958103184872e-16
    vertex 7.9999999999999964 23.0 6.500000000000001
  endloop
endfacet
facet normal -1.0 0.0 0.0
  outer loop
    vertex -8.000000000000002 -22.0 6.499999999999999
    vertex -8.000000000000002 -23.0 1.762479051592436e-15
    vertex -8.000000000000002 -23.0 6.499999999999999
  endloop
endfacet
facet normal -1.0 0.0 0.0
  outer loop
    vertex -8.000000000000002 -23.0 1.762479051592436e-15
    vertex -8.000000000000002 -22.0 6.499999999999999
    vertex -8.000000000000002 -22.0 1.5862311464331924e-15
  endloop
endfacet
facet normal -9.926211986385528e-17 -6.1158612293439884e-18 -1.0
  outer loop
    vertex -7.847759065022576 -21.23463313526982 1.5862311464331924e-15
    vertex -8.000000000000002 -23.0 1.762479051592436e-15
    vertex -8.000000000000002 -22.0 1.5862311464331924e-15
  endloop
endfacet
facet normal -9.926211986385528e-17 -6.1158612293439884e-18 -1.0
  outer loop
    vertex -8.000000000000002 -23.0 1.762479051592436e-15
    vertex -7.847759065022576 -21.23463313526982 1.5862311464331924e-15
    vertex -7.847759065022575 -23.76536686473018 1.762479051592436e-15
  endloop
endfacet
facet normal -9.926211986385528e-17 -6.1158612293439884e-18 -1.0
  outer loop
    vertex -7.847759065022575 -23.76536686473018 1.762479051592436e-15
    vertex -7.847759065022576 -21.23463313526982 1.5862311464331924e-15
    vertex -7.414213562373098 -20.585786437626908 1.5862311464331924e-15
  endloop
endfacet
facet normal -9.926211986385528e-17 -6.1158612293439884e-18 -1.0
  outer loop
    vertex -7.847759065022575 -23.76536686473018 1.762479051592436e-15
    vertex -7.414213562373098 -20.585786437626908 1.5862311464331924e-15
    vertex -7.414213562373098 -24.414213562373096 1.762479051592436e-15
  endloop
endfacet
facet normal -9.926211986385528e-17 -6.1158612293439884e-18 -1.0
  outer loop
    vertex -7.414213562373098 -24.414213562373096 1.762479051592436e-15
    vertex -7.414213562373098 -20.585786437626908 1.5862311464331924e-15
    vertex -6.765366864730182 -20.152240934977428 1.5862311464331924e-15
  endloop
endfacet
facet normal -9.926211986385528e-17 -6.1158612293439884e-18 -1.0
  outer loop
    vertex -7.414213562373098 -24.414213562373096 1.762479051592436e-15
    vertex -6.765366864730182 -20.152240934977428 1.5862311464331924e-15
    vertex -6.765366864730182 -24.847759065022572 1.762479051592436e-15
  endloop
endfacet
facet normal -9.926211986385528e-17 -6.1158612293439884e-18 -1.0
  outer loop
    vertex -6.765366864730182 -24.847759065022572 1.762479051592436e-15
    vertex -6.765366864730182 -20.152240934977428 1.5862311464331924e-15
    vertex -6.000000000000003 -19.999999999999996 1.790413157245272e-15
  endloop
endfacet
facet normal -9.926211986385528e-17 -6.1158612293439884e-18 -1.0
  outer loop
    vertex -6.765366864730182 -24.847759065022572 1.762479051592436e-15
    vertex -6.000000000000003 -19.999999999999996 1.790413157245272e-15
    vertex -6.000000000000003 -25.0 1.762479051592436e-15
  endloop
endfacet
facet normal -9.926211986385528e-17 -6.1158612293439884e-18 -1.0
  outer loop
    vertex -7.847759065022576 13.765366864730181 1.9387269567516795e-15
    vertex -8.000000000000002 -13.000000000000002 1.762479051592436e-15
    vertex -8.000000000000002 13.000000000000002 1.9387269567516795e-15
  endloop
endfacet
facet normal -9.926211986385528e-17 -6.1158612293439884e-18 -1.0
  outer loop
    vertex -8.000000000000002 -13.000000000000002 1.762479051592436e-15
    vertex -7.847759065022576 13.765366864730181 1.9387269567516795e-15
    vertex -7.847759065022576 -13.765366864730181 1.762479051592436e-15
  endloop
endfacet
facet normal -9.926211986385528e-17 -6.1158612293439884e-18 -1.0
  outer loop
    vertex -7.847759065022576 -13.765366864730181 1.762479051592436e-15
    vertex -7.847759065022576 13.765366864730181 1.9387269567516795e-15
    vertex -7.414213562373098 14.414213562373098 1.9387269567516795e-15
  endloop
endfacet
facet normal -9.926211986385528e-17 -6.1158612293439884e-18 -1.0
  outer loop
    vertex -7.847759065022576 -13.765366864730181 1.762479051592436e-15
    vertex -7.414213562373098 14.414213562373098 1.9387269567516795e-15
    vertex -7.414213562373098 -14.414213562373098 1.762479051592436e-15
  endloop
endfacet
facet normal -9.926211986385528e-17 -6.1158612293439884e-18 -1.0
  outer loop
    vertex -7.414213562373098 -14.414213562373098 1.762479051592436e-15
    vertex -7.414213562373098 14.414213562373098 1.9387269567516795e-15
    vertex -6.765366864730182 14.847759065022576 1.9387269567516795e-15
  endloop
endfacet
facet normal -9.926211986385528e-17 -6.1158612293439884e-18 -1.0
  outer loop
    vertex -7.414213562373098 -14.414213562373098 1.762479051592436e-15
    vertex -6.765366864730182 14.847759065022576 1.9387269567516795e-15
    vertex -6.765366864730182 -14.847759065022576 1.762479051592436e-15
  endloop
endfacet
facet normal -9.926211986385528e-17 -6.1158612293439884e-18 -1.0
  outer loop
    vertex -6.765366864730182 -14.847759065022576 1.762479051592436e-15
    vertex -6.765366864730182 14.847759065022576 1.9387269567516795e-15
    vertex -6.000000000000003 15.0 1.7762010684043558e-15
  endloop
endfacet
facet normal -9.926211986385528e-17 -6.1158612293439884e-18 -1.0
  outer loop
    vertex -6.765366864730182 -14.847759065022576 1.762479051592436e-15
    vertex -6.000000000000003 15.0 1.7762010684043558e-15
    vertex -6.000000000000003 -15.0 1.7997245257962178e-15
  endloop
endfacet
facet normal -9.926211986385528e-17 -6.1158612293439884e-18 -1.0
  outer loop
    vertex -7.999999999999999 23.0 1.762479051592436e-15
    vertex -7.847759065022575 21.23463313526982 1.762479051592436e-15
    vertex -8.0 22.0 1.762479051592436e-15
  endloop
endfacet
facet normal -9.926211986385528e-17 -6.1158612293439884e-18 -1.0
  outer loop
    vertex -7.847759065022575 21.23463313526982 1.762479051592436e-15
    vertex -7.999999999999999 23.0 1.762479051592436e-15
    vertex -7.847759065022575 23.76536686473018 1.762479051592436e-15
  endloop
endfacet
facet normal -9.926211986385528e-17 -6.1158612293439884e-18 -1.0
  outer loop
    vertex -7.847759065022575 21.23463313526982 1.762479051592436e-15
    vertex -7.847759065022575 23.76536686473018 1.762479051592436e-15
    vertex -7.414213562373096 24.414213562373096 1.762479051592436e-15
  endloop
endfacet
facet normal -9.926211986385528e-17 -6.1158612293439884e-18 -1.0
  outer loop
    vertex -7.847759065022575 21.23463313526982 1.762479051592436e-15
    vertex -7.414213562373096 24.414213562373096 1.762479051592436e-15
    vertex -7.414213562373098 20.585786437626908 1.762479051592436e-15
  endloop
endfacet
facet normal -9.926211986385528e-17 -6.1158612293439884e-18 -1.0
  outer loop
    vertex -7.414213562373098 20.585786437626908 1.762479051592436e-15
    vertex -7.414213562373096 24.414213562373096 1.762479051592436e-15
    vertex -6.765366864730182 20.152240934977428 1.762479051592436e-15
  endloop
endfacet
facet normal -9.926211986385528e-17 -6.1158612293439884e-18 -1.0
  outer loop
    vertex -6.765366864730182 20.152240934977428 1.762479051592436e-15
    vertex -7.414213562373096 24.414213562373096 1.762479051592436e-15
    vertex -6.765366864730182 24.847759065022572 1.762479051592436e-15
  endloop
endfacet
facet normal -9.926211986385528e-17 -6.1158612293439884e-18 -1.0
  outer loop
    vertex -6.765366864730182 20.152240934977428 1.762479051592436e-15
    vertex -6.765366864730182 24.847759065022572 1.762479051592436e-15
    vertex -6.000000000000003 25.0 1.762479051592436e-15
  endloop
endfacet
facet normal -9.926211986385528e-17 -6.1158612293439884e-18 -1.0
  outer loop
    vertex -6.765366864730182 20.152240934977428 1.762479051592436e-15
    vertex -6.000000000000003 25.0 1.762479051592436e-15
    vertex -6.000000000000003 20.0 1.7948238055062467e-15
  endloop
endfacet
facet normal -9.926211986385528e-17 -6.1158612293439884e-18 -1.0
  outer loop
    vertex -6.000000000000003 20.0 1.7948238055062467e-15
    vertex -6.000000000000003 25.0 1.762479051592436e-15
    vertex 5.999999999999997 25.0 3.524958103184872e-16
  endloop
endfacet
facet normal -9.926211986385528e-17 -6.1158612293439884e-18 -1.0
  outer loop
    vertex -6.000000000000003 20.0 1.7948238055062467e-15
    vertex 5.999999999999997 25.0 3.524958103184872e-16
    vertex -6.000000000000003 15.0 1.7762010684043558e-15
  endloop
endfacet
facet normal -9.926211986385528e-17 -6.1158612293439884e-18 -1.0
  outer loop
    vertex -6.000000000000003 15.0 1.7762010684043558e-15
    vertex 5.999999999999997 25.0 3.524958103184872e-16
    vertex -6.000000000000003 -15.0 1.7997245257962178e-15
  endloop
endfacet
facet normal -9.926211986385528e-17 -6.1158612293439884e-18 -1.0
  outer loop
    vertex -6.000000000000003 -15.0 1.7997245257962178e-15
    vertex 5.999999999999997 25.0 3.524958103184872e-16
    vertex -6.000000000000003 -19.999999999999996 1.790413157245272e-15
  endloop
endfacet
facet normal -9.926211986385528e-17 -6.1158612293439884e-18 -1.0
  outer loop
    vertex -6.000000000000003 -19.999999999999996 1.790413157245272e-15
    vertex 5.999999999999997 25.0 3.524958103184872e-16
    vertex -6.000000000000003 -25.0 1.762479051592436e-15
  endloop
endfacet
facet normal -9.926211986385528e-17 -6.1158612293439884e-18 -1.0
  outer loop
    vertex -6.000000000000003 -25.0 1.762479051592436e-15
    vertex 5.999999999999997 25.0 3.524958103184872e-16
    vertex 5.9999999999999964 20.0 0.0
  endloop
endfacet
facet normal -9.926211986385528e-17 -6.1158612293439884e-18 -1.0
  outer loop
    vertex 5.9999999999999964 20.0 0.0
    vertex 5.999999999999997 25.0 3.524958103184872e-16
    vertex 6.765366864730177 20.152240934977428 0.0
  endloop
endfacet
facet normal -9.926211986385528e-17 -6.1158612293439884e-18 -1.0
  outer loop
    vertex 6.765366864730177 20.152240934977428 0.0
    vertex 5.999999999999997 25.0 3.524958103184872e-16
    vertex 6.765366864730177 24.847759065022576 3.524958103184872e-16
  endloop
endfacet
facet normal -9.926211986385528e-17 -6.1158612293439884e-18 -1.0
  outer loop
    vertex 6.765366864730177 20.152240934977428 0.0
    vertex 6.765366864730177 24.847759065022576 3.524958103184872e-16
    vertex 7.414213562373091 24.414213562373096 3.524958103184872e-16
  endloop
endfacet
facet normal -9.926211986385528e-17 -6.1158612293439884e-18 -1.0
  outer loop
    vertex 6.765366864730177 20.152240934977428 0.0
    vertex 7.414213562373091 24.414213562373096 3.524958103184872e-16
    vertex 7.414213562373091 20.585786437626908 0.0
  endloop
endfacet
facet normal -9.926211986385528e-17 -6.1158612293439884e-18 -1.0
  outer loop
    vertex 7.414213562373091 20.585786437626908 0.0
    vertex 7.414213562373091 24.414213562373096 3.524958103184872e-16
    vertex 7.84775906502257 23.76536686473018 3.524958103184872e-16
  endloop
endfacet
facet normal -9.926211986385528e-17 -6.1158612293439884e-18 -1.0
  outer loop
    vertex 7.414213562373091 20.585786437626908 0.0
    vertex 7.84775906502257 23.76536686473018 3.524958103184872e-16
    vertex 7.84775906502257 21.23463313526982 0.0
  endloop
endfacet
facet normal -9.926211986385528e-17 -6.1158612293439884e-18 -1.0
  outer loop
    vertex 7.84775906502257 21.23463313526982 0.0
    vertex 7.84775906502257 23.76536686473018 3.524958103184872e-16
    vertex 7.9999999999999964 23.0 3.524958103184872e-16
  endloop
endfacet
facet normal -9.926211986385528e-17 -6.1158612293439884e-18 -1.0
  outer loop
    vertex 7.84775906502257 21.23463313526982 0.0
    vertex 7.9999999999999964 23.0 3.524958103184872e-16
    vertex 7.9999999999999964 22.0 0.0
  endloop
endfacet
facet normal -9.926211986385528e-17 -6.1158612293439884e-18 -1.0
  outer loop
    vertex 6.765366864730177 14.847759065022576 0.0
    vertex 5.9999999999999964 -15.0 0.0
    vertex 5.9999999999999964 15.0 0.0
  endloop
endfacet
facet normal -9.926211986385528e-17 -6.1158612293439884e-18 -1.0
  outer loop
    vertex 5.9999999999999964 -15.0 0.0
    vertex 6.765366864730177 14.847759065022576 0.0
    vertex 6.765366864730177 -14.847759065022576 0.0
  endloop
endfacet
facet normal -9.926211986385528e-17 -6.1158612293439884e-18 -1.0
  outer loop
    vertex 6.765366864730177 -14.847759065022576 0.0
    vertex 6.765366864730177 14.847759065022576 0.0
    vertex 7.414213562373091 14.414213562373098 0.0
  endloop
endfacet
facet normal -9.926211986385528e-17 -6.1158612293439884e-18 -1.0
  outer loop
    vertex 6.765366864730177 -14.847759065022576 0.0
    vertex 7.414213562373091 14.414213562373098 0.0
    vertex 7.414213562373091 -14.414213562373098 0.0
  endloop
endfacet
facet normal -9.926211986385528e-17 -6.1158612293439884e-18 -1.0
  outer loop
    vertex 7.414213562373091 -14.414213562373098 0.0
    vertex 7.414213562373091 14.414213562373098 0.0
    vertex 7.84775906502257 13.765366864730181 0.0
  endloop
endfacet
facet normal -9.926211986385528e-17 -6.1158612293439884e-18 -1.0
  outer loop
    vertex 7.414213562373091 -14.414213562373098 0.0
    vertex 7.84775906502257 13.765366864730181 0.0
    vertex 7.84775906502257 -13.765366864730181 0.0
  endloop
endfacet
facet normal -9.926211986385528e-17 -6.1158612293439884e-18 -1.0
  outer loop
    vertex 7.84775906502257 -13.765366864730181 0.0
    vertex 7.84775906502257 13.765366864730181 0.0
    vertex 7.9999999999999964 13.000000000000002 0.0
  endloop
endfacet
facet normal -9.926211986385528e-17 -6.1158612293439884e-18 -1.0
  outer loop
    vertex 7.84775906502257 -13.765366864730181 0.0
    vertex 7.9999999999999964 13.000000000000002 0.0
    vertex 7.9999999999999964 -13.000000000000002 0.0
  endloop
endfacet
facet normal -9.926211986385528e-17 -6.1158612293439884e-18 -1.0
  outer loop
    vertex -6.000000000000003 -25.0 1.762479051592436e-15
    vertex 5.9999999999999964 -20.0 0.0
    vertex 5.999999999999997 -25.0 1.4099832412739487e-15
  endloop
endfacet
facet normal -9.926211986385528e-17 -6.1158612293439884e-18 -1.0
  outer loop
    vertex 5.9999999999999964 -20.0 0.0
    vertex -6.000000000000003 -25.0 1.762479051592436e-15
    vertex 5.9999999999999964 20.0 0.0
  endloop
endfacet
facet normal -9.926211986385528e-17 -6.1158612293439884e-18 -1.0
  outer loop
    vertex 5.9999999999999964 -20.0 0.0
    vertex 5.9999999999999964 20.0 0.0
    vertex 5.9999999999999964 15.0 0.0
  endloop
endfacet
facet normal -9.926211986385528e-17 -6.1158612293439884e-18 -1.0
  outer loop
    vertex 5.9999999999999964 -20.0 0.0
    vertex 5.9999999999999964 15.0 0.0
    vertex 5.9999999999999964 -15.0 0.0
  endloop
endfacet
facet normal -9.926211986385528e-17 -6.1158612293439884e-18 -1.0
  outer loop
    vertex 5.999999999999997 -25.0 1.4099832412739487e-15
    vertex 5.9999999999999964 -20.0 0.0
    vertex 6.802428661966492 -20.0 3.524958103184872e-16
  endloop
endfacet
facet normal -9.926211986385528e-17 -6.1158612293439884e-18 -1.0
  outer loop
    vertex 5.999999999999997 -25.0 1.4099832412739487e-15
    vertex 6.802428661966492 -20.0 3.524958103184872e-16
    vertex 6.765366864730177 -24.847759065022576 1.4099832412739487e-15
  endloop
endfacet
facet normal -9.926211986385528e-17 -6.1158612293439884e-18 -1.0
  outer loop
    vertex 6.765366864730177 -24.847759065022576 1.4099832412739487e-15
    vertex 6.802428661966492 -20.0 3.524958103184872e-16
    vertex 7.414213562373091 -24.414213562373096 1.4099832412739487e-15
  endloop
endfacet
facet normal -9.926211986385528e-17 -6.1158612293439884e-18 -1.0
  outer loop
    vertex 7.414213562373091 -24.414213562373096 1.4099832412739487e-15
    vertex 6.802428661966492 -20.0 3.524958103184872e-16
    vertex 7.3749999999999964 -20.25 3.524958103184872e-16
  endloop
endfacet
facet normal -9.926211986385528e-17 -6.1158612293439884e-18 -1.0
  outer loop
    vertex 7.414213562373091 -24.414213562373096 1.4099832412739487e-15
    vertex 7.3749999999999964 -20.25 3.524958103184872e-16
    vertex 7.8350424859373655 -20.801228757031314 3.524958103184872e-16
  endloop
endfacet
facet normal -9.926211986385528e-17 -6.1158612293439884e-18 -1.0
  outer loop
    vertex 7.414213562373091 -24.414213562373096 1.4099832412739487e-15
    vertex 7.8350424859373655 -20.801228757031314 3.524958103184872e-16
    vertex 7.84775906502257 -23.76536686473018 1.4099832412739487e-15
  endloop
endfacet
facet normal -9.926211986385528e-17 -6.1158612293439884e-18 -1.0
  outer loop
    vertex 7.84775906502257 -23.76536686473018 1.4099832412739487e-15
    vertex 7.8350424859373655 -20.801228757031314 3.524958103184872e-16
    vertex 7.9999999999999964 -21.5 3.524958103184872e-16
  endloop
endfacet
facet normal -9.926211986385528e-17 -6.1158612293439884e-18 -1.0
  outer loop
    vertex 7.84775906502257 -23.76536686473018 1.4099832412739487e-15
    vertex 7.9999999999999964 -21.5 3.524958103184872e-16
    vertex 7.9999999999999964 -23.0 1.4099832412739487e-15
  endloop
endfacet
facet normal 0.0 -1.0 0.0
  outer loop
    vertex 5.999999999999997 -25.0 6.499999999999999
    vertex -6.000000000000003 -25.0 1.762479051592436e-15
    vertex 5.999999999999997 -25.0 1.4099832412739487e-15
  endloop
endfacet
facet normal 0.0 -1.0 0.0
  outer loop
    vertex -6.000000000000003 -25.0 1.762479051592436e-15
    vertex 5.999999999999997 -25.0 6.499999999999999
    vertex -6.000000000000003 -25.0 6.499999999999999
  endloop
endfacet
facet normal 1.0 -0.0 -0.0
  outer loop
    vertex 7.9999999999999964 -21.5 3.524958103184872e-16
    vertex 7.9999999999999964 -23.0 6.499999999999999
    vertex 7.9999999999999964 -23.0 1.4099832412739487e-15
  endloop
endfacet
facet normal 1.0 -0.0 -0.0
  outer loop
    vertex 7.9999999999999964 -23.0 6.499999999999999
    vertex 7.9999999999999964 -21.5 3.524958103184872e-16
    vertex 7.9999999999999964 -21.5 6.499999999999999
  endloop
endfacet
facet normal 1.0 -0.0 -0.0
  outer loop
    vertex 5.9999999999999964 -15.0 0.0
    vertex 5.9999999999999964 -20.0 3.0
    vertex 5.9999999999999964 -20.0 0.0
  endloop
endfacet
facet normal 1.0 -0.0 -0.0
  outer loop
    vertex 5.9999999999999964 -20.0 3.0
    vertex 5.9999999999999964 -15.0 0.0
    vertex 5.9999999999999964 -20.0 6.499999999999999
  endloop
endfacet
facet normal 1.0 -0.0 -0.0
  outer loop
    vertex 5.9999999999999964 -20.0 6.499999999999999
    vertex 5.9999999999999964 -15.0 0.0
    vertex 5.9999999999999964 -15.0 6.499999999999999
  endloop
endfacet
facet normal -0.0 1.0 -0.0
  outer loop
    vertex 5.9999999999999964 -20.0 3.0
    vertex 6.802428661966492 -20.0 3.524958103184872e-16
    vertex 5.9999999999999964 -20.0 0.0
  endloop
endfacet
facet normal -0.0 1.0 -0.0
  outer loop
    vertex 6.802428661966492 -20.0 3.524958103184872e-16
    vertex 5.9999999999999964 -20.0 3.0
    vertex 6.802428661966492 -20.0 3.0
  endloop
endfacet
facet normal -1.0 0.0 0.0
  outer loop
    vertex -6.000000000000003 -15.0 6.499999999999999
    vertex -6.000000000000003 -19.999999999999996 1.790413157245272e-15
    vertex -6.000000000000003 -20.0 6.499999999999999
  endloop
endfacet
facet normal -1.0 0.0 0.0
  outer loop
    vertex -6.000000000000003 -19.999999999999996 1.790413157245272e-15
    vertex -6.000000000000003 -15.0 6.499999999999999
    vertex -6.000000000000003 -15.0 1.7997245257962178e-15
  endloop
endfacet
facet normal -0.19509032201612958 -0.9807852804032302 0.0
  outer loop
    vertex -6.000000000000003 -25.0 6.499999999999999
    vertex -6.765366864730182 -24.847759065022572 1.762479051592436e-15
    vertex -6.000000000000003 -25.0 1.762479051592436e-15
  endloop
endfacet
facet normal -0.19509032201612958 -0.9807852804032302 0.0
  outer loop
    vertex -6.765366864730182 -24.847759065022572 1.762479051592436e-15
    vertex -6.000000000000003 -25.0 6.499999999999999
    vertex -6.765366864730182 -24.847759065022572 6.499999999999999
  endloop
endfacet
facet normal -0.5555702330196 -0.8314696123025468 -0.0
  outer loop
    vertex -6.765366864730182 -24.847759065022572 6.499999999999999
    vertex -7.414213562373098 -24.414213562373096 1.762479051592436e-15
    vertex -6.765366864730182 -24.847759065022572 1.762479051592436e-15
  endloop
endfacet
facet normal -0.5555702330196 -0.8314696123025468 -0.0
  outer loop
    vertex -7.414213562373098 -24.414213562373096 1.762479051592436e-15
    vertex -6.765366864730182 -24.847759065022572 6.499999999999999
    vertex -7.414213562373098 -24.414213562373096 6.499999999999999
  endloop
endfacet
facet normal -0.8314696123025467 -0.5555702330196004 -0.0
  outer loop
    vertex -7.847759065022575 -23.76536686473018 6.499999999999999
    vertex -7.414213562373098 -24.414213562373096 1.762479051592436e-15
    vertex -7.414213562373098 -24.414213562373096 6.499999999999999
  endloop
endfacet
facet normal -0.8314696123025467 -0.5555702330196004 -0.0
  outer loop
    vertex -7.414213562373098 -24.414213562373096 1.762479051592436e-15
    vertex -7.847759065022575 -23.76536686473018 6.499999999999999
    vertex -7.847759065022575 -23.76536686473018 1.762479051592436e-15
  endloop
endfacet
facet normal -0.9807852804032302 -0.1950903220161298 0.0
  outer loop
    vertex -8.000000000000002 -23.0 6.499999999999999
    vertex -7.847759065022575 -23.76536686473018 1.762479051592436e-15
    vertex -7.847759065022575 -23.76536686473018 6.499999999999999
  endloop
endfacet
facet normal -0.9807852804032302 -0.1950903220161298 0.0
  outer loop
    vertex -7.847759065022575 -23.76536686473018 1.762479051592436e-15
    vertex -8.000000000000002 -23.0 6.499999999999999
    vertex -8.000000000000002 -23.0 1.762479051592436e-15
  endloop
endfacet
facet normal 0.9807852804032307 -0.19509032201612805 -0.0
  outer loop
    vertex 7.9999999999999964 -23.0 1.4099832412739487e-15
    vertex 7.84775906502257 -23.76536686473018 6.499999999999999
    vertex 7.84775906502257 -23.76536686473018 1.4099832412739487e-15
  endloop
endfacet
facet normal 0.9807852804032307 -0.19509032201612805 -0.0
  outer loop
    vertex 7.84775906502257 -23.76536686473018 6.499999999999999
    vertex 7.9999999999999964 -23.0 1.4099832412739487e-15
    vertex 7.9999999999999964 -23.0 6.499999999999999
  endloop
endfacet
facet normal 0.8314696123025457 -0.5555702330196016 -0.0
  outer loop
    vertex 7.84775906502257 -23.76536686473018 1.4099832412739487e-15
    vertex 7.414213562373091 -24.414213562373096 6.499999999999999
    vertex 7.414213562373091 -24.414213562373096 1.4099832412739487e-15
  endloop
endfacet
facet normal 0.8314696123025457 -0.5555702330196016 -0.0
  outer loop
    vertex 7.414213562373091 -24.414213562373096 6.499999999999999
    vertex 7.84775906502257 -23.76536686473018 1.4099832412739487e-15
    vertex 7.84775906502257 -23.76536686473018 6.499999999999999
  endloop
endfacet
facet normal 0.5555702330196025 -0.8314696123025451 -0.0
  outer loop
    vertex 7.414213562373091 -24.414213562373096 6.499999999999999
    vertex 6.765366864730177 -24.847759065022576 1.4099832412739487e-15
    vertex 7.414213562373091 -24.414213562373096 1.4099832412739487e-15
  endloop
endfacet
facet normal 0.5555702330196025 -0.8314696123025451 -0.0
  outer loop
    vertex 6.765366864730177 -24.847759065022576 1.4099832412739487e-15
    vertex 7.414213562373091 -24.414213562373096 6.499999999999999
    vertex 6.765366864730177 -24.847759065022576 6.499999999999999
  endloop
endfacet
facet normal 0.19509032201612625 -0.9807852804032309 0.0
  outer loop
    vertex 6.765366864730177 -24.847759065022576 6.499999999999999
    vertex 5.999999999999997 -25.0 1.4099832412739487e-15
    vertex 6.765366864730177 -24.847759065022576 1.4099832412739487e-15
  endloop
endfacet
facet normal 0.19509032201612625 -0.9807852804032309 0.0
  outer loop
    vertex 5.999999999999997 -25.0 1.4099832412739487e-15
    vertex 6.765366864730177 -24.847759065022576 6.499999999999999
    vertex 5.999999999999997 -25.0 6.499999999999999
  endloop
endfacet
facet normal -0.9807852804032307 0.19509032201612808 1.6307682860996226e-32
  outer loop
    vertex -7.847759065022576 -21.23463313526982 6.499999999999999
    vertex -8.000000000000002 -22.0 1.5862311464331924e-15
    vertex -8.000000000000002 -22.0 6.499999999999999
  endloop
endfacet
facet normal -0.9807852804032307 0.19509032201612808 1.6307682860996226e-32
  outer loop
    vertex -8.000000000000002 -22.0 1.5862311464331924e-15
    vertex -7.847759065022576 -21.23463313526982 6.499999999999999
    vertex -7.847759065022576 -21.23463313526982 1.5862311464331924e-15
  endloop
endfacet
facet normal -0.8314696123025446 0.5555702330196033 -0.0
  outer loop
    vertex -7.414213562373098 -20.585786437626908 6.499999999999999
    vertex -7.847759065022576 -21.23463313526982 1.5862311464331924e-15
    vertex -7.847759065022576 -21.23463313526982 6.499999999999999
  endloop
endfacet
facet normal -0.8314696123025446 0.5555702330196033 -0.0
  outer loop
    vertex -7.847759065022576 -21.23463313526982 1.5862311464331924e-15
    vertex -7.414213562373098 -20.585786437626908 6.499999999999999
    vertex -7.414213562373098 -20.585786437626908 1.5862311464331924e-15
  endloop
endfacet
facet normal -0.5555702330196025 0.8314696123025451 -0.0
  outer loop
    vertex -7.414213562373098 -20.585786437626908 6.499999999999999
    vertex -6.765366864730182 -20.152240934977428 1.5862311464331924e-15
    vertex -7.414213562373098 -20.585786437626908 1.5862311464331924e-15
  endloop
endfacet
facet normal -0.5555702330196025 0.8314696123025451 -0.0
  outer loop
    vertex -6.765366864730182 -20.152240934977428 1.5862311464331924e-15
    vertex -7.414213562373098 -20.585786437626908 6.499999999999999
    vertex -6.765366864730182 -20.152240934977428 6.499999999999999
  endloop
endfacet
facet normal -0.19509032201613133 0.98078528040323 4.607842514705056e-16
  outer loop
    vertex -6.765366864730182 -20.152240934977428 6.499999999999999
    vertex -6.000000000000003 -19.999999999999996 1.790413157245272e-15
    vertex -6.765366864730182 -20.152240934977428 1.5862311464331924e-15
  endloop
endfacet
facet normal -0.19509032201613133 0.98078528040323 4.607842514705056e-16
  outer loop
    vertex -6.000000000000003 -19.999999999999996 1.790413157245272e-15
    vertex -6.765366864730182 -20.152240934977428 6.499999999999999
    vertex -6.000000000000003 -20.0 6.499999999999999
  endloop
endfacet
facet normal -0.0 -0.0 1.0
  outer loop
    vertex 6.802428661966492 -20.0 3.0
    vertex 6.71700849718747 -19.962703265468896 3.0
    vertex 5.9999999999999964 -20.0 3.0
  endloop
endfacet
facet normal 0.40014705724274874 0.9164509439026011 -0.0
  outer loop
    vertex 6.802428661966492 -20.0 3.0
    vertex 7.3749999999999964 -20.25 3.524958103184872e-16
    vertex 6.802428661966492 -20.0 3.524958103184872e-16
  endloop
endfacet
facet normal 0.40014705724274874 0.9164509439026011 -0.0
  outer loop
    vertex 7.3749999999999964 -20.25 3.524958103184872e-16
    vertex 6.802428661966492 -20.0 3.0
    vertex 7.3749999999999964 -20.25 6.499999999999999
  endloop
endfacet
facet normal 0.40014705724274874 0.9164509439026011 -0.0
  outer loop
    vertex 7.3749999999999964 -20.25 6.499999999999999
    vertex 6.802428661966492 -20.0 3.0
    vertex 6.802428661966492 -20.0 6.499999999999999
  endloop
endfacet
facet normal 0.7677517301185268 0.6407474392457678 0.0
  outer loop
    vertex 7.3749999999999964 -20.25 3.524958103184872e-16
    vertex 7.8350424859373655 -20.801228757031314 6.499999999999999
    vertex 7.8350424859373655 -20.801228757031314 3.524958103184872e-16
  endloop
endfacet
facet normal 0.7677517301185268 0.6407474392457678 0.0
  outer loop
    vertex 7.8350424859373655 -20.801228757031314 6.499999999999999
    vertex 7.3749999999999964 -20.25 3.524958103184872e-16
    vertex 7.3749999999999964 -20.25 6.499999999999999
  endloop
endfacet
facet normal 0.9732489894677303 0.229752920547361 -0.0
  outer loop
    vertex 7.8350424859373655 -20.801228757031314 3.524958103184872e-16
    vertex 7.9999999999999964 -21.5 6.499999999999999
    vertex 7.9999999999999964 -21.5 3.524958103184872e-16
  endloop
endfacet
facet normal 0.9732489894677303 0.229752920547361 -0.0
  outer loop
    vertex 7.9999999999999964 -21.5 6.499999999999999
    vertex 7.8350424859373655 -20.801228757031314 3.524958103184872e-16
    vertex 7.8350424859373655 -20.801228757031314 6.499999999999999
  endloop
endfacet
facet normal 0.9807852804032307 -0.19509032201612808 -0.0
  outer loop
    vertex 7.9999999999999964 -13.000000000000002 0.0
    vertex 7.84775906502257 -13.765366864730181 6.499999999999999
    vertex 7.84775906502257 -13.765366864730181 0.0
  endloop
endfacet
facet normal 0.9807852804032307 -0.19509032201612808 -0.0
  outer loop
    vertex 7.84775906502257 -13.765366864730181 6.499999999999999
    vertex 7.9999999999999964 -13.000000000000002 0.0
    vertex 7.9999999999999964 -13.000000000000002 6.499999999999999
  endloop
endfacet
facet normal 0.8314696123025457 -0.5555702330196016 -0.0
  outer loop
    vertex 7.84775906502257 -13.765366864730181 0.0
    vertex 7.414213562373091 -14.414213562373098 6.499999999999999
    vertex 7.414213562373091 -14.414213562373098 0.0
  endloop
endfacet
facet normal 0.8314696123025457 -0.5555702330196016 -0.0
  outer loop
    vertex 7.414213562373091 -14.414213562373098 6.499999999999999
    vertex 7.84775906502257 -13.765366864730181 0.0
    vertex 7.84775906502257 -13.765366864730181 6.499999999999999
  endloop
endfacet
facet normal 0.5555702330196025 -0.8314696123025451 -0.0
  outer loop
    vertex 7.414213562373091 -14.414213562373098 6.499999999999999
    vertex 6.765366864730177 -14.847759065022576 0.0
    vertex 7.414213562373091 -14.414213562373098 0.0
  endloop
endfacet
facet normal 0.5555702330196025 -0.8314696123025451 -0.0
  outer loop
    vertex 6.765366864730177 -14.847759065022576 0.0
    vertex 7.414213562373091 -14.414213562373098 6.499999999999999
    vertex 6.765366864730177 -14.847759065022576 6.499999999999999
  endloop
endfacet
facet normal 0.19509032201612608 -0.9807852804032309 0.0
  outer loop
    vertex 6.765366864730177 -14.847759065022576 6.499999999999999
    vertex 5.9999999999999964 -15.0 0.0
    vertex 6.765366864730177 -14.847759065022576 0.0
  endloop
endfacet
facet normal 0.19509032201612608 -0.9807852804032309 0.0
  outer loop
    vertex 5.9999999999999964 -15.0 0.0
    vertex 6.765366864730177 -14.847759065022576 6.499999999999999
    vertex 5.9999999999999964 -15.0 6.499999999999999
  endloop
endfacet
facet normal -0.19509032201612606 -0.9807852804032309 1.5162503793983118e-18
  outer loop
    vertex -6.000000000000003 -15.0 1.7997245257962178e-15
    vertex -6.765366864730182 -14.847759065022576 6.499999999999999
    vertex -6.765366864730182 -14.847759065022576 1.762479051592436e-15
  endloop
endfacet
facet normal -0.19509032201612606 -0.9807852804032309 1.5162503793983118e-18
  outer loop
    vertex -6.765366864730182 -14.847759065022576 6.499999999999999
    vertex -6.000000000000003 -15.0 1.7997245257962178e-15
    vertex -6.000000000000003 -15.0 6.499999999999999
  endloop
endfacet
facet normal -0.5555702330196025 -0.8314696123025451 -0.0
  outer loop
    vertex -6.765366864730182 -14.847759065022576 6.499999999999999
    vertex -7.414213562373098 -14.414213562373098 1.762479051592436e-15
    vertex -6.765366864730182 -14.847759065022576 1.762479051592436e-15
  endloop
endfacet
facet normal -0.5555702330196025 -0.8314696123025451 -0.0
  outer loop
    vertex -7.414213562373098 -14.414213562373098 1.762479051592436e-15
    vertex -6.765366864730182 -14.847759065022576 6.499999999999999
    vertex -7.414213562373098 -14.414213562373098 6.499999999999999
  endloop
endfacet
facet normal -0.8314696123025457 -0.5555702330196016 -0.0
  outer loop
    vertex -7.847759065022576 -13.765366864730181 6.499999999999999
    vertex -7.414213562373098 -14.414213562373098 1.762479051592436e-15
    vertex -7.414213562373098 -14.414213562373098 6.499999999999999
  endloop
endfacet
facet normal -0.8314696123025457 -0.5555702330196016 -0.0
  outer loop
    vertex -7.414213562373098 -14.414213562373098 1.762479051592436e-15
    vertex -7.847759065022576 -13.765366864730181 6.499999999999999
    vertex -7.847759065022576 -13.765366864730181 1.762479051592436e-15
  endloop
endfacet
facet normal -0.9807852804032307 -0.19509032201612808 0.0
  outer loop
    vertex -8.000000000000002 -13.000000000000002 6.499999999999999
    vertex -7.847759065022576 -13.765366864730181 1.762479051592436e-15
    vertex -7.847759065022576 -13.765366864730181 6.499999999999999
  endloop
endfacet
facet normal -0.9807852804032307 -0.19509032201612808 0.0
  outer loop
    vertex -7.847759065022576 -13.765366864730181 1.762479051592436e-15
    vertex -8.000000000000002 -13.000000000000002 6.499999999999999
    vertex -8.000000000000002 -13.000000000000002 1.762479051592436e-15
  endloop
endfacet
facet normal -0.0 1.0 -0.0
  outer loop
    vertex -6.000000000000003 25.0 1.762479051592436e-15
    vertex 5.999999999999997 25.0 6.500000000000001
    vertex 5.999999999999997 25.0 3.524958103184872e-16
  endloop
endfacet
facet normal -0.0 1.0 -0.0
  outer loop
    vertex 5.999999999999997 25.0 6.500000000000001
    vertex -6.000000000000003 25.0 1.762479051592436e-15
    vertex -6.000000000000003 25.0 6.500000000000001
  endloop
endfacet
facet normal 1.0 -0.0 -0.0
  outer loop
    vertex 5.9999999999999964 20.0 0.0
    vertex 5.9999999999999964 15.0 6.500000000000001
    vertex 5.9999999999999964 15.0 0.0
  endloop
endfacet
facet normal 1.0 -0.0 -0.0
  outer loop
    vertex 5.9999999999999964 15.0 6.500000000000001
    vertex 5.9999999999999964 20.0 0.0
    vertex 5.9999999999999964 20.0 6.500000000000001
  endloop
endfacet
facet normal -1.0 1.4099832412739473e-15 0.0
  outer loop
    vertex -7.999999999999999 23.0 6.500000000000001
    vertex -8.0 22.0 1.762479051592436e-15
    vertex -8.0 22.0 6.500000000000001
  endloop
endfacet
facet normal -1.0 1.4099832412739473e-15 0.0
  outer loop
    vertex -8.0 22.0 1.762479051592436e-15
    vertex -7.999999999999999 23.0 6.500000000000001
    vertex -7.999999999999999 23.0 1.762479051592436e-15
  endloop
endfacet
facet normal -1.0 0.0 0.0
  outer loop
    vertex -6.000000000000003 20.0 6.500000000000001
    vertex -6.000000000000003 15.0 1.7762010684043558e-15
    vertex -6.000000000000003 15.0 6.500000000000001
  endloop
endfacet
facet normal -1.0 0.0 0.0
  outer loop
    vertex -6.000000000000003 15.0 1.7762010684043558e-15
    vertex -6.000000000000003 20.0 6.500000000000001
    vertex -6.000000000000003 20.0 1.7948238055062467e-15
  endloop
endfacet
facet normal 0.19509032201612608 0.9807852804032309 -0.0
  outer loop
    vertex 5.9999999999999964 15.0 6.500000000000001
    vertex 6.765366864730177 14.847759065022576 0.0
    vertex 5.9999999999999964 15.0 0.0
  endloop
endfacet
facet normal 0.19509032201612608 0.9807852804032309 -0.0
  outer loop
    vertex 6.765366864730177 14.847759065022576 0.0
    vertex 5.9999999999999964 15.0 6.500000000000001
    vertex 6.765366864730177 14.847759065022576 6.500000000000001
  endloop
endfacet
facet normal 0.5555702330196025 0.8314696123025451 0.0
  outer loop
    vertex 6.765366864730177 14.847759065022576 6.500000000000001
    vertex 7.414213562373091 14.414213562373098 0.0
    vertex 6.765366864730177 14.847759065022576 0.0
  endloop
endfacet
facet normal 0.5555702330196025 0.8314696123025451 0.0
  outer loop
    vertex 7.414213562373091 14.414213562373098 0.0
    vertex 6.765366864730177 14.847759065022576 6.500000000000001
    vertex 7.414213562373091 14.414213562373098 6.500000000000001
  endloop
endfacet
facet normal 0.8314696123025457 0.5555702330196016 0.0
  outer loop
    vertex 7.414213562373091 14.414213562373098 0.0
    vertex 7.84775906502257 13.765366864730181 6.500000000000001
    vertex 7.84775906502257 13.765366864730181 0.0
  endloop
endfacet
facet normal 0.8314696123025457 0.5555702330196016 0.0
  outer loop
    vertex 7.84775906502257 13.765366864730181 6.500000000000001
    vertex 7.414213562373091 14.414213562373098 0.0
    vertex 7.414213562373091 14.414213562373098 6.500000000000001
  endloop
endfacet
facet normal 0.9807852804032307 0.19509032201612808 -0.0
  outer loop
    vertex 7.84775906502257 13.765366864730181 0.0
    vertex 7.9999999999999964 13.000000000000002 6.500000000000001
    vertex 7.9999999999999964 13.000000000000002 0.0
  endloop
endfacet
facet normal 0.9807852804032307 0.19509032201612808 -0.0
  outer loop
    vertex 7.9999999999999964 13.000000000000002 6.500000000000001
    vertex 7.84775906502257 13.765366864730181 0.0
    vertex 7.84775906502257 13.765366864730181 6.500000000000001
  endloop
endfacet
facet normal -0.9807852804032307 0.19509032201612808 -3.785489671449724e-32
  outer loop
    vertex -7.847759065022576 13.765366864730181 6.500000000000001
    vertex -8.000000000000002 13.000000000000002 1.9387269567516795e-15
    vertex -8.000000000000002 13.000000000000002 6.500000000000001
  endloop
endfacet
facet normal -0.9807852804032307 0.19509032201612808 -3.785489671449724e-32
  outer loop
    vertex -8.000000000000002 13.000000000000002 1.9387269567516795e-15
    vertex -7.847759065022576 13.765366864730181 6.500000000000001
    vertex -7.847759065022576 13.765366864730181 1.9387269567516795e-15
  endloop
endfacet
facet normal -0.8314696123025457 0.5555702330196016 -0.0
  outer loop
    vertex -7.414213562373098 14.414213562373098 6.500000000000001
    vertex -7.847759065022576 13.765366864730181 1.9387269567516795e-15
    vertex -7.847759065022576 13.765366864730181 6.500000000000001
  endloop
endfacet
facet normal -0.8314696123025457 0.5555702330196016 -0.0
  outer loop
    vertex -7.847759065022576 13.765366864730181 1.9387269567516795e-15
    vertex -7.414213562373098 14.414213562373098 6.500000000000001
    vertex -7.414213562373098 14.414213562373098 1.9387269567516795e-15
  endloop
endfacet
facet normal -0.5555702330196025 0.8314696123025451 -0.0
  outer loop
    vertex -7.414213562373098 14.414213562373098 6.500000000000001
    vertex -6.765366864730182 14.847759065022576 1.9387269567516795e-15
    vertex -7.414213562373098 14.414213562373098 1.9387269567516795e-15
  endloop
endfacet
facet normal -0.5555702330196025 0.8314696123025451 -0.0
  outer loop
    vertex -6.765366864730182 14.847759065022576 1.9387269567516795e-15
    vertex -7.414213562373098 14.414213562373098 6.500000000000001
    vertex -6.765366864730182 14.847759065022576 6.500000000000001
  endloop
endfacet
facet normal -0.19509032201612606 0.9807852804032309 1.9056763530750575e-18
  outer loop
    vertex -6.765366864730182 14.847759065022576 1.9387269567516795e-15
    vertex -6.000000000000003 15.0 6.500000000000001
    vertex -6.000000000000003 15.0 1.7762010684043558e-15
  endloop
endfacet
facet normal -0.19509032201612606 0.9807852804032309 1.9056763530750575e-18
  outer loop
    vertex -6.000000000000003 15.0 6.500000000000001
    vertex -6.765366864730182 14.847759065022576 1.9387269567516795e-15
    vertex -6.765366864730182 14.847759065022576 6.500000000000001
  endloop
endfacet
facet normal -0.19509032201612958 -0.9807852804032302 1.5162503793984474e-18
  outer loop
    vertex -6.000000000000003 20.0 1.7948238055062467e-15
    vertex -6.765366864730182 20.152240934977428 6.500000000000001
    vertex -6.765366864730182 20.152240934977428 1.762479051592436e-15
  endloop
endfacet
facet normal -0.19509032201612958 -0.9807852804032302 1.5162503793984474e-18
  outer loop
    vertex -6.765366864730182 20.152240934977428 6.500000000000001
    vertex -6.000000000000003 20.0 1.7948238055062467e-15
    vertex -6.000000000000003 20.0 6.500000000000001
  endloop
endfacet
facet normal -0.5555702330196025 -0.8314696123025451 -0.0
  outer loop
    vertex -6.765366864730182 20.152240934977428 6.500000000000001
    vertex -7.414213562373098 20.585786437626908 1.762479051592436e-15
    vertex -6.765366864730182 20.152240934977428 1.762479051592436e-15
  endloop
endfacet
facet normal -0.5555702330196025 -0.8314696123025451 -0.0
  outer loop
    vertex -7.414213562373098 20.585786437626908 1.762479051592436e-15
    vertex -6.765366864730182 20.152240934977428 6.500000000000001
    vertex -7.414213562373098 20.585786437626908 6.500000000000001
  endloop
endfacet
facet normal -0.8314696123025456 -0.5555702330196021 -0.0
  outer loop
    vertex -7.847759065022575 21.23463313526982 6.500000000000001
    vertex -7.414213562373098 20.585786437626908 1.762479051592436e-15
    vertex -7.414213562373098 20.585786437626908 6.500000000000001
  endloop
endfacet
facet normal -0.8314696123025456 -0.5555702330196021 -0.0
  outer loop
    vertex -7.414213562373098 20.585786437626908 1.762479051592436e-15
    vertex -7.847759065022575 21.23463313526982 6.500000000000001
    vertex -7.847759065022575 21.23463313526982 1.762479051592436e-15
  endloop
endfacet
facet normal -0.9807852804032307 -0.19509032201612808 0.0
  outer loop
    vertex -8.0 22.0 6.500000000000001
    vertex -7.847759065022575 21.23463313526982 1.762479051592436e-15
    vertex -7.847759065022575 21.23463313526982 6.500000000000001
  endloop
endfacet
facet normal -0.9807852804032307 -0.19509032201612808 0.0
  outer loop
    vertex -7.847759065022575 21.23463313526982 1.762479051592436e-15
    vertex -8.0 22.0 6.500000000000001
    vertex -8.0 22.0 1.762479051592436e-15
  endloop
endfacet
facet normal -0.9807852804032309 0.19509032201612628 0.0
  outer loop
    vertex -7.847759065022575 23.76536686473018 6.500000000000001
    vertex -7.999999999999999 23.0 1.762479051592436e-15
    vertex -7.999999999999999 23.0 6.500000000000001
  endloop
endfacet
facet normal -0.9807852804032309 0.19509032201612628 0.0
  outer loop
    vertex -7.999999999999999 23.0 1.762479051592436e-15
    vertex -7.847759065022575 23.76536686473018 6.500000000000001
    vertex -7.847759065022575 23.76536686473018 1.762479051592436e-15
  endloop
endfacet
facet normal -0.8314696123025457 0.5555702330196016 -0.0
  outer loop
    vertex -7.414213562373096 24.414213562373096 6.500000000000001
    vertex -7.847759065022575 23.76536686473018 1.762479051592436e-15
    vertex -7.847759065022575 23.76536686473018 6.500000000000001
  endloop
endfacet
facet normal -0.8314696123025457 0.5555702330196016 -0.0
  outer loop
    vertex -7.847759065022575 23.76536686473018 1.762479051592436e-15
    vertex -7.414213562373096 24.414213562373096 6.500000000000001
    vertex -7.414213562373096 24.414213562373096 1.762479051592436e-15
  endloop
endfacet
facet normal -0.5555702330196008 0.8314696123025462 -0.0
  outer loop
    vertex -7.414213562373096 24.414213562373096 6.500000000000001
    vertex -6.765366864730182 24.847759065022572 1.762479051592436e-15
    vertex -7.414213562373096 24.414213562373096 1.762479051592436e-15
  endloop
endfacet
facet normal -0.5555702330196008 0.8314696123025462 -0.0
  outer loop
    vertex -6.765366864730182 24.847759065022572 1.762479051592436e-15
    vertex -7.414213562373096 24.414213562373096 6.500000000000001
    vertex -6.765366864730182 24.847759065022572 6.500000000000001
  endloop
endfacet
facet normal -0.19509032201612977 0.9807852804032302 -0.0
  outer loop
    vertex -6.765366864730182 24.847759065022572 6.500000000000001
    vertex -6.000000000000003 25.0 1.762479051592436e-15
    vertex -6.765366864730182 24.847759065022572 1.762479051592436e-15
  endloop
endfacet
facet normal -0.19509032201612977 0.9807852804032302 -0.0
  outer loop
    vertex -6.000000000000003 25.0 1.762479051592436e-15
    vertex -6.765366864730182 24.847759065022572 6.500000000000001
    vertex -6.000000000000003 25.0 6.500000000000001
  endloop
endfacet
facet normal 0.9807852804032307 -0.19509032201612808 -0.0
  outer loop
    vertex 7.9999999999999964 22.0 0.0
    vertex 7.84775906502257 21.23463313526982 6.500000000000001
    vertex 7.84775906502257 21.23463313526982 0.0
  endloop
endfacet
facet normal 0.9807852804032307 -0.19509032201612808 -0.0
  outer loop
    vertex 7.84775906502257 21.23463313526982 6.500000000000001
    vertex 7.9999999999999964 22.0 0.0
    vertex 7.9999999999999964 22.0 6.500000000000001
  endloop
endfacet
facet normal 0.8314696123025446 -0.5555702330196033 -0.0
  outer loop
    vertex 7.84775906502257 21.23463313526982 0.0
    vertex 7.414213562373091 20.585786437626908 6.500000000000001
    vertex 7.414213562373091 20.585786437626908 0.0
  endloop
endfacet
facet normal 0.8314696123025446 -0.5555702330196033 -0.0
  outer loop
    vertex 7.414213562373091 20.585786437626908 6.500000000000001
    vertex 7.84775906502257 21.23463313526982 0.0
    vertex 7.84775906502257 21.23463313526982 6.500000000000001
  endloop
endfacet
facet normal 0.5555702330196025 -0.8314696123025451 -0.0
  outer loop
    vertex 7.414213562373091 20.585786437626908 6.500000000000001
    vertex 6.765366864730177 20.152240934977428 0.0
    vertex 7.414213562373091 20.585786437626908 0.0
  endloop
endfacet
facet normal 0.5555702330196025 -0.8314696123025451 -0.0
  outer loop
    vertex 6.765366864730177 20.152240934977428 0.0
    vertex 7.414213562373091 20.585786437626908 6.500000000000001
    vertex 6.765366864730177 20.152240934977428 6.500000000000001
  endloop
endfacet
facet normal 0.1950903220161296 -0.9807852804032302 0.0
  outer loop
    vertex 6.765366864730177 20.152240934977428 6.500000000000001
    vertex 5.9999999999999964 20.0 0.0
    vertex 6.765366864730177 20.152240934977428 0.0
  endloop
endfacet
facet normal 0.1950903220161296 -0.9807852804032302 0.0
  outer loop
    vertex 5.9999999999999964 20.0 0.0
    vertex 6.765366864730177 20.152240934977428 6.500000000000001
    vertex 5.9999999999999964 20.0 6.500000000000001
  endloop
endfacet
facet normal 0.19509032201612625 0.9807852804032309 -0.0
  outer loop
    vertex 5.999999999999997 25.0 6.500000000000001
    vertex 6.765366864730177 24.847759065022576 3.524958103184872e-16
    vertex 5.999999999999997 25.0 3.524958103184872e-16
  endloop
endfacet
facet normal 0.19509032201612625 0.9807852804032309 -0.0
  outer loop
    vertex 6.765366864730177 24.847759065022576 3.524958103184872e-16
    vertex 5.999999999999997 25.0 6.500000000000001
    vertex 6.765366864730177 24.847759065022576 6.500000000000001
  endloop
endfacet
facet normal 0.5555702330196025 0.8314696123025451 0.0
  outer loop
    vertex 6.765366864730177 24.847759065022576 6.500000000000001
    vertex 7.414213562373091 24.414213562373096 3.524958103184872e-16
    vertex 6.765366864730177 24.847759065022576 3.524958103184872e-16
  endloop
endfacet
facet normal 0.5555702330196025 0.8314696123025451 0.0
  outer loop
    vertex 7.414213562373091 24.414213562373096 3.524958103184872e-16
    vertex 6.765366864730177 24.847759065022576 6.500000000000001
    vertex 7.414213562373091 24.414213562373096 6.500000000000001
  endloop
endfacet
facet normal 0.8314696123025457 0.5555702330196016 0.0
  outer loop
    vertex 7.414213562373091 24.414213562373096 3.524958103184872e-16
    vertex 7.84775906502257 23.76536686473018 6.500000000000001
    vertex 7.84775906502257 23.76536686473018 3.524958103184872e-16
  endloop
endfacet
facet normal 0.8314696123025457 0.5555702330196016 0.0
  outer loop
    vertex 7.84775906502257 23.76536686473018 6.500000000000001
    vertex 7.414213562373091 24.414213562373096 3.524958103184872e-16
    vertex 7.414213562373091 24.414213562373096 6.500000000000001
  endloop
endfacet
facet normal 0.9807852804032307 0.19509032201612805 -0.0
  outer loop
    vertex 7.84775906502257 23.76536686473018 3.524958103184872e-16
    vertex 7.9999999999999964 23.0 6.500000000000001
    vertex 7.9999999999999964 23.0 3.524958103184872e-16
  endloop
endfacet
facet normal 0.9807852804032307 0.19509032201612805 -0.0
  outer loop
    vertex 7.9999999999999964 23.0 6.500000000000001
    vertex 7.84775906502257 23.76536686473018 3.524958103184872e-16
    vertex 7.84775906502257 23.76536686473018 6.500000000000001
  endloop
endfacet
facet normal -1.0 0.0 0.0
  outer loop
    vertex -8.000000000000002 13.000000000000002 6.500000000000001
    vertex -8.000000000000002 10.0 4.0
    vertex -8.000000000000002 10.0 6.500000000000001
  endloop
endfacet
facet normal -1.0 0.0 0.0
  outer loop
    vertex -8.000000000000002 -10.000000000000002 6.499999999999999
    vertex -8.000000000000002 -13.000000000000002 1.762479051592436e-15
    vertex -8.000000000000002 -13.000000000000002 6.499999999999999
  endloop
endfacet
facet normal -1.0 0.0 0.0
  outer loop
    vertex -8.000000000000002 -13.000000000000002 1.762479051592436e-15
    vertex -8.000000000000002 -10.000000000000002 6.499999999999999
    vertex -8.000000000000002 -10.000000000000002 4.0
  endloop
endfacet
facet normal -1.0 0.0 0.0
  outer loop
    vertex -8.000000000000002 -13.000000000000002 1.762479051592436e-15
    vertex -8.000000000000002 -10.000000000000002 4.0
    vertex -8.000000000000002 13.000000000000002 1.9387269567516795e-15
  endloop
endfacet
facet normal -1.0 0.0 0.0
  outer loop
    vertex -8.000000000000002 13.000000000000002 1.9387269567516795e-15
    vertex -8.000000000000002 -10.000000000000002 4.0
    vertex -8.000000000000002 10.0 4.0
  endloop
endfacet
facet normal -1.0 0.0 0.0
  outer loop
    vertex -8.000000000000002 13.000000000000002 1.9387269567516795e-15
    vertex -8.000000000000002 10.0 4.0
    vertex -8.000000000000002 13.000000000000002 6.500000000000001
  endloop
endfacet
facet normal 0.0 1.0 1.996967592335505e-32
  outer loop
    vertex 5.9999999999999964 -20.0 6.499999999999999
    vertex 6.802428661966492 -20.0 3.0
    vertex 5.9999999999999964 -20.0 3.0
  endloop
endfacet
facet normal 0.0 1.0 1.996967592335505e-32
  outer loop
    vertex 6.802428661966492 -20.0 3.0
    vertex 5.9999999999999964 -20.0 6.499999999999999
    vertex 6.802428661966492 -20.0 6.499999999999999
  endloop
endfacet
facet normal 1.0 1.8530071839771843e-17 1.0804357769053707e-16
  outer loop
    vertex 7.9999999999999964 -13.000000000000002 0.0
    vertex 7.9999999999999964 -10.0 4.0
    vertex 7.9999999999999964 -13.000000000000002 6.499999999999999
  endloop
endfacet
facet normal 1.0 1.8530071839771843e-17 1.0804357769053707e-16
  outer loop
    vertex 7.9999999999999964 -10.0 4.0
    vertex 7.9999999999999964 -13.000000000000002 0.0
    vertex 7.9999999999999964 13.000000000000002 0.0
  endloop
endfacet
facet normal 1.0 1.8530071839771843e-17 1.0804357769053707e-16
  outer loop
    vertex 7.9999999999999964 -10.0 4.0
    vertex 7.9999999999999964 13.000000000000002 0.0
    vertex 7.9999999999999964 10.0 4.0
  endloop
endfacet
facet normal 1.0 1.8530071839771843e-17 1.0804357769053707e-16
  outer loop
    vertex 7.9999999999999964 10.0 4.0
    vertex 7.9999999999999964 13.000000000000002 0.0
    vertex 7.9999999999999964 10.0 6.500000000000001
  endloop
endfacet
facet normal 1.0 1.8530071839771843e-17 1.0804357769053707e-16
  outer loop
    vertex 7.9999999999999964 10.0 6.500000000000001
    vertex 7.9999999999999964 13.000000000000002 0.0
    vertex 7.9999999999999964 13.000000000000002 6.500000000000001
  endloop
endfacet
facet normal 1.0 1.8530071839771843e-17 1.0804357769053707e-16
  outer loop
    vertex 7.9999999999999964 -10.0 6.499999999999999
    vertex 7.9999999999999964 -13.000000000000002 6.499999999999999
    vertex 7.9999999999999964 -10.0 4.0
  endloop
endfacet
facet normal 0.0 0.0 1.0
  outer loop
    vertex -7.847759065022575 -23.76536686473018 6.499999999999999
    vertex -8.000000000000002 -22.0 6.499999999999999
    vertex -8.000000000000002 -23.0 6.499999999999999
  endloop
endfacet
facet normal 0.0 0.0 1.0
  outer loop
    vertex -8.000000000000002 -22.0 6.499999999999999
    vertex -7.847759065022575 -23.76536686473018 6.499999999999999
    vertex -7.847759065022576 -21.23463313526982 6.499999999999999
  endloop
endfacet
facet normal 0.0 0.0 1.0
  outer loop
    vertex -7.847759065022576 -21.23463313526982 6.499999999999999
    vertex -7.847759065022575 -23.76536686473018 6.499999999999999
    vertex -7.414213562373098 -20.585786437626908 6.499999999999999
  endloop
endfacet
facet normal 0.0 0.0 1.0
  outer loop
    vertex -7.414213562373098 -20.585786437626908 6.499999999999999
    vertex -7.847759065022575 -23.76536686473018 6.499999999999999
    vertex -7.414213562373098 -24.414213562373096 6.499999999999999
  endloop
endfacet
facet normal 0.0 0.0 1.0
  outer loop
    vertex -7.414213562373098 -20.585786437626908 6.499999999999999
    vertex -7.414213562373098 -24.414213562373096 6.499999999999999
    vertex -6.765366864730182 -24.847759065022572 6.499999999999999
  endloop
endfacet
facet normal 0.0 0.0 1.0
  outer loop
    vertex -7.414213562373098 -20.585786437626908 6.499999999999999
    vertex -6.765366864730182 -24.847759065022572 6.499999999999999
    vertex -6.765366864730182 -20.152240934977428 6.499999999999999
  endloop
endfacet
facet normal 0.0 0.0 1.0
  outer loop
    vertex -6.765366864730182 -20.152240934977428 6.499999999999999
    vertex -6.765366864730182 -24.847759065022572 6.499999999999999
    vertex -6.000000000000003 -25.0 6.499999999999999
  endloop
endfacet
facet normal 0.0 0.0 1.0
  outer loop
    vertex -6.765366864730182 -20.152240934977428 6.499999999999999
    vertex -6.000000000000003 -25.0 6.499999999999999
    vertex -6.000000000000003 -20.0 6.499999999999999
  endloop
endfacet
facet normal 0.0 0.0 1.0
  outer loop
    vertex -6.000000000000003 -20.0 6.499999999999999
    vertex -6.000000000000003 -25.0 6.499999999999999
    vertex 5.999999999999997 -25.0 6.499999999999999
  endloop
endfacet
facet normal 0.0 0.0 1.0
  outer loop
    vertex -6.000000000000003 -20.0 6.499999999999999
    vertex 5.999999999999997 -25.0 6.499999999999999
    vertex -6.000000000000003 -15.0 6.499999999999999
  endloop
endfacet
facet normal 0.0 0.0 1.0
  outer loop
    vertex -6.000000000000003 -15.0 6.499999999999999
    vertex 5.999999999999997 -25.0 6.499999999999999
    vertex 5.9999999999999964 -20.0 6.499999999999999
  endloop
endfacet
facet normal 0.0 0.0 1.0
  outer loop
    vertex 5.9999999999999964 -20.0 6.499999999999999
    vertex 5.999999999999997 -25.0 6.499999999999999
    vertex 6.802428661966492 -20.0 6.499999999999999
  endloop
endfacet
facet normal 0.0 0.0 1.0
  outer loop
    vertex 6.802428661966492 -20.0 6.499999999999999
    vertex 5.999999999999997 -25.0 6.499999999999999
    vertex 6.765366864730177 -24.847759065022576 6.499999999999999
  endloop
endfacet
facet normal 0.0 0.0 1.0
  outer loop
    vertex 6.802428661966492 -20.0 6.499999999999999
    vertex 6.765366864730177 -24.847759065022576 6.499999999999999
    vertex 7.414213562373091 -24.414213562373096 6.499999999999999
  endloop
endfacet
facet normal 0.0 0.0 1.0
  outer loop
    vertex 6.802428661966492 -20.0 6.499999999999999
    vertex 7.414213562373091 -24.414213562373096 6.499999999999999
    vertex 7.3749999999999964 -20.25 6.499999999999999
  endloop
endfacet
facet normal 0.0 0.0 1.0
  outer loop
    vertex 7.3749999999999964 -20.25 6.499999999999999
    vertex 7.414213562373091 -24.414213562373096 6.499999999999999
    vertex 7.8350424859373655 -20.801228757031314 6.499999999999999
  endloop
endfacet
facet normal 0.0 0.0 1.0
  outer loop
    vertex 7.8350424859373655 -20.801228757031314 6.499999999999999
    vertex 7.414213562373091 -24.414213562373096 6.499999999999999
    vertex 7.84775906502257 -23.76536686473018 6.499999999999999
  endloop
endfacet
facet normal 0.0 0.0 1.0
  outer loop
    vertex 7.8350424859373655 -20.801228757031314 6.499999999999999
    vertex 7.84775906502257 -23.76536686473018 6.499999999999999
    vertex 7.9999999999999964 -21.5 6.499999999999999
  endloop
endfacet
facet normal 0.0 0.0 1.0
  outer loop
    vertex 7.9999999999999964 -21.5 6.499999999999999
    vertex 7.84775906502257 -23.76536686473018 6.499999999999999
    vertex 7.9999999999999964 -23.0 6.499999999999999
  endloop
endfacet
facet normal 0.0 0.0 1.0
  outer loop
    vertex -7.847759065022576 -13.765366864730181 6.499999999999999
    vertex -8.000000000000002 -10.000000000000002 6.499999999999999
    vertex -8.000000000000002 -13.000000000000002 6.499999999999999
  endloop
endfacet
facet normal 0.0 0.0 1.0
  outer loop
    vertex -8.000000000000002 -10.000000000000002 6.499999999999999
    vertex -7.847759065022576 -13.765366864730181 6.499999999999999
    vertex 7.9999999999999964 -10.0 6.499999999999999
  endloop
endfacet
facet normal 0.0 0.0 1.0
  outer loop
    vertex 7.9999999999999964 -10.0 6.499999999999999
    vertex -7.847759065022576 -13.765366864730181 6.499999999999999
    vertex -7.414213562373098 -14.414213562373098 6.499999999999999
  endloop
endfacet
facet normal 0.0 0.0 1.0
  outer loop
    vertex 7.9999999999999964 -10.0 6.499999999999999
    vertex -7.414213562373098 -14.414213562373098 6.499999999999999
    vertex -6.765366864730182 -14.847759065022576 6.499999999999999
  endloop
endfacet
facet normal 0.0 0.0 1.0
  outer loop
    vertex 7.9999999999999964 -10.0 6.499999999999999
    vertex -6.765366864730182 -14.847759065022576 6.499999999999999
    vertex -6.000000000000003 -15.0 6.499999999999999
  endloop
endfacet
facet normal 0.0 0.0 1.0
  outer loop
    vertex 7.9999999999999964 -10.0 6.499999999999999
    vertex -6.000000000000003 -15.0 6.499999999999999
    vertex 5.9999999999999964 -15.0 6.499999999999999
  endloop
endfacet
facet normal 0.0 0.0 1.0
  outer loop
    vertex 5.9999999999999964 -15.0 6.499999999999999
    vertex -6.000000000000003 -15.0 6.499999999999999
    vertex 5.9999999999999964 -20.0 6.499999999999999
  endloop
endfacet
facet normal 0.0 0.0 1.0
  outer loop
    vertex 7.9999999999999964 -10.0 6.499999999999999
    vertex 5.9999999999999964 -15.0 6.499999999999999
    vertex 6.765366864730177 -14.847759065022576 6.499999999999999
  endloop
endfacet
facet normal 0.0 0.0 1.0
  outer loop
    vertex 7.9999999999999964 -10.0 6.499999999999999
    vertex 6.765366864730177 -14.847759065022576 6.499999999999999
    vertex 7.414213562373091 -14.414213562373098 6.499999999999999
  endloop
endfacet
facet normal 0.0 0.0 1.0
  outer loop
    vertex 7.9999999999999964 -10.0 6.499999999999999
    vertex 7.414213562373091 -14.414213562373098 6.499999999999999
    vertex 7.84775906502257 -13.765366864730181 6.499999999999999
  endloop
endfacet
facet normal 0.0 0.0 1.0
  outer loop
    vertex 7.9999999999999964 -10.0 6.499999999999999
    vertex 7.84775906502257 -13.765366864730181 6.499999999999999
    vertex 7.9999999999999964 -13.000000000000002 6.499999999999999
  endloop
endfacet
facet normal 0.0 0.0 1.0
  outer loop
    vertex 7.9999999999999964 10.0 6.500000000000001
    vertex -8.000000000000002 13.000000000000002 6.500000000000001
    vertex -8.000000000000002 10.0 6.500000000000001
  endloop
endfacet
facet normal 0.0 0.0 1.0
  outer loop
    vertex -8.000000000000002 13.000000000000002 6.500000000000001
    vertex 7.9999999999999964 10.0 6.500000000000001
    vertex -7.847759065022576 13.765366864730181 6.500000000000001
  endloop
endfacet
facet normal 0.0 0.0 1.0
  outer loop
    vertex -7.847759065022576 13.765366864730181 6.500000000000001
    vertex 7.9999999999999964 10.0 6.500000000000001
    vertex -7.414213562373098 14.414213562373098 6.500000000000001
  endloop
endfacet
facet normal 0.0 0.0 1.0
  outer loop
    vertex -7.414213562373098 14.414213562373098 6.500000000000001
    vertex 7.9999999999999964 10.0 6.500000000000001
    vertex -6.765366864730182 14.847759065022576 6.500000000000001
  endloop
endfacet
facet normal 0.0 0.0 1.0
  outer loop
    vertex -6.765366864730182 14.847759065022576 6.500000000000001
    vertex 7.9999999999999964 10.0 6.500000000000001
    vertex -6.000000000000003 15.0 6.500000000000001
  endloop
endfacet
facet normal 0.0 0.0 1.0
  outer loop
    vertex -6.000000000000003 15.0 6.500000000000001
    vertex 7.9999999999999964 10.0 6.500000000000001
    vertex -6.000000000000003 20.0 6.500000000000001
  endloop
endfacet
facet normal 0.0 0.0 1.0
  outer loop
    vertex -6.000000000000003 20.0 6.500000000000001
    vertex 7.9999999999999964 10.0 6.500000000000001
    vertex 5.9999999999999964 15.0 6.500000000000001
  endloop
endfacet
facet normal 0.0 0.0 1.0
  outer loop
    vertex 5.9999999999999964 15.0 6.500000000000001
    vertex 7.9999999999999964 10.0 6.500000000000001
    vertex 6.765366864730177 14.847759065022576 6.500000000000001
  endloop
endfacet
facet normal 0.0 0.0 1.0
  outer loop
    vertex 6.765366864730177 14.847759065022576 6.500000000000001
    vertex 7.9999999999999964 10.0 6.500000000000001
    vertex 7.414213562373091 14.414213562373098 6.500000000000001
  endloop
endfacet
facet normal 0.0 0.0 1.0
  outer loop
    vertex 7.414213562373091 14.414213562373098 6.500000000000001
    vertex 7.9999999999999964 10.0 6.500000000000001
    vertex 7.84775906502257 13.765366864730181 6.500000000000001
  endloop
endfacet
facet normal 0.0 0.0 1.0
  outer loop
    vertex 7.84775906502257 13.765366864730181 6.500000000000001
    vertex 7.9999999999999964 10.0 6.500000000000001
    vertex 7.9999999999999964 13.000000000000002 6.500000000000001
  endloop
endfacet
facet normal 0.0 0.0 1.0
  outer loop
    vertex -7.847759065022575 21.23463313526982 6.500000000000001
    vertex -7.999999999999999 23.0 6.500000000000001
    vertex -8.0 22.0 6.500000000000001
  endloop
endfacet
facet normal 0.0 0.0 1.0
  outer loop
    vertex -7.999999999999999 23.0 6.500000000000001
    vertex -7.847759065022575 21.23463313526982 6.500000000000001
    vertex -7.847759065022575 23.76536686473018 6.500000000000001
  endloop
endfacet
facet normal 0.0 0.0 1.0
  outer loop
    vertex -7.847759065022575 23.76536686473018 6.500000000000001
    vertex -7.847759065022575 21.23463313526982 6.500000000000001
    vertex -7.414213562373098 20.585786437626908 6.500000000000001
  endloop
endfacet
facet normal 0.0 0.0 1.0
  outer loop
    vertex -7.847759065022575 23.76536686473018 6.500000000000001
    vertex -7.414213562373098 20.585786437626908 6.500000000000001
    vertex -7.414213562373096 24.414213562373096 6.500000000000001
  endloop
endfacet
facet normal 0.0 0.0 1.0
  outer loop
    vertex -7.414213562373096 24.414213562373096 6.500000000000001
    vertex -7.414213562373098 20.585786437626908 6.500000000000001
    vertex -6.765366864730182 20.152240934977428 6.500000000000001
  endloop
endfacet
facet normal 0.0 0.0 1.0
  outer loop
    vertex -7.414213562373096 24.414213562373096 6.500000000000001
    vertex -6.765366864730182 20.152240934977428 6.500000000000001
    vertex -6.765366864730182 24.847759065022572 6.500000000000001
  endloop
endfacet
facet normal 0.0 0.0 1.0
  outer loop
    vertex -6.765366864730182 24.847759065022572 6.500000000000001
    vertex -6.765366864730182 20.152240934977428 6.500000000000001
    vertex -6.000000000000003 20.0 6.500000000000001
  endloop
endfacet
facet normal 0.0 0.0 1.0
  outer loop
    vertex -6.765366864730182 24.847759065022572 6.500000000000001
    vertex -6.000000000000003 20.0 6.500000000000001
    vertex -6.000000000000003 25.0 6.500000000000001
  endloop
endfacet
facet normal 0.0 0.0 1.0
  outer loop
    vertex -6.000000000000003 25.0 6.500000000000001
    vertex -6.000000000000003 20.0 6.500000000000001
    vertex 5.999999999999997 25.0 6.500000000000001
  endloop
endfacet
facet normal 0.0 0.0 1.0
  outer loop
    vertex 5.999999999999997 25.0 6.500000000000001
    vertex -6.000000000000003 20.0 6.500000000000001
    vertex 5.9999999999999964 20.0 6.500000000000001
  endloop
endfacet
facet normal 0.0 0.0 1.0
  outer loop
    vertex 5.9999999999999964 20.0 6.500000000000001
    vertex -6.000000000000003 20.0 6.500000000000001
    vertex 5.9999999999999964 15.0 6.500000000000001
  endloop
endfacet
facet normal 0.0 0.0 1.0
  outer loop
    vertex 5.999999999999997 25.0 6.500000000000001
    vertex 5.9999999999999964 20.0 6.500000000000001
    vertex 6.765366864730177 20.152240934977428 6.500000000000001
  endloop
endfacet
facet normal 0.0 0.0 1.0
  outer loop
    vertex 5.999999999999997 25.0 6.500000000000001
    vertex 6.765366864730177 20.152240934977428 6.500000000000001
    vertex 6.765366864730177 24.847759065022576 6.500000000000001
  endloop
endfacet
facet normal 0.0 0.0 1.0
  outer loop
    vertex 6.765366864730177 24.847759065022576 6.500000000000001
    vertex 6.765366864730177 20.152240934977428 6.500000000000001
    vertex 7.414213562373091 20.585786437626908 6.500000000000001
  endloop
endfacet
facet normal 0.0 0.0 1.0
  outer loop
    vertex 6.765366864730177 24.847759065022576 6.500000000000001
    vertex 7.414213562373091 20.585786437626908 6.500000000000001
    vertex 7.414213562373091 24.414213562373096 6.500000000000001
  endloop
endfacet
facet normal 0.0 0.0 1.0
  outer loop
    vertex 7.414213562373091 24.414213562373096 6.500000000000001
    vertex 7.414213562373091 20.585786437626908 6.500000000000001
    vertex 7.84775906502257 21.23463313526982 6.500000000000001
  endloop
endfacet
facet normal 0.0 0.0 1.0
  outer loop
    vertex 7.414213562373091 24.414213562373096 6.500000000000001
    vertex 7.84775906502257 21.23463313526982 6.500000000000001
    vertex 7.84775906502257 23.76536686473018 6.500000000000001
  endloop
endfacet
facet normal 0.0 0.0 1.0
  outer loop
    vertex 7.84775906502257 23.76536686473018 6.500000000000001
    vertex 7.84775906502257 21.23463313526982 6.500000000000001
    vertex 7.9999999999999964 22.0 6.500000000000001
  endloop
endfacet
facet normal 0.0 0.0 1.0
  outer loop
    vertex 7.84775906502257 23.76536686473018 6.500000000000001
    vertex 7.9999999999999964 22.0 6.500000000000001
    vertex 7.9999999999999964 23.0 6.500000000000001
  endloop
endfacet
facet normal 0.0 0.0 1.0
  outer loop
    vertex 7.9999999999999964 -10.0 4.0
    vertex -8.000000000000002 10.0 4.0
    vertex -8.000000000000002 -10.000000000000002 4.0
  endloop
endfacet
facet normal 0.0 0.0 1.0
  outer loop
    vertex -8.000000000000002 10.0 4.0
    vertex 7.9999999999999964 -10.0 4.0
    vertex 7.9999999999999964 10.0 4.0
  endloop
endfacet
facet normal -0.0 -1.0 -0.0
  outer loop
    vertex 7.9999999999999964 10.0 6.500000000000001
    vertex -8.000000000000002 10.0 4.0
    vertex 7.9999999999999964 10.0 4.0
  endloop
endfacet
facet normal -0.0 -1.0 -0.0
  outer loop
    vertex -8.000000000000002 10.0 4.0
    vertex 7.9999999999999964 10.0 6.500000000000001
    vertex -8.000000000000002 10.0 6.500000000000001
  endloop
endfacet
facet normal -8.812395257962182e-17 1.0 -0.0
  outer loop
    vertex -8.000000000000002 -10.000000000000002 6.499999999999999
    vertex 7.9999999999999964 -10.0 4.0
    vertex -8.000000000000002 -10.000000000000002 4.0
  endloop
endfacet
facet normal -8.812395257962182e-17 1.0 -0.0
  outer loop
    vertex 7.9999999999999964 -10.0 4.0
    vertex -8.000000000000002 -10.000000000000002 6.499999999999999
    vertex 7.9999999999999964 -10.0 6.499999999999999
  endloop
endfacet
endsolid FPV tripod cable retainer
