solid OLED type 2
facet normal -4.406197628981091e-16 -5.871332273130093e-32 1.0
  outer loop
    vertex 13.249999999999998 9.250000000000004 1.9999999999999998
    vertex 9.249999999999998 13.350000000000003 1.999999999999998
    vertex 9.249999999999998 13.250000000000004 1.999999999999998
  endloop
endfacet
facet normal -4.406197628981091e-16 -5.871332273130093e-32 1.0
  outer loop
    vertex 9.249999999999998 13.350000000000003 1.999999999999998
    vertex 13.249999999999998 9.250000000000004 1.9999999999999998
    vertex 13.349999999999998 13.350000000000001 1.9999999999999998
  endloop
endfacet
facet normal -4.406197628981091e-16 -5.871332273130093e-32 1.0
  outer loop
    vertex 13.349999999999998 13.350000000000001 1.9999999999999998
    vertex 13.249999999999998 9.250000000000004 1.9999999999999998
    vertex 13.349999999999998 9.250000000000004 1.9999999999999998
  endloop
endfacet
facet normal 0.0 0.0 -1.0
  outer loop
    vertex -19.8977774788672 2.0264571353075653 0.0
    vertex -19.8977774788672 0.4735428646924383 0.0
    vertex -19.999999999999996 1.2500000000000004 0.0
  endloop
endfacet
facet normal 0.0 0.0 -1.0
  outer loop
    vertex -19.8977774788672 0.4735428646924383 0.0
    vertex -19.8977774788672 2.0264571353075653 0.0
    vertex -19.598076211353312 2.750000000000002 0.0
  endloop
endfacet
facet normal 0.0 0.0 -1.0
  outer loop
    vertex -19.8977774788672 0.4735428646924383 0.0
    vertex -19.598076211353312 2.750000000000002 0.0
    vertex -19.598076211353316 -0.24999999999999936 0.0
  endloop
endfacet
facet normal 0.0 0.0 -1.0
  outer loop
    vertex -19.598076211353316 -0.24999999999999936 0.0
    vertex -19.598076211353312 2.750000000000002 0.0
    vertex -19.12132034355964 -0.8713203435596424 0.0
  endloop
endfacet
facet normal 0.0 0.0 -1.0
  outer loop
    vertex -19.12132034355964 -0.8713203435596424 0.0
    vertex -19.598076211353312 2.750000000000002 0.0
    vertex -19.12132034355964 3.371320343559644 0.0
  endloop
endfacet
facet normal 0.0 0.0 -1.0
  outer loop
    vertex -19.12132034355964 -0.8713203435596424 0.0
    vertex -19.12132034355964 3.371320343559644 0.0
    vertex -18.499999999999993 3.8480762113533182 0.0
  endloop
endfacet
facet normal 0.0 0.0 -1.0
  outer loop
    vertex -19.12132034355964 -0.8713203435596424 0.0
    vertex -18.499999999999993 3.8480762113533182 0.0
    vertex -18.499999999999996 -1.3480762113533151 0.0
  endloop
endfacet
facet normal 0.0 0.0 -1.0
  outer loop
    vertex -18.499999999999996 -1.3480762113533151 0.0
    vertex -18.499999999999993 3.8480762113533182 0.0
    vertex -17.77645713530756 -1.6477774788672044 0.0
  endloop
endfacet
facet normal 0.0 0.0 -1.0
  outer loop
    vertex -17.77645713530756 -1.6477774788672044 0.0
    vertex -18.499999999999993 3.8480762113533182 0.0
    vertex -17.999999999999996 1.2500000000000004 0.0
  endloop
endfacet
facet normal 0.0 0.0 -1.0
  outer loop
    vertex -17.77645713530756 -1.6477774788672044 0.0
    vertex -17.999999999999996 1.2500000000000004 0.0
    vertex -17.965925826289066 0.9911809548974795 0.0
  endloop
endfacet
facet normal 0.0 0.0 -1.0
  outer loop
    vertex -17.77645713530756 -1.6477774788672044 0.0
    vertex -17.965925826289066 0.9911809548974795 0.0
    vertex -17.866025403784437 0.7500000000000001 0.0
  endloop
endfacet
facet normal 0.0 0.0 -1.0
  outer loop
    vertex -17.77645713530756 -1.6477774788672044 0.0
    vertex -17.866025403784437 0.7500000000000001 0.0
    vertex -17.707106781186546 0.5428932188134523 0.0
  endloop
endfacet
facet normal 0.0 0.0 -1.0
  outer loop
    vertex -17.77645713530756 -1.6477774788672044 0.0
    vertex -17.707106781186546 0.5428932188134523 0.0
    vertex -16.999999999999996 -1.7499999999999996 0.0
  endloop
endfacet
facet normal 0.0 0.0 -1.0
  outer loop
    vertex -16.999999999999996 -1.7499999999999996 0.0
    vertex -17.707106781186546 0.5428932188134523 0.0
    vertex -17.5 0.383974596215561 0.0
  endloop
endfacet
facet normal 0.0 0.0 -1.0
  outer loop
    vertex -16.999999999999996 -1.7499999999999996 0.0
    vertex -17.5 0.383974596215561 0.0
    vertex -17.258819045102516 0.2840741737109313 0.0
  endloop
endfacet
facet normal 0.0 0.0 -1.0
  outer loop
    vertex -16.999999999999996 -1.7499999999999996 0.0
    vertex -17.258819045102516 0.2840741737109313 0.0
    vertex -16.999999999999996 0.24999999999999953 0.0
  endloop
endfacet
facet normal 0.0 0.0 -1.0
  outer loop
    vertex -16.999999999999996 -1.7499999999999996 0.0
    vertex -16.999999999999996 0.24999999999999953 0.0
    vertex -16.741180954897477 0.2840741737109313 0.0
  endloop
endfacet
facet normal 0.0 0.0 -1.0
  outer loop
    vertex 13.249999999999998 -9.250000000000004 2.8199664825478975e-15
    vertex 9.250000000000004 -13.350000000000003 7.302901469618243e-20
    vertex 9.250000000000004 -13.250000000000004 0.0
  endloop
endfacet
facet normal 0.0 0.0 -1.0
  outer loop
    vertex -17.0 14.850000000000001 0.0
    vertex -13.349999999999998 9.25000000000001 -1.762479051592436e-15
    vertex -16.999999999999996 4.250000000000001 0.0
  endloop
endfacet
facet normal 0.0 0.0 -1.0
  outer loop
    vertex -13.349999999999998 9.25000000000001 -1.762479051592436e-15
    vertex -17.0 14.850000000000001 0.0
    vertex -9.249999999999993 13.350000000000001 2.4762755742540465e-15
  endloop
endfacet
facet normal 0.0 0.0 -1.0
  outer loop
    vertex -9.249999999999993 13.350000000000001 2.4762755742540465e-15
    vertex -17.0 14.850000000000001 0.0
    vertex 17.0 14.850000000000001 0.0
  endloop
endfacet
facet normal 0.0 0.0 -1.0
  outer loop
    vertex -16.999999999999996 4.250000000000001 0.0
    vertex -13.349999999999998 9.25000000000001 -1.762479051592436e-15
    vertex -16.999999999999996 2.2500000000000013 0.0
  endloop
endfacet
facet normal 0.0 0.0 -1.0
  outer loop
    vertex -16.999999999999996 2.2500000000000013 0.0
    vertex -13.349999999999998 9.25000000000001 -1.762479051592436e-15
    vertex -16.741180954897473 2.21592582628907 0.0
  endloop
endfacet
facet normal 0.0 0.0 -1.0
  outer loop
    vertex -16.741180954897473 2.21592582628907 0.0
    vertex -13.349999999999998 9.25000000000001 -1.762479051592436e-15
    vertex -16.499999999999996 2.1160254037844397 0.0
  endloop
endfacet
facet normal 0.0 0.0 -1.0
  outer loop
    vertex -16.499999999999996 2.1160254037844397 0.0
    vertex -13.349999999999998 9.25000000000001 -1.762479051592436e-15
    vertex -16.292893218813447 1.9571067811865483 0.0
  endloop
endfacet
facet normal 0.0 0.0 -1.0
  outer loop
    vertex -16.292893218813447 1.9571067811865483 0.0
    vertex -13.349999999999998 9.25000000000001 -1.762479051592436e-15
    vertex -16.13397459621556 1.7500000000000007 0.0
  endloop
endfacet
facet normal 0.0 0.0 -1.0
  outer loop
    vertex -16.13397459621556 1.7500000000000007 0.0
    vertex -13.349999999999998 9.25000000000001 -1.762479051592436e-15
    vertex -16.034074173710927 1.5088190451025212 0.0
  endloop
endfacet
facet normal 0.0 0.0 -1.0
  outer loop
    vertex -16.034074173710927 1.5088190451025212 0.0
    vertex -13.349999999999998 9.25000000000001 -1.762479051592436e-15
    vertex -15.999999999999996 1.2500000000000004 0.0
  endloop
endfacet
facet normal 0.0 0.0 -1.0
  outer loop
    vertex -13.349999999999998 9.25000000000001 -1.762479051592436e-15
    vertex -9.249999999999993 13.350000000000001 2.4762755742540465e-15
    vertex -13.249999999999998 9.25000000000001 -1.762479051592436e-15
  endloop
endfacet
facet normal 0.0 0.0 -1.0
  outer loop
    vertex -9.249999999999993 13.350000000000001 2.4762755742540465e-15
    vertex 17.0 14.850000000000001 0.0
    vertex 9.249999999999998 13.350000000000003 7.137965226616109e-16
  endloop
endfacet
facet normal 0.0 0.0 -1.0
  outer loop
    vertex 9.249999999999998 13.350000000000003 7.137965226616109e-16
    vertex 17.0 14.850000000000001 0.0
    vertex 9.249999999999998 13.250000000000004 7.049916206369744e-16
  endloop
endfacet
facet normal 0.0 0.0 -1.0
  outer loop
    vertex 9.249999999999998 13.250000000000004 7.049916206369744e-16
    vertex 17.0 14.850000000000001 0.0
    vertex 13.249999999999998 9.250000000000004 2.46747067222941e-15
  endloop
endfacet
facet normal 0.0 0.0 -1.0
  outer loop
    vertex 13.249999999999998 9.250000000000004 2.46747067222941e-15
    vertex 17.0 14.850000000000001 0.0
    vertex 13.349999999999998 9.250000000000004 2.4567882413079493e-15
  endloop
endfacet
facet normal 0.0 0.0 -1.0
  outer loop
    vertex 13.349999999999998 9.250000000000004 2.4567882413079493e-15
    vertex 17.0 14.850000000000001 0.0
    vertex 13.349999999999998 -9.250000000000004 2.8092840516264366e-15
  endloop
endfacet
facet normal 0.0 0.0 -1.0
  outer loop
    vertex 13.349999999999998 -9.250000000000004 2.8092840516264366e-15
    vertex 17.0 14.850000000000001 0.0
    vertex 15.999999999999998 1.2500000000000007 0.0
  endloop
endfacet
facet normal 0.0 0.0 -1.0
  outer loop
    vertex 15.999999999999998 1.2500000000000007 0.0
    vertex 17.0 14.850000000000001 0.0
    vertex 16.03407417371093 1.5088190451025218 0.0
  endloop
endfacet
facet normal 0.0 0.0 -1.0
  outer loop
    vertex 16.03407417371093 1.5088190451025218 0.0
    vertex 17.0 14.850000000000001 0.0
    vertex 16.13397459621556 1.7500000000000013 0.0
  endloop
endfacet
facet normal 0.0 0.0 -1.0
  outer loop
    vertex 16.13397459621556 1.7500000000000013 0.0
    vertex 17.0 14.850000000000001 0.0
    vertex 16.29289321881345 1.9571067811865488 0.0
  endloop
endfacet
facet normal 0.0 0.0 -1.0
  outer loop
    vertex 16.29289321881345 1.9571067811865488 0.0
    vertex 17.0 14.850000000000001 0.0
    vertex 16.5 2.11602540378444 0.0
  endloop
endfacet
facet normal 0.0 0.0 -1.0
  outer loop
    vertex 16.5 2.11602540378444 0.0
    vertex 17.0 14.850000000000001 0.0
    vertex 16.74118095489748 2.21592582628907 0.0
  endloop
endfacet
facet normal 0.0 0.0 -1.0
  outer loop
    vertex 16.74118095489748 2.21592582628907 0.0
    vertex 17.0 14.850000000000001 0.0
    vertex 17.0 2.2500000000000013 0.0
  endloop
endfacet
facet normal 0.0 0.0 -1.0
  outer loop
    vertex 17.0 2.2500000000000013 0.0
    vertex 17.0 14.850000000000001 0.0
    vertex 17.0 4.250000000000001 0.0
  endloop
endfacet
facet normal 0.0 0.0 -1.0
  outer loop
    vertex 17.0 2.2500000000000013 0.0
    vertex 17.0 4.250000000000001 0.0
    vertex 17.776457135307563 4.147777478867205 0.0
  endloop
endfacet
facet normal 0.0 0.0 -1.0
  outer loop
    vertex 17.0 2.2500000000000013 0.0
    vertex 17.776457135307563 4.147777478867205 0.0
    vertex 17.25881904510252 2.21592582628907 0.0
  endloop
endfacet
facet normal 0.0 0.0 -1.0
  outer loop
    vertex 17.25881904510252 2.21592582628907 0.0
    vertex 17.776457135307563 4.147777478867205 0.0
    vertex 17.5 2.11602540378444 0.0
  endloop
endfacet
facet normal 0.0 0.0 -1.0
  outer loop
    vertex 17.5 2.11602540378444 0.0
    vertex 17.776457135307563 4.147777478867205 0.0
    vertex 17.70710678118655 1.9571067811865488 0.0
  endloop
endfacet
facet normal 0.0 0.0 -1.0
  outer loop
    vertex 17.70710678118655 1.9571067811865488 0.0
    vertex 17.776457135307563 4.147777478867205 0.0
    vertex 17.866025403784437 1.750000000000001 0.0
  endloop
endfacet
facet normal 0.0 0.0 -1.0
  outer loop
    vertex 17.866025403784437 1.750000000000001 0.0
    vertex 17.776457135307563 4.147777478867205 0.0
    vertex 18.5 3.8480762113533165 0.0
  endloop
endfacet
facet normal 0.0 0.0 -1.0
  outer loop
    vertex 17.866025403784437 1.750000000000001 0.0
    vertex 18.5 3.8480762113533165 0.0
    vertex 17.96592582628907 1.5088190451025216 0.0
  endloop
endfacet
facet normal 0.0 0.0 -1.0
  outer loop
    vertex 17.96592582628907 1.5088190451025216 0.0
    vertex 18.5 3.8480762113533165 0.0
    vertex 18.0 1.2500000000000004 0.0
  endloop
endfacet
facet normal 0.0 0.0 -1.0
  outer loop
    vertex 18.0 1.2500000000000004 0.0
    vertex 18.5 3.8480762113533165 0.0
    vertex 18.499999999999996 -1.3480762113533167 0.0
  endloop
endfacet
facet normal 0.0 0.0 -1.0
  outer loop
    vertex 18.499999999999996 -1.3480762113533167 0.0
    vertex 18.5 3.8480762113533165 0.0
    vertex 19.121320343559642 -0.8713203435596427 0.0
  endloop
endfacet
facet normal 0.0 0.0 -1.0
  outer loop
    vertex 19.121320343559642 -0.8713203435596427 0.0
    vertex 18.5 3.8480762113533165 0.0
    vertex 19.121320343559642 3.3713203435596433 0.0
  endloop
endfacet
facet normal 0.0 0.0 -1.0
  outer loop
    vertex 19.121320343559642 -0.8713203435596427 0.0
    vertex 19.121320343559642 3.3713203435596433 0.0
    vertex 19.598076211353316 2.7500000000000004 0.0
  endloop
endfacet
facet normal 0.0 0.0 -1.0
  outer loop
    vertex 19.121320343559642 -0.8713203435596427 0.0
    vertex 19.598076211353316 2.7500000000000004 0.0
    vertex 19.598076211353316 -0.25000000000000094 0.0
  endloop
endfacet
facet normal 0.0 0.0 -1.0
  outer loop
    vertex 19.598076211353316 -0.25000000000000094 0.0
    vertex 19.598076211353316 2.7500000000000004 0.0
    vertex 19.897777478867205 2.0264571353075627 0.0
  endloop
endfacet
facet normal 0.0 0.0 -1.0
  outer loop
    vertex 19.598076211353316 -0.25000000000000094 0.0
    vertex 19.897777478867205 2.0264571353075627 0.0
    vertex 19.897777478867205 0.4735428646924357 0.0
  endloop
endfacet
facet normal 0.0 0.0 -1.0
  outer loop
    vertex 19.897777478867205 0.4735428646924357 0.0
    vertex 19.897777478867205 2.0264571353075627 0.0
    vertex 20.0 1.2500000000000004 0.0
  endloop
endfacet
facet normal 0.0 0.0 -1.0
  outer loop
    vertex 17.25881904510252 0.28407417371093113 0.0
    vertex 17.0 -1.7499999999999996 0.0
    vertex 17.0 0.24999999999999953 0.0
  endloop
endfacet
facet normal 0.0 0.0 -1.0
  outer loop
    vertex 17.0 -1.7499999999999996 0.0
    vertex 17.25881904510252 0.28407417371093113 0.0
    vertex 17.77645713530756 -1.6477774788672046 0.0
  endloop
endfacet
facet normal 0.0 0.0 -1.0
  outer loop
    vertex 17.77645713530756 -1.6477774788672046 0.0
    vertex 17.25881904510252 0.28407417371093113 0.0
    vertex 17.5 0.3839745962155607 0.0
  endloop
endfacet
facet normal 0.0 0.0 -1.0
  outer loop
    vertex 17.77645713530756 -1.6477774788672046 0.0
    vertex 17.5 0.3839745962155607 0.0
    vertex 17.70710678118655 0.5428932188134521 0.0
  endloop
endfacet
facet normal 0.0 0.0 -1.0
  outer loop
    vertex 17.77645713530756 -1.6477774788672046 0.0
    vertex 17.70710678118655 0.5428932188134521 0.0
    vertex 17.866025403784437 0.7499999999999996 0.0
  endloop
endfacet
facet normal 0.0 0.0 -1.0
  outer loop
    vertex 17.77645713530756 -1.6477774788672046 0.0
    vertex 17.866025403784437 0.7499999999999996 0.0
    vertex 18.499999999999996 -1.3480762113533167 0.0
  endloop
endfacet
facet normal 0.0 0.0 -1.0
  outer loop
    vertex 18.499999999999996 -1.3480762113533167 0.0
    vertex 17.866025403784437 0.7499999999999996 0.0
    vertex 17.96592582628907 0.9911809548974786 0.0
  endloop
endfacet
facet normal 0.0 0.0 -1.0
  outer loop
    vertex 18.499999999999996 -1.3480762113533167 0.0
    vertex 17.96592582628907 0.9911809548974786 0.0
    vertex 18.0 1.2500000000000004 0.0
  endloop
endfacet
facet normal 0.0 0.0 -1.0
  outer loop
    vertex -17.0 -14.850000000000007 0.0
    vertex -9.24999999999999 -13.350000000000007 7.302901469618243e-20
    vertex 17.0 -14.850000000000003 0.0
  endloop
endfacet
facet normal 0.0 0.0 -1.0
  outer loop
    vertex -9.24999999999999 -13.350000000000007 7.302901469618243e-20
    vertex -17.0 -14.850000000000007 0.0
    vertex -13.349999999999998 -9.249999999999996 0.0
  endloop
endfacet
facet normal 0.0 0.0 -1.0
  outer loop
    vertex -13.349999999999998 -9.249999999999996 0.0
    vertex -17.0 -14.850000000000007 0.0
    vertex -16.999999999999996 -1.7499999999999996 0.0
  endloop
endfacet
facet normal 0.0 0.0 -1.0
  outer loop
    vertex -13.349999999999998 -9.249999999999996 0.0
    vertex -16.999999999999996 -1.7499999999999996 0.0
    vertex -16.741180954897477 0.2840741737109313 0.0
  endloop
endfacet
facet normal 0.0 0.0 -1.0
  outer loop
    vertex -13.349999999999998 -9.249999999999996 0.0
    vertex -16.741180954897477 0.2840741737109313 0.0
    vertex -16.499999999999996 0.383974596215561 0.0
  endloop
endfacet
facet normal 0.0 0.0 -1.0
  outer loop
    vertex -13.349999999999998 -9.249999999999996 0.0
    vertex -16.499999999999996 0.383974596215561 0.0
    vertex -16.292893218813447 0.5428932188134523 0.0
  endloop
endfacet
facet normal 0.0 0.0 -1.0
  outer loop
    vertex -13.349999999999998 -9.249999999999996 0.0
    vertex -16.292893218813447 0.5428932188134523 0.0
    vertex -16.13397459621556 0.7499999999999997 0.0
  endloop
endfacet
facet normal 0.0 0.0 -1.0
  outer loop
    vertex -13.349999999999998 -9.249999999999996 0.0
    vertex -16.13397459621556 0.7499999999999997 0.0
    vertex -16.034074173710927 0.9911809548974791 0.0
  endloop
endfacet
facet normal 0.0 0.0 -1.0
  outer loop
    vertex -13.349999999999998 -9.249999999999996 0.0
    vertex -16.034074173710927 0.9911809548974791 0.0
    vertex -15.999999999999996 1.2500000000000004 0.0
  endloop
endfacet
facet normal 0.0 0.0 -1.0
  outer loop
    vertex -13.349999999999998 -9.249999999999996 0.0
    vertex -15.999999999999996 1.2500000000000004 0.0
    vertex -13.349999999999998 9.25000000000001 -1.762479051592436e-15
  endloop
endfacet
facet normal 0.0 0.0 -1.0
  outer loop
    vertex -9.24999999999999 -13.350000000000007 7.302901469618243e-20
    vertex -13.349999999999998 -9.249999999999996 0.0
    vertex -13.249999999999998 -9.249999999999996 0.0
  endloop
endfacet
facet normal 0.0 0.0 -1.0
  outer loop
    vertex -9.24999999999999 -13.350000000000007 7.302901469618243e-20
    vertex -13.249999999999998 -9.249999999999996 0.0
    vertex -9.24999999999999 -13.250000000000007 0.0
  endloop
endfacet
facet normal 0.0 0.0 -1.0
  outer loop
    vertex 17.0 -14.850000000000003 0.0
    vertex -9.24999999999999 -13.350000000000007 7.302901469618243e-20
    vertex 9.250000000000004 -13.350000000000003 7.302901469618243e-20
  endloop
endfacet
facet normal 0.0 0.0 -1.0
  outer loop
    vertex 17.0 -14.850000000000003 0.0
    vertex 9.250000000000004 -13.350000000000003 7.302901469618243e-20
    vertex 13.249999999999998 -9.250000000000004 2.8199664825478975e-15
  endloop
endfacet
facet normal 0.0 0.0 -1.0
  outer loop
    vertex 17.0 -14.850000000000003 0.0
    vertex 13.249999999999998 -9.250000000000004 2.8199664825478975e-15
    vertex 13.349999999999998 -9.250000000000004 2.8092840516264366e-15
  endloop
endfacet
facet normal 0.0 0.0 -1.0
  outer loop
    vertex 17.0 -14.850000000000003 0.0
    vertex 13.349999999999998 -9.250000000000004 2.8092840516264366e-15
    vertex 15.999999999999998 1.2500000000000007 0.0
  endloop
endfacet
facet normal 0.0 0.0 -1.0
  outer loop
    vertex 17.0 -14.850000000000003 0.0
    vertex 15.999999999999998 1.2500000000000007 0.0
    vertex 16.03407417371093 0.9911809548974799 0.0
  endloop
endfacet
facet normal 0.0 0.0 -1.0
  outer loop
    vertex 17.0 -14.850000000000003 0.0
    vertex 16.03407417371093 0.9911809548974799 0.0
    vertex 16.13397459621556 0.7500000000000003 0.0
  endloop
endfacet
facet normal 0.0 0.0 -1.0
  outer loop
    vertex 17.0 -14.850000000000003 0.0
    vertex 16.13397459621556 0.7500000000000003 0.0
    vertex 16.29289321881345 0.5428932188134528 0.0
  endloop
endfacet
facet normal 0.0 0.0 -1.0
  outer loop
    vertex 17.0 -14.850000000000003 0.0
    vertex 16.29289321881345 0.5428932188134528 0.0
    vertex 16.499999999999996 0.3839745962155612 0.0
  endloop
endfacet
facet normal 0.0 0.0 -1.0
  outer loop
    vertex 17.0 -14.850000000000003 0.0
    vertex 16.499999999999996 0.3839745962155612 0.0
    vertex 16.741180954897477 0.28407417371093147 0.0
  endloop
endfacet
facet normal 0.0 0.0 -1.0
  outer loop
    vertex 17.0 -14.850000000000003 0.0
    vertex 16.741180954897477 0.28407417371093147 0.0
    vertex 17.0 0.24999999999999953 0.0
  endloop
endfacet
facet normal 0.0 0.0 -1.0
  outer loop
    vertex 17.0 -14.850000000000003 0.0
    vertex 17.0 0.24999999999999953 0.0
    vertex 17.0 -1.7499999999999996 0.0
  endloop
endfacet
facet normal 0.0 0.0 -1.0
  outer loop
    vertex -9.249999999999993 13.250000000000002 2.46747067222941e-15
    vertex -13.249999999999998 9.25000000000001 -1.762479051592436e-15
    vertex -9.249999999999993 13.350000000000001 2.4762755742540465e-15
  endloop
endfacet
facet normal 0.0 0.0 -1.0
  outer loop
    vertex -17.776457135307556 4.147777478867205 0.0
    vertex -17.999999999999996 1.2500000000000004 0.0
    vertex -18.499999999999993 3.8480762113533182 0.0
  endloop
endfacet
facet normal 0.0 0.0 -1.0
  outer loop
    vertex -17.999999999999996 1.2500000000000004 0.0
    vertex -17.776457135307556 4.147777478867205 0.0
    vertex -17.965925826289066 1.5088190451025225 0.0
  endloop
endfacet
facet normal 0.0 0.0 -1.0
  outer loop
    vertex -17.965925826289066 1.5088190451025225 0.0
    vertex -17.776457135307556 4.147777478867205 0.0
    vertex -17.866025403784437 1.7500000000000013 0.0
  endloop
endfacet
facet normal 0.0 0.0 -1.0
  outer loop
    vertex -17.866025403784437 1.7500000000000013 0.0
    vertex -17.776457135307556 4.147777478867205 0.0
    vertex -17.707106781186546 1.957106781186549 0.0
  endloop
endfacet
facet normal 0.0 0.0 -1.0
  outer loop
    vertex -17.707106781186546 1.957106781186549 0.0
    vertex -17.776457135307556 4.147777478867205 0.0
    vertex -16.999999999999996 4.250000000000001 0.0
  endloop
endfacet
facet normal 0.0 0.0 -1.0
  outer loop
    vertex -17.707106781186546 1.957106781186549 0.0
    vertex -16.999999999999996 4.250000000000001 0.0
    vertex -17.499999999999996 2.1160254037844406 0.0
  endloop
endfacet
facet normal 0.0 0.0 -1.0
  outer loop
    vertex -17.499999999999996 2.1160254037844406 0.0
    vertex -16.999999999999996 4.250000000000001 0.0
    vertex -17.258819045102516 2.21592582628907 0.0
  endloop
endfacet
facet normal 0.0 0.0 -1.0
  outer loop
    vertex -17.258819045102516 2.21592582628907 0.0
    vertex -16.999999999999996 4.250000000000001 0.0
    vertex -16.999999999999996 2.2500000000000013 0.0
  endloop
endfacet
facet normal 0.13052619222005168 -0.9914448613738104 0.0
  outer loop
    vertex 17.77645713530756 -1.6477774788672046 5.5
    vertex 17.0 -1.7499999999999996 0.0
    vertex 17.77645713530756 -1.6477774788672046 0.0
  endloop
endfacet
facet normal 0.13052619222005168 -0.9914448613738104 0.0
  outer loop
    vertex 17.0 -1.7499999999999996 0.0
    vertex 17.77645713530756 -1.6477774788672046 5.5
    vertex 17.0 -1.7499999999999996 5.5
  endloop
endfacet
facet normal 1.0 0.0 0.0
  outer loop
    vertex 17.0 -1.7499999999999996 0.0
    vertex 17.0 -14.850000000000003 5.5
    vertex 17.0 -14.850000000000003 0.0
  endloop
endfacet
facet normal 1.0 0.0 0.0
  outer loop
    vertex 17.0 -14.850000000000003 5.5
    vertex 17.0 -1.7499999999999996 0.0
    vertex 17.0 -1.7499999999999996 5.5
  endloop
endfacet
facet normal 8.294019066317346e-17 -1.0 0.0
  outer loop
    vertex 17.0 -14.850000000000003 5.5
    vertex -17.0 -14.850000000000007 0.0
    vertex 17.0 -14.850000000000003 0.0
  endloop
endfacet
facet normal 8.294019066317346e-17 -1.0 0.0
  outer loop
    vertex -17.0 -14.850000000000007 0.0
    vertex 17.0 -14.850000000000003 5.5
    vertex -17.0 -14.850000000000007 5.5
  endloop
endfacet
facet normal -1.0 2.0888640611465896e-16 0.0
  outer loop
    vertex -16.999999999999996 -1.7499999999999996 5.5
    vertex -17.0 -14.850000000000007 0.0
    vertex -17.0 -14.850000000000007 5.5
  endloop
endfacet
facet normal -1.0 2.0888640611465896e-16 0.0
  outer loop
    vertex -17.0 -14.850000000000007 0.0
    vertex -16.999999999999996 -1.7499999999999996 5.5
    vertex -16.999999999999996 -1.7499999999999996 0.0
  endloop
endfacet
facet normal -0.13052619222005168 -0.9914448613738105 -0.0
  outer loop
    vertex -16.999999999999996 -1.7499999999999996 5.5
    vertex -17.77645713530756 -1.6477774788672044 0.0
    vertex -16.999999999999996 -1.7499999999999996 0.0
  endloop
endfacet
facet normal -0.13052619222005168 -0.9914448613738105 -0.0
  outer loop
    vertex -17.77645713530756 -1.6477774788672044 0.0
    vertex -16.999999999999996 -1.7499999999999996 5.5
    vertex -17.77645713530756 -1.6477774788672044 5.5
  endloop
endfacet
facet normal -0.3826834323650902 -0.9238795325112867 -0.0
  outer loop
    vertex -17.77645713530756 -1.6477774788672044 5.5
    vertex -18.499999999999996 -1.3480762113533151 0.0
    vertex -17.77645713530756 -1.6477774788672044 0.0
  endloop
endfacet
facet normal -0.3826834323650902 -0.9238795325112867 -0.0
  outer loop
    vertex -18.499999999999996 -1.3480762113533151 0.0
    vertex -17.77645713530756 -1.6477774788672044 5.5
    vertex -18.499999999999996 -1.3480762113533151 5.5
  endloop
endfacet
facet normal -0.6087614290087204 -0.7933533402912353 -0.0
  outer loop
    vertex -18.499999999999996 -1.3480762113533151 5.5
    vertex -19.12132034355964 -0.8713203435596424 0.0
    vertex -18.499999999999996 -1.3480762113533151 0.0
  endloop
endfacet
facet normal -0.6087614290087204 -0.7933533402912353 -0.0
  outer loop
    vertex -19.12132034355964 -0.8713203435596424 0.0
    vertex -18.499999999999996 -1.3480762113533151 5.5
    vertex -19.12132034355964 -0.8713203435596424 5.5
  endloop
endfacet
facet normal -0.7933533402912342 -0.6087614290087219 -0.0
  outer loop
    vertex -19.598076211353316 -0.24999999999999936 5.5
    vertex -19.12132034355964 -0.8713203435596424 0.0
    vertex -19.12132034355964 -0.8713203435596424 5.5
  endloop
endfacet
facet normal -0.7933533402912342 -0.6087614290087219 -0.0
  outer loop
    vertex -19.12132034355964 -0.8713203435596424 0.0
    vertex -19.598076211353316 -0.24999999999999936 5.5
    vertex -19.598076211353316 -0.24999999999999936 0.0
  endloop
endfacet
facet normal -0.9238795325112875 -0.3826834323650881 -0.0
  outer loop
    vertex -19.8977774788672 0.4735428646924383 5.5
    vertex -19.598076211353316 -0.24999999999999936 0.0
    vertex -19.598076211353316 -0.24999999999999936 5.5
  endloop
endfacet
facet normal -0.9238795325112875 -0.3826834323650881 -0.0
  outer loop
    vertex -19.598076211353316 -0.24999999999999936 0.0
    vertex -19.8977774788672 0.4735428646924383 5.5
    vertex -19.8977774788672 0.4735428646924383 0.0
  endloop
endfacet
facet normal -0.9914448613738104 -0.13052619222005174 -0.0
  outer loop
    vertex -19.999999999999996 1.2500000000000004 5.5
    vertex -19.8977774788672 0.4735428646924383 0.0
    vertex -19.8977774788672 0.4735428646924383 5.5
  endloop
endfacet
facet normal -0.9914448613738104 -0.13052619222005174 -0.0
  outer loop
    vertex -19.8977774788672 0.4735428646924383 0.0
    vertex -19.999999999999996 1.2500000000000004 5.5
    vertex -19.999999999999996 1.2500000000000004 0.0
  endloop
endfacet
facet normal -0.9914448613738104 0.13052619222005132 0.0
  outer loop
    vertex -19.8977774788672 2.0264571353075653 5.5
    vertex -19.999999999999996 1.2500000000000004 0.0
    vertex -19.999999999999996 1.2500000000000004 5.5
  endloop
endfacet
facet normal -0.9914448613738104 0.13052619222005132 0.0
  outer loop
    vertex -19.999999999999996 1.2500000000000004 0.0
    vertex -19.8977774788672 2.0264571353075653 5.5
    vertex -19.8977774788672 2.0264571353075653 0.0
  endloop
endfacet
facet normal -0.9238795325112861 0.38268343236509167 0.0
  outer loop
    vertex -19.598076211353312 2.750000000000002 5.5
    vertex -19.8977774788672 2.0264571353075653 0.0
    vertex -19.8977774788672 2.0264571353075653 5.5
  endloop
endfacet
facet normal -0.9238795325112861 0.38268343236509167 0.0
  outer loop
    vertex -19.8977774788672 2.0264571353075653 0.0
    vertex -19.598076211353312 2.750000000000002 5.5
    vertex -19.598076211353312 2.750000000000002 0.0
  endloop
endfacet
facet normal -0.7933533402912355 0.6087614290087202 0.0
  outer loop
    vertex -19.12132034355964 3.371320343559644 5.5
    vertex -19.598076211353312 2.750000000000002 0.0
    vertex -19.598076211353312 2.750000000000002 5.5
  endloop
endfacet
facet normal -0.7933533402912355 0.6087614290087202 0.0
  outer loop
    vertex -19.598076211353312 2.750000000000002 0.0
    vertex -19.12132034355964 3.371320343559644 5.5
    vertex -19.12132034355964 3.371320343559644 0.0
  endloop
endfacet
facet normal -0.6087614290087197 0.7933533402912362 0.0
  outer loop
    vertex -19.12132034355964 3.371320343559644 5.5
    vertex -18.499999999999993 3.8480762113533182 0.0
    vertex -19.12132034355964 3.371320343559644 0.0
  endloop
endfacet
facet normal -0.6087614290087197 0.7933533402912362 0.0
  outer loop
    vertex -18.499999999999993 3.8480762113533182 0.0
    vertex -19.12132034355964 3.371320343559644 5.5
    vertex -18.499999999999993 3.8480762113533182 5.5
  endloop
endfacet
facet normal -0.3826834323650882 0.9238795325112874 0.0
  outer loop
    vertex -18.499999999999993 3.8480762113533182 5.5
    vertex -17.776457135307556 4.147777478867205 0.0
    vertex -18.499999999999993 3.8480762113533182 0.0
  endloop
endfacet
facet normal -0.3826834323650882 0.9238795325112874 0.0
  outer loop
    vertex -17.776457135307556 4.147777478867205 0.0
    vertex -18.499999999999993 3.8480762113533182 5.5
    vertex -17.776457135307556 4.147777478867205 5.5
  endloop
endfacet
facet normal -0.13052619222005216 0.9914448613738104 0.0
  outer loop
    vertex -17.776457135307556 4.147777478867205 5.5
    vertex -16.999999999999996 4.250000000000001 0.0
    vertex -17.776457135307556 4.147777478867205 0.0
  endloop
endfacet
facet normal -0.13052619222005216 0.9914448613738104 0.0
  outer loop
    vertex -16.999999999999996 4.250000000000001 0.0
    vertex -17.776457135307556 4.147777478867205 5.5
    vertex -16.999999999999996 4.250000000000001 5.5
  endloop
endfacet
facet normal -1.0 -2.5636058932253615e-16 -0.0
  outer loop
    vertex -17.0 14.850000000000001 5.5
    vertex -16.999999999999996 4.250000000000001 0.0
    vertex -16.999999999999996 4.250000000000001 5.5
  endloop
endfacet
facet normal -1.0 -2.5636058932253615e-16 -0.0
  outer loop
    vertex -16.999999999999996 4.250000000000001 0.0
    vertex -17.0 14.850000000000001 5.5
    vertex -17.0 14.850000000000001 0.0
  endloop
endfacet
facet normal 0.0 1.0 0.0
  outer loop
    vertex -17.0 14.850000000000001 5.5
    vertex 17.0 14.850000000000001 0.0
    vertex -17.0 14.850000000000001 0.0
  endloop
endfacet
facet normal 0.0 1.0 0.0
  outer loop
    vertex 17.0 14.850000000000001 0.0
    vertex -17.0 14.850000000000001 5.5
    vertex 17.0 14.850000000000001 5.5
  endloop
endfacet
facet normal 1.0 0.0 0.0
  outer loop
    vertex 17.0 14.850000000000001 0.0
    vertex 17.0 4.250000000000001 5.5
    vertex 17.0 4.250000000000001 0.0
  endloop
endfacet
facet normal 1.0 0.0 0.0
  outer loop
    vertex 17.0 4.250000000000001 5.5
    vertex 17.0 14.850000000000001 0.0
    vertex 17.0 14.850000000000001 5.5
  endloop
endfacet
facet normal 0.13052619222005168 0.9914448613738105 0.0
  outer loop
    vertex 17.0 4.250000000000001 5.5
    vertex 17.776457135307563 4.147777478867205 0.0
    vertex 17.0 4.250000000000001 0.0
  endloop
endfacet
facet normal 0.13052619222005168 0.9914448613738105 0.0
  outer loop
    vertex 17.776457135307563 4.147777478867205 0.0
    vertex 17.0 4.250000000000001 5.5
    vertex 17.776457135307563 4.147777478867205 5.5
  endloop
endfacet
facet normal 0.3826834323650898 0.9238795325112867 0.0
  outer loop
    vertex 17.776457135307563 4.147777478867205 5.5
    vertex 18.5 3.8480762113533165 0.0
    vertex 17.776457135307563 4.147777478867205 0.0
  endloop
endfacet
facet normal 0.3826834323650898 0.9238795325112867 0.0
  outer loop
    vertex 18.5 3.8480762113533165 0.0
    vertex 17.776457135307563 4.147777478867205 5.5
    vertex 18.5 3.8480762113533165 5.5
  endloop
endfacet
facet normal 0.6087614290087208 0.7933533402912352 0.0
  outer loop
    vertex 18.5 3.8480762113533165 5.5
    vertex 19.121320343559642 3.3713203435596433 0.0
    vertex 18.5 3.8480762113533165 0.0
  endloop
endfacet
facet normal 0.6087614290087208 0.7933533402912352 0.0
  outer loop
    vertex 19.121320343559642 3.3713203435596433 0.0
    vertex 18.5 3.8480762113533165 5.5
    vertex 19.121320343559642 3.3713203435596433 5.5
  endloop
endfacet
facet normal 0.7933533402912358 0.6087614290087198 0.0
  outer loop
    vertex 19.121320343559642 3.3713203435596433 0.0
    vertex 19.598076211353316 2.7500000000000004 5.5
    vertex 19.598076211353316 2.7500000000000004 0.0
  endloop
endfacet
facet normal 0.7933533402912358 0.6087614290087198 0.0
  outer loop
    vertex 19.598076211353316 2.7500000000000004 5.5
    vertex 19.121320343559642 3.3713203435596433 0.0
    vertex 19.121320343559642 3.3713203435596433 5.5
  endloop
endfacet
facet normal 0.9238795325112862 0.38268343236509117 0.0
  outer loop
    vertex 19.598076211353316 2.7500000000000004 0.0
    vertex 19.897777478867205 2.0264571353075627 5.5
    vertex 19.897777478867205 2.0264571353075627 0.0
  endloop
endfacet
facet normal 0.9238795325112862 0.38268343236509117 0.0
  outer loop
    vertex 19.897777478867205 2.0264571353075627 5.5
    vertex 19.598076211353316 2.7500000000000004 0.0
    vertex 19.598076211353316 2.7500000000000004 5.5
  endloop
endfacet
facet normal 0.9914448613738105 0.13052619222005174 0.0
  outer loop
    vertex 19.897777478867205 2.0264571353075627 0.0
    vertex 20.0 1.2500000000000004 5.5
    vertex 20.0 1.2500000000000004 0.0
  endloop
endfacet
facet normal 0.9914448613738105 0.13052619222005174 0.0
  outer loop
    vertex 20.0 1.2500000000000004 5.5
    vertex 19.897777478867205 2.0264571353075627 0.0
    vertex 19.897777478867205 2.0264571353075627 5.5
  endloop
endfacet
facet normal 0.9914448613738104 -0.13052619222005132 0.0
  outer loop
    vertex 20.0 1.2500000000000004 0.0
    vertex 19.897777478867205 0.4735428646924357 5.5
    vertex 19.897777478867205 0.4735428646924357 0.0
  endloop
endfacet
facet normal 0.9914448613738104 -0.13052619222005132 0.0
  outer loop
    vertex 19.897777478867205 0.4735428646924357 5.5
    vertex 20.0 1.2500000000000004 0.0
    vertex 20.0 1.2500000000000004 5.5
  endloop
endfacet
facet normal 0.9238795325112861 -0.38268343236509167 0.0
  outer loop
    vertex 19.897777478867205 0.4735428646924357 0.0
    vertex 19.598076211353316 -0.25000000000000094 5.5
    vertex 19.598076211353316 -0.25000000000000094 0.0
  endloop
endfacet
facet normal 0.9238795325112861 -0.38268343236509167 0.0
  outer loop
    vertex 19.598076211353316 -0.25000000000000094 5.5
    vertex 19.897777478867205 0.4735428646924357 0.0
    vertex 19.897777478867205 0.4735428646924357 5.5
  endloop
endfacet
facet normal 0.7933533402912354 -0.6087614290087204 0.0
  outer loop
    vertex 19.598076211353316 -0.25000000000000094 0.0
    vertex 19.121320343559642 -0.8713203435596427 5.5
    vertex 19.121320343559642 -0.8713203435596427 0.0
  endloop
endfacet
facet normal 0.7933533402912354 -0.6087614290087204 0.0
  outer loop
    vertex 19.121320343559642 -0.8713203435596427 5.5
    vertex 19.598076211353316 -0.25000000000000094 0.0
    vertex 19.598076211353316 -0.25000000000000094 5.5
  endloop
endfacet
facet normal 0.6087614290087197 -0.7933533402912362 0.0
  outer loop
    vertex 19.121320343559642 -0.8713203435596427 5.5
    vertex 18.499999999999996 -1.3480762113533167 0.0
    vertex 19.121320343559642 -0.8713203435596427 0.0
  endloop
endfacet
facet normal 0.6087614290087197 -0.7933533402912362 0.0
  outer loop
    vertex 18.499999999999996 -1.3480762113533167 0.0
    vertex 19.121320343559642 -0.8713203435596427 5.5
    vertex 18.499999999999996 -1.3480762113533167 5.5
  endloop
endfacet
facet normal 0.38268343236508906 -0.9238795325112872 0.0
  outer loop
    vertex 18.499999999999996 -1.3480762113533167 5.5
    vertex 17.77645713530756 -1.6477774788672046 0.0
    vertex 18.499999999999996 -1.3480762113533167 0.0
  endloop
endfacet
facet normal 0.38268343236508906 -0.9238795325112872 0.0
  outer loop
    vertex 17.77645713530756 -1.6477774788672046 0.0
    vertex 18.499999999999996 -1.3480762113533167 5.5
    vertex 17.77645713530756 -1.6477774788672046 5.5
  endloop
endfacet
facet normal 0.7933533402912379 0.6087614290087171 0.0
  outer loop
    vertex -17.866025403784437 0.7500000000000001 0.0
    vertex -17.707106781186546 0.5428932188134523 5.5
    vertex -17.707106781186546 0.5428932188134523 0.0
  endloop
endfacet
facet normal 0.7933533402912379 0.6087614290087171 0.0
  outer loop
    vertex -17.707106781186546 0.5428932188134523 5.5
    vertex -17.866025403784437 0.7500000000000001 0.0
    vertex -17.866025403784437 0.7500000000000001 5.5
  endloop
endfacet
facet normal 0.6087614290087213 0.7933533402912347 0.0
  outer loop
    vertex -17.707106781186546 0.5428932188134523 5.5
    vertex -17.5 0.383974596215561 0.0
    vertex -17.707106781186546 0.5428932188134523 0.0
  endloop
endfacet
facet normal 0.6087614290087213 0.7933533402912347 0.0
  outer loop
    vertex -17.5 0.383974596215561 0.0
    vertex -17.707106781186546 0.5428932188134523 5.5
    vertex -17.5 0.383974596215561 5.5
  endloop
endfacet
facet normal 0.38268343236508634 0.9238795325112882 0.0
  outer loop
    vertex -17.5 0.383974596215561 5.5
    vertex -17.258819045102516 0.2840741737109313 0.0
    vertex -17.5 0.383974596215561 0.0
  endloop
endfacet
facet normal 0.38268343236508634 0.9238795325112882 0.0
  outer loop
    vertex -17.258819045102516 0.2840741737109313 0.0
    vertex -17.5 0.383974596215561 5.5
    vertex -17.258819045102516 0.2840741737109313 5.5
  endloop
endfacet
facet normal 0.13052619222005216 0.9914448613738104 0.0
  outer loop
    vertex -17.258819045102516 0.2840741737109313 5.5
    vertex -16.999999999999996 0.24999999999999953 0.0
    vertex -17.258819045102516 0.2840741737109313 0.0
  endloop
endfacet
facet normal 0.13052619222005216 0.9914448613738104 0.0
  outer loop
    vertex -16.999999999999996 0.24999999999999953 0.0
    vertex -17.258819045102516 0.2840741737109313 5.5
    vertex -16.999999999999996 0.24999999999999953 5.5
  endloop
endfacet
facet normal -0.13052619222005216 0.9914448613738104 0.0
  outer loop
    vertex -16.999999999999996 0.24999999999999953 5.5
    vertex -16.741180954897477 0.2840741737109313 0.0
    vertex -16.999999999999996 0.24999999999999953 0.0
  endloop
endfacet
facet normal -0.13052619222005216 0.9914448613738104 0.0
  outer loop
    vertex -16.741180954897477 0.2840741737109313 0.0
    vertex -16.999999999999996 0.24999999999999953 5.5
    vertex -16.741180954897477 0.2840741737109313 5.5
  endloop
endfacet
facet normal -0.3826834323650902 0.9238795325112867 0.0
  outer loop
    vertex -16.741180954897477 0.2840741737109313 5.5
    vertex -16.499999999999996 0.383974596215561 0.0
    vertex -16.741180954897477 0.2840741737109313 0.0
  endloop
endfacet
facet normal -0.3826834323650902 0.9238795325112867 0.0
  outer loop
    vertex -16.499999999999996 0.383974596215561 0.0
    vertex -16.741180954897477 0.2840741737109313 5.5
    vertex -16.499999999999996 0.383974596215561 5.5
  endloop
endfacet
facet normal -0.6087614290087162 0.7933533402912388 0.0
  outer loop
    vertex -16.499999999999996 0.383974596215561 5.5
    vertex -16.292893218813447 0.5428932188134523 0.0
    vertex -16.499999999999996 0.383974596215561 0.0
  endloop
endfacet
facet normal -0.6087614290087162 0.7933533402912388 0.0
  outer loop
    vertex -16.292893218813447 0.5428932188134523 0.0
    vertex -16.499999999999996 0.383974596215561 5.5
    vertex -16.292893218813447 0.5428932188134523 5.5
  endloop
endfacet
facet normal -0.7933533402912372 0.6087614290087179 0.0
  outer loop
    vertex -16.13397459621556 0.7499999999999997 5.5
    vertex -16.292893218813447 0.5428932188134523 0.0
    vertex -16.292893218813447 0.5428932188134523 5.5
  endloop
endfacet
facet normal -0.7933533402912372 0.6087614290087179 0.0
  outer loop
    vertex -16.292893218813447 0.5428932188134523 0.0
    vertex -16.13397459621556 0.7499999999999997 5.5
    vertex -16.13397459621556 0.7499999999999997 0.0
  endloop
endfacet
facet normal -0.9238795325112863 0.38268343236509084 0.0
  outer loop
    vertex -16.034074173710927 0.9911809548974791 5.5
    vertex -16.13397459621556 0.7499999999999997 0.0
    vertex -16.13397459621556 0.7499999999999997 5.5
  endloop
endfacet
facet normal -0.9238795325112863 0.38268343236509084 0.0
  outer loop
    vertex -16.13397459621556 0.7499999999999997 0.0
    vertex -16.034074173710927 0.9911809548974791 5.5
    vertex -16.034074173710927 0.9911809548974791 0.0
  endloop
endfacet
facet normal -0.9914448613738106 0.13052619222005155 0.0
  outer loop
    vertex -15.999999999999996 1.2500000000000004 5.5
    vertex -16.034074173710927 0.9911809548974791 0.0
    vertex -16.034074173710927 0.9911809548974791 5.5
  endloop
endfacet
facet normal -0.9914448613738106 0.13052619222005155 0.0
  outer loop
    vertex -16.034074173710927 0.9911809548974791 0.0
    vertex -15.999999999999996 1.2500000000000004 5.5
    vertex -15.999999999999996 1.2500000000000004 0.0
  endloop
endfacet
facet normal -0.9914448613738105 -0.1305261922200517 -0.0
  outer loop
    vertex -16.034074173710927 1.5088190451025212 5.5
    vertex -15.999999999999996 1.2500000000000004 0.0
    vertex -15.999999999999996 1.2500000000000004 5.5
  endloop
endfacet
facet normal -0.9914448613738105 -0.1305261922200517 -0.0
  outer loop
    vertex -15.999999999999996 1.2500000000000004 0.0
    vertex -16.034074173710927 1.5088190451025212 5.5
    vertex -16.034074173710927 1.5088190451025212 0.0
  endloop
endfacet
facet normal -0.9238795325112863 -0.38268343236509084 -0.0
  outer loop
    vertex -16.13397459621556 1.7500000000000007 5.5
    vertex -16.034074173710927 1.5088190451025212 0.0
    vertex -16.034074173710927 1.5088190451025212 5.5
  endloop
endfacet
facet normal -0.9238795325112863 -0.38268343236509084 -0.0
  outer loop
    vertex -16.034074173710927 1.5088190451025212 0.0
    vertex -16.13397459621556 1.7500000000000007 5.5
    vertex -16.13397459621556 1.7500000000000007 0.0
  endloop
endfacet
facet normal -0.7933533402912377 -0.6087614290087173 -0.0
  outer loop
    vertex -16.292893218813447 1.9571067811865483 5.5
    vertex -16.13397459621556 1.7500000000000007 0.0
    vertex -16.13397459621556 1.7500000000000007 5.5
  endloop
endfacet
facet normal -0.7933533402912377 -0.6087614290087173 -0.0
  outer loop
    vertex -16.13397459621556 1.7500000000000007 0.0
    vertex -16.292893218813447 1.9571067811865483 5.5
    vertex -16.292893218813447 1.9571067811865483 0.0
  endloop
endfacet
facet normal -0.6087614290087213 -0.7933533402912347 -0.0
  outer loop
    vertex -16.292893218813447 1.9571067811865483 5.5
    vertex -16.499999999999996 2.1160254037844397 0.0
    vertex -16.292893218813447 1.9571067811865483 0.0
  endloop
endfacet
facet normal -0.6087614290087213 -0.7933533402912347 -0.0
  outer loop
    vertex -16.499999999999996 2.1160254037844397 0.0
    vertex -16.292893218813447 1.9571067811865483 5.5
    vertex -16.499999999999996 2.1160254037844397 5.5
  endloop
endfacet
facet normal -0.3826834323650914 -0.9238795325112863 -0.0
  outer loop
    vertex -16.499999999999996 2.1160254037844397 5.5
    vertex -16.741180954897473 2.21592582628907 0.0
    vertex -16.499999999999996 2.1160254037844397 0.0
  endloop
endfacet
facet normal -0.3826834323650914 -0.9238795325112863 -0.0
  outer loop
    vertex -16.741180954897473 2.21592582628907 0.0
    vertex -16.499999999999996 2.1160254037844397 5.5
    vertex -16.741180954897473 2.21592582628907 5.5
  endloop
endfacet
facet normal -0.13052619222005077 -0.9914448613738106 -0.0
  outer loop
    vertex -16.741180954897473 2.21592582628907 5.5
    vertex -16.999999999999996 2.2500000000000013 0.0
    vertex -16.741180954897473 2.21592582628907 0.0
  endloop
endfacet
facet normal -0.13052619222005077 -0.9914448613738106 -0.0
  outer loop
    vertex -16.999999999999996 2.2500000000000013 0.0
    vertex -16.741180954897473 2.21592582628907 5.5
    vertex -16.999999999999996 2.2500000000000013 5.5
  endloop
endfacet
facet normal 0.13052619222005216 -0.9914448613738104 0.0
  outer loop
    vertex -16.999999999999996 2.2500000000000013 5.5
    vertex -17.258819045102516 2.21592582628907 0.0
    vertex -16.999999999999996 2.2500000000000013 0.0
  endloop
endfacet
facet normal 0.13052619222005216 -0.9914448613738104 0.0
  outer loop
    vertex -17.258819045102516 2.21592582628907 0.0
    vertex -16.999999999999996 2.2500000000000013 5.5
    vertex -17.258819045102516 2.21592582628907 5.5
  endloop
endfacet
facet normal 0.38268343236508895 -0.9238795325112871 0.0
  outer loop
    vertex -17.258819045102516 2.21592582628907 5.5
    vertex -17.499999999999996 2.1160254037844406 0.0
    vertex -17.258819045102516 2.21592582628907 0.0
  endloop
endfacet
facet normal 0.38268343236508895 -0.9238795325112871 0.0
  outer loop
    vertex -17.499999999999996 2.1160254037844406 0.0
    vertex -17.258819045102516 2.21592582628907 5.5
    vertex -17.499999999999996 2.1160254037844406 5.5
  endloop
endfacet
facet normal 0.6087614290087162 -0.7933533402912388 0.0
  outer loop
    vertex -17.499999999999996 2.1160254037844406 5.5
    vertex -17.707106781186546 1.957106781186549 0.0
    vertex -17.499999999999996 2.1160254037844406 0.0
  endloop
endfacet
facet normal 0.6087614290087162 -0.7933533402912388 0.0
  outer loop
    vertex -17.707106781186546 1.957106781186549 0.0
    vertex -17.499999999999996 2.1160254037844406 5.5
    vertex -17.707106781186546 1.957106781186549 5.5
  endloop
endfacet
facet normal 0.7933533402912377 -0.6087614290087173 0.0
  outer loop
    vertex -17.707106781186546 1.957106781186549 0.0
    vertex -17.866025403784437 1.7500000000000013 5.5
    vertex -17.866025403784437 1.7500000000000013 0.0
  endloop
endfacet
facet normal 0.7933533402912377 -0.6087614290087173 0.0
  outer loop
    vertex -17.866025403784437 1.7500000000000013 5.5
    vertex -17.707106781186546 1.957106781186549 0.0
    vertex -17.707106781186546 1.957106781186549 5.5
  endloop
endfacet
facet normal 0.9238795325112861 -0.38268343236509156 0.0
  outer loop
    vertex -17.866025403784437 1.7500000000000013 0.0
    vertex -17.965925826289066 1.5088190451025225 5.5
    vertex -17.965925826289066 1.5088190451025225 0.0
  endloop
endfacet
facet normal 0.9238795325112861 -0.38268343236509156 0.0
  outer loop
    vertex -17.965925826289066 1.5088190451025225 5.5
    vertex -17.866025403784437 1.7500000000000013 0.0
    vertex -17.866025403784437 1.7500000000000013 5.5
  endloop
endfacet
facet normal 0.9914448613738105 -0.13052619222005118 0.0
  outer loop
    vertex -17.965925826289066 1.5088190451025225 0.0
    vertex -17.999999999999996 1.2500000000000004 5.5
    vertex -17.999999999999996 1.2500000000000004 0.0
  endloop
endfacet
facet normal 0.9914448613738105 -0.13052619222005118 0.0
  outer loop
    vertex -17.999999999999996 1.2500000000000004 5.5
    vertex -17.965925826289066 1.5088190451025225 0.0
    vertex -17.965925826289066 1.5088190451025225 5.5
  endloop
endfacet
facet normal 0.9914448613738104 0.13052619222005163 0.0
  outer loop
    vertex -17.999999999999996 1.2500000000000004 0.0
    vertex -17.965925826289066 0.9911809548974795 5.5
    vertex -17.965925826289066 0.9911809548974795 0.0
  endloop
endfacet
facet normal 0.9914448613738104 0.13052619222005163 0.0
  outer loop
    vertex -17.965925826289066 0.9911809548974795 5.5
    vertex -17.999999999999996 1.2500000000000004 0.0
    vertex -17.999999999999996 1.2500000000000004 5.5
  endloop
endfacet
facet normal 0.9238795325112864 0.382683432365091 0.0
  outer loop
    vertex -17.965925826289066 0.9911809548974795 0.0
    vertex -17.866025403784437 0.7500000000000001 5.5
    vertex -17.866025403784437 0.7500000000000001 0.0
  endloop
endfacet
facet normal 0.9238795325112864 0.382683432365091 0.0
  outer loop
    vertex -17.866025403784437 0.7500000000000001 5.5
    vertex -17.965925826289066 0.9911809548974795 0.0
    vertex -17.965925826289066 0.9911809548974795 5.5
  endloop
endfacet
facet normal -0.7933533402912375 0.6087614290087178 0.0
  outer loop
    vertex 17.866025403784437 0.7499999999999996 5.5
    vertex 17.70710678118655 0.5428932188134521 0.0
    vertex 17.70710678118655 0.5428932188134521 5.5
  endloop
endfacet
facet normal -0.7933533402912375 0.6087614290087178 0.0
  outer loop
    vertex 17.70710678118655 0.5428932188134521 0.0
    vertex 17.866025403784437 0.7499999999999996 5.5
    vertex 17.866025403784437 0.7499999999999996 0.0
  endloop
endfacet
facet normal -0.9238795325112861 0.38268343236509145 0.0
  outer loop
    vertex 17.96592582628907 0.9911809548974786 5.5
    vertex 17.866025403784437 0.7499999999999996 0.0
    vertex 17.866025403784437 0.7499999999999996 5.5
  endloop
endfacet
facet normal -0.9238795325112861 0.38268343236509145 0.0
  outer loop
    vertex 17.866025403784437 0.7499999999999996 0.0
    vertex 17.96592582628907 0.9911809548974786 5.5
    vertex 17.96592582628907 0.9911809548974786 0.0
  endloop
endfacet
facet normal -0.9914448613738105 0.13052619222005118 0.0
  outer loop
    vertex 18.0 1.2500000000000004 5.5
    vertex 17.96592582628907 0.9911809548974786 0.0
    vertex 17.96592582628907 0.9911809548974786 5.5
  endloop
endfacet
facet normal -0.9914448613738105 0.13052619222005118 0.0
  outer loop
    vertex 17.96592582628907 0.9911809548974786 0.0
    vertex 18.0 1.2500000000000004 5.5
    vertex 18.0 1.2500000000000004 0.0
  endloop
endfacet
facet normal -0.9914448613738104 -0.13052619222005163 -0.0
  outer loop
    vertex 17.96592582628907 1.5088190451025216 5.5
    vertex 18.0 1.2500000000000004 0.0
    vertex 18.0 1.2500000000000004 5.5
  endloop
endfacet
facet normal -0.9914448613738104 -0.13052619222005163 -0.0
  outer loop
    vertex 18.0 1.2500000000000004 0.0
    vertex 17.96592582628907 1.5088190451025216 5.5
    vertex 17.96592582628907 1.5088190451025216 0.0
  endloop
endfacet
facet normal -0.9238795325112863 -0.38268343236509084 -0.0
  outer loop
    vertex 17.866025403784437 1.750000000000001 5.5
    vertex 17.96592582628907 1.5088190451025216 0.0
    vertex 17.96592582628907 1.5088190451025216 5.5
  endloop
endfacet
facet normal -0.9238795325112863 -0.38268343236509084 -0.0
  outer loop
    vertex 17.96592582628907 1.5088190451025216 0.0
    vertex 17.866025403784437 1.750000000000001 5.5
    vertex 17.866025403784437 1.750000000000001 0.0
  endloop
endfacet
facet normal -0.7933533402912377 -0.6087614290087173 -0.0
  outer loop
    vertex 17.70710678118655 1.9571067811865488 5.5
    vertex 17.866025403784437 1.750000000000001 0.0
    vertex 17.866025403784437 1.750000000000001 5.5
  endloop
endfacet
facet normal -0.7933533402912377 -0.6087614290087173 -0.0
  outer loop
    vertex 17.866025403784437 1.750000000000001 0.0
    vertex 17.70710678118655 1.9571067811865488 5.5
    vertex 17.70710678118655 1.9571067811865488 0.0
  endloop
endfacet
facet normal -0.6087614290087213 -0.7933533402912347 -0.0
  outer loop
    vertex 17.70710678118655 1.9571067811865488 5.5
    vertex 17.5 2.11602540378444 0.0
    vertex 17.70710678118655 1.9571067811865488 0.0
  endloop
endfacet
facet normal -0.6087614290087213 -0.7933533402912347 -0.0
  outer loop
    vertex 17.5 2.11602540378444 0.0
    vertex 17.70710678118655 1.9571067811865488 5.5
    vertex 17.5 2.11602540378444 5.5
  endloop
endfacet
facet normal -0.38268343236508634 -0.9238795325112882 -0.0
  outer loop
    vertex 17.5 2.11602540378444 5.5
    vertex 17.25881904510252 2.21592582628907 0.0
    vertex 17.5 2.11602540378444 0.0
  endloop
endfacet
facet normal -0.38268343236508634 -0.9238795325112882 -0.0
  outer loop
    vertex 17.25881904510252 2.21592582628907 0.0
    vertex 17.5 2.11602540378444 5.5
    vertex 17.25881904510252 2.21592582628907 5.5
  endloop
endfacet
facet normal -0.13052619222005216 -0.9914448613738104 -0.0
  outer loop
    vertex 17.25881904510252 2.21592582628907 5.5
    vertex 17.0 2.2500000000000013 0.0
    vertex 17.25881904510252 2.21592582628907 0.0
  endloop
endfacet
facet normal -0.13052619222005216 -0.9914448613738104 -0.0
  outer loop
    vertex 17.0 2.2500000000000013 0.0
    vertex 17.25881904510252 2.21592582628907 5.5
    vertex 17.0 2.2500000000000013 5.5
  endloop
endfacet
facet normal 0.13052619222005216 -0.9914448613738104 0.0
  outer loop
    vertex 17.0 2.2500000000000013 5.5
    vertex 16.74118095489748 2.21592582628907 0.0
    vertex 17.0 2.2500000000000013 0.0
  endloop
endfacet
facet normal 0.13052619222005216 -0.9914448613738104 0.0
  outer loop
    vertex 16.74118095489748 2.21592582628907 0.0
    vertex 17.0 2.2500000000000013 5.5
    vertex 16.74118095489748 2.21592582628907 5.5
  endloop
endfacet
facet normal 0.3826834323650902 -0.9238795325112867 0.0
  outer loop
    vertex 16.74118095489748 2.21592582628907 5.5
    vertex 16.5 2.11602540378444 0.0
    vertex 16.74118095489748 2.21592582628907 0.0
  endloop
endfacet
facet normal 0.3826834323650902 -0.9238795325112867 0.0
  outer loop
    vertex 16.5 2.11602540378444 0.0
    vertex 16.74118095489748 2.21592582628907 5.5
    vertex 16.5 2.11602540378444 5.5
  endloop
endfacet
facet normal 0.6087614290087162 -0.7933533402912388 0.0
  outer loop
    vertex 16.5 2.11602540378444 5.5
    vertex 16.29289321881345 1.9571067811865488 0.0
    vertex 16.5 2.11602540378444 0.0
  endloop
endfacet
facet normal 0.6087614290087162 -0.7933533402912388 0.0
  outer loop
    vertex 16.29289321881345 1.9571067811865488 0.0
    vertex 16.5 2.11602540378444 5.5
    vertex 16.29289321881345 1.9571067811865488 5.5
  endloop
endfacet
facet normal 0.7933533402912372 -0.6087614290087179 0.0
  outer loop
    vertex 16.29289321881345 1.9571067811865488 0.0
    vertex 16.13397459621556 1.7500000000000013 5.5
    vertex 16.13397459621556 1.7500000000000013 0.0
  endloop
endfacet
facet normal 0.7933533402912372 -0.6087614290087179 0.0
  outer loop
    vertex 16.13397459621556 1.7500000000000013 5.5
    vertex 16.29289321881345 1.9571067811865488 0.0
    vertex 16.29289321881345 1.9571067811865488 5.5
  endloop
endfacet
facet normal 0.9238795325112863 -0.38268343236509084 0.0
  outer loop
    vertex 16.13397459621556 1.7500000000000013 0.0
    vertex 16.03407417371093 1.5088190451025218 5.5
    vertex 16.03407417371093 1.5088190451025218 0.0
  endloop
endfacet
facet normal 0.9238795325112863 -0.38268343236509084 0.0
  outer loop
    vertex 16.03407417371093 1.5088190451025218 5.5
    vertex 16.13397459621556 1.7500000000000013 0.0
    vertex 16.13397459621556 1.7500000000000013 5.5
  endloop
endfacet
facet normal 0.9914448613738106 -0.13052619222005155 0.0
  outer loop
    vertex 16.03407417371093 1.5088190451025218 0.0
    vertex 15.999999999999998 1.2500000000000007 5.5
    vertex 15.999999999999998 1.2500000000000007 0.0
  endloop
endfacet
facet normal 0.9914448613738106 -0.13052619222005155 0.0
  outer loop
    vertex 15.999999999999998 1.2500000000000007 5.5
    vertex 16.03407417371093 1.5088190451025218 0.0
    vertex 16.03407417371093 1.5088190451025218 5.5
  endloop
endfacet
facet normal 0.9914448613738105 0.1305261922200517 0.0
  outer loop
    vertex 15.999999999999998 1.2500000000000007 0.0
    vertex 16.03407417371093 0.9911809548974799 5.5
    vertex 16.03407417371093 0.9911809548974799 0.0
  endloop
endfacet
facet normal 0.9914448613738105 0.1305261922200517 0.0
  outer loop
    vertex 16.03407417371093 0.9911809548974799 5.5
    vertex 15.999999999999998 1.2500000000000007 0.0
    vertex 15.999999999999998 1.2500000000000007 5.5
  endloop
endfacet
facet normal 0.9238795325112864 0.3826834323650907 0.0
  outer loop
    vertex 16.03407417371093 0.9911809548974799 0.0
    vertex 16.13397459621556 0.7500000000000003 5.5
    vertex 16.13397459621556 0.7500000000000003 0.0
  endloop
endfacet
facet normal 0.9238795325112864 0.3826834323650907 0.0
  outer loop
    vertex 16.13397459621556 0.7500000000000003 5.5
    vertex 16.03407417371093 0.9911809548974799 0.0
    vertex 16.03407417371093 0.9911809548974799 5.5
  endloop
endfacet
facet normal 0.7933533402912377 0.6087614290087177 0.0
  outer loop
    vertex 16.13397459621556 0.7500000000000003 0.0
    vertex 16.29289321881345 0.5428932188134528 5.5
    vertex 16.29289321881345 0.5428932188134528 0.0
  endloop
endfacet
facet normal 0.7933533402912377 0.6087614290087177 0.0
  outer loop
    vertex 16.29289321881345 0.5428932188134528 5.5
    vertex 16.13397459621556 0.7500000000000003 0.0
    vertex 16.13397459621556 0.7500000000000003 5.5
  endloop
endfacet
facet normal 0.608761429008722 0.7933533402912343 0.0
  outer loop
    vertex 16.29289321881345 0.5428932188134528 5.5
    vertex 16.499999999999996 0.3839745962155612 0.0
    vertex 16.29289321881345 0.5428932188134528 0.0
  endloop
endfacet
facet normal 0.608761429008722 0.7933533402912343 0.0
  outer loop
    vertex 16.499999999999996 0.3839745962155612 0.0
    vertex 16.29289321881345 0.5428932188134528 5.5
    vertex 16.499999999999996 0.3839745962155612 5.5
  endloop
endfacet
facet normal 0.3826834323650902 0.9238795325112867 0.0
  outer loop
    vertex 16.499999999999996 0.3839745962155612 5.5
    vertex 16.741180954897477 0.28407417371093147 0.0
    vertex 16.499999999999996 0.3839745962155612 0.0
  endloop
endfacet
facet normal 0.3826834323650902 0.9238795325112867 0.0
  outer loop
    vertex 16.741180954897477 0.28407417371093147 0.0
    vertex 16.499999999999996 0.3839745962155612 5.5
    vertex 16.741180954897477 0.28407417371093147 5.5
  endloop
endfacet
facet normal 0.1305261922200514 0.9914448613738105 0.0
  outer loop
    vertex 16.741180954897477 0.28407417371093147 5.5
    vertex 17.0 0.24999999999999953 0.0
    vertex 16.741180954897477 0.28407417371093147 0.0
  endloop
endfacet
facet normal 0.1305261922200514 0.9914448613738105 0.0
  outer loop
    vertex 17.0 0.24999999999999953 0.0
    vertex 16.741180954897477 0.28407417371093147 5.5
    vertex 17.0 0.24999999999999953 5.5
  endloop
endfacet
facet normal -0.13052619222005152 0.9914448613738106 0.0
  outer loop
    vertex 17.0 0.24999999999999953 5.5
    vertex 17.25881904510252 0.28407417371093113 0.0
    vertex 17.0 0.24999999999999953 0.0
  endloop
endfacet
facet normal -0.13052619222005152 0.9914448613738106 0.0
  outer loop
    vertex 17.25881904510252 0.28407417371093113 0.0
    vertex 17.0 0.24999999999999953 5.5
    vertex 17.25881904510252 0.28407417371093113 5.5
  endloop
endfacet
facet normal -0.38268343236508956 0.9238795325112868 0.0
  outer loop
    vertex 17.25881904510252 0.28407417371093113 5.5
    vertex 17.5 0.3839745962155607 0.0
    vertex 17.25881904510252 0.28407417371093113 0.0
  endloop
endfacet
facet normal -0.38268343236508956 0.9238795325112868 0.0
  outer loop
    vertex 17.5 0.3839745962155607 0.0
    vertex 17.25881904510252 0.28407417371093113 5.5
    vertex 17.5 0.3839745962155607 5.5
  endloop
endfacet
facet normal -0.6087614290087165 0.7933533402912384 0.0
  outer loop
    vertex 17.5 0.3839745962155607 5.5
    vertex 17.70710678118655 0.5428932188134521 0.0
    vertex 17.5 0.3839745962155607 0.0
  endloop
endfacet
facet normal -0.6087614290087165 0.7933533402912384 0.0
  outer loop
    vertex 17.70710678118655 0.5428932188134521 0.0
    vertex 17.5 0.3839745962155607 5.5
    vertex 17.70710678118655 0.5428932188134521 5.5
  endloop
endfacet
facet normal -4.347824065143514e-16 -1.3419210077631201e-19 1.0
  outer loop
    vertex 13.350000000000001 -13.350000000000003 1.9999999999999998
    vertex 9.25 -13.250000000000004 1.999999999999998
    vertex 9.25 -13.350000000000003 1.999999999999998
  endloop
endfacet
facet normal -4.347824065143514e-16 -1.3419210077631201e-19 1.0
  outer loop
    vertex 9.25 -13.250000000000004 1.999999999999998
    vertex 13.350000000000001 -13.350000000000003 1.9999999999999998
    vertex 13.249999999999998 -9.250000000000004 1.9999999999999998
  endloop
endfacet
facet normal -4.347824065143514e-16 -1.3419210077631201e-19 1.0
  outer loop
    vertex 13.249999999999998 -9.250000000000004 1.9999999999999998
    vertex 13.350000000000001 -13.350000000000003 1.9999999999999998
    vertex 13.349999999999998 -9.250000000000004 1.9999999999999998
  endloop
endfacet
facet normal 0.7071067811865464 -0.7071067811865488 4.985043556320943e-15
  outer loop
    vertex -9.249999999999993 13.250000000000002 2.46747067222941e-15
    vertex -13.249999999999998 9.250000000000018 1.9999999999999942
    vertex -13.249999999999998 9.25000000000001 -1.762479051592436e-15
  endloop
endfacet
facet normal 0.7071067811865464 -0.7071067811865488 4.985043556320943e-15
  outer loop
    vertex -13.249999999999998 9.250000000000018 1.9999999999999942
    vertex -9.249999999999993 13.250000000000002 2.46747067222941e-15
    vertex -9.25 13.250000000000002 1.9999999999999984
  endloop
endfacet
facet normal -0.7071067811865477 -0.7071067811865475 -2.492521778160475e-16
  outer loop
    vertex 9.249999999999998 13.250000000000004 1.999999999999998
    vertex 13.249999999999998 9.250000000000004 2.46747067222941e-15
    vertex 13.249999999999998 9.250000000000004 1.9999999999999998
  endloop
endfacet
facet normal -0.7071067811865477 -0.7071067811865475 -2.492521778160475e-16
  outer loop
    vertex 13.249999999999998 9.250000000000004 2.46747067222941e-15
    vertex 9.249999999999998 13.250000000000004 1.999999999999998
    vertex 9.249999999999998 13.250000000000004 7.049916206369744e-16
  endloop
endfacet
facet normal 0.7071067811865477 0.7071067811865475 4.985043556320947e-15
  outer loop
    vertex -13.249999999999998 -9.249999999999996 0.0
    vertex -9.249999999999998 -13.250000000000007 1.9999999999999984
    vertex -9.24999999999999 -13.250000000000007 0.0
  endloop
endfacet
facet normal 0.7071067811865477 0.7071067811865475 4.985043556320947e-15
  outer loop
    vertex -9.249999999999998 -13.250000000000007 1.9999999999999984
    vertex -13.249999999999998 -9.249999999999996 0.0
    vertex -13.249999999999998 -9.250000000000005 1.9999999999999942
  endloop
endfacet
facet normal -0.7071067811865477 0.7071067811865475 -2.492521778160471e-16
  outer loop
    vertex 13.249999999999998 -9.250000000000004 1.9999999999999998
    vertex 9.250000000000004 -13.250000000000004 0.0
    vertex 9.25 -13.250000000000004 1.999999999999998
  endloop
endfacet
facet normal -0.7071067811865477 0.7071067811865475 -2.492521778160471e-16
  outer loop
    vertex 9.250000000000004 -13.250000000000004 0.0
    vertex 13.249999999999998 -9.250000000000004 1.9999999999999998
    vertex 13.249999999999998 -9.250000000000004 2.8199664825478975e-15
  endloop
endfacet
facet normal 3.5206639559600377e-16 1.3913037008459242e-15 1.0
  outer loop
    vertex -9.249999999999998 -13.350000000000007 1.9999999999999984
    vertex -13.349999999999998 -9.250000000000005 1.9999999999999942
    vertex -13.349999999999998 -13.350000000000007 1.9999999999999998
  endloop
endfacet
facet normal 3.5206639559600377e-16 1.3913037008459242e-15 1.0
  outer loop
    vertex -13.349999999999998 -9.250000000000005 1.9999999999999942
    vertex -9.249999999999998 -13.350000000000007 1.9999999999999984
    vertex -13.249999999999998 -9.250000000000005 1.9999999999999942
  endloop
endfacet
facet normal 3.5206639559600377e-16 1.3913037008459242e-15 1.0
  outer loop
    vertex -13.249999999999998 -9.250000000000005 1.9999999999999942
    vertex -9.249999999999998 -13.350000000000007 1.9999999999999984
    vertex -9.249999999999998 -13.250000000000007 1.9999999999999984
  endloop
endfacet
facet normal 3.5206639559600406e-16 -1.3913037008459305e-15 1.0
  outer loop
    vertex -13.249999999999998 9.250000000000018 1.9999999999999942
    vertex -13.349999999999998 13.350000000000001 1.9999999999999998
    vertex -13.349999999999998 9.250000000000018 1.9999999999999942
  endloop
endfacet
facet normal 3.5206639559600406e-16 -1.3913037008459305e-15 1.0
  outer loop
    vertex -13.349999999999998 13.350000000000001 1.9999999999999998
    vertex -13.249999999999998 9.250000000000018 1.9999999999999942
    vertex -9.25 13.350000000000001 1.9999999999999984
  endloop
endfacet
facet normal 3.5206639559600406e-16 -1.3913037008459305e-15 1.0
  outer loop
    vertex -9.25 13.350000000000001 1.9999999999999984
    vertex -13.249999999999998 9.250000000000018 1.9999999999999942
    vertex -9.25 13.250000000000002 1.9999999999999984
  endloop
endfacet
facet normal 0.0 0.0 1.0
  outer loop
    vertex -17.999999999999996 1.2500000000000004 5.5
    vertex -17.776457135307556 4.147777478867205 5.5
    vertex -18.499999999999993 3.8480762113533182 5.5
  endloop
endfacet
facet normal 0.0 0.0 1.0
  outer loop
    vertex -17.776457135307556 4.147777478867205 5.5
    vertex -17.999999999999996 1.2500000000000004 5.5
    vertex -17.965925826289066 1.5088190451025225 5.5
  endloop
endfacet
facet normal 0.0 0.0 1.0
  outer loop
    vertex -17.776457135307556 4.147777478867205 5.5
    vertex -17.965925826289066 1.5088190451025225 5.5
    vertex -17.866025403784437 1.7500000000000013 5.5
  endloop
endfacet
facet normal 0.0 0.0 1.0
  outer loop
    vertex -17.776457135307556 4.147777478867205 5.5
    vertex -17.866025403784437 1.7500000000000013 5.5
    vertex -17.707106781186546 1.957106781186549 5.5
  endloop
endfacet
facet normal 0.0 0.0 1.0
  outer loop
    vertex -17.776457135307556 4.147777478867205 5.5
    vertex -17.707106781186546 1.957106781186549 5.5
    vertex -16.999999999999996 4.250000000000001 5.5
  endloop
endfacet
facet normal 0.0 0.0 1.0
  outer loop
    vertex -16.999999999999996 4.250000000000001 5.5
    vertex -17.707106781186546 1.957106781186549 5.5
    vertex -17.499999999999996 2.1160254037844406 5.5
  endloop
endfacet
facet normal 0.0 0.0 1.0
  outer loop
    vertex -16.999999999999996 4.250000000000001 5.5
    vertex -17.499999999999996 2.1160254037844406 5.5
    vertex -17.258819045102516 2.21592582628907 5.5
  endloop
endfacet
facet normal 0.0 0.0 1.0
  outer loop
    vertex -16.999999999999996 4.250000000000001 5.5
    vertex -17.258819045102516 2.21592582628907 5.5
    vertex -16.999999999999996 2.2500000000000013 5.5
  endloop
endfacet
facet normal 0.0 0.0 1.0
  outer loop
    vertex -16.999999999999996 4.250000000000001 5.5
    vertex -16.999999999999996 2.2500000000000013 5.5
    vertex -16.741180954897473 2.21592582628907 5.5
  endloop
endfacet
facet normal 0.0 0.0 1.0
  outer loop
    vertex -17.0 -14.850000000000007 5.5
    vertex -13.349999999999998 -13.350000000000007 5.5
    vertex -16.999999999999996 -1.7499999999999996 5.5
  endloop
endfacet
facet normal 0.0 0.0 1.0
  outer loop
    vertex -13.349999999999998 -13.350000000000007 5.5
    vertex -17.0 -14.850000000000007 5.5
    vertex 17.0 -14.850000000000003 5.5
  endloop
endfacet
facet normal 0.0 0.0 1.0
  outer loop
    vertex -16.999999999999996 -1.7499999999999996 5.5
    vertex -13.349999999999998 -13.350000000000007 5.5
    vertex -16.999999999999996 0.24999999999999953 5.5
  endloop
endfacet
facet normal 0.0 0.0 1.0
  outer loop
    vertex -16.999999999999996 0.24999999999999953 5.5
    vertex -13.349999999999998 -13.350000000000007 5.5
    vertex -16.741180954897477 0.2840741737109313 5.5
  endloop
endfacet
facet normal 0.0 0.0 1.0
  outer loop
    vertex -16.741180954897477 0.2840741737109313 5.5
    vertex -13.349999999999998 -13.350000000000007 5.5
    vertex -16.499999999999996 0.383974596215561 5.5
  endloop
endfacet
facet normal 0.0 0.0 1.0
  outer loop
    vertex -16.499999999999996 0.383974596215561 5.5
    vertex -13.349999999999998 -13.350000000000007 5.5
    vertex -16.292893218813447 0.5428932188134523 5.5
  endloop
endfacet
facet normal 0.0 0.0 1.0
  outer loop
    vertex -16.292893218813447 0.5428932188134523 5.5
    vertex -13.349999999999998 -13.350000000000007 5.5
    vertex -16.13397459621556 0.7499999999999997 5.5
  endloop
endfacet
facet normal 0.0 0.0 1.0
  outer loop
    vertex -16.13397459621556 0.7499999999999997 5.5
    vertex -13.349999999999998 -13.350000000000007 5.5
    vertex -16.034074173710927 0.9911809548974791 5.5
  endloop
endfacet
facet normal 0.0 0.0 1.0
  outer loop
    vertex -16.034074173710927 0.9911809548974791 5.5
    vertex -13.349999999999998 -13.350000000000007 5.5
    vertex -15.999999999999996 1.2500000000000004 5.5
  endloop
endfacet
facet normal 0.0 0.0 1.0
  outer loop
    vertex -13.349999999999998 -13.350000000000007 5.5
    vertex 17.0 -14.850000000000003 5.5
    vertex 13.350000000000001 -13.350000000000003 5.5
  endloop
endfacet
facet normal 0.0 0.0 1.0
  outer loop
    vertex 13.350000000000001 -13.350000000000003 5.5
    vertex 17.0 -14.850000000000003 5.5
    vertex 15.999999999999998 1.2500000000000007 5.5
  endloop
endfacet
facet normal 0.0 0.0 1.0
  outer loop
    vertex 15.999999999999998 1.2500000000000007 5.5
    vertex 17.0 -14.850000000000003 5.5
    vertex 16.03407417371093 0.9911809548974799 5.5
  endloop
endfacet
facet normal 0.0 0.0 1.0
  outer loop
    vertex 16.03407417371093 0.9911809548974799 5.5
    vertex 17.0 -14.850000000000003 5.5
    vertex 16.13397459621556 0.7500000000000003 5.5
  endloop
endfacet
facet normal 0.0 0.0 1.0
  outer loop
    vertex 16.13397459621556 0.7500000000000003 5.5
    vertex 17.0 -14.850000000000003 5.5
    vertex 16.29289321881345 0.5428932188134528 5.5
  endloop
endfacet
facet normal 0.0 0.0 1.0
  outer loop
    vertex 16.29289321881345 0.5428932188134528 5.5
    vertex 17.0 -14.850000000000003 5.5
    vertex 16.499999999999996 0.3839745962155612 5.5
  endloop
endfacet
facet normal 0.0 0.0 1.0
  outer loop
    vertex 16.499999999999996 0.3839745962155612 5.5
    vertex 17.0 -14.850000000000003 5.5
    vertex 16.741180954897477 0.28407417371093147 5.5
  endloop
endfacet
facet normal 0.0 0.0 1.0
  outer loop
    vertex 16.741180954897477 0.28407417371093147 5.5
    vertex 17.0 -14.850000000000003 5.5
    vertex 17.0 0.24999999999999953 5.5
  endloop
endfacet
facet normal 0.0 0.0 1.0
  outer loop
    vertex 17.0 0.24999999999999953 5.5
    vertex 17.0 -14.850000000000003 5.5
    vertex 17.0 -1.7499999999999996 5.5
  endloop
endfacet
facet normal 0.0 0.0 1.0
  outer loop
    vertex 17.0 0.24999999999999953 5.5
    vertex 17.0 -1.7499999999999996 5.5
    vertex 17.77645713530756 -1.6477774788672046 5.5
  endloop
endfacet
facet normal 0.0 0.0 1.0
  outer loop
    vertex 17.0 0.24999999999999953 5.5
    vertex 17.77645713530756 -1.6477774788672046 5.5
    vertex 17.25881904510252 0.28407417371093113 5.5
  endloop
endfacet
facet normal 0.0 0.0 1.0
  outer loop
    vertex 17.25881904510252 0.28407417371093113 5.5
    vertex 17.77645713530756 -1.6477774788672046 5.5
    vertex 17.5 0.3839745962155607 5.5
  endloop
endfacet
facet normal 0.0 0.0 1.0
  outer loop
    vertex 17.5 0.3839745962155607 5.5
    vertex 17.77645713530756 -1.6477774788672046 5.5
    vertex 17.70710678118655 0.5428932188134521 5.5
  endloop
endfacet
facet normal 0.0 0.0 1.0
  outer loop
    vertex 17.70710678118655 0.5428932188134521 5.5
    vertex 17.77645713530756 -1.6477774788672046 5.5
    vertex 17.866025403784437 0.7499999999999996 5.5
  endloop
endfacet
facet normal 0.0 0.0 1.0
  outer loop
    vertex 17.866025403784437 0.7499999999999996 5.5
    vertex 17.77645713530756 -1.6477774788672046 5.5
    vertex 18.499999999999996 -1.3480762113533167 5.5
  endloop
endfacet
facet normal 0.0 0.0 1.0
  outer loop
    vertex 17.866025403784437 0.7499999999999996 5.5
    vertex 18.499999999999996 -1.3480762113533167 5.5
    vertex 17.96592582628907 0.9911809548974786 5.5
  endloop
endfacet
facet normal 0.0 0.0 1.0
  outer loop
    vertex 17.96592582628907 0.9911809548974786 5.5
    vertex 18.499999999999996 -1.3480762113533167 5.5
    vertex 18.0 1.2500000000000004 5.5
  endloop
endfacet
facet normal 0.0 0.0 1.0
  outer loop
    vertex 17.25881904510252 2.21592582628907 5.5
    vertex 17.0 4.250000000000001 5.5
    vertex 17.0 2.2500000000000013 5.5
  endloop
endfacet
facet normal 0.0 0.0 1.0
  outer loop
    vertex 17.0 4.250000000000001 5.5
    vertex 17.25881904510252 2.21592582628907 5.5
    vertex 17.776457135307563 4.147777478867205 5.5
  endloop
endfacet
facet normal 0.0 0.0 1.0
  outer loop
    vertex 17.776457135307563 4.147777478867205 5.5
    vertex 17.25881904510252 2.21592582628907 5.5
    vertex 17.5 2.11602540378444 5.5
  endloop
endfacet
facet normal 0.0 0.0 1.0
  outer loop
    vertex 17.776457135307563 4.147777478867205 5.5
    vertex 17.5 2.11602540378444 5.5
    vertex 17.70710678118655 1.9571067811865488 5.5
  endloop
endfacet
facet normal 0.0 0.0 1.0
  outer loop
    vertex 17.776457135307563 4.147777478867205 5.5
    vertex 17.70710678118655 1.9571067811865488 5.5
    vertex 17.866025403784437 1.750000000000001 5.5
  endloop
endfacet
facet normal 0.0 0.0 1.0
  outer loop
    vertex 17.776457135307563 4.147777478867205 5.5
    vertex 17.866025403784437 1.750000000000001 5.5
    vertex 18.5 3.8480762113533165 5.5
  endloop
endfacet
facet normal 0.0 0.0 1.0
  outer loop
    vertex 18.5 3.8480762113533165 5.5
    vertex 17.866025403784437 1.750000000000001 5.5
    vertex 17.96592582628907 1.5088190451025216 5.5
  endloop
endfacet
facet normal 0.0 0.0 1.0
  outer loop
    vertex 18.5 3.8480762113533165 5.5
    vertex 17.96592582628907 1.5088190451025216 5.5
    vertex 18.0 1.2500000000000004 5.5
  endloop
endfacet
facet normal 0.0 0.0 1.0
  outer loop
    vertex 18.5 3.8480762113533165 5.5
    vertex 18.0 1.2500000000000004 5.5
    vertex 18.499999999999996 -1.3480762113533167 5.5
  endloop
endfacet
facet normal 0.0 0.0 1.0
  outer loop
    vertex 18.5 3.8480762113533165 5.5
    vertex 18.499999999999996 -1.3480762113533167 5.5
    vertex 19.121320343559642 -0.8713203435596427 5.5
  endloop
endfacet
facet normal 0.0 0.0 1.0
  outer loop
    vertex 18.5 3.8480762113533165 5.5
    vertex 19.121320343559642 -0.8713203435596427 5.5
    vertex 19.121320343559642 3.3713203435596433 5.5
  endloop
endfacet
facet normal 0.0 0.0 1.0
  outer loop
    vertex 19.121320343559642 3.3713203435596433 5.5
    vertex 19.121320343559642 -0.8713203435596427 5.5
    vertex 19.598076211353316 -0.25000000000000094 5.5
  endloop
endfacet
facet normal 0.0 0.0 1.0
  outer loop
    vertex 19.121320343559642 3.3713203435596433 5.5
    vertex 19.598076211353316 -0.25000000000000094 5.5
    vertex 19.598076211353316 2.7500000000000004 5.5
  endloop
endfacet
facet normal 0.0 0.0 1.0
  outer loop
    vertex 19.598076211353316 2.7500000000000004 5.5
    vertex 19.598076211353316 -0.25000000000000094 5.5
    vertex 19.897777478867205 0.4735428646924357 5.5
  endloop
endfacet
facet normal 0.0 0.0 1.0
  outer loop
    vertex 19.598076211353316 2.7500000000000004 5.5
    vertex 19.897777478867205 0.4735428646924357 5.5
    vertex 19.897777478867205 2.0264571353075627 5.5
  endloop
endfacet
facet normal 0.0 0.0 1.0
  outer loop
    vertex 19.897777478867205 2.0264571353075627 5.5
    vertex 19.897777478867205 0.4735428646924357 5.5
    vertex 20.0 1.2500000000000004 5.5
  endloop
endfacet
facet normal 0.0 0.0 1.0
  outer loop
    vertex -17.0 14.850000000000001 5.5
    vertex -13.349999999999998 13.350000000000001 5.5
    vertex 17.0 14.850000000000001 5.5
  endloop
endfacet
facet normal 0.0 0.0 1.0
  outer loop
    vertex -13.349999999999998 13.350000000000001 5.5
    vertex -17.0 14.850000000000001 5.5
    vertex -16.999999999999996 4.250000000000001 5.5
  endloop
endfacet
facet normal 0.0 0.0 1.0
  outer loop
    vertex -13.349999999999998 13.350000000000001 5.5
    vertex -16.999999999999996 4.250000000000001 5.5
    vertex -16.741180954897473 2.21592582628907 5.5
  endloop
endfacet
facet normal 0.0 0.0 1.0
  outer loop
    vertex -13.349999999999998 13.350000000000001 5.5
    vertex -16.741180954897473 2.21592582628907 5.5
    vertex -16.499999999999996 2.1160254037844397 5.5
  endloop
endfacet
facet normal 0.0 0.0 1.0
  outer loop
    vertex -13.349999999999998 13.350000000000001 5.5
    vertex -16.499999999999996 2.1160254037844397 5.5
    vertex -16.292893218813447 1.9571067811865483 5.5
  endloop
endfacet
facet normal 0.0 0.0 1.0
  outer loop
    vertex -13.349999999999998 13.350000000000001 5.5
    vertex -16.292893218813447 1.9571067811865483 5.5
    vertex -16.13397459621556 1.7500000000000007 5.5
  endloop
endfacet
facet normal 0.0 0.0 1.0
  outer loop
    vertex -13.349999999999998 13.350000000000001 5.5
    vertex -16.13397459621556 1.7500000000000007 5.5
    vertex -16.034074173710927 1.5088190451025212 5.5
  endloop
endfacet
facet normal 0.0 0.0 1.0
  outer loop
    vertex -13.349999999999998 13.350000000000001 5.5
    vertex -16.034074173710927 1.5088190451025212 5.5
    vertex -15.999999999999996 1.2500000000000004 5.5
  endloop
endfacet
facet normal 0.0 0.0 1.0
  outer loop
    vertex -13.349999999999998 13.350000000000001 5.5
    vertex -15.999999999999996 1.2500000000000004 5.5
    vertex -13.349999999999998 -13.350000000000007 5.5
  endloop
endfacet
facet normal 0.0 0.0 1.0
  outer loop
    vertex 17.0 14.850000000000001 5.5
    vertex -13.349999999999998 13.350000000000001 5.5
    vertex 13.349999999999998 13.350000000000001 5.5
  endloop
endfacet
facet normal 0.0 0.0 1.0
  outer loop
    vertex 17.0 14.850000000000001 5.5
    vertex 13.349999999999998 13.350000000000001 5.5
    vertex 13.350000000000001 -13.350000000000003 5.5
  endloop
endfacet
facet normal 0.0 0.0 1.0
  outer loop
    vertex 17.0 14.850000000000001 5.5
    vertex 13.350000000000001 -13.350000000000003 5.5
    vertex 15.999999999999998 1.2500000000000007 5.5
  endloop
endfacet
facet normal 0.0 0.0 1.0
  outer loop
    vertex 17.0 14.850000000000001 5.5
    vertex 15.999999999999998 1.2500000000000007 5.5
    vertex 16.03407417371093 1.5088190451025218 5.5
  endloop
endfacet
facet normal 0.0 0.0 1.0
  outer loop
    vertex 17.0 14.850000000000001 5.5
    vertex 16.03407417371093 1.5088190451025218 5.5
    vertex 16.13397459621556 1.7500000000000013 5.5
  endloop
endfacet
facet normal 0.0 0.0 1.0
  outer loop
    vertex 17.0 14.850000000000001 5.5
    vertex 16.13397459621556 1.7500000000000013 5.5
    vertex 16.29289321881345 1.9571067811865488 5.5
  endloop
endfacet
facet normal 0.0 0.0 1.0
  outer loop
    vertex 17.0 14.850000000000001 5.5
    vertex 16.29289321881345 1.9571067811865488 5.5
    vertex 16.5 2.11602540378444 5.5
  endloop
endfacet
facet normal 0.0 0.0 1.0
  outer loop
    vertex 17.0 14.850000000000001 5.5
    vertex 16.5 2.11602540378444 5.5
    vertex 16.74118095489748 2.21592582628907 5.5
  endloop
endfacet
facet normal 0.0 0.0 1.0
  outer loop
    vertex 17.0 14.850000000000001 5.5
    vertex 16.74118095489748 2.21592582628907 5.5
    vertex 17.0 2.2500000000000013 5.5
  endloop
endfacet
facet normal 0.0 0.0 1.0
  outer loop
    vertex 17.0 14.850000000000001 5.5
    vertex 17.0 2.2500000000000013 5.5
    vertex 17.0 4.250000000000001 5.5
  endloop
endfacet
facet normal 0.0 0.0 1.0
  outer loop
    vertex -19.8977774788672 0.4735428646924383 5.5
    vertex -19.8977774788672 2.0264571353075653 5.5
    vertex -19.999999999999996 1.2500000000000004 5.5
  endloop
endfacet
facet normal 0.0 0.0 1.0
  outer loop
    vertex -19.8977774788672 2.0264571353075653 5.5
    vertex -19.8977774788672 0.4735428646924383 5.5
    vertex -19.598076211353316 -0.24999999999999936 5.5
  endloop
endfacet
facet normal 0.0 0.0 1.0
  outer loop
    vertex -19.8977774788672 2.0264571353075653 5.5
    vertex -19.598076211353316 -0.24999999999999936 5.5
    vertex -19.598076211353312 2.750000000000002 5.5
  endloop
endfacet
facet normal 0.0 0.0 1.0
  outer loop
    vertex -19.598076211353312 2.750000000000002 5.5
    vertex -19.598076211353316 -0.24999999999999936 5.5
    vertex -19.12132034355964 -0.8713203435596424 5.5
  endloop
endfacet
facet normal 0.0 0.0 1.0
  outer loop
    vertex -19.598076211353312 2.750000000000002 5.5
    vertex -19.12132034355964 -0.8713203435596424 5.5
    vertex -19.12132034355964 3.371320343559644 5.5
  endloop
endfacet
facet normal 0.0 0.0 1.0
  outer loop
    vertex -19.12132034355964 3.371320343559644 5.5
    vertex -19.12132034355964 -0.8713203435596424 5.5
    vertex -18.499999999999996 -1.3480762113533151 5.5
  endloop
endfacet
facet normal 0.0 0.0 1.0
  outer loop
    vertex -19.12132034355964 3.371320343559644 5.5
    vertex -18.499999999999996 -1.3480762113533151 5.5
    vertex -18.499999999999993 3.8480762113533182 5.5
  endloop
endfacet
facet normal 0.0 0.0 1.0
  outer loop
    vertex -18.499999999999993 3.8480762113533182 5.5
    vertex -18.499999999999996 -1.3480762113533151 5.5
    vertex -17.77645713530756 -1.6477774788672044 5.5
  endloop
endfacet
facet normal 0.0 0.0 1.0
  outer loop
    vertex -18.499999999999993 3.8480762113533182 5.5
    vertex -17.77645713530756 -1.6477774788672044 5.5
    vertex -17.999999999999996 1.2500000000000004 5.5
  endloop
endfacet
facet normal 0.0 0.0 1.0
  outer loop
    vertex -17.999999999999996 1.2500000000000004 5.5
    vertex -17.77645713530756 -1.6477774788672044 5.5
    vertex -17.965925826289066 0.9911809548974795 5.5
  endloop
endfacet
facet normal 0.0 0.0 1.0
  outer loop
    vertex -17.965925826289066 0.9911809548974795 5.5
    vertex -17.77645713530756 -1.6477774788672044 5.5
    vertex -17.866025403784437 0.7500000000000001 5.5
  endloop
endfacet
facet normal 0.0 0.0 1.0
  outer loop
    vertex -17.866025403784437 0.7500000000000001 5.5
    vertex -17.77645713530756 -1.6477774788672044 5.5
    vertex -17.707106781186546 0.5428932188134523 5.5
  endloop
endfacet
facet normal 0.0 0.0 1.0
  outer loop
    vertex -17.707106781186546 0.5428932188134523 5.5
    vertex -17.77645713530756 -1.6477774788672044 5.5
    vertex -16.999999999999996 -1.7499999999999996 5.5
  endloop
endfacet
facet normal 0.0 0.0 1.0
  outer loop
    vertex -17.707106781186546 0.5428932188134523 5.5
    vertex -16.999999999999996 -1.7499999999999996 5.5
    vertex -17.5 0.383974596215561 5.5
  endloop
endfacet
facet normal 0.0 0.0 1.0
  outer loop
    vertex -17.5 0.383974596215561 5.5
    vertex -16.999999999999996 -1.7499999999999996 5.5
    vertex -17.258819045102516 0.2840741737109313 5.5
  endloop
endfacet
facet normal 0.0 0.0 1.0
  outer loop
    vertex -17.258819045102516 0.2840741737109313 5.5
    vertex -16.999999999999996 -1.7499999999999996 5.5
    vertex -16.999999999999996 0.24999999999999953 5.5
  endloop
endfacet
facet normal -1.0 -5.906688196873166e-17 1.0682430921461e-16
  outer loop
    vertex 13.349999999999998 13.350000000000001 5.5
    vertex 13.350000000000001 -13.350000000000003 1.9999999999999998
    vertex 13.350000000000001 -13.350000000000003 5.5
  endloop
endfacet
facet normal -1.0 -5.906688196873166e-17 1.0682430921461e-16
  outer loop
    vertex 13.350000000000001 -13.350000000000003 1.9999999999999998
    vertex 13.349999999999998 13.350000000000001 5.5
    vertex 13.349999999999998 -9.250000000000004 1.9999999999999998
  endloop
endfacet
facet normal -1.0 -5.906688196873166e-17 1.0682430921461e-16
  outer loop
    vertex 13.349999999999998 -9.250000000000004 1.9999999999999998
    vertex 13.349999999999998 13.350000000000001 5.5
    vertex 13.349999999999998 -9.250000000000004 2.8092840516264366e-15
  endloop
endfacet
facet normal -1.0 -5.906688196873166e-17 1.0682430921461e-16
  outer loop
    vertex 13.349999999999998 -9.250000000000004 2.8092840516264366e-15
    vertex 13.349999999999998 13.350000000000001 5.5
    vertex 13.349999999999998 9.250000000000004 1.9999999999999998
  endloop
endfacet
facet normal -1.0 -5.906688196873166e-17 1.0682430921461e-16
  outer loop
    vertex 13.349999999999998 9.250000000000004 1.9999999999999998
    vertex 13.349999999999998 13.350000000000001 5.5
    vertex 13.349999999999998 13.350000000000001 1.9999999999999998
  endloop
endfacet
facet normal -1.0 -5.906688196873166e-17 1.0682430921461e-16
  outer loop
    vertex 13.349999999999998 9.250000000000004 2.4567882413079493e-15
    vertex 13.349999999999998 -9.250000000000004 2.8092840516264366e-15
    vertex 13.349999999999998 9.250000000000004 1.9999999999999998
  endloop
endfacet
facet normal -5.906688196873166e-17 1.0 -0.0
  outer loop
    vertex 13.249999999999998 -9.250000000000004 2.8199664825478975e-15
    vertex 13.349999999999998 -9.250000000000004 1.9999999999999998
    vertex 13.349999999999998 -9.250000000000004 2.8092840516264366e-15
  endloop
endfacet
facet normal -5.906688196873166e-17 1.0 -0.0
  outer loop
    vertex 13.349999999999998 -9.250000000000004 1.9999999999999998
    vertex 13.249999999999998 -9.250000000000004 2.8199664825478975e-15
    vertex 13.249999999999998 -9.250000000000004 1.9999999999999998
  endloop
endfacet
facet normal 5.906688196873166e-17 -1.0 -0.0
  outer loop
    vertex 13.349999999999998 9.250000000000004 1.9999999999999998
    vertex 13.249999999999998 9.250000000000004 2.46747067222941e-15
    vertex 13.349999999999998 9.250000000000004 2.4567882413079493e-15
  endloop
endfacet
facet normal 5.906688196873166e-17 -1.0 -0.0
  outer loop
    vertex 13.249999999999998 9.250000000000004 2.46747067222941e-15
    vertex 13.349999999999998 9.250000000000004 1.9999999999999998
    vertex 13.249999999999998 9.250000000000004 1.9999999999999998
  endloop
endfacet
facet normal 6.409458552876602e-17 -1.0 -8.8049020246365e-17
  outer loop
    vertex 9.249999999999998 13.350000000000003 1.999999999999998
    vertex -9.249999999999993 13.350000000000001 2.4762755742540465e-15
    vertex 9.249999999999998 13.350000000000003 7.137965226616109e-16
  endloop
endfacet
facet normal 6.409458552876602e-17 -1.0 -8.8049020246365e-17
  outer loop
    vertex -9.249999999999993 13.350000000000001 2.4762755742540465e-15
    vertex 9.249999999999998 13.350000000000003 1.999999999999998
    vertex -9.25 13.350000000000001 1.9999999999999984
  endloop
endfacet
facet normal 6.409458552876602e-17 -1.0 -8.8049020246365e-17
  outer loop
    vertex -9.25 13.350000000000001 1.9999999999999984
    vertex 9.249999999999998 13.350000000000003 1.999999999999998
    vertex 13.349999999999998 13.350000000000001 1.9999999999999998
  endloop
endfacet
facet normal 6.409458552876602e-17 -1.0 -8.8049020246365e-17
  outer loop
    vertex -9.25 13.350000000000001 1.9999999999999984
    vertex 13.349999999999998 13.350000000000001 1.9999999999999998
    vertex -13.349999999999998 13.350000000000001 1.9999999999999998
  endloop
endfacet
facet normal 6.409458552876602e-17 -1.0 -8.8049020246365e-17
  outer loop
    vertex -13.349999999999998 13.350000000000001 1.9999999999999998
    vertex 13.349999999999998 13.350000000000001 1.9999999999999998
    vertex 13.349999999999998 13.350000000000001 5.5
  endloop
endfacet
facet normal 6.409458552876602e-17 -1.0 -8.8049020246365e-17
  outer loop
    vertex -13.349999999999998 13.350000000000001 1.9999999999999998
    vertex 13.349999999999998 13.350000000000001 5.5
    vertex -13.349999999999998 13.350000000000001 5.5
  endloop
endfacet
facet normal -1.0 -6.409458552876602e-17 0.0
  outer loop
    vertex 9.249999999999998 13.350000000000003 1.999999999999998
    vertex 9.249999999999998 13.250000000000004 7.049916206369744e-16
    vertex 9.249999999999998 13.250000000000004 1.999999999999998
  endloop
endfacet
facet normal -1.0 -6.409458552876602e-17 0.0
  outer loop
    vertex 9.249999999999998 13.250000000000004 7.049916206369744e-16
    vertex 9.249999999999998 13.350000000000003 1.999999999999998
    vertex 9.249999999999998 13.350000000000003 7.137965226616109e-16
  endloop
endfacet
facet normal 1.0 6.409458552876571e-17 3.5249581031848787e-15
  outer loop
    vertex -9.249999999999993 13.350000000000001 2.4762755742540465e-15
    vertex -9.25 13.250000000000002 1.9999999999999984
    vertex -9.249999999999993 13.250000000000002 2.46747067222941e-15
  endloop
endfacet
facet normal 1.0 6.409458552876571e-17 3.5249581031848787e-15
  outer loop
    vertex -9.25 13.250000000000002 1.9999999999999984
    vertex -9.249999999999993 13.350000000000001 2.4762755742540465e-15
    vertex -9.25 13.350000000000001 1.9999999999999984
  endloop
endfacet
facet normal -1.1927384356143815e-16 1.0 -7.302901469618242e-19
  outer loop
    vertex -9.249999999999998 -13.350000000000007 1.9999999999999984
    vertex 9.250000000000004 -13.350000000000003 7.302901469618243e-20
    vertex -9.24999999999999 -13.350000000000007 7.302901469618243e-20
  endloop
endfacet
facet normal -1.1927384356143815e-16 1.0 -7.302901469618242e-19
  outer loop
    vertex 9.250000000000004 -13.350000000000003 7.302901469618243e-20
    vertex -9.249999999999998 -13.350000000000007 1.9999999999999984
    vertex 9.25 -13.350000000000003 1.999999999999998
  endloop
endfacet
facet normal -1.1927384356143815e-16 1.0 -7.302901469618242e-19
  outer loop
    vertex 9.25 -13.350000000000003 1.999999999999998
    vertex -9.249999999999998 -13.350000000000007 1.9999999999999984
    vertex 13.350000000000001 -13.350000000000003 1.9999999999999998
  endloop
endfacet
facet normal -1.1927384356143815e-16 1.0 -7.302901469618242e-19
  outer loop
    vertex 13.350000000000001 -13.350000000000003 1.9999999999999998
    vertex -9.249999999999998 -13.350000000000007 1.9999999999999984
    vertex -13.349999999999998 -13.350000000000007 1.9999999999999998
  endloop
endfacet
facet normal -1.1927384356143815e-16 1.0 -7.302901469618242e-19
  outer loop
    vertex 13.350000000000001 -13.350000000000003 1.9999999999999998
    vertex -13.349999999999998 -13.350000000000007 1.9999999999999998
    vertex -13.349999999999998 -13.350000000000007 5.5
  endloop
endfacet
facet normal -1.1927384356143815e-16 1.0 -7.302901469618242e-19
  outer loop
    vertex 13.350000000000001 -13.350000000000003 1.9999999999999998
    vertex -13.349999999999998 -13.350000000000007 5.5
    vertex 13.350000000000001 -13.350000000000003 5.5
  endloop
endfacet
facet normal 1.0 1.1927384356143817e-16 4.22994972382185e-15
  outer loop
    vertex -9.24999999999999 -13.250000000000007 0.0
    vertex -9.249999999999998 -13.350000000000007 1.9999999999999984
    vertex -9.24999999999999 -13.350000000000007 7.302901469618243e-20
  endloop
endfacet
facet normal 1.0 1.1927384356143817e-16 4.22994972382185e-15
  outer loop
    vertex -9.249999999999998 -13.350000000000007 1.9999999999999984
    vertex -9.24999999999999 -13.250000000000007 0.0
    vertex -9.249999999999998 -13.250000000000007 1.9999999999999984
  endloop
endfacet
facet normal -1.0 -1.1927384356143815e-16 -1.4099832412739501e-15
  outer loop
    vertex 9.25 -13.250000000000004 1.999999999999998
    vertex 9.250000000000004 -13.350000000000003 7.302901469618243e-20
    vertex 9.25 -13.350000000000003 1.999999999999998
  endloop
endfacet
facet normal -1.0 -1.1927384356143815e-16 -1.4099832412739501e-15
  outer loop
    vertex 9.250000000000004 -13.350000000000003 7.302901469618243e-20
    vertex 9.25 -13.250000000000004 1.999999999999998
    vertex 9.250000000000004 -13.250000000000004 0.0
  endloop
endfacet
facet normal 1.0 0.0 0.0
  outer loop
    vertex -13.349999999999998 -9.250000000000005 1.9999999999999942
    vertex -13.349999999999998 -13.350000000000007 5.5
    vertex -13.349999999999998 -13.350000000000007 1.9999999999999998
  endloop
endfacet
facet normal 1.0 0.0 0.0
  outer loop
    vertex -13.349999999999998 -13.350000000000007 5.5
    vertex -13.349999999999998 -9.250000000000005 1.9999999999999942
    vertex -13.349999999999998 13.350000000000001 5.5
  endloop
endfacet
facet normal 1.0 0.0 0.0
  outer loop
    vertex -13.349999999999998 13.350000000000001 5.5
    vertex -13.349999999999998 -9.250000000000005 1.9999999999999942
    vertex -13.349999999999998 -9.249999999999996 0.0
  endloop
endfacet
facet normal 1.0 0.0 0.0
  outer loop
    vertex -13.349999999999998 13.350000000000001 5.5
    vertex -13.349999999999998 -9.249999999999996 0.0
    vertex -13.349999999999998 9.250000000000018 1.9999999999999942
  endloop
endfacet
facet normal 1.0 0.0 0.0
  outer loop
    vertex -13.349999999999998 9.250000000000018 1.9999999999999942
    vertex -13.349999999999998 -9.249999999999996 0.0
    vertex -13.349999999999998 9.25000000000001 -1.762479051592436e-15
  endloop
endfacet
facet normal 1.0 0.0 0.0
  outer loop
    vertex -13.349999999999998 13.350000000000001 5.5
    vertex -13.349999999999998 9.250000000000018 1.9999999999999942
    vertex -13.349999999999998 13.350000000000001 1.9999999999999998
  endloop
endfacet
facet normal -0.0 -1.0 3.5249581031848787e-15
  outer loop
    vertex -13.249999999999998 9.250000000000018 1.9999999999999942
    vertex -13.349999999999998 9.25000000000001 -1.762479051592436e-15
    vertex -13.249999999999998 9.25000000000001 -1.762479051592436e-15
  endloop
endfacet
facet normal -0.0 -1.0 3.5249581031848787e-15
  outer loop
    vertex -13.349999999999998 9.25000000000001 -1.762479051592436e-15
    vertex -13.249999999999998 9.250000000000018 1.9999999999999942
    vertex -13.349999999999998 9.250000000000018 1.9999999999999942
  endloop
endfacet
facet normal 0.0 1.0 4.934941344458835e-15
  outer loop
    vertex -13.349999999999998 -9.250000000000005 1.9999999999999942
    vertex -13.249999999999998 -9.249999999999996 0.0
    vertex -13.349999999999998 -9.249999999999996 0.0
  endloop
endfacet
facet normal 0.0 1.0 4.934941344458835e-15
  outer loop
    vertex -13.249999999999998 -9.249999999999996 0.0
    vertex -13.349999999999998 -9.250000000000005 1.9999999999999942
    vertex -13.249999999999998 -9.250000000000005 1.9999999999999942
  endloop
endfacet
endsolid OLED type 2
